<svg width="247" height="253" viewBox="0 0 247 253" fill="none" xmlns="http://www.w3.org/2000/svg">
<path d="M247 127.021L237.473 121.498V126.883H227.118L139.309 39.0726C143.174 34.9307 145.66 29.408 145.66 23.1951C145.66 10.493 135.305 0 122.464 0C109.624 0 99.2694 10.3549 99.2694 23.1951C99.2694 29.408 101.755 34.9307 105.62 39.2107L17.9486 126.883H9.52656V121.498L0 127.021L9.52656 132.543V128.263H17.9486L121.912 232.227V239.821L114.319 252.937H131.853L123.293 238.164V231.675L226.842 128.125H237.197V132.405L247 127.021ZM218.282 126.883L206.685 110.591L222.977 126.883H218.282ZM136.547 40.3153C132.958 43.3527 128.263 45.1476 123.155 45.4237V41.1436C127.021 41.0056 130.61 39.6249 133.51 37.2778L136.547 40.3153ZM209.17 128.263L201.852 147.454L204.338 128.263H209.17ZM204.338 126.883L199.643 104.93L209.584 126.883H204.338ZM202.957 126.883H194.811C194.673 110.867 189.288 95.9558 180.176 84.0822L197.296 101.202L202.957 126.883ZM180.866 126.883C180.452 126.192 179.762 125.778 178.933 125.778C178.105 125.778 177.415 126.192 177.001 126.883H170.926C170.788 115.561 166.784 105.206 160.018 97.0603L189.841 126.883H180.866ZM126.606 174.377C126.468 173.549 126.054 172.859 125.502 172.306L169.545 128.263C169.131 152.425 150.354 172.306 126.606 174.377ZM75.6601 128.263L120.117 172.721C119.703 173.273 119.427 173.825 119.427 174.377C95.1275 172.72 75.9363 152.701 75.6601 128.263ZM68.4807 126.883C68.0665 126.192 67.3762 125.778 66.5478 125.778C65.7194 125.778 65.0291 126.192 64.6149 126.883H55.3644L85.1867 97.0603C78.5595 105.206 74.5556 115.561 74.2795 126.883H68.4807ZM123.017 171.34C122.326 171.34 121.774 171.478 121.222 171.892L77.0408 127.711L121.084 83.668C121.636 84.0822 122.326 84.3583 123.155 84.3583C123.707 84.3583 124.259 84.2202 124.674 83.9441L168.44 127.711L124.397 171.754C123.845 171.34 123.431 171.34 123.017 171.34ZM125.64 82.9776C126.192 82.4254 126.606 81.597 126.606 80.7686C150.354 82.8396 169.131 102.721 169.545 126.883L125.64 82.9776ZM126.468 79.3879C126.054 78.0073 124.812 76.9027 123.155 76.7647V60.1968L152.977 90.019C145.66 84.0821 136.547 80.2163 126.468 79.3879ZM121.774 76.9027C120.67 77.3169 119.841 78.1453 119.427 79.2498C109.072 79.9402 99.5455 83.806 91.9519 90.019L121.774 60.1968V76.9027ZM119.289 80.6305C119.289 81.3208 119.565 82.0111 119.979 82.4253L75.6601 126.745C75.9363 102.307 95.1274 82.4254 119.289 80.6305ZM124.95 57.9877C161.399 59.2303 190.807 88.6383 192.05 125.088L124.95 57.9877ZM53.0173 125.226C54.2599 88.7764 83.668 59.3684 120.117 58.1258L53.0173 125.226ZM64.2007 128.263C64.3388 129.368 65.3052 130.334 66.4097 130.334C67.5142 130.334 68.4807 129.506 68.6188 128.263H74.1414C74.2795 139.585 78.2834 149.94 85.0486 158.086L55.2264 128.263H64.2007ZM119.427 175.758C119.703 177.139 120.808 178.243 122.188 178.519V195.087L92.09 164.989C99.5455 171.202 109.072 175.068 119.427 175.758ZM123.431 178.657C124.95 178.381 126.192 177.277 126.468 175.758C136.409 174.93 145.66 171.064 152.977 165.127L123.431 194.673V178.657ZM170.926 128.263H176.724C176.863 129.368 177.829 130.334 178.933 130.334C180.038 130.334 181.004 129.506 181.143 128.263H189.841L160.018 158.086C166.646 149.94 170.788 139.585 170.926 128.263ZM123.155 55.2264V46.3901C128.539 46.2521 133.372 44.1811 137.238 41.0056L166.093 69.8614C154.082 60.749 139.309 55.3644 123.155 55.2264ZM123.155 40.0391V26.9229L132.681 36.4494C130.196 38.6585 126.883 39.9011 123.155 40.0391ZM121.774 45.4237C116.666 45.2856 112.11 43.4908 108.382 40.4533L121.774 27.0609V45.4237ZM121.774 46.3901V55.2264C105.759 55.3644 90.8474 60.749 78.9737 69.8614L107.691 41.1436C111.557 44.3192 116.528 46.2521 121.774 46.3901ZM50.256 126.883H42.9385L48.7373 100.098L64.891 83.9441C55.7787 95.9558 50.3941 110.729 50.256 126.883ZM41.5579 126.883H36.4494L46.3902 104.93L41.5579 126.883ZM41.6959 128.263L44.1811 147.454L36.8636 128.263H41.6959ZM34.9307 126.883H29.4081L44.8714 105.068L34.9307 126.883ZM35.3449 128.263L42.6624 147.454L30.0984 128.263H35.3449ZM43.0766 128.263H50.256C50.3941 144.279 55.7787 159.19 64.891 171.064L46.2521 152.425L43.0766 128.263ZM53.0173 129.92L120.117 197.02C83.668 195.777 54.2599 166.369 53.0173 129.92ZM192.05 129.92C190.807 166.369 161.399 195.777 124.95 197.02L192.05 129.92ZM194.949 128.263H202.957L199.919 151.458L180.314 171.064C189.288 159.19 194.673 144.279 194.949 128.263ZM210.551 128.263H215.797L203.233 147.454L210.551 128.263ZM211.103 126.883L201.3 105.068L216.764 126.883H211.103ZM100.374 23.3331C100.374 11.1833 110.315 1.24259 122.464 1.24259C134.614 1.24259 144.555 11.1833 144.555 23.3331C144.555 29.1319 142.208 34.5165 138.618 38.3823L135.581 35.3449C138.48 32.1694 140.275 27.8893 140.275 23.1951C140.275 13.5304 132.681 5.79876 123.155 5.38456L122.741 3.03745L117.77 7.17942L123.845 9.38847L123.293 6.4891C132.129 7.04136 139.17 14.3588 139.17 23.3331C139.17 27.7512 137.514 31.7552 134.752 34.6545L122.464 22.3667L106.311 38.5204C102.721 34.5165 100.374 29.1319 100.374 23.3331ZM41.1437 107.691L27.6132 126.883H21.9525L41.1437 107.691ZM28.4416 128.263L40.8675 147.04L22.0906 128.263H28.4416ZM78.9737 185.284C90.9855 194.397 105.897 199.781 122.05 199.919V205.856C121.222 206.132 120.67 206.961 120.67 207.927C120.67 208.894 121.222 209.722 122.05 209.998V215.107C120.67 215.521 119.565 216.764 119.565 218.282C119.565 219.801 120.67 221.044 122.05 221.458V228.361L78.9737 185.284ZM123.431 221.596C124.95 221.32 126.192 219.939 126.192 218.42C126.192 216.764 124.95 215.383 123.431 215.245V210.274C124.397 209.998 125.226 209.17 125.226 208.065C125.226 206.961 124.535 206.132 123.431 205.856V199.919C139.447 199.781 154.082 194.259 166.093 185.284L123.431 227.947V221.596ZM206.685 144.693L217.454 128.263H222.977L206.685 144.693Z" fill="#DEBB35"/>
<path d="M122.602 93.1943L88.2236 127.573L122.602 161.951L156.98 127.573L122.602 93.1943ZM90.1565 127.573L122.602 95.1273L155.048 127.573L122.602 160.018L90.1565 127.573Z" fill="#DEBB35"/>
<path d="M122.603 109.963L105.03 127.536L122.603 145.109L140.175 127.536L122.603 109.963Z" fill="#DEBB35"/>
</svg>
