<svg width="108" height="94" viewBox="0 0 108 94" fill="none" xmlns="http://www.w3.org/2000/svg">
<path d="M77.4099 62.0985H65.7099H31.6099L48.6099 32.5985L65.7099 2.99854L82.8099 32.5985" stroke="white" stroke-width="3" stroke-miterlimit="10"/>
<path d="M41.91 15.9985L59.0101 45.5985L76.0101 75.0985H41.91H7.81006L24.91 45.5985L41.91 15.9985Z" stroke="#0B0017" stroke-width="9" stroke-miterlimit="10"/>
<path d="M41.91 15.9985L59.0101 45.5985L76.0101 75.0985H41.91H7.81006L24.91 45.5985L41.91 15.9985Z" stroke="white" stroke-width="3" stroke-miterlimit="10"/>
<path d="M43.4102 68.5986L48.6102 59.3986L52.6102 52.5986" stroke="white" stroke-width="3" stroke-miterlimit="10"/>
<path d="M65.7099 88.9986H31.6099L43.4099 68.5986" stroke="#0B0017" stroke-width="9" stroke-miterlimit="10"/>
<path d="M65.7099 88.9986H31.6099L43.4099 68.5986" stroke="white" stroke-width="3" stroke-miterlimit="10"/>
<path d="M78.81 52.5986L82.81 59.3986L99.81 88.9986H65.71" stroke="white" stroke-width="3" stroke-miterlimit="10"/>
<path d="M52.6099 52.5984L65.7099 29.8984L78.8099 52.5984" stroke="#0B0017" stroke-width="9" stroke-miterlimit="10"/>
<path d="M51.5103 54.3984L65.7103 29.8984L79.6102 53.9984" stroke="white" stroke-width="3" stroke-miterlimit="10"/>
<path d="M82.8102 32.5986L99.8102 62.0986H77.4102" stroke="#0B0017" stroke-width="9" stroke-miterlimit="10"/>
<path d="M81.41 30.2983L99.81 62.0983H75.21" stroke="white" stroke-width="3" stroke-miterlimit="10"/>
</svg>
