<svg width="171" height="156" viewBox="0 0 171 156" fill="none" xmlns="http://www.w3.org/2000/svg">
<g id="Group">
<path id="Vector" d="M88.6001 103.2H98.8001L93.7001 94.3999L88.6001 103.2Z" fill="white"/>
<path id="Vector_2" d="M88.6001 71.6999H98.8001L93.7001 62.8999L88.6001 71.6999Z" fill="white"/>
<path id="Vector_3" d="M93.7 54.7998L91 59.4998H96.5L93.7 54.7998Z" fill="white"/>
<path id="Vector_4" d="M112.1 6.7998H99.2L105.7 17.9998L112.1 6.7998Z" fill="white"/>
<path id="Vector_5" d="M81.2 17.9998L87.6 6.7998H74.7L81.2 17.9998Z" fill="white"/>
<path id="Vector_6" d="M118 90.5002C117.9 90.3002 117.7 90.3002 117.5 90.4002C117.3 90.5002 117.3 90.7002 117.4 90.9002C117.6 91.2002 117.7 91.5001 117.9 91.8001C118 91.9001 118.1 92.0002 118.2 92.0002C118.3 92.0002 118.3 92.0002 118.4 92.0002C118.6 91.9002 118.6 91.7002 118.5 91.5002C118.3 91.1002 118.1 90.8002 118 90.5002Z" fill="white"/>
<path id="Vector_7" d="M121.7 104.9C121.5 104.9 121.3 105.1 121.3 105.3C121.3 105.6 121.3 106 121.3 106.3C121.3 106.5 121.5 106.7 121.7 106.7C121.9 106.7 122.1 106.5 122.1 106.3C122.1 106 122.1 105.6 122.1 105.3C122.1 105.1 121.9 104.9 121.7 104.9Z" fill="white"/>
<path id="Vector_8" d="M66.9 97.2001C67 97.0001 66.8 96.8001 66.6 96.7001C66.4 96.6001 66.2 96.8001 66.1 96.9001C66 97.2001 65.9 97.5001 65.8 97.9001C65.7 98.1001 65.9 98.3001 66.1 98.4001H66.2C66.4 98.4001 66.5 98.3001 66.6 98.1001C66.7 97.8001 66.8 97.5001 66.9 97.2001Z" fill="white"/>
<path id="Vector_9" d="M81.7 79.1999C81.4 79.2999 81.1 79.4999 80.8 79.5999C80.6 79.6999 80.5 79.8999 80.6 80.0999C80.7 80.1999 80.8 80.2999 80.9 80.2999C81 80.2999 81 80.2999 81.1 80.2999C81.4 80.1999 81.7 79.9999 82 79.8999C82.2 79.7999 82.3 79.5999 82.2 79.3999C82.1 79.1999 81.9 79.0999 81.7 79.1999Z" fill="white"/>
<path id="Vector_10" d="M101.6 131.9C101.3 132 101 132.1 100.7 132.2C100.5 132.3 100.4 132.5 100.4 132.7C100.4 132.9 100.6 133 100.8 133H100.9C101.2 132.9 101.6 132.8 101.9 132.7C102.1 132.6 102.2 132.4 102.2 132.2C102 132 101.8 131.9 101.6 131.9Z" fill="white"/>
<path id="Vector_11" d="M87.5 77.2998C87.2 77.3998 86.8 77.3998 86.5 77.4998C86.3 77.5998 86.2 77.7998 86.2 77.9998C86.2 78.1998 86.4 78.2998 86.6 78.2998H86.7C87 78.1998 87.3 78.0998 87.7 78.0998C87.9 78.0998 88 77.8998 88 77.6998C87.9 77.3998 87.7 77.2998 87.5 77.2998Z" fill="white"/>
<path id="Vector_12" d="M114.3 85.6002C114.2 85.4002 113.9 85.4002 113.8 85.6002C113.6 85.7002 113.6 86.0002 113.8 86.1002C114 86.3002 114.2 86.6002 114.5 86.8002C114.6 86.9002 114.7 86.9002 114.8 86.9002C114.9 86.9002 115 86.9002 115 86.8002C115.2 86.7002 115.2 86.4002 115 86.3002C114.8 86.1002 114.5 85.9002 114.3 85.6002Z" fill="white"/>
<path id="Vector_13" d="M72.0001 86.4002C71.8001 86.7002 71.6001 86.9002 71.3001 87.2002C71.2001 87.4002 71.2001 87.6002 71.4001 87.7002C71.5001 87.8002 71.6001 87.8002 71.6001 87.8002C71.7001 87.8002 71.8001 87.8002 71.9001 87.7002C72.1001 87.4002 72.3001 87.2002 72.5001 86.9002C72.6001 86.7002 72.6001 86.5002 72.5001 86.4002C72.4001 86.3002 72.1001 86.3002 72.0001 86.4002Z" fill="white"/>
<path id="Vector_14" d="M93.5001 76.7002C93.2001 76.7002 92.8001 76.7002 92.5001 76.7002C92.3001 76.7002 92.1001 76.9002 92.1001 77.1002C92.1001 77.3002 92.3001 77.5002 92.5001 77.5002C92.8001 77.5002 93.2001 77.5002 93.5001 77.5002C93.7001 77.5002 93.9001 77.3002 93.9001 77.1002C93.9001 76.9002 93.7001 76.7002 93.5001 76.7002Z" fill="white"/>
<path id="Vector_15" d="M84.2 131.5C83.9 131.4 83.6 131.3 83.3 131.2C83.1 131.1 82.9 131.2 82.8 131.4C82.7 131.6 82.8 131.8 83 131.9C83.3 132 83.6 132.1 84 132.3H84.1C84.3 132.3 84.4 132.2 84.5 132.1C84.5 131.8 84.4 131.6 84.2 131.5Z" fill="white"/>
<path id="Vector_16" d="M89.9 132.9C89.6 132.9 89.2 132.8 88.9 132.8C88.7 132.8 88.5 132.9 88.5 133.1C88.5 133.3 88.6 133.5 88.8 133.5C89.1 133.6 89.5 133.6 89.8 133.6C90 133.6 90.1 133.5 90.2 133.3C90.3 133.1 90.1 132.9 89.9 132.9Z" fill="white"/>
<path id="Vector_17" d="M105.3 79.2C105 79.1 104.7 78.9 104.4 78.8C104.2 78.7 104 78.8 103.9 79C103.8 79.2 103.9 79.4 104.1 79.5C104.4 79.6 104.7 79.8 105 79.9C105.1 79.9 105.1 79.9 105.2 79.9C105.3 79.9 105.5 79.8 105.5 79.7C105.6 79.5 105.5 79.3 105.3 79.2Z" fill="white"/>
<path id="Vector_18" d="M109.7 81.7C109.5 81.6 109.3 81.6 109.2 81.8C109.1 82 109.1 82.2 109.3 82.3C109.6 82.5 109.8 82.7 110.1 82.9C110.2 82.9 110.2 83 110.3 83C110.4 83 110.5 82.9 110.6 82.8C110.7 82.6 110.7 82.4 110.5 82.3C110.2 82.1 110 81.9 109.7 81.7Z" fill="white"/>
<path id="Vector_19" d="M99.5001 77.3001C99.2001 77.2001 98.8001 77.2001 98.5001 77.1001C98.3001 77.1001 98.1001 77.2001 98.1001 77.4001C98.1001 77.6001 98.2001 77.8001 98.4001 77.8001C98.7001 77.9001 99.0001 77.9001 99.4001 78.0001H99.5001C99.7001 78.0001 99.8001 77.9001 99.9001 77.7001C99.8001 77.6001 99.7001 77.4001 99.5001 77.3001Z" fill="white"/>
<path id="Vector_20" d="M76.5001 82.3001C76.2001 82.5001 76.0001 82.7001 75.7001 82.9001C75.5001 83.0001 75.5001 83.3001 75.6001 83.4001C75.7001 83.5001 75.8001 83.5001 75.9001 83.5001C76.0001 83.5001 76.1001 83.5001 76.1001 83.4001C76.4001 83.2001 76.6001 83.0001 76.9001 82.8001C77.1001 82.7001 77.1001 82.4001 77.0001 82.3001C76.9001 82.2001 76.6001 82.2001 76.5001 82.3001Z" fill="white"/>
<path id="Vector_21" d="M120.7 111.2C120.6 111.5 120.6 111.8 120.5 112.2C120.4 112.4 120.6 112.6 120.8 112.7H120.9C121.1 112.7 121.2 112.6 121.3 112.4C121.4 112.1 121.5 111.7 121.5 111.4C121.5 111.2 121.4 111 121.2 111C121 110.8 120.8 111 120.7 111.2Z" fill="white"/>
<path id="Vector_22" d="M120.1 97.0999C120.1 97.2999 120.3 97.3999 120.5 97.3999H120.6C120.8 97.2999 120.9 97.0999 120.8 96.8999C120.7 96.5999 120.6 96.2999 120.5 95.8999C120.4 95.6999 120.2 95.5999 120 95.6999C119.8 95.7999 119.7 95.9999 119.8 96.1999C119.9 96.4999 120 96.7999 120.1 97.0999Z" fill="white"/>
<path id="Vector_23" d="M65.3 104.3C65.5 104.3 65.7 104.1 65.7 103.9C65.7 103.6 65.7 103.2 65.8 102.9C65.8 102.7 65.7 102.5 65.5 102.5C65.3 102.5 65.1 102.6 65.1 102.8C65.1 103.1 65.1 103.5 65 103.8C64.9 104.1 65.1 104.3 65.3 104.3Z" fill="white"/>
<path id="Vector_24" d="M118.6 118.2C118.7 118.2 118.7 118.2 118.8 118.2C118.9 118.2 119.1 118.1 119.1 118C119.2 117.7 119.4 117.4 119.5 117.1C119.6 116.9 119.5 116.7 119.3 116.6C119.1 116.5 118.9 116.6 118.8 116.8C118.7 117.1 118.5 117.4 118.4 117.7C118.4 117.8 118.4 118.1 118.6 118.2Z" fill="white"/>
<path id="Vector_25" d="M115.6 123.2C115.7 123.2 115.8 123.2 115.9 123.1C116.1 122.8 116.3 122.6 116.5 122.3C116.6 122.1 116.6 121.9 116.4 121.8C116.2 121.7 116 121.7 115.9 121.9C115.7 122.2 115.5 122.4 115.3 122.7C115.2 122.9 115.2 123.1 115.4 123.2C115.4 123.2 115.5 123.2 115.6 123.2Z" fill="white"/>
<path id="Vector_26" d="M111.9 126.2C111.7 126.4 111.4 126.6 111.1 126.8C110.9 126.9 110.9 127.2 111 127.3C111.1 127.4 111.2 127.4 111.3 127.4C111.4 127.4 111.5 127.4 111.5 127.3C111.8 127.1 112 126.9 112.3 126.6C112.5 126.5 112.5 126.2 112.3 126.1C112.3 126.1 112 126.1 111.9 126.2Z" fill="white"/>
<path id="Vector_27" d="M68.9999 91.2001C68.7999 91.1001 68.5999 91.2001 68.4999 91.3001C68.2999 91.6001 68.1999 91.9001 67.9999 92.2001C67.8999 92.4001 67.9999 92.6001 68.1999 92.7001C68.2999 92.7001 68.2999 92.7001 68.3999 92.7001C68.4999 92.7001 68.6999 92.6001 68.6999 92.5001C68.7999 92.2001 68.9999 91.9001 69.1999 91.6001C69.2999 91.6001 69.1999 91.3001 68.9999 91.2001Z" fill="white"/>
<path id="Vector_28" d="M65.4999 108.6C65.2999 108.6 65.0999 108.8 65.1999 109C65.1999 109.3 65.2999 109.7 65.2999 110C65.2999 110.2 65.4999 110.3 65.6999 110.3C65.6999 110.3 65.6999 110.3 65.7999 110.3C65.9999 110.3 66.0999 110.1 66.0999 109.9C65.9999 109.6 65.9999 109.3 65.9999 108.9C65.8999 108.7 65.6999 108.5 65.4999 108.6Z" fill="white"/>
<path id="Vector_29" d="M69.8001 121.2C69.9001 121.3 70.0001 121.4 70.1001 121.4C70.2001 121.4 70.2001 121.4 70.3001 121.3C70.5001 121.2 70.5001 121 70.4001 120.8C70.2001 120.5 70.0001 120.3 69.9001 120C69.8001 119.8 69.6001 119.8 69.4001 119.9C69.2001 120 69.2001 120.2 69.3001 120.4C69.4001 120.6 69.6001 120.9 69.8001 121.2Z" fill="white"/>
<path id="Vector_30" d="M67.3 114.6C67.2 114.4 67 114.3 66.8 114.4C66.6 114.5 66.5 114.7 66.6 114.9C66.7 115.2 66.8 115.5 67 115.8C67.1 115.9 67.2 116 67.3 116H67.4C67.6 115.9 67.7 115.7 67.6 115.5C67.5 115.3 67.4 115 67.3 114.6Z" fill="white"/>
<path id="Vector_31" d="M73.7001 125.9C73.8001 126 73.9001 126 74.0001 126C74.1001 126 74.2001 126 74.3001 125.9C74.4001 125.8 74.4001 125.5 74.3001 125.4C74.1001 125.2 73.8001 124.9 73.6001 124.7C73.5001 124.5 73.2001 124.5 73.1001 124.7C73.0001 124.8 72.9001 125.1 73.1001 125.2C73.2001 125.4 73.4001 125.6 73.7001 125.9Z" fill="white"/>
<path id="Vector_32" d="M121.6 103.3C121.8 103.3 122 103.1 122 102.9C122 102.6 121.9 102.2 121.9 101.9C121.9 101.7 121.7 101.5 121.5 101.6C121.3 101.6 121.1 101.8 121.2 102C121.2 102.3 121.3 102.7 121.3 103C121.3 103.1 121.4 103.3 121.6 103.3Z" fill="white"/>
<path id="Exclude" d="M123.6 0L107 28.7002L119.7 50.7998C121.1 49.4999 122.7 48.2998 124.3 47.2998L112.1 26.2002H134.4V26.4004L141 14.9004L147.6 26.4004V26.2002H170.1L154.8 52.7002C162 57.2002 166.7 65.2002 166.7 74.2002C166.7 86.1001 158.6 96.0004 147.6 98.9004L165.7 130.2H156.1L164.8 145.3H117.8L120 149.1V149H149.2L148.4 146.9L154.4 149.6L148.4 152.3L149.2 150.1H120.5L123.5 155.4H64L67 150.1H39.7998L40.5996 152.3L34.5996 149.6L40.5996 146.9L39.7998 149H67.5L69.7002 145.2H22.7002L31.4004 130.1H21.7998L26.9004 121.2C16.2005 118.2 8.2999 108.4 8.2998 96.7002C8.2998 87.7002 13.1002 79.7002 20.2002 75.2002L17.5 70.5C14.5 72.4 11.9002 74.7004 9.7002 77.4004C9.7999 77.5003 9.7998 77.6003 9.7998 77.7002C9.79971 78.3001 9.39973 78.7002 8.7998 78.7002C7.39988 80.6001 6.19977 82.7005 5.2998 84.9004C5.59975 85.2004 5.7998 85.6 5.7998 86C5.7998 86.7999 5.20017 87.4994 4.40039 87.5996C3.80039 89.4996 3.4002 91.5 3.2002 93.5C4.6001 93.7001 5.59961 94.8003 5.59961 96.2002C5.59949 97.8001 4.29974 99 2.7998 99C1.19998 98.9999 0.000113921 97.7 0 96.2002C0 94.8002 1.00039 93.7 2.40039 93.5C2.60039 91.4001 2.99963 89.4 3.59961 87.5C2.9998 87.2999 2.59961 86.6999 2.59961 86C2.59961 85.1 3.3002 84.4004 4.2002 84.4004C4.40013 84.4004 4.60049 84.3997 4.90039 84.5996C5.80034 82.4998 6.89994 80.3998 8.2998 78.5C8.09987 78.3 8 78.0998 8 77.7998C8.00008 77.1999 8.40006 76.7998 9 76.7998C9.1 76.7998 9.30039 76.8004 9.40039 76.9004C11.6003 74.1005 14.2999 71.8004 17.2998 69.9004L5.09961 48.7998H27.4004V49L34 37.5L40.5996 48.9004V48.7002H62.7998L47.5 75.2002C49 76.2002 50.4002 77.3 51.7002 78.5L80.5 28.7002L63.9004 0H123.6ZM108 132.5C104.4 134.4 100.5 135.6 96.2998 136L98.7002 140.2H94.2002V153.3H120L108 132.5ZM67.4004 153.2H93.2998V140.2H88.7002L91.0996 136C86.7998 135.6 82.8997 134.5 79.2998 132.6L67.4004 153.2ZM111.8 130.3C111.1 130.7 110.5 131.2 109.8 131.6L113.2 137.4H140.6L139.5 134.3L147.6 137.9L139.5 141.5L140.6 138.3H113.7L117.1 144.2H162.9L154.9 130.3H111.8ZM32.5996 130.1L24.5576 144.1H70.4004L73.7998 138.2H46.9004L48 141.4L39.9004 137.8L48 134.2L46.9004 137.3H74.2002L77.5 131.6C76.8 131.1 75.9997 130.6 75.2998 130.1H32.5996ZM42.2998 137.8L46.2002 139.6L45.5996 137.8L46.2002 136L42.2998 137.8ZM141.8 137.8L141.2 139.6L145.1 137.8L141.2 136L141.8 137.8ZM105.5 128.2C102.1 130 98.3001 131.1 94.2002 131.2V132.4L94.7002 133.2H94.7998C95.0997 133.1 95.4998 133.1 95.7998 133.1C95.9998 133 96.2002 133.2 96.2002 133.4C96.2997 133.6 96.1001 133.8 95.9004 133.8H95.0996L96.0996 135.6C100.3 135.2 104.3 134 107.8 132.1L106.9 130.6C106.8 130.7 106.6 130.7 106.5 130.8H106.3C106.2 130.8 106.1 130.7 106 130.6C105.9 130.4 106 130.2 106.2 130.1C106.3 130 106.4 130 106.5 129.9L105.5 128.2ZM79.5 132.2C83.0999 134 87.0999 135.2 91.2998 135.5L93.2002 132.2V131.1C89.1002 131.1 85.1998 130.1 81.7998 128.3L79.5 132.2ZM76.2002 130.1C76.7002 130.5 77.1998 130.9 77.7998 131.2L78.4004 130.1H76.2002ZM109 130.1L109.6 131C110 130.7 110.5 130.4 110.9 130.1H109ZM82 127.9C85.4 129.6 89.2003 130.6 93.2002 130.6V128.1C89.7002 128.1 86.2998 127.2 83.2998 125.7L82 127.9ZM104 125.5C101.1 127.1 97.7001 128 94.2002 128.1V130.5C98.1001 130.4 101.9 129.3 105.2 127.6L104 125.5ZM25.4004 128.1H32.7002L36.2002 122.1C35.4002 122.2 34.7 122.2 34 122.2C32.3 122.2 30.6996 122 29.0996 121.7L25.4004 128.1ZM93.7002 51.5L85.9004 37.9004L57.5996 87C58.7996 90 59.5 93.3002 59.5 96.7002C59.4999 109.6 49.9002 120.2 37.4004 121.9L33.7998 128.1H72.9004C66.6004 122.5 62.7002 114.4 62.7002 105.3C62.7003 88.2999 76.5001 74.5 93.5 74.5C110.5 74.5 124.3 88.2999 124.3 105.3C124.3 114.3 120.4 122.5 114.1 128.1H153.6L137 99.2998C124.8 97.2998 115.5 86.7996 115.5 74.0996C115.5 70.8997 116.1 67.7999 117.2 65L113.9 59.2002C111.5 63.6001 110.1 68.6998 110.1 74.0996H109.3C109.3 68.4997 110.8 63.0999 113.4 58.5L101.5 37.9004L93.7002 51.5ZM93.5 74.9004C76.8 74.9004 63.2002 88.5002 63.2002 105.2C63.2003 114.3 67.1998 122.4 73.5996 128H79.5996L80.0996 127.2C72.6998 122.7 67.7003 114.5 67.7002 105.2C67.7002 91.0002 79.3 79.4004 93.5 79.4004C107.7 79.4004 119.3 91.0002 119.3 105.2C119.3 114.4 114.5 122.5 107.2 127.1L107.8 128.1V128H113.4C119.8 122.5 123.8 114.3 123.8 105.2C123.8 88.5002 110.2 74.9004 93.5 74.9004ZM145.4 99.2002C143.9 99.5002 142.5 99.5996 141 99.5996C140 99.5996 139.1 99.5004 138.2 99.4004L154.7 128.1H162L145.4 99.2002ZM83.7998 124.8C86.5998 126.2 89.8002 127.1 93.2002 127.1V108.5L83.7998 124.8ZM94.2002 127.1C97.5001 127 100.7 126.2 103.5 124.7L94.2002 108.6V127.1ZM93.5 80C79.6001 80 68.2003 91.2999 68.2002 105.3C68.2002 114.4 72.9998 122.4 80.2998 126.9L81.5 124.8C75 120.8 70.5996 113.5 70.5996 105.3C70.5997 92.6999 80.9001 82.4004 93.5 82.4004C106.1 82.4004 116.4 92.6999 116.4 105.3C116.4 113.4 112.2 120.5 105.8 124.6L107 126.7C114.1 122.2 118.8 114.3 118.8 105.3C118.8 91.3999 107.5 80 93.5 80ZM93.5 83.4004C81.4001 83.4004 71.5997 93.1999 71.5996 105.3C71.5996 113.1 75.8 120 82 123.9L93.7002 103.7L105.3 123.7C111.4 119.8 115.4 113 115.4 105.3C115.4 93.1999 105.6 83.4004 93.5 83.4004ZM50 85.4004C50.0999 85.5003 50.1999 85.6001 50.2998 85.7998C50.3998 85.9997 50.4 86.1998 50.2002 86.2998C50.1002 86.3998 50.1 86.4004 50 86.4004C49.9001 86.4004 49.8001 86.3001 49.7002 86.2002L49.5996 86.0996L29.4004 121.1C30.9003 121.4 32.4005 121.5 33.9004 121.5C34.8002 121.5 35.6001 121.5 36.5 121.4L39.9004 115.5C39.8004 115.5 39.6 115.6 39.5 115.6H39.4004C39.2004 115.6 39 115.5 39 115.3C39.0001 115.1 39.0999 114.9 39.2998 114.8C39.5998 114.7 39.9002 114.6 40.2002 114.5H40.4004L56.5 86.7002C55.5 84.5003 54.2001 82.5001 52.7002 80.7002L50 85.4004ZM37.7002 121.2C49.5001 119.4 58.5996 109.1 58.5996 96.7998C58.5996 93.6 58.0999 90.7002 57 87.9004L37.7002 121.2ZM20.7002 75.7998C13.8002 80.1998 9.2002 87.9002 9.2002 96.7002C9.20029 108.1 17.0005 117.7 27.4004 120.6L51.2998 79.2002C50.0999 78.0003 48.7001 76.9003 47.2002 75.9004L34 98.7998L20.7002 75.7998ZM121.8 58.5C120.3 60.4 119 62.5002 118.1 64.7002L137.7 98.5996C138.7 98.6996 139.8 98.7998 140.9 98.7998C142.3 98.7998 143.601 98.7 144.9 98.5L121.8 58.5ZM117.7 65.7998C116.8 68.3997 116.3 71.1998 116.3 74.0996C116.3 86.1996 125 96.3004 136.5 98.4004L117.7 65.7998ZM140.9 76.0996L127.7 53.2002C126.1 54.3002 124.6 55.5004 123.2 56.9004L147 98.0996C157.7 95.3996 165.7 85.6996 165.7 74.0996C165.7 65.3998 161.1 57.7001 154.1 53.2002L140.9 76.0996ZM34 72C29.5 72 25.1996 73.1998 21.5996 75.2998L34 96.7998L46.2998 75.2998C42.6999 73.1999 38.4999 72 34 72ZM53.0996 80C54.6996 81.8 56 83.8004 57 85.9004L85.2998 36.9004L81.5996 30.7002L53.0996 80ZM34 65.7002C28.4 65.7002 23.1 67.2004 18.5 69.9004L21.2002 74.5996C25.0001 72.4997 29.3001 71.2002 34 71.2002C38.6999 71.2002 42.9999 72.3997 46.7998 74.5996L49.5 69.9004C44.8 67.2004 39.5 65.7002 34 65.7002ZM141 49.5C136.5 49.5 132.2 50.6998 128.6 52.7998L141 74.2002L153.4 52.7998C149.7 50.6998 145.5 49.5 141 49.5ZM6.7998 49.7002L18 69.2002C22.7 66.5002 28.1004 64.9004 33.9004 64.9004C39.5002 64.9005 44.9999 66.4003 49.7998 69.2002L61.0996 49.7002H41L47.9004 61.5H20.0996L26.9004 49.7002H6.7998ZM118.6 52.9004C117.1 54.5003 115.7 56.3 114.5 58.2998L117.7 63.9004C118.7 61.7005 119.9 59.6004 121.5 57.9004L118.6 52.9004ZM21.7998 60.5996H46.0996L34 39.5L21.7998 60.5996ZM102.1 37L114 57.5996C115.2 55.5997 116.6 53.8001 118.2 52.2002L105.7 30.7002L102.1 37ZM124.6 47.9004C123 48.9003 121.5 50.1005 120 51.4004L122.8 56.2002C124.1 54.9002 125.7 53.5996 127.3 52.5996L124.6 47.9004ZM141 43.2002C135.4 43.2002 130.1 44.7004 125.5 47.4004L128.2 52.0996C132 49.9997 136.4 48.7002 141 48.7002C145.6 48.7002 150 49.8997 153.8 52.0996L156.5 47.4004C151.8 44.7004 146.5 43.2002 141 43.2002ZM93.7002 31.7998L91.5 28.0996L87 35.9004L93.7002 47.5L100.4 35.9004L95.9004 28.0996L93.7002 31.7998ZM113.8 27.2002L125.1 46.7002C129.8 44.0002 135.2 42.4004 141 42.4004C146.6 42.4004 152.1 43.9002 156.9 46.7002L168.2 27.2002H148.1L154.9 39H127.1L133.9 27.2002H113.8ZM128.9 38H153.2L141.1 16.9004L128.9 38ZM82.7998 28.5996L86.4004 34.9004L90.9004 27.0996L87.2998 20.7998L82.7998 28.5996ZM96.5 27.0996L101 34.9004L104.6 28.5996L100.1 20.7998L96.5 27.0996ZM92.0996 27.0996L93.7002 29.7998L95.2998 27.0996L93.7002 24.4004L92.0996 27.0996ZM67.4004 2L81.7998 26.7002L93.7998 5.7998L105.8 26.7002L120 2H67.4004ZM88.0996 20.0996L91.5 26L93.7002 22.2998L95.9004 26L99.2998 20.0996H88.0996ZM88.2998 19.2002H99.0996L93.7002 9.7998L88.2998 19.2002Z" fill="#DEBB35"/>
<path id="Vector_33" d="M146.2 34.1L141 25L135.7 34.1H146.2Z" fill="white"/>
<path id="Vector_34" d="M141.3 55.3C141.5 55.3 141.8 55.3 142 55.3C142.2 55.3 142.4 55.1 142.4 54.9C142.4 54.7 142.3 54.5 142 54.5C141.7 54.5 141.4 54.5 141.1 54.5L140.8 53L137.8 55.5L141.5 56.8L141.3 55.3Z" fill="white"/>
<path id="Vector_35" d="M146.8 56.2002C147.1 56.3002 147.4 56.4002 147.7 56.5002H147.8C148 56.5002 148.1 56.4002 148.2 56.3002C148.3 56.1002 148.2 55.9002 148 55.8002C147.7 55.7002 147.4 55.6002 147 55.5002C146.8 55.4002 146.6 55.5002 146.5 55.7002C146.5 55.9002 146.6 56.1002 146.8 56.2002Z" fill="white"/>
<path id="Vector_36" d="M159.2 68.9998C159.2 69.1998 159.4 69.2998 159.6 69.2998H159.7C159.9 69.1998 160 68.9998 160 68.7998C159.9 68.4998 159.8 68.0998 159.7 67.7998C159.6 67.5998 159.4 67.4998 159.2 67.5998C159 67.6998 158.9 67.8998 159 68.0998C159 68.3998 159.1 68.6998 159.2 68.9998Z" fill="white"/>
<path id="Vector_37" d="M141.5 93.8C141.7 93.8 141.9 93.6 141.9 93.4C141.9 93.2 141.7 93 141.5 93C141.3 93 141.2 93 141 93H140.9C140.7 93 140.5 93.2 140.5 93.4C140.5 93.6 140.7 93.8 140.9 93.8C141.2 93.8 141.4 93.8 141.5 93.8Z" fill="white"/>
<path id="Vector_38" d="M159 81.0998H159.1C159.3 81.0998 159.4 80.9998 159.5 80.8998C159.6 80.5998 159.7 80.2998 159.8 79.8998C159.9 79.6998 159.7 79.4998 159.6 79.3998C159.4 79.2998 159.2 79.4998 159.1 79.5998C159 79.8998 158.9 80.1998 158.8 80.4998C158.7 80.7998 158.8 80.9998 159 81.0998Z" fill="white"/>
<path id="Vector_39" d="M159.9 74.0999C159.9 74.2999 159.9 74.5999 159.9 74.7999C159.9 74.9999 160.1 75.1999 160.3 75.1999C160.5 75.1999 160.7 74.9999 160.7 74.7999C160.7 74.5999 160.7 74.2999 160.7 74.0999V73.7999C160.7 73.5999 160.6 73.4999 160.3 73.3999C160.1 73.3999 159.9 73.5999 159.9 73.7999V74.0999Z" fill="white"/>
<path id="Vector_40" d="M156.7 63.7001C156.8 63.8001 156.9 63.9002 157 63.9002C157.1 63.9002 157.1 63.9001 157.2 63.8001C157.4 63.7001 157.4 63.5001 157.3 63.3001C157.1 63.0001 156.9 62.7002 156.7 62.5002C156.6 62.3002 156.3 62.3002 156.2 62.4002C156 62.5002 156 62.8002 156.1 62.9002C156.4 63.2002 156.6 63.4001 156.7 63.7001Z" fill="white"/>
<path id="Vector_41" d="M146.5 93.0002H146.6C146.9 92.9002 147.2 92.8002 147.6 92.7002C147.8 92.6002 147.9 92.4002 147.8 92.2002C147.7 92.0002 147.5 91.9002 147.3 92.0002C147 92.1002 146.7 92.2002 146.4 92.3002C146.2 92.4002 146.1 92.6002 146.1 92.8002C146.2 92.9002 146.3 93.0002 146.5 93.0002Z" fill="white"/>
<path id="Vector_42" d="M151.9 90.3999C152 90.3999 152 90.3999 152.1 90.2999C152.4 90.0999 152.7 89.8998 152.9 89.6998C153.1 89.5998 153.1 89.2998 153 89.1998C152.9 88.9998 152.6 88.9999 152.5 89.0999C152.2 89.2999 152 89.4998 151.7 89.6998C151.5 89.7998 151.5 89.9998 151.6 90.1998C151.6 90.3998 151.7 90.3999 151.9 90.3999Z" fill="white"/>
<path id="Vector_43" d="M156.2 86.3001C156.3 86.3001 156.4 86.3001 156.5 86.2001C156.7 85.9001 156.9 85.7002 157.1 85.4002C157.2 85.2002 157.2 85.0002 157 84.9002C156.8 84.8002 156.6 84.8002 156.5 85.0002C156.3 85.3002 156.1 85.5001 155.9 85.8001C155.8 86.0001 155.8 86.2001 156 86.3001C156 86.3001 156.1 86.3001 156.2 86.3001Z" fill="white"/>
<path id="Vector_44" d="M152.8 59.4001C152.9 59.5001 153 59.5001 153 59.5001C153.1 59.5001 153.2 59.5001 153.3 59.4001C153.4 59.2001 153.4 59.0001 153.2 58.9001C152.9 58.7001 152.7 58.5001 152.4 58.3001C152.2 58.2001 152 58.2001 151.9 58.4001C151.8 58.6001 151.8 58.8001 152 58.9001C152.3 59.0001 152.5 59.2001 152.8 59.4001Z" fill="white"/>
<path id="Vector_45" d="M39.2 56.7001L34 47.6001L28.7 56.7001H39.2Z" fill="white"/>
<path id="Vector_46" d="M33.8999 75.6001L30.8999 78.1001L34.5999 79.4001L34.2999 77.8001C34.4999 77.8001 34.7999 77.8001 34.9999 77.8001C35.1999 77.8001 35.3999 77.6001 35.3999 77.4001C35.3999 77.2001 35.2999 77.0001 34.9999 77.0001C34.6999 77.0001 34.3999 77.0001 34.0999 77.0001L33.8999 75.6001Z" fill="white"/>
<path id="Vector_47" d="M39.6999 78.7002C39.9999 78.8002 40.2999 78.9002 40.5999 79.0002H40.6999C40.8999 79.0002 40.9999 78.9002 41.0999 78.8002C41.1999 78.6002 41.0999 78.4002 40.8999 78.3002C40.5999 78.2002 40.2999 78.1002 39.8999 78.0002C39.6999 77.9002 39.4999 78.0002 39.3999 78.2002C39.3999 78.5002 39.5999 78.7002 39.6999 78.7002Z" fill="white"/>
<path id="Vector_48" d="M51.9001 103.7H52.0001C52.2001 103.7 52.3001 103.6 52.4001 103.5C52.5001 103.2 52.6001 102.9 52.7001 102.5C52.8001 102.3 52.6001 102.1 52.5001 102C52.3001 101.9 52.1001 102.1 52.0001 102.2C51.9001 102.5 51.8001 102.8 51.7001 103.1C51.6001 103.4 51.7001 103.6 51.9001 103.7Z" fill="white"/>
<path id="Vector_49" d="M53.2001 97.8C53.4001 97.8 53.6 97.6 53.6 97.4C53.6 97.2 53.6 96.9 53.6 96.7V96.4C53.6 96.2 53.4001 96 53.2001 96C53.0001 96 52.8 96.2 52.8 96.4V96.7C52.8 96.9 52.8 97.2 52.8 97.4C52.8 97.6 53.0001 97.8 53.2001 97.8Z" fill="white"/>
<path id="Vector_50" d="M45.4 111.7C45.1 111.9 44.9 112.1 44.6 112.3C44.4 112.4 44.4 112.6 44.5 112.8C44.6 112.9 44.7 113 44.8 113C44.9 113 44.9 113 45 112.9C45.3 112.7 45.6 112.5 45.8 112.3C46 112.2 46 111.9 45.9 111.8C45.8 111.7 45.6 111.6 45.4 111.7Z" fill="white"/>
<path id="Vector_51" d="M49.4999 107.5C49.2999 107.8 49.0999 108 48.8999 108.3C48.7999 108.5 48.7999 108.7 48.9999 108.8C49.0999 108.9 49.0999 108.9 49.1999 108.9C49.2999 108.9 49.3999 108.9 49.4999 108.8C49.6999 108.5 49.8999 108.3 50.0999 108C50.1999 107.8 50.1999 107.6 49.9999 107.5C49.7999 107.3 49.5999 107.3 49.4999 107.5Z" fill="white"/>
<path id="Vector_52" d="M46.1999 81.4001C45.8999 81.2001 45.6999 81.0001 45.3999 80.8001C45.1999 80.7001 44.9999 80.7001 44.8999 80.9001C44.7999 81.1001 44.7999 81.3001 44.9999 81.4001C45.2999 81.6001 45.4999 81.8001 45.7999 82.0001C45.8999 82.1001 45.9999 82.1001 45.9999 82.1001C46.0999 82.1001 46.1999 82.1001 46.2999 82.0001C46.3999 81.7001 46.3999 81.5001 46.1999 81.4001Z" fill="white"/>
<path id="Vector_53" d="M33.9999 116.4C34.1999 116.4 34.3999 116.4 34.5999 116.4C34.7999 116.4 34.9999 116.2 34.9999 116C34.9999 115.8 34.7999 115.6 34.5999 115.6C34.3999 115.6 34.1999 115.6 34.0999 115.6C33.8999 115.6 33.6999 115.8 33.6999 116C33.5999 116.2 33.7999 116.4 33.9999 116.4Z" fill="white"/>
<path id="Vector_54" d="M52.1999 91.5999C52.1999 91.7999 52.3999 91.8999 52.5999 91.8999H52.6999C52.8999 91.7999 52.9999 91.5999 52.9999 91.3999C52.8999 91.0999 52.7999 90.6999 52.6999 90.3999C52.5999 90.1999 52.3999 90.0999 52.1999 90.1999C51.9999 90.2999 51.8999 90.4999 51.9999 90.6999C51.9999 90.9999 52.0999 91.2999 52.1999 91.5999Z" fill="white"/>
</g>
</svg>
