<svg width="617" height="598" viewBox="0 0 617 598" fill="none" xmlns="http://www.w3.org/2000/svg">
<g clip-path="url(#clip0_3643_2071)">
<path d="M311.2 597.6C239 596.4 174.3 576.5 117.8 533C58.7 487.5 21.5 427.7 6.10001 354.6C0.300012 327.1 -1.59999 299.2 1.30001 271.2C9.00001 198.5 37.5 135.7 90.5 84.7001C131.9 44.9001 180.9 19.2001 236.8 7.10005C269.1 0.100053 301.9 -1.69995 335 1.60005C384.7 6.50005 431.3 20.8001 473.5 47.3001C545.2 92.5001 592.5 156.1 609.8 239.4C628.7 330.4 608.7 413.3 549.7 485.7C503.9 541.8 444.5 576.1 373.7 591C352.6 595.4 331.3 597.4 311.2 597.6ZM223.9 139C224.8 137.7 225.5 136.8 226.1 135.8C236.8 119 247.5 102.2 258.1 85.3001C272.3 62.5001 286.4 39.5001 300.5 16.6001C301.3 15.3001 301.4 13.6001 301.9 12.1001C300.3 11.8001 298.8 11.2001 297.2 11.2001C277.9 11.8001 258.7 13.5001 239.8 17.7001C169.9 33.0001 112.3 68.3001 69.1 125.3C25.7 182.6 6.50001 247.6 12.1 319.6C14.6 351 22.2 381 35 409.8C37.3 414.9 39.8 419.9 42.6 425.8C44.8 422.6 46.5 420.4 48 418C74.2 376.2 100.3 334.4 126.5 292.6C139.1 272.5 151.9 252.5 164.8 232.5C167.3 228.6 168.6 225.7 164.1 222C158 216.9 152.2 211.3 146.8 205.5C145 203.6 143.4 200.4 143.4 197.8C143.4 159.6 143.7 121.5 144 83.3001C144 81.3001 145.5 79.2001 146.3 77.2001C148.2 78.0001 150.4 78.3001 151.9 79.6001C175.8 99.2001 199.6 118.9 223.9 139ZM449.2 227.2C491.2 294.1 532.8 360.4 574.6 427C613.9 357.1 623.9 242.2 559.1 145.2C521.9 89.4 471.6 50.3001 408.3 28.1001C378.3 17.6001 347.4 11.9001 315 12.3001C339.1 55.5001 366.5 96.4 392 138.7C393.4 137.8 394.3 137.3 395.1 136.7C418.3 117.8 441.5 98.8001 464.8 80.0001C466.5 78.7001 468.7 78.1001 470.7 77.2001C471.6 79.4001 473.2 81.6001 473.2 83.7001C473.6 121.8 473.9 160 474 198.1C474 200.7 472.5 203.9 470.7 205.8C463.7 213.1 456.4 220 449.2 227.2ZM568.7 439C566.9 438.9 566 438.8 565.2 438.8C534.7 438.9 504.2 439.1 473.7 439.1C442 439.1 410.4 438.8 378.7 439C376.5 439 373.6 441.1 372.2 443.1C360.4 459.6 349 476.3 337.2 492.8C332 500.1 326.1 507.2 317.3 510.4C313.9 511.6 313.1 513 313.1 516.3C313.2 536.8 313.2 557.3 313.2 577.8C313.2 580.4 313.2 583 313.2 586.2C365.7 586.2 414.2 573.4 459.3 547.8C505.2 521.7 542.3 486.3 568.7 439ZM303.4 586C303.4 561.7 303.4 538.4 303.4 515.1C303.4 512.4 302.2 511.3 300.1 509.8C294.6 506.1 288.5 502.6 284.6 497.6C272 481.3 259.8 464.7 248.3 447.6C243.9 441.1 239.3 438.9 231.7 439C172.7 439.4 113.7 439.4 54.8 439.5C53.4 439.5 52 439.7 49.8 439.8C77.1 485.3 112.8 521.2 158.4 546.8C203.1 572 251.1 585.7 303.4 586ZM303.6 412.8C303.6 410.4 303.6 408.8 303.6 407.2C303.8 346.4 304 285.6 304.3 224.7C304.3 220.1 302.7 217.4 299.4 214.7C282.6 201.1 266 187.2 249.3 173.5C242 167.5 234.7 161.5 227.1 155.2C212.1 179.2 197.3 202.8 182.5 226.6C185.4 229.8 188.4 232.6 190.6 235.8C196.1 243.6 204 247.6 212.6 251.2C231.9 259.2 250.9 267.8 270.1 276C273.9 277.6 275.6 279.7 275.6 284.1C275.5 315.6 275.5 347.1 275.7 378.6C275.7 388.8 276 398.9 276.2 409.1C276.2 411.3 276.6 412.9 279.5 412.9C287.1 412.7 294.9 412.8 303.6 412.8ZM313.2 412.8C321 412.8 328 412.4 334.9 412.9C340.2 413.3 341.3 411.4 341.2 406.5C341 366.2 341.2 325.9 341 285.6C341 280.7 342.8 278.6 346.9 276.8C366.9 268 386.6 258.4 406.9 250.1C417.5 245.7 425.3 238.6 432.4 230.1C434.1 228 434 226.7 432.6 224.5C427.5 216.5 422.7 208.4 417.8 200.3C408.6 185.5 399.4 170.7 390.1 155.7C389.1 156.4 388.5 156.8 387.9 157.3C365.2 176.1 342.7 195 319.8 213.5C314.8 217.5 313.2 221.8 313.2 227.9C313.4 287.7 313.3 347.5 313.3 407.3C313.2 409 313.2 410.6 313.2 412.8ZM164.7 315.7C152.6 315.7 141.5 315.9 130.4 315.6C126.4 315.5 124.1 316.6 122 320C100.5 354.5 78.8 389 57.2 423.4C56.3 424.9 55.7 426.5 54.8 428.4C116.1 428.4 176.6 428.4 238.5 428.4C236.9 425.2 236.1 422.4 234.4 420.6C221.7 406.9 208.8 393.4 196 379.9C194.8 378.6 193.2 377.5 191.6 376.9C175.1 370.9 158.6 365 142 359.1C136.1 357 135.5 355.3 139.2 350.2C147.4 339.1 155.7 327.9 164.7 315.7ZM380.4 428.4C440.8 428.4 501.3 428.4 562.2 428.4C561.2 426.4 560.6 425.1 559.8 423.8C537.8 388.8 515.9 353.8 493.7 318.9C492.7 317.3 490.1 316 488.2 315.9C477.2 315.6 466.2 315.8 455.2 315.8C454 315.8 452.8 316 451.4 316.1C460.7 327.7 469.7 339 478.7 350.4C482.3 355 481.7 356.7 476.2 358.7C464.3 363.1 452.4 367.9 440.3 371.7C427.8 375.7 416.7 381.2 409 392.3C408.2 393.5 406.9 394.5 405.9 395.5C398.7 403.1 391.4 410.6 384.2 418.3C381.7 421.2 378.8 424 380.4 428.4ZM237.5 138.6C285 138.6 331.4 138.6 379 138.6C355.4 100.5 332.2 63.2001 308.6 25.3001C284.8 63.2001 261.4 100.5 237.5 138.6ZM313.4 473C320.4 473 327.5 472.7 334.6 473.1C338.8 473.3 341.4 471.9 343.7 468.5C352.4 455.5 361.4 442.7 370 429.7C371.3 427.8 372.1 425.1 372.1 422.8C372.3 401 372.1 379.1 372.3 357.3C372.3 354.7 373.8 351.5 375.7 349.7C389.9 336.1 404.2 322.7 418.9 309.6C424.9 304.2 428.3 299.2 426.4 290.4C424 279.1 423.3 267.5 421.8 255.5C415 258.4 408.8 261 402.7 263.9C401.4 264.5 400.5 266.3 399.9 267.7C397.6 273.7 395.3 279.8 393.5 286C392.2 290.4 389.6 293 385.5 294.7C375.3 299.1 365.2 303.8 355 308.1C351.5 309.6 350 311.5 350.1 315.5C350.3 344 349.5 372.5 350.4 401C350.8 415.5 347.6 428.1 339.6 439.9C334.3 447.7 328.2 454.6 319.8 459.2C312.3 463.3 312.3 463.3 313.4 473ZM302.9 472.9C304 466.3 303.7 461.9 296.7 459.3C291.8 457.5 287.2 453.6 283.7 449.5C271.7 435.4 265.1 419.6 265.9 400.3C267.1 372.2 266.4 344 266.7 315.8C266.8 311.2 265 309 260.8 307.4C250.3 303.2 240 298.8 229.8 294C227.4 292.9 225 290.4 224 288C221.4 281.6 219.6 274.8 217.2 268.3C216.6 266.7 215.6 264.7 214.2 264C208.1 261 201.9 258.5 194.9 255.5C193.2 270.5 191.5 285 190 299.5C189.9 300.9 190.6 302.8 191.6 303.8C207.9 319.1 224.2 334.3 240.7 349.4C243 351.5 244.2 353.3 244.2 356.5C244.1 378.5 244.1 400.5 244.2 422.5C244.2 424.8 244.8 427.5 246.1 429.4C255.4 443.2 265 456.8 274.6 470.3C275.4 471.5 277.1 472.8 278.4 472.8C286.5 473 294.6 472.9 302.9 472.9ZM449.2 209.9C457.2 204.8 462.8 199.7 462.5 189.2C461.7 160.3 462.2 131.3 462.2 102.3C462.2 100.5 462.2 98.8001 462.2 97.0001C461.8 96.7001 461.4 96.5001 461 96.2001C440.1 113.4 419.1 130.7 398.1 147.9C413 171.6 427.6 195 442.3 218.3C442.8 218.1 443.3 218 443.7 217.8C443.9 215.9 444.2 214 444.2 212.1C444.2 193.3 444.1 174.5 444.3 155.7C444.3 154 446 152.4 447 150.8C447.7 152.4 449.1 154 449.1 155.6C449.3 171.9 449.2 188.2 449.2 204.6C449.2 206.4 449.2 208.2 449.2 209.9ZM155.3 95.7001C155 101.6 154.5 106 154.5 110.4C154.6 137.7 154.9 165 155 192.3C155 198.6 160.6 206.1 167.5 208.7C167.5 205.7 167.5 202.9 167.5 200.1C167.4 185.8 167.2 171.5 167.4 157.1C167.4 155 169.1 153 170 150.9C170.9 153 171.7 155 172.6 157.1C172.7 157.2 172.6 157.4 172.6 157.6C172.7 176.2 172.9 194.9 173.1 213.5C173.1 214.9 173.3 216.2 173.5 217.6C174 217.8 174.5 217.9 174.9 218.1C189.4 194.9 203.9 171.7 218.6 148.1C197.8 130.9 177.1 113.8 155.3 95.7001ZM235.1 410.9C235.4 408.5 235.7 407.7 235.6 406.9C235.5 390.8 235.4 374.6 235 358.5C235 356.7 233.5 354.5 232.1 353.2C221.2 342.9 210.2 332.8 199.2 322.6C194.1 317.9 189 313.2 183.1 307.8C171.2 322.4 159.5 336.6 147.6 351.3C150.4 352.3 152.3 353.1 154.4 353.8C166.6 358.1 178.9 362.1 190.8 366.9C195.4 368.7 199.8 371.9 203.2 375.5C213.9 386.7 223.9 398.4 235.1 410.9ZM381.2 409C381.6 409.3 382 409.6 382.3 409.9C384 407.9 385.6 405.9 387.4 404C394.6 396.1 402.3 388.7 408.8 380.3C414.9 372.4 422.9 368.1 431.9 364.9C444 360.6 456.1 356.1 469.1 351.3C457.3 337.5 446.1 324.2 434.6 311.1C434 310.4 431.1 310.6 430.2 311.4C414.5 325.8 398.9 340.3 383.4 355C382.1 356.3 381.2 358.7 381.2 360.6C381.1 376.7 381.2 392.9 381.2 409ZM176.7 233.3C161.4 257.4 146.4 281.1 131.2 305C132.6 305.4 133 305.7 133.5 305.7C148.2 305.7 162.8 305.6 177.5 305.7C181.5 305.7 181.7 303 182 300.4C184.3 283.3 186.5 266.2 188.6 249C188.8 247.2 188.3 244.9 187.1 243.6C184.1 240.2 180.6 237.1 176.7 233.3ZM485.4 305.1C469.9 281.1 455 258 439.3 233.9C436.4 237.2 434.2 240.2 431.5 242.7C428.9 245.1 428.2 247.4 428.7 251C431 267.6 433.2 284.2 435 300.9C435.4 304.9 436.8 305.9 440.4 305.9C453.5 305.8 466.7 305.9 479.9 305.8C481.3 305.7 482.6 305.4 485.4 305.1ZM380.6 150.9C377.9 150.4 376.8 150 375.7 150C356.7 150 337.7 150 318.8 149.9C315.1 149.9 313.8 151.4 313.8 154.9C313.7 171.5 313.5 188.2 313.3 204.8C313.3 205.2 313.7 205.5 314.3 206.4C336.1 188.1 357.8 169.9 380.6 150.9ZM304.2 206.7C304.2 188.6 304.1 171.8 304.3 155C304.3 151 303 149.8 299.2 149.9C280.1 150 260.9 149.8 241.8 149.8C240.6 149.8 239.4 150.1 236.9 150.4C259.6 169.5 281.4 187.7 304.2 206.7ZM337.1 423.9C317.5 423.9 298.4 423.9 278.4 423.9C285 434.9 290.4 445.3 301.4 451.4C306 453.9 309.8 453.9 314.3 451.3C325.2 445 331.9 435.4 337.1 423.9ZM331.7 485.4C331.4 484.9 331.1 484.5 330.8 484C316 484 301.2 484 285.8 484C290.3 491.5 295.9 497 303.3 500.4C308.1 502.7 313.3 502.3 317.4 498.9C322.5 494.8 327 490 331.7 485.4ZM350.6 301C359.4 296.9 367.6 292.2 376.2 289.2C385.9 285.8 386.2 277.5 389.3 269.7C387.9 269.9 387.4 269.9 387 270.1C378.5 273.7 370 277.3 361.5 280.9C349.6 286 349.6 286.1 350.2 299.1C350.3 299.5 350.4 299.9 350.6 301ZM266.2 300.9C266.2 296.3 265.9 293 266.3 289.7C266.6 286.3 265.4 284.7 262.3 283.5C252.8 279.7 243.4 275.5 234 271.5C232.3 270.8 230.5 270.3 228.7 269.7C228.4 270 228 270.3 227.7 270.7C229.6 275.5 230.1 282.4 233.7 284.7C243.5 290.9 254.6 295.3 266.2 300.9Z" fill="white"/>
<path d="M350.6 301C350.3 299.8 350.2 299.5 350.2 299.2C349.6 286.1 349.6 286.1 361.5 281C370 277.3 378.5 273.8 387 270.2C387.4 270 387.9 270 389.3 269.8C386.2 277.6 385.9 285.9 376.2 289.3C367.6 292.3 359.5 296.9 350.6 301Z" fill="#DEBB35"/>
<path d="M266.2 300.9C254.6 295.3 243.5 290.9 233.5 284.6C230 282.4 229.4 275.4 227.5 270.6C227.8 270.3 228.2 270 228.5 269.6C230.3 270.2 232.1 270.7 233.8 271.4C243.2 275.4 252.6 279.6 262.1 283.4C265.2 284.6 266.5 286.2 266.1 289.6C266 292.9 266.2 296.2 266.2 300.9Z" fill="#DEBB35"/>
<path d="M73.7 303.8C65.2 303.8 56.7 303.8 48.2 303.8C43.8 303.8 42.8 302.1 45 298.3C53.5 283.5 62.2 268.8 70.8 254.1C73.2 250 75.5 252 77.1 254.7C81.2 261.2 85.1 267.7 88.9 274.3C93.4 282 98 289.7 102.4 297.5C105.3 302.6 104.4 303.9 98.6 304C90.3 303.9 82 303.9 73.7 303.8C73.7 303.9 73.7 303.9 73.7 303.8ZM56.1 295.6C68.4 295.6 79.8 295.6 92.1 295.6C86.2 285.6 80.5 276.1 74.1 265.3C67.7 276 62.1 285.4 56.1 295.6Z" fill="white"/>
<path d="M518.2 284.6C518.2 269.5 527.8 259.5 542.3 259.4C556.7 259.3 567.2 270 567 284.3C566.8 298.2 556.3 309.4 543.2 309.5C528.3 309.7 518.2 299.7 518.2 284.6ZM558.4 284.4C558.6 275.3 552.1 268 543.5 267.8C533.2 267.6 526.4 274.1 526.2 284.7C526 293.1 532.9 300.5 541.2 300.8C551.1 301.1 558.1 294.4 558.4 284.4Z" fill="white"/>
<path d="M543.2 276C545.8 279.5 548.4 281.5 548.8 283.9C549.4 287.2 546.7 289.3 543.4 289.7C540.4 290.1 536.6 286.7 537.4 283.9C538.2 281.5 540.5 279.5 543.2 276Z" fill="white"/>
</g>
<defs>
<clipPath id="clip0_3643_2071">
<rect width="616.8" height="597.6" fill="white"/>
</clipPath>
</defs>
</svg>
