<svg width="222" height="221" viewBox="0 0 222 221" fill="none" xmlns="http://www.w3.org/2000/svg">
<path d="M88.8098 5.76852L86.6467 7.94141L213.069 133.793L215.232 131.62L88.8098 5.76852Z" fill="#DEBB35"/>
<path d="M87.8441 4.13813e-05L80.767 7.11328L87.8802 14.1904L94.9573 7.07716L87.8441 4.13813e-05Z" fill="#DEBB35"/>
<path d="M213.989 125.741L206.912 132.854L214.026 139.932L221.103 132.818L213.989 125.741Z" fill="#DEBB35"/>
<path d="M48.512 46.4586L46.3492 48.6318L172.789 174.465L174.952 172.292L48.512 46.4586Z" fill="#DEBB35"/>
<path d="M47.5569 40.6905L40.4797 47.8037L47.593 54.8808L54.6701 47.7676L47.5569 40.6905Z" fill="#DEBB35"/>
<path d="M173.707 166.045L166.63 173.158L173.743 180.235L180.82 173.122L173.707 166.045Z" fill="#DEBB35"/>
<path d="M8.03782 86.9577L5.87476 89.1309L132.315 214.982L134.478 212.809L8.03782 86.9577Z" fill="#DEBB35"/>
<path d="M133.42 206.738L126.343 213.852L133.456 220.929L140.533 213.815L133.42 206.738Z" fill="#DEBB35"/>
<path d="M7.07712 81.1905L0 88.3037L7.11325 95.3808L14.1904 88.2676L7.07712 81.1905Z" fill="#DEBB35"/>
<path d="M133.598 7.51663L7.87146 134.063L10.0465 136.224L135.773 9.67755L133.598 7.51663Z" fill="#DEBB35"/>
<path d="M9.12985 127.855L2.05273 134.968L9.16598 142.045L16.2431 134.932L9.12985 127.855Z" fill="#DEBB35"/>
<path d="M134.482 1.70612L127.404 8.81836L134.517 15.8965L141.595 8.78425L134.482 1.70612Z" fill="#DEBB35"/>
<path d="M172.274 46.1566L46.4581 172.614L48.6316 174.777L174.447 48.3191L172.274 46.1566Z" fill="#DEBB35"/>
<path d="M47.7578 166.442L40.6807 173.556L47.7939 180.633L54.871 173.52L47.7578 166.442Z" fill="#DEBB35"/>
<path d="M173.504 40.293L166.427 47.4062L173.54 54.4834L180.618 47.3701L173.504 40.293Z" fill="#DEBB35"/>
<path d="M211.3 84.7377L85.4849 211.195L87.6584 213.358L213.474 86.9001L211.3 84.7377Z" fill="#DEBB35"/>
<path d="M86.7854 205.036L79.7083 212.149L86.8215 219.227L93.8986 212.113L86.7854 205.036Z" fill="#DEBB35"/>
<path d="M212.341 79.0909L205.263 86.2031L212.375 93.2812L219.453 86.169L212.341 79.0909Z" fill="#DEBB35"/>
<path d="M110.791 140.345L80.688 110.522L110.512 80.4189L140.614 110.243L110.791 140.345ZM84.8689 110.522L110.512 136.164L136.155 110.522L110.512 84.8786L84.8689 110.522Z" fill="#DEBB35"/>
<path d="M48.5119 46.4586L46.3491 48.6318L172.789 174.465L174.952 172.292L48.5119 46.4586Z" fill="#DEBB35"/>
<path d="M47.5567 40.6905L40.4796 47.8037L47.5929 54.8808L54.67 47.7676L47.5567 40.6905Z" fill="#DEBB35"/>
<path d="M173.707 166.045L166.63 173.158L173.743 180.235L180.82 173.122L173.707 166.045Z" fill="#DEBB35"/>
<path d="M211.3 84.7377L85.4847 211.195L87.6582 213.358L213.474 86.9001L211.3 84.7377Z" fill="#DEBB35"/>
<path d="M86.7853 205.036L79.7081 212.149L86.8214 219.227L93.8985 212.113L86.7853 205.036Z" fill="#DEBB35"/>
<path d="M212.341 79.0909L205.263 86.2031L212.375 93.2812L219.453 86.169L212.341 79.0909Z" fill="#DEBB35"/>
</svg>
