<svg width="172" height="174" viewBox="0 0 172 174" fill="none" xmlns="http://www.w3.org/2000/svg">
<path d="M172 57.7652C172 26.9101 146.946 1.83156 116.121 1.83156C105.565 1.83156 95.8527 4.79028 87.4075 9.86235C78.3993 3.66316 67.5613 0 55.8788 0C25.054 0 0 25.0785 0 55.9335C0 78.0534 12.8085 97.0736 31.3879 106.232C30.5434 110.036 30.1211 113.981 30.1211 118.066C30.1211 148.921 55.1751 174 86 174C116.825 174 141.879 148.921 141.879 118.066C141.879 114.544 141.597 111.163 140.894 107.922C159.332 98.7643 172 79.7441 172 57.7652ZM1.97049 55.9335C1.97049 26.2056 26.18 2.11336 55.7381 2.11336C66.7169 2.11336 76.9918 5.49469 85.437 11.1303C72.9099 19.4429 63.761 32.6866 61.0867 48.0437L24.2094 47.9028L45.1817 79.885C38.8478 86.6477 34.2029 94.9603 31.8101 104.259C14.216 95.383 1.97049 77.0671 1.97049 55.9335ZM105.002 110.599C98.2455 109.19 91.9116 106.513 86.4222 102.709C97.964 95.1012 106.55 83.5482 109.928 69.7409C115.417 72.5587 120.484 76.2218 124.707 80.5894L105.002 110.599ZM126.115 82.1393C132.167 89.0429 136.671 97.3554 138.642 106.654C131.745 109.754 124.144 111.585 116.121 111.585C113.025 111.585 110.069 111.304 107.113 110.881L126.115 82.1393ZM28.0098 49.8753L60.8052 50.0162C60.3829 52.5522 60.2422 55.2291 60.2422 57.906C60.2422 61.4283 60.5238 64.8097 61.2275 68.0502C55.8789 70.7271 50.9525 74.2493 46.7299 78.4761L28.0098 49.8753ZM47.856 80.0259C51.9378 75.9401 56.5827 72.5587 61.6498 69.8818C64.6056 83.1255 72.2062 94.6785 82.7627 102.427C77.8363 105.245 72.347 107.359 66.5761 108.627L47.856 80.0259ZM64.4648 109.19C61.6498 109.613 58.8347 109.895 55.8788 109.895C47.9967 109.895 40.5368 108.204 33.7807 105.104C36.0327 96.2283 40.3961 88.1975 46.4485 81.5757L64.4648 109.19ZM63.4795 69.0364C70.3764 65.9368 77.9771 64.1053 86 64.1053C93.8822 64.1053 101.342 65.7959 108.098 68.8955C104.72 82.5619 96.1342 94.115 84.5925 101.441C74.036 93.8332 66.2946 82.2802 63.4795 69.0364ZM84.5925 103.836C90.3633 107.781 96.838 110.74 103.876 112.29L86.2815 138.777L67.7021 110.458C73.7545 109.19 79.3846 106.936 84.5925 103.836ZM110.491 67.7684C111.336 63.9643 111.758 60.0194 111.758 55.9335C111.758 53.9611 111.617 51.9887 111.476 50.0162L144.976 50.1571L125.974 78.8988C121.47 74.3903 116.262 70.5862 110.491 67.7684ZM109.646 55.9335C109.646 59.7376 109.224 63.4008 108.52 66.9231C101.624 63.8235 94.0229 62.1328 86 62.1328C77.8363 62.1328 70.0949 63.9643 63.0573 67.0639C62.4943 64.1052 62.2127 61.0057 62.2127 57.7652C62.2127 55.0883 62.3535 52.4113 62.7758 49.8753L109.224 50.0162C109.646 51.9887 109.646 53.9611 109.646 55.9335ZM63.198 47.9028C66.0131 32.9684 74.8805 20.1473 87.4075 12.2574C98.9493 20.57 106.972 33.3911 109.084 48.0437L63.198 47.9028ZM139.908 118.066C139.908 147.794 115.699 171.887 86.1407 171.887C56.4419 171.887 32.3732 147.653 32.3732 118.066C32.3732 114.262 32.7954 110.599 33.4992 107.077C40.3961 110.177 47.9967 111.867 56.0196 111.867C59.3977 111.867 62.635 111.585 65.7315 111.022L86.4222 142.581L106.128 112.853C109.365 113.417 112.884 113.84 116.262 113.84C124.426 113.84 132.167 112.008 139.205 108.908C139.627 111.867 139.908 114.826 139.908 118.066ZM140.471 105.809C138.36 96.2283 133.715 87.4931 127.241 80.4486L148.635 48.1845L111.054 48.0437C108.943 32.9684 100.779 19.8655 89.2373 11.1303C97.1195 6.48092 106.409 3.94492 116.121 3.94492C145.82 3.94492 169.889 28.1781 169.889 57.7652C170.029 78.7579 158.066 96.9328 140.471 105.809Z" fill="url(#paint0_linear_2974_1684)"/>
<defs>
<linearGradient id="paint0_linear_2974_1684" x1="0.0123863" y1="86.991" x2="172.02" y2="86.991" gradientUnits="userSpaceOnUse">
<stop stop-color="#E7D58B"/>
<stop offset="0.0454671" stop-color="#E5D17D"/>
<stop offset="0.1676" stop-color="#E2C65B"/>
<stop offset="0.2843" stop-color="#DFBF43"/>
<stop offset="0.3923" stop-color="#DEBB35"/>
<stop offset="0.4831" stop-color="#DDB930"/>
<stop offset="1" stop-color="#B59139"/>
</linearGradient>
</defs>
</svg>
