<svg width="174" height="174" viewBox="0 0 174 174" fill="none" xmlns="http://www.w3.org/2000/svg">
<g clip-path="url(#clip0_3686_987)">
<path d="M115.265 98.8332C121.797 83.2231 114.438 65.2737 98.8274 58.7419C83.2173 52.2102 65.2678 59.5697 58.7361 75.1798C52.2044 90.7899 59.5639 108.739 75.174 115.271C90.7841 121.803 108.734 114.443 115.265 98.8332Z" stroke="#DFBE3E" stroke-width="3" stroke-miterlimit="10"/>
<path d="M87 87V0" stroke="#DFBE3E" stroke-width="3" stroke-miterlimit="10"/>
<path d="M98.1589 0V11.1587C98.1589 17.4 93.0524 22.3174 87.0003 22.3174C80.7589 22.3174 75.8416 17.2109 75.8416 11.1587V0" stroke="#DFBE3E" stroke-width="3" stroke-miterlimit="10"/>
<path d="M77.3547 34.7998H96.646" stroke="#DFBE3E" stroke-width="3" stroke-miterlimit="10"/>
<path d="M77.3547 44.6348H96.646" stroke="#DFBE3E" stroke-width="3" stroke-miterlimit="10"/>
<path d="M87 87.0001L148.467 25.5327" stroke="#DFBE3E" stroke-width="3" stroke-miterlimit="10"/>
<path d="M156.411 33.4758L148.467 41.4193C144.117 45.7693 136.93 45.7693 132.58 41.4193C128.23 37.0693 128.23 29.8823 132.58 25.5323L140.524 17.5889" stroke="#DFBE3E" stroke-width="3" stroke-miterlimit="10"/>
<path d="M117.072 43.3105L130.689 56.9279" stroke="#DFBE3E" stroke-width="3" stroke-miterlimit="10"/>
<path d="M110.074 50.3081L123.691 63.9255" stroke="#DFBE3E" stroke-width="3" stroke-miterlimit="10"/>
<path d="M87 87H174" stroke="#DFBE3E" stroke-width="3" stroke-miterlimit="10"/>
<path d="M174 98.1587H162.841C156.6 98.1587 151.683 93.0522 151.683 87C151.683 80.7587 156.789 75.8413 162.841 75.8413H174" stroke="#DFBE3E" stroke-width="3" stroke-miterlimit="10"/>
<path d="M139.2 77.354V96.6453" stroke="#DFBE3E" stroke-width="3" stroke-miterlimit="10"/>
<path d="M129.365 77.354V96.6453" stroke="#DFBE3E" stroke-width="3" stroke-miterlimit="10"/>
<path d="M87 87L148.467 148.467" stroke="#DFBE3E" stroke-width="3" stroke-miterlimit="10"/>
<path d="M140.524 156.411L132.58 148.467C128.23 144.117 128.23 136.93 132.58 132.58C136.93 128.23 144.117 128.23 148.467 132.58L156.411 140.524" stroke="#DFBE3E" stroke-width="3" stroke-miterlimit="10"/>
<path d="M130.689 117.072L117.072 130.689" stroke="#DFBE3E" stroke-width="3" stroke-miterlimit="10"/>
<path d="M110.617 107L97 120.617" stroke="#DFBE3E" stroke-width="3" stroke-miterlimit="10"/>
<path d="M87 87V174" stroke="#DFBE3E" stroke-width="3" stroke-miterlimit="10"/>
<path d="M75.8416 174.001V162.842C75.8416 156.6 80.9481 151.683 87.0003 151.683C93.2416 151.683 98.1589 156.79 98.1589 162.842V174.001" stroke="#DFBE3E" stroke-width="3" stroke-miterlimit="10"/>
<path d="M96.646 139.2H77.3547" stroke="#DFBE3E" stroke-width="3" stroke-miterlimit="10"/>
<path d="M96.646 129.365H77.3547" stroke="#DFBE3E" stroke-width="3" stroke-miterlimit="10"/>
<path d="M87.0001 87L25.5327 148.467" stroke="#DFBE3E" stroke-width="3" stroke-miterlimit="10"/>
<path d="M17.5891 140.524L25.5326 132.58C29.8826 128.23 37.0695 128.23 41.4195 132.58C45.7695 136.93 45.7695 144.117 41.4195 148.467L33.4761 156.411" stroke="#DFBE3E" stroke-width="3" stroke-miterlimit="10"/>
<path d="M56.9284 130.689L43.311 117.072" stroke="#DFBE3E" stroke-width="3" stroke-miterlimit="10"/>
<path d="M63.9262 123.692L50.3088 110.074" stroke="#DFBE3E" stroke-width="3" stroke-miterlimit="10"/>
<path d="M87 87H0" stroke="#DFBE3E" stroke-width="3" stroke-miterlimit="10"/>
<path d="M0 75.8413H11.1587C17.4 75.8413 22.3174 80.9478 22.3174 87C22.3174 93.2413 17.2109 98.1587 11.1587 98.1587H0" stroke="#DFBE3E" stroke-width="3" stroke-miterlimit="10"/>
<path d="M34.7998 96.6453V77.354" stroke="#DFBE3E" stroke-width="3" stroke-miterlimit="10"/>
<path d="M44.635 96.6453V77.354" stroke="#DFBE3E" stroke-width="3" stroke-miterlimit="10"/>
<path d="M87.0001 87.0001L25.5327 25.5327" stroke="#DFBE3E" stroke-width="3" stroke-miterlimit="10"/>
<path d="M33.4761 17.5889L41.4195 25.5323C45.7695 29.8823 45.7695 37.0693 41.4195 41.4193C37.0695 45.7693 29.8826 45.7693 25.5326 41.4193L17.5891 33.4758" stroke="#DFBE3E" stroke-width="3" stroke-miterlimit="10"/>
<path d="M43.311 56.9279L56.9284 43.3105" stroke="#DFBE3E" stroke-width="3" stroke-miterlimit="10"/>
<path d="M50.3088 63.9255L63.9262 50.3081" stroke="#DFBE3E" stroke-width="3" stroke-miterlimit="10"/>
</g>
<defs>
<clipPath id="clip0_3686_987">
<rect width="174" height="174" fill="white"/>
</clipPath>
</defs>
</svg>
