<svg width="134" height="147" viewBox="0 0 134 147" fill="none" xmlns="http://www.w3.org/2000/svg">
<path d="M9.5 37.1191L66.9 62.1191L124.2 37.1191" stroke="#DEBB35" stroke-width="0.5" stroke-miterlimit="10" stroke-linecap="round" stroke-linejoin="round"/>
<path d="M66.9 136.719C103.572 136.719 133.3 106.991 133.3 70.319C133.3 33.6472 103.572 3.91895 66.9 3.91895C30.2283 3.91895 0.5 33.6472 0.5 70.319C0.5 106.991 30.2283 136.719 66.9 136.719Z" stroke="#DEBB35" stroke-width="0.5" stroke-linecap="round" stroke-linejoin="round" stroke-dasharray="2.55 2.55"/>
<path d="M66.9004 86.2192C80.4314 86.2192 91.4004 75.2502 91.4004 61.7192C91.4004 48.1883 80.4314 37.2192 66.9004 37.2192C53.3694 37.2192 42.4004 48.1883 42.4004 61.7192C42.4004 75.2502 53.3694 86.2192 66.9004 86.2192Z" fill="#2B2B2B"/>
<mask id="mask0_3549_1710" style="mask-type:luminance" maskUnits="userSpaceOnUse" x="42" y="37" width="50" height="50">
<path d="M66.9004 86.2192C80.4314 86.2192 91.4004 75.2502 91.4004 61.7192C91.4004 48.1883 80.4314 37.2192 66.9004 37.2192C53.3694 37.2192 42.4004 48.1883 42.4004 61.7192C42.4004 75.2502 53.3694 86.2192 66.9004 86.2192Z" fill="white"/>
</mask>
<g mask="url(#mask0_3549_1710)">
<path d="M66.9 62.1191L49 87.6191" stroke="#DEBB35" stroke-width="0.5" stroke-miterlimit="10" stroke-linecap="round" stroke-linejoin="round"/>
<path d="M66.8998 62.1191L44.7998 84.1191" stroke="#DEBB35" stroke-width="0.5" stroke-miterlimit="10" stroke-linecap="round" stroke-linejoin="round"/>
<path d="M66.9 62.1191L43 82.1191" stroke="#DEBB35" stroke-width="0.5" stroke-miterlimit="10" stroke-linecap="round" stroke-linejoin="round"/>
<path d="M66.9004 62.1191L41.4004 80.0191" stroke="#DEBB35" stroke-width="0.5" stroke-miterlimit="10" stroke-linecap="round" stroke-linejoin="round"/>
<path d="M66.9004 62.1191L39.9004 77.7191" stroke="#DEBB35" stroke-width="0.5" stroke-miterlimit="10" stroke-linecap="round" stroke-linejoin="round"/>
<path d="M66.9006 62.1191L38.6006 75.3192" stroke="#DEBB35" stroke-width="0.5" stroke-miterlimit="10" stroke-linecap="round" stroke-linejoin="round"/>
<path d="M66.9006 62.1191L37.6006 72.8192" stroke="#DEBB35" stroke-width="0.5" stroke-miterlimit="10" stroke-linecap="round" stroke-linejoin="round"/>
<path d="M66.8998 62.1191L36.7998 70.2191" stroke="#DEBB35" stroke-width="0.5" stroke-miterlimit="10" stroke-linecap="round" stroke-linejoin="round"/>
<path d="M66.9002 62.1191L36.2002 67.5191" stroke="#DEBB35" stroke-width="0.5" stroke-miterlimit="10" stroke-linecap="round" stroke-linejoin="round"/>
<path d="M66.8998 62.1191L35.7998 64.8192" stroke="#DEBB35" stroke-width="0.5" stroke-miterlimit="10" stroke-linecap="round" stroke-linejoin="round"/>
<path d="M66.9002 62.1191H35.7002" stroke="#DEBB35" stroke-width="0.5" stroke-miterlimit="10" stroke-linecap="round" stroke-linejoin="round"/>
<path d="M66.8998 62.1189L35.7998 59.4189" stroke="#DEBB35" stroke-width="0.5" stroke-miterlimit="10" stroke-linecap="round" stroke-linejoin="round"/>
<path d="M66.9002 62.1192L36.2002 56.7192" stroke="#DEBB35" stroke-width="0.5" stroke-miterlimit="10" stroke-linecap="round" stroke-linejoin="round"/>
<path d="M66.8998 62.119L36.7998 54.019" stroke="#DEBB35" stroke-width="0.5" stroke-miterlimit="10" stroke-linecap="round" stroke-linejoin="round"/>
<path d="M66.9006 62.119L37.6006 51.519" stroke="#DEBB35" stroke-width="0.5" stroke-miterlimit="10" stroke-linecap="round" stroke-linejoin="round"/>
<path d="M66.9006 62.1189L38.6006 48.9189" stroke="#DEBB35" stroke-width="0.5" stroke-miterlimit="10" stroke-linecap="round" stroke-linejoin="round"/>
<path d="M66.9004 62.119L39.9004 46.519" stroke="#DEBB35" stroke-width="0.5" stroke-miterlimit="10" stroke-linecap="round" stroke-linejoin="round"/>
<path d="M66.9004 62.1193L41.4004 44.3193" stroke="#DEBB35" stroke-width="0.5" stroke-miterlimit="10" stroke-linecap="round" stroke-linejoin="round"/>
<path d="M66.9 62.1191L43 42.1191" stroke="#DEBB35" stroke-width="0.5" stroke-miterlimit="10" stroke-linecap="round" stroke-linejoin="round"/>
<path d="M66.8998 62.1191L44.7998 40.1191" stroke="#DEBB35" stroke-width="0.5" stroke-miterlimit="10" stroke-linecap="round" stroke-linejoin="round"/>
<path d="M66.8998 62.1193L46.7998 38.3193" stroke="#DEBB35" stroke-width="0.5" stroke-miterlimit="10" stroke-linecap="round" stroke-linejoin="round"/>
<path d="M66.9 62.1191L49 36.6191" stroke="#DEBB35" stroke-width="0.5" stroke-miterlimit="10" stroke-linecap="round" stroke-linejoin="round"/>
<path d="M66.8998 62.1191L51.2998 35.1191" stroke="#DEBB35" stroke-width="0.5" stroke-miterlimit="10" stroke-linecap="round" stroke-linejoin="round"/>
<path d="M66.9002 62.1189L53.7002 33.9189" stroke="#DEBB35" stroke-width="0.5" stroke-miterlimit="10" stroke-linecap="round" stroke-linejoin="round"/>
<path d="M66.9002 62.1189L56.2002 32.9189" stroke="#DEBB35" stroke-width="0.5" stroke-miterlimit="10" stroke-linecap="round" stroke-linejoin="round"/>
<path d="M66.8998 62.119L58.7998 32.019" stroke="#DEBB35" stroke-width="0.5" stroke-miterlimit="10" stroke-linecap="round" stroke-linejoin="round"/>
<path d="M66.9 62.1189L61.5 31.4189" stroke="#DEBB35" stroke-width="0.5" stroke-miterlimit="10" stroke-linecap="round" stroke-linejoin="round"/>
<path d="M66.9006 62.1191L64.1006 31.1191" stroke="#DEBB35" stroke-width="0.5" stroke-miterlimit="10" stroke-linecap="round" stroke-linejoin="round"/>
<path d="M66.8998 62.1191L46.7998 86.0191" stroke="#DEBB35" stroke-width="0.5" stroke-miterlimit="10" stroke-linecap="round" stroke-linejoin="round"/>
</g>
<mask id="mask1_3549_1710" style="mask-type:luminance" maskUnits="userSpaceOnUse" x="42" y="37" width="50" height="50">
<path d="M66.9004 86.2192C80.4314 86.2192 91.4004 75.2502 91.4004 61.7192C91.4004 48.1883 80.4314 37.2192 66.9004 37.2192C53.3694 37.2192 42.4004 48.1883 42.4004 61.7192C42.4004 75.2502 53.3694 86.2192 66.9004 86.2192Z" fill="white"/>
</mask>
<g mask="url(#mask1_3549_1710)">
<path d="M66.9004 62.1191L84.7004 87.6191" stroke="#DEBB35" stroke-width="0.5" stroke-miterlimit="10" stroke-linecap="round" stroke-linejoin="round"/>
<path d="M66.9004 62.1191L88.9004 84.1191" stroke="#DEBB35" stroke-width="0.5" stroke-miterlimit="10" stroke-linecap="round" stroke-linejoin="round"/>
<path d="M66.9004 62.1191L90.7004 82.1191" stroke="#DEBB35" stroke-width="0.5" stroke-miterlimit="10" stroke-linecap="round" stroke-linejoin="round"/>
<path d="M66.9004 62.1191L92.4004 80.0191" stroke="#DEBB35" stroke-width="0.5" stroke-miterlimit="10" stroke-linecap="round" stroke-linejoin="round"/>
<path d="M66.9004 62.1191L93.8004 77.7191" stroke="#DEBB35" stroke-width="0.5" stroke-miterlimit="10" stroke-linecap="round" stroke-linejoin="round"/>
<path d="M66.9004 62.1191L95.1004 75.3192" stroke="#DEBB35" stroke-width="0.5" stroke-miterlimit="10" stroke-linecap="round" stroke-linejoin="round"/>
<path d="M66.9004 62.1191L96.1004 72.8192" stroke="#DEBB35" stroke-width="0.5" stroke-miterlimit="10" stroke-linecap="round" stroke-linejoin="round"/>
<path d="M66.9004 62.1191L96.9004 70.2191" stroke="#DEBB35" stroke-width="0.5" stroke-miterlimit="10" stroke-linecap="round" stroke-linejoin="round"/>
<path d="M66.9004 62.1191L97.5004 67.5191" stroke="#DEBB35" stroke-width="0.5" stroke-miterlimit="10" stroke-linecap="round" stroke-linejoin="round"/>
<path d="M66.9004 62.1191L97.9004 64.8192" stroke="#DEBB35" stroke-width="0.5" stroke-miterlimit="10" stroke-linecap="round" stroke-linejoin="round"/>
<path d="M66.9004 62.1191H98.0004" stroke="#DEBB35" stroke-width="0.5" stroke-miterlimit="10" stroke-linecap="round" stroke-linejoin="round"/>
<path d="M66.9004 62.1189L97.9004 59.4189" stroke="#DEBB35" stroke-width="0.5" stroke-miterlimit="10" stroke-linecap="round" stroke-linejoin="round"/>
<path d="M66.9004 62.1192L97.5004 56.7192" stroke="#DEBB35" stroke-width="0.5" stroke-miterlimit="10" stroke-linecap="round" stroke-linejoin="round"/>
<path d="M66.9004 62.119L96.9004 54.019" stroke="#DEBB35" stroke-width="0.5" stroke-miterlimit="10" stroke-linecap="round" stroke-linejoin="round"/>
<path d="M66.9004 62.119L96.1004 51.519" stroke="#DEBB35" stroke-width="0.5" stroke-miterlimit="10" stroke-linecap="round" stroke-linejoin="round"/>
<path d="M66.9004 62.1189L95.1004 48.9189" stroke="#DEBB35" stroke-width="0.5" stroke-miterlimit="10" stroke-linecap="round" stroke-linejoin="round"/>
<path d="M66.9004 62.119L93.8004 46.519" stroke="#DEBB35" stroke-width="0.5" stroke-miterlimit="10" stroke-linecap="round" stroke-linejoin="round"/>
<path d="M66.9004 62.1193L92.4004 44.3193" stroke="#DEBB35" stroke-width="0.5" stroke-miterlimit="10" stroke-linecap="round" stroke-linejoin="round"/>
<path d="M66.9004 62.1191L90.7004 42.1191" stroke="#DEBB35" stroke-width="0.5" stroke-miterlimit="10" stroke-linecap="round" stroke-linejoin="round"/>
<path d="M66.9004 62.1191L88.9004 40.1191" stroke="#DEBB35" stroke-width="0.5" stroke-miterlimit="10" stroke-linecap="round" stroke-linejoin="round"/>
<path d="M66.9004 62.1193L86.9004 38.3193" stroke="#DEBB35" stroke-width="0.5" stroke-miterlimit="10" stroke-linecap="round" stroke-linejoin="round"/>
<path d="M66.9004 62.1191L84.7004 36.6191" stroke="#DEBB35" stroke-width="0.5" stroke-miterlimit="10" stroke-linecap="round" stroke-linejoin="round"/>
<path d="M66.9004 62.1191L82.4004 35.1191" stroke="#DEBB35" stroke-width="0.5" stroke-miterlimit="10" stroke-linecap="round" stroke-linejoin="round"/>
<path d="M66.9004 62.1189L80.0004 33.9189" stroke="#DEBB35" stroke-width="0.5" stroke-miterlimit="10" stroke-linecap="round" stroke-linejoin="round"/>
<path d="M66.9004 62.1189L77.5004 32.9189" stroke="#DEBB35" stroke-width="0.5" stroke-miterlimit="10" stroke-linecap="round" stroke-linejoin="round"/>
<path d="M66.9004 62.119L74.9004 32.019" stroke="#DEBB35" stroke-width="0.5" stroke-miterlimit="10" stroke-linecap="round" stroke-linejoin="round"/>
<path d="M66.9004 62.1189L72.3004 31.4189" stroke="#DEBB35" stroke-width="0.5" stroke-miterlimit="10" stroke-linecap="round" stroke-linejoin="round"/>
<path d="M66.9004 62.1191L69.6004 31.1191" stroke="#DEBB35" stroke-width="0.5" stroke-miterlimit="10" stroke-linecap="round" stroke-linejoin="round"/>
<path d="M66.9004 62.1191L86.9004 86.0191" stroke="#DEBB35" stroke-width="0.5" stroke-miterlimit="10" stroke-linecap="round" stroke-linejoin="round"/>
</g>
<path d="M66.9004 86.2192C80.4314 86.2192 91.4004 75.2502 91.4004 61.7192C91.4004 48.1883 80.4314 37.2192 66.9004 37.2192C53.3694 37.2192 42.4004 48.1883 42.4004 61.7192C42.4004 75.2502 53.3694 86.2192 66.9004 86.2192Z" stroke="#DEBB35" stroke-miterlimit="10" stroke-linecap="round" stroke-linejoin="round"/>
<path d="M66.9004 120.519V127.519" stroke="#DEBB35" stroke-width="0.5" stroke-miterlimit="10" stroke-linecap="round" stroke-linejoin="round"/>
<path d="M2.3002 33.7191L1.7002 32.6191H3.0002" stroke="#DEBB35" stroke-width="0.5" stroke-linecap="round" stroke-linejoin="round"/>
<path d="M6.7998 32.6191H17.2998" stroke="#DEBB35" stroke-width="0.5" stroke-linecap="round" stroke-linejoin="round" stroke-dasharray="2.38 2.38"/>
<path d="M19.2002 32.6191H128.8" stroke="#DEBB35" stroke-width="0.5" stroke-linecap="round" stroke-linejoin="round" stroke-dasharray="2.38 2.38"/>
<path d="M130.8 32.6191H132L131.4 33.7191" stroke="#DEBB35" stroke-width="0.5" stroke-linecap="round" stroke-linejoin="round"/>
<path d="M129.5 37.019L124.2 46.119" stroke="#DEBB35" stroke-width="0.5" stroke-linecap="round" stroke-linejoin="round" stroke-dasharray="2.38 2.38"/>
<path d="M123.3 47.8193L68.4004 142.719" stroke="#DEBB35" stroke-width="0.5" stroke-linecap="round" stroke-linejoin="round" stroke-dasharray="2.38 2.38"/>
<path d="M67.5002 144.419L66.9002 145.519L66.2002 144.419" stroke="#DEBB35" stroke-width="0.5" stroke-linecap="round" stroke-linejoin="round"/>
<path d="M64.3006 141.119L59.1006 132.019" stroke="#DEBB35" stroke-width="0.5" stroke-linecap="round" stroke-linejoin="round" stroke-dasharray="2.38 2.38"/>
<path d="M58.0998 130.419L3.2998 35.4189" stroke="#DEBB35" stroke-width="0.5" stroke-linecap="round" stroke-linejoin="round" stroke-dasharray="2.38 2.38"/>
<path d="M66.8998 37.1189C76.0677 37.1189 83.4998 29.6869 83.4998 20.519C83.4998 11.351 76.0677 3.91895 66.8998 3.91895C57.7319 3.91895 50.2998 11.351 50.2998 20.519C50.2998 29.6869 57.7319 37.1189 66.8998 37.1189Z" fill="#2B2B2B"/>
<path d="M66.8998 37.1189C76.0677 37.1189 83.4998 29.6869 83.4998 20.519C83.4998 11.351 76.0677 3.91895 66.8998 3.91895C57.7319 3.91895 50.2998 11.351 50.2998 20.519C50.2998 29.6869 57.7319 37.1189 66.8998 37.1189Z" stroke="#DEBB35" stroke-miterlimit="10" stroke-linecap="round" stroke-linejoin="round"/>
<path d="M124.2 37.1191H9.5L66.9 136.519L124.2 37.1191Z" stroke="#DEBB35" stroke-miterlimit="10" stroke-linecap="round" stroke-linejoin="round"/>
<path d="M9.5 46.1191C14.4706 46.1191 18.5 42.0897 18.5 37.1191C18.5 32.1486 14.4706 28.1191 9.5 28.1191C4.52944 28.1191 0.5 32.1486 0.5 37.1191C0.5 42.0897 4.52944 46.1191 9.5 46.1191Z" fill="#2B2B2B"/>
<path d="M9.5 46.1191C14.4706 46.1191 18.5 42.0897 18.5 37.1191C18.5 32.1486 14.4706 28.1191 9.5 28.1191C4.52944 28.1191 0.5 32.1486 0.5 37.1191C0.5 42.0897 4.52944 46.1191 9.5 46.1191Z" stroke="#DEBB35" stroke-miterlimit="10" stroke-linecap="round" stroke-linejoin="round"/>
<path d="M4.2998 40.619H14.6998L9.4998 31.519L4.2998 40.619Z" stroke="#DEBB35" stroke-miterlimit="10" stroke-linecap="round" stroke-linejoin="round"/>
<path d="M124.2 46.1191C129.171 46.1191 133.2 42.0897 133.2 37.1191C133.2 32.1486 129.171 28.1191 124.2 28.1191C119.23 28.1191 115.2 32.1486 115.2 37.1191C115.2 42.0897 119.23 46.1191 124.2 46.1191Z" fill="#2B2B2B"/>
<path d="M124.2 46.1191C129.171 46.1191 133.2 42.0897 133.2 37.1191C133.2 32.1486 129.171 28.1191 124.2 28.1191C119.23 28.1191 115.2 32.1486 115.2 37.1191C115.2 42.0897 119.23 46.1191 124.2 46.1191Z" stroke="#DEBB35" stroke-miterlimit="10" stroke-linecap="round" stroke-linejoin="round"/>
<path d="M119 40.619H129.4L124.2 31.519L119 40.619Z" stroke="#DEBB35" stroke-miterlimit="10" stroke-linecap="round" stroke-linejoin="round"/>
<path d="M60.5 130.119C57 133.619 57 139.319 60.5 142.919C64 146.419 69.7 146.419 73.3 142.919C76.8 139.419 76.8 133.719 73.3 130.119C69.7 126.619 64 126.619 60.5 130.119Z" fill="#2B2B2B"/>
<path d="M60.5 130.119C57 133.619 57 139.319 60.5 142.919C64 146.419 69.7 146.419 73.3 142.919C76.8 139.419 76.8 133.719 73.3 130.119C69.7 126.619 64 126.619 60.5 130.119Z" stroke="#DEBB35" stroke-miterlimit="10" stroke-linecap="round" stroke-linejoin="round"/>
<path d="M61.5996 139.919H72.0996L66.8996 130.819L61.5996 139.919Z" stroke="#DEBB35" stroke-miterlimit="10" stroke-linecap="round" stroke-linejoin="round"/>
<path d="M57.9004 21.5193C57.9004 18.4193 59.5004 15.4193 62.4004 13.8193C66.7004 11.3193 72.1004 12.8192 74.6004 17.1192C75.4004 18.5192 75.8004 20.1192 75.8004 21.6192H57.9004V21.5193Z" stroke="#DEBB35" stroke-width="0.5" stroke-miterlimit="10" stroke-linecap="round" stroke-linejoin="round"/>
<path d="M66.9004 21.519L75.7004 20.019" stroke="#DEBB35" stroke-width="0.5" stroke-miterlimit="10" stroke-linecap="round" stroke-linejoin="round"/>
<path d="M66.9004 21.519L75.3004 18.519" stroke="#DEBB35" stroke-width="0.5" stroke-miterlimit="10" stroke-linecap="round" stroke-linejoin="round"/>
<path d="M66.9004 21.5191L74.6004 17.1191" stroke="#DEBB35" stroke-width="0.5" stroke-miterlimit="10" stroke-linecap="round" stroke-linejoin="round"/>
<path d="M66.9004 21.5193L73.7004 15.8193" stroke="#DEBB35" stroke-width="0.5" stroke-miterlimit="10" stroke-linecap="round" stroke-linejoin="round"/>
<path d="M66.9004 21.5192L72.6004 14.7192" stroke="#DEBB35" stroke-width="0.5" stroke-miterlimit="10" stroke-linecap="round" stroke-linejoin="round"/>
<path d="M66.9004 21.5193L71.3004 13.8193" stroke="#DEBB35" stroke-width="0.5" stroke-miterlimit="10" stroke-linecap="round" stroke-linejoin="round"/>
<path d="M66.9004 21.5191L69.9004 13.1191" stroke="#DEBB35" stroke-width="0.5" stroke-miterlimit="10" stroke-linecap="round" stroke-linejoin="round"/>
<path d="M66.9004 21.5192L68.4004 12.7192" stroke="#DEBB35" stroke-width="0.5" stroke-miterlimit="10" stroke-linecap="round" stroke-linejoin="round"/>
<path d="M66.9004 21.5191V12.6191" stroke="#DEBB35" stroke-width="0.5" stroke-miterlimit="10" stroke-linecap="round" stroke-linejoin="round"/>
<path d="M66.9008 21.5192L65.3008 12.7192" stroke="#DEBB35" stroke-width="0.5" stroke-miterlimit="10" stroke-linecap="round" stroke-linejoin="round"/>
<path d="M66.9008 21.5191L63.8008 13.1191" stroke="#DEBB35" stroke-width="0.5" stroke-miterlimit="10" stroke-linecap="round" stroke-linejoin="round"/>
<path d="M66.9004 21.5193L62.4004 13.8193" stroke="#DEBB35" stroke-width="0.5" stroke-miterlimit="10" stroke-linecap="round" stroke-linejoin="round"/>
<path d="M66.9006 21.5192L61.1006 14.7192" stroke="#DEBB35" stroke-width="0.5" stroke-miterlimit="10" stroke-linecap="round" stroke-linejoin="round"/>
<path d="M66.9 21.5193L60 15.8193" stroke="#DEBB35" stroke-width="0.5" stroke-miterlimit="10" stroke-linecap="round" stroke-linejoin="round"/>
<path d="M66.9006 21.5191L59.1006 17.1191" stroke="#DEBB35" stroke-width="0.5" stroke-miterlimit="10" stroke-linecap="round" stroke-linejoin="round"/>
<path d="M66.9 21.519L58.5 18.519" stroke="#DEBB35" stroke-width="0.5" stroke-miterlimit="10" stroke-linecap="round" stroke-linejoin="round"/>
<path d="M66.9006 21.519L58.1006 20.019" stroke="#DEBB35" stroke-width="0.5" stroke-miterlimit="10" stroke-linecap="round" stroke-linejoin="round"/>
<path d="M52.4004 12.2192L66.9004 37.1192L81.3004 12.2192H52.4004Z" stroke="#DEBB35" stroke-miterlimit="10" stroke-linecap="round" stroke-linejoin="round"/>
<path d="M66.9004 99.3193V108.819" stroke="#DEBB35" stroke-miterlimit="10" stroke-linecap="round" stroke-linejoin="round"/>
<path d="M72.7004 114.619C72.7004 111.419 70.1004 108.719 66.8004 108.719C63.5004 108.719 60.9004 111.319 60.9004 114.619C60.9004 117.819 63.5004 120.519 66.8004 120.519C70.1004 120.519 72.7004 117.919 72.7004 114.619Z" stroke="#DEBB35" stroke-miterlimit="10" stroke-linecap="round" stroke-linejoin="round"/>
<path d="M72.7004 114.619C72.7004 114.619 71.1004 117.419 66.8004 117.419C62.5004 117.419 60.9004 114.619 60.9004 114.619C60.9004 114.619 62.5004 111.819 66.8004 111.819C71.1004 111.819 72.7004 114.619 72.7004 114.619Z" stroke="#DEBB35" stroke-miterlimit="10" stroke-linecap="round" stroke-linejoin="round"/>
<path d="M68.4004 114.619C68.4004 113.819 67.7004 113.119 66.9004 113.119C66.1004 113.119 65.4004 113.819 65.4004 114.619C65.4004 115.419 66.1004 116.119 66.9004 116.119C67.7004 116.219 68.4004 115.519 68.4004 114.619Z" stroke="#DEBB35" stroke-width="0.5" stroke-miterlimit="10" stroke-linecap="round" stroke-linejoin="round"/>
<path d="M25.7998 94.1189L38.1998 86.9189" stroke="#DEBB35" stroke-miterlimit="10" stroke-linecap="round" stroke-linejoin="round"/>
<path d="M63.9003 2.21914C64.8003 0.619141 66.9003 0.0191383 68.6003 0.919138C70.2003 1.81914 70.8003 3.91914 69.9003 5.61914C69.0003 7.21914 66.9003 7.81914 65.2003 6.91914C63.5003 5.91914 62.9003 3.81914 63.9003 2.21914Z" fill="#2B2B2B"/>
<path d="M63.9003 2.21914C64.8003 0.619141 66.9003 0.0191383 68.6003 0.919138C70.2003 1.81914 70.8003 3.91914 69.9003 5.61914C69.0003 7.21914 66.9003 7.81914 65.2003 6.91914C63.5003 5.91914 62.9003 3.81914 63.9003 2.21914Z" stroke="#DEBB35" stroke-miterlimit="10" stroke-linecap="round" stroke-linejoin="round"/>
<path d="M81.3004 62.1191L66.9004 37.1191L52.4004 62.1191H81.3004Z" fill="#2B2B2B"/>
<path d="M81.3004 62.1191L66.9004 37.1191L52.4004 62.1191H81.3004Z" stroke="#DEBB35" stroke-miterlimit="10" stroke-linecap="round" stroke-linejoin="round"/>
<path d="M73.2998 52.8193C73.2998 56.4193 70.3998 59.3193 66.7998 59.3193C63.1998 59.3193 60.2998 56.4193 60.2998 52.8193H73.2998Z" stroke="#DEBB35" stroke-width="0.5" stroke-miterlimit="10" stroke-linecap="round" stroke-linejoin="round"/>
<path d="M63.7002 47.4189L66.9002 52.8189L70.0002 47.4189H63.7002Z" stroke="#DEBB35" stroke-width="0.5" stroke-miterlimit="10" stroke-linecap="round" stroke-linejoin="round"/>
<path d="M88.3004 99.3192L66.9004 62.1191L45.4004 99.3192H88.3004Z" fill="#2B2B2B"/>
<path d="M88.3004 99.3192L66.9004 62.1191L45.4004 99.3192H88.3004Z" stroke="#DEBB35" stroke-miterlimit="10" stroke-linecap="round" stroke-linejoin="round"/>
<path d="M63.9003 35.8193C64.8003 34.2193 66.9003 33.6192 68.6003 34.5192C70.2003 35.4192 70.8003 37.5192 69.9003 39.2192C69.0003 40.8192 66.9003 41.4192 65.2003 40.5192C63.5003 39.5192 62.9003 37.4193 63.9003 35.8193Z" fill="#2B2B2B"/>
<path d="M63.9003 35.8193C64.8003 34.2193 66.9003 33.6192 68.6003 34.5192C70.2003 35.4192 70.8003 37.5192 69.9003 39.2192C69.0003 40.8192 66.9003 41.4192 65.2003 40.5192C63.5003 39.5192 62.9003 37.4193 63.9003 35.8193Z" stroke="#DEBB35" stroke-miterlimit="10" stroke-linecap="round" stroke-linejoin="round"/>
<path d="M63.9003 97.619C64.8003 96.019 66.9003 95.419 68.6003 96.319C70.2003 97.219 70.8003 99.319 69.9003 101.019C69.0003 102.619 66.9003 103.219 65.2003 102.319C63.5003 101.319 62.9003 99.219 63.9003 97.619Z" fill="#2B2B2B"/>
<path d="M63.9003 97.619C64.8003 96.019 66.9003 95.419 68.6003 96.319C70.2003 97.219 70.8003 99.319 69.9003 101.019C69.0003 102.619 66.9003 103.219 65.2003 102.319C63.5003 101.319 62.9003 99.219 63.9003 97.619Z" stroke="#DEBB35" stroke-miterlimit="10" stroke-linecap="round" stroke-linejoin="round"/>
<path d="M57.0996 79.019L66.8996 95.9191L76.5996 79.019H57.0996Z" stroke="#DEBB35" stroke-miterlimit="10" stroke-linecap="round" stroke-linejoin="round"/>
<path d="M20.5002 84.9189C17.3002 86.7189 15.2002 90.1189 15.2002 94.1189C15.2002 99.9189 19.9002 104.719 25.8002 104.719C27.7002 104.719 29.5002 104.219 31.1002 103.319L20.5002 84.9189Z" stroke="#DEBB35" stroke-width="0.5" stroke-miterlimit="10" stroke-linecap="round" stroke-linejoin="round"/>
<path d="M25.7998 94.1191L29.3998 104.019" stroke="#DEBB35" stroke-width="0.5" stroke-miterlimit="10" stroke-linecap="round" stroke-linejoin="round"/>
<path d="M25.7998 94.1191L27.5998 104.519" stroke="#DEBB35" stroke-width="0.5" stroke-miterlimit="10" stroke-linecap="round" stroke-linejoin="round"/>
<path d="M25.7998 94.1191V104.719" stroke="#DEBB35" stroke-width="0.5" stroke-miterlimit="10" stroke-linecap="round" stroke-linejoin="round"/>
<path d="M25.8004 94.1191L23.9004 104.519" stroke="#DEBB35" stroke-width="0.5" stroke-miterlimit="10" stroke-linecap="round" stroke-linejoin="round"/>
<path d="M25.8006 94.1191L22.1006 104.019" stroke="#DEBB35" stroke-width="0.5" stroke-miterlimit="10" stroke-linecap="round" stroke-linejoin="round"/>
<path d="M25.8 94.1191L20.5 103.319" stroke="#DEBB35" stroke-width="0.5" stroke-miterlimit="10" stroke-linecap="round" stroke-linejoin="round"/>
<path d="M25.8 94.1191L19 102.219" stroke="#DEBB35" stroke-width="0.5" stroke-miterlimit="10" stroke-linecap="round" stroke-linejoin="round"/>
<path d="M25.8002 94.1191L17.7002 100.919" stroke="#DEBB35" stroke-width="0.5" stroke-miterlimit="10" stroke-linecap="round" stroke-linejoin="round"/>
<path d="M25.8006 94.1191L16.6006 99.4192" stroke="#DEBB35" stroke-width="0.5" stroke-miterlimit="10" stroke-linecap="round" stroke-linejoin="round"/>
<path d="M25.7998 94.1191L15.7998 97.7191" stroke="#DEBB35" stroke-width="0.5" stroke-miterlimit="10" stroke-linecap="round" stroke-linejoin="round"/>
<path d="M25.7998 94.1191L15.2998 95.9192" stroke="#DEBB35" stroke-width="0.5" stroke-miterlimit="10" stroke-linecap="round" stroke-linejoin="round"/>
<path d="M25.8002 94.1191H15.2002" stroke="#DEBB35" stroke-width="0.5" stroke-miterlimit="10" stroke-linecap="round" stroke-linejoin="round"/>
<path d="M25.7998 94.1188L15.2998 92.3188" stroke="#DEBB35" stroke-width="0.5" stroke-miterlimit="10" stroke-linecap="round" stroke-linejoin="round"/>
<path d="M25.7998 94.119L15.7998 90.519" stroke="#DEBB35" stroke-width="0.5" stroke-miterlimit="10" stroke-linecap="round" stroke-linejoin="round"/>
<path d="M25.8006 94.1188L16.6006 88.8188" stroke="#DEBB35" stroke-width="0.5" stroke-miterlimit="10" stroke-linecap="round" stroke-linejoin="round"/>
<path d="M25.8002 94.1188L17.7002 87.3188" stroke="#DEBB35" stroke-width="0.5" stroke-miterlimit="10" stroke-linecap="round" stroke-linejoin="round"/>
<path d="M25.8 94.119L19 86.019" stroke="#DEBB35" stroke-width="0.5" stroke-miterlimit="10" stroke-linecap="round" stroke-linejoin="round"/>
<path d="M29 99.7191C25.9 101.519 22 100.419 20.2 97.3191C18.4 94.2191 19.5 90.319 22.6 88.519L29 99.7191Z" fill="#2B2B2B"/>
<path d="M29 99.7191C25.9 101.519 22 100.419 20.2 97.3191C18.4 94.2191 19.5 90.319 22.6 88.519L29 99.7191Z" stroke="#DEBB35" stroke-width="0.5" stroke-miterlimit="10" stroke-linecap="round" stroke-linejoin="round"/>
<path d="M28.6999 92.4193C27.7999 90.8193 25.6999 90.2193 23.9999 91.1193C22.3999 92.0193 21.7999 94.1193 22.6999 95.8193C23.5999 97.4193 25.6999 98.0193 27.3999 97.1193C29.0999 96.1193 29.6999 94.0193 28.6999 92.4193Z" fill="#2B2B2B"/>
<path d="M28.6999 92.4193C27.7999 90.8193 25.6999 90.2193 23.9999 91.1193C22.3999 92.0193 21.7999 94.1193 22.6999 95.8193C23.5999 97.4193 25.6999 98.0193 27.3999 97.1193C29.0999 96.1193 29.6999 94.0193 28.6999 92.4193Z" stroke="#DEBB35" stroke-miterlimit="10" stroke-linecap="round" stroke-linejoin="round"/>
<path d="M107.9 94.1189L95.5 86.9189" stroke="#DEBB35" stroke-miterlimit="10" stroke-linecap="round" stroke-linejoin="round"/>
<path d="M113.2 84.9189C116.4 86.7189 118.5 90.1189 118.5 94.1189C118.5 99.9189 113.8 104.719 107.9 104.719C106 104.719 104.2 104.219 102.6 103.319L113.2 84.9189Z" stroke="#DEBB35" stroke-width="0.5" stroke-miterlimit="10" stroke-linecap="round" stroke-linejoin="round"/>
<path d="M107.9 94.1191L104.3 104.019" stroke="#DEBB35" stroke-width="0.5" stroke-miterlimit="10" stroke-linecap="round" stroke-linejoin="round"/>
<path d="M107.9 94.1191L106.1 104.519" stroke="#DEBB35" stroke-width="0.5" stroke-miterlimit="10" stroke-linecap="round" stroke-linejoin="round"/>
<path d="M107.899 94.1191V104.719" stroke="#DEBB35" stroke-width="0.5" stroke-miterlimit="10" stroke-linecap="round" stroke-linejoin="round"/>
<path d="M107.899 94.1191L109.799 104.519" stroke="#DEBB35" stroke-width="0.5" stroke-miterlimit="10" stroke-linecap="round" stroke-linejoin="round"/>
<path d="M107.899 94.1191L111.599 104.019" stroke="#DEBB35" stroke-width="0.5" stroke-miterlimit="10" stroke-linecap="round" stroke-linejoin="round"/>
<path d="M107.899 94.1191L113.199 103.319" stroke="#DEBB35" stroke-width="0.5" stroke-miterlimit="10" stroke-linecap="round" stroke-linejoin="round"/>
<path d="M107.899 94.1191L114.799 102.219" stroke="#DEBB35" stroke-width="0.5" stroke-miterlimit="10" stroke-linecap="round" stroke-linejoin="round"/>
<path d="M107.899 94.1191L116.099 100.919" stroke="#DEBB35" stroke-width="0.5" stroke-miterlimit="10" stroke-linecap="round" stroke-linejoin="round"/>
<path d="M107.899 94.1191L117.099 99.4192" stroke="#DEBB35" stroke-width="0.5" stroke-miterlimit="10" stroke-linecap="round" stroke-linejoin="round"/>
<path d="M107.899 94.1191L117.899 97.7191" stroke="#DEBB35" stroke-width="0.5" stroke-miterlimit="10" stroke-linecap="round" stroke-linejoin="round"/>
<path d="M107.899 94.1191L118.399 95.9192" stroke="#DEBB35" stroke-width="0.5" stroke-miterlimit="10" stroke-linecap="round" stroke-linejoin="round"/>
<path d="M107.899 94.1191H118.499" stroke="#DEBB35" stroke-width="0.5" stroke-miterlimit="10" stroke-linecap="round" stroke-linejoin="round"/>
<path d="M107.899 94.1188L118.399 92.3188" stroke="#DEBB35" stroke-width="0.5" stroke-miterlimit="10" stroke-linecap="round" stroke-linejoin="round"/>
<path d="M107.899 94.119L117.899 90.519" stroke="#DEBB35" stroke-width="0.5" stroke-miterlimit="10" stroke-linecap="round" stroke-linejoin="round"/>
<path d="M107.899 94.1188L117.099 88.8188" stroke="#DEBB35" stroke-width="0.5" stroke-miterlimit="10" stroke-linecap="round" stroke-linejoin="round"/>
<path d="M107.899 94.1188L116.099 87.3188" stroke="#DEBB35" stroke-width="0.5" stroke-miterlimit="10" stroke-linecap="round" stroke-linejoin="round"/>
<path d="M107.899 94.119L114.799 86.019" stroke="#DEBB35" stroke-width="0.5" stroke-miterlimit="10" stroke-linecap="round" stroke-linejoin="round"/>
<path d="M104.7 99.7191C107.8 101.519 111.7 100.419 113.5 97.3191C115.3 94.2191 114.2 90.319 111.1 88.519L104.7 99.7191Z" fill="#2B2B2B"/>
<path d="M104.7 99.7191C107.8 101.519 111.7 100.419 113.5 97.3191C115.3 94.2191 114.2 90.319 111.1 88.519L104.7 99.7191Z" stroke="#DEBB35" stroke-width="0.5" stroke-miterlimit="10" stroke-linecap="round" stroke-linejoin="round"/>
<path d="M105 92.4193C105.9 90.8193 108 90.2193 109.7 91.1193C111.3 92.0193 111.9 94.1193 111 95.8193C110.1 97.4193 108 98.0193 106.3 97.1193C104.6 96.1193 104 94.0193 105 92.4193Z" fill="#2B2B2B"/>
<path d="M105 92.4193C105.9 90.8193 108 90.2193 109.7 91.1193C111.3 92.0193 111.9 94.1193 111 95.8193C110.1 97.4193 108 98.0193 106.3 97.1193C104.6 96.1193 104 94.0193 105 92.4193Z" stroke="#DEBB35" stroke-miterlimit="10" stroke-linecap="round" stroke-linejoin="round"/>
</svg>
