<svg width="651" height="652" viewBox="0 0 651 652" fill="none" xmlns="http://www.w3.org/2000/svg">
<path d="M606.339 176.41C605.211 176.034 604.459 176.787 604.083 177.915C603.33 181.3 602.578 185.062 601.45 188.447C601.074 189.575 601.826 190.328 602.578 190.704H602.954C603.706 190.704 604.459 190.328 604.835 189.575C605.963 186.19 606.716 182.429 607.468 178.667C607.844 177.539 607.092 176.786 606.339 176.41Z" fill="#DEBB35"/>
<path d="M601.824 125.632C602.2 126.384 602.953 126.76 603.705 126.76H604.081C605.21 126.384 605.586 125.632 605.21 124.504C604.081 121.118 602.953 117.357 601.448 113.972C601.072 113.219 599.944 112.467 599.191 112.843C598.439 113.219 597.687 114.348 598.063 115.1C599.567 118.861 600.696 122.247 601.824 125.632Z" fill="#DEBB35"/>
<path d="M607.844 154.594C606.715 154.594 605.963 155.347 605.963 156.475C605.963 160.236 605.963 163.622 605.587 167.383C605.587 168.511 606.339 169.264 607.092 169.264C607.844 169.264 608.972 168.511 608.972 167.759C609.348 163.998 609.348 160.236 609.348 156.475C609.724 155.347 608.972 154.594 607.844 154.594Z" fill="#DEBB35"/>
<path d="M593.926 210.638C594.302 210.638 594.678 211.015 594.678 211.015C595.431 211.015 595.807 210.639 596.183 209.886C598.064 206.501 599.568 203.116 601.073 199.73C601.449 198.978 601.073 197.85 599.944 197.474C599.192 197.097 598.064 197.474 597.688 198.602C596.183 201.987 594.678 204.996 593.174 208.382C592.798 209.134 593.174 210.262 593.926 210.638Z" fill="#DEBB35"/>
<path d="M593.55 105.696C593.926 106.448 594.679 106.825 595.055 106.825C595.431 106.825 595.807 106.825 595.807 106.449C596.559 106.072 596.935 104.944 596.559 103.815C594.679 100.43 592.798 97.4211 590.917 94.4119C590.541 93.6597 589.037 93.2835 588.284 94.0358C587.532 94.4119 587.156 95.5404 587.908 96.6688C590.165 99.3018 592.046 102.311 593.55 105.696Z" fill="#DEBB35"/>
<path d="M604.083 136.163C604.835 139.549 605.211 143.31 605.587 146.695C605.587 147.824 606.339 148.2 607.468 148.2C608.596 148.2 609.349 147.071 608.972 146.319C608.596 142.558 608.22 138.796 607.468 135.411C607.468 134.283 606.339 133.906 605.211 133.906C604.835 133.906 604.083 135.035 604.083 136.163Z" fill="#DEBB35"/>
<path d="M587.533 217.409C585.652 220.418 583.395 223.427 581.138 226.06C580.386 226.812 580.762 227.941 581.514 228.693C581.89 229.069 582.267 229.069 582.643 229.069C583.019 229.069 583.771 228.693 584.147 228.317C586.404 225.308 588.661 222.299 590.918 219.289C591.294 218.537 591.294 217.409 590.542 216.656C589.413 216.28 588.285 216.656 587.533 217.409Z" fill="#DEBB35"/>
<path d="M416.011 236.217C416.387 236.593 416.764 236.593 417.14 236.593C417.516 236.593 417.892 236.593 418.268 236.217C419.02 235.465 419.02 234.337 418.268 233.584C415.635 230.951 413.378 228.318 411.121 225.685C410.369 224.933 409.241 224.933 408.488 225.309C407.736 226.061 407.736 227.19 408.112 227.942C411.121 230.951 413.754 233.584 416.011 236.217Z" fill="#DEBB35"/>
<path d="M538.258 257.658C534.873 259.162 531.487 260.291 528.102 261.419C526.974 261.795 526.597 262.548 526.974 263.676C527.35 264.428 528.102 264.804 528.854 264.804H529.23C532.616 263.676 536.377 262.547 539.762 261.043C540.515 260.667 541.267 259.538 540.891 258.786C540.139 258.034 539.386 257.282 538.258 257.658Z" fill="#DEBB35"/>
<path d="M581.89 87.6413C582.266 88.0175 582.642 88.3936 583.394 88.3936C583.77 88.3936 584.146 88.3936 584.523 88.0175C585.275 87.2652 585.275 86.1368 584.899 85.3845C582.642 82.3754 580.009 79.7424 577.376 77.1094C576.624 76.3571 575.495 76.3571 574.743 77.1094C573.991 77.8617 573.991 78.9901 574.743 79.7424C577 81.9993 579.633 84.6322 581.89 87.6413Z" fill="#DEBB35"/>
<path d="M557.442 247.501C554.432 249.381 551.423 251.262 548.038 253.143C547.286 253.519 546.91 254.647 547.286 255.776C547.662 256.528 548.414 256.904 548.79 256.904C549.167 256.904 549.543 256.904 549.543 256.528C552.928 254.647 555.937 252.767 558.946 250.886C559.698 250.134 560.075 249.005 559.322 248.253C559.322 247.501 558.194 247.124 557.442 247.501Z" fill="#DEBB35"/>
<path d="M573.992 233.959C571.359 236.592 568.726 238.849 566.093 241.105C565.341 241.858 565.341 242.986 565.717 243.738C566.093 244.115 566.469 244.491 567.221 244.491C567.598 244.491 567.974 244.491 568.35 244.114C571.359 241.858 573.992 239.225 576.625 236.592C577.377 235.839 577.377 234.711 576.625 233.959C575.873 233.206 574.744 233.206 573.992 233.959Z" fill="#DEBB35"/>
<path d="M475.442 48.8978C479.203 48.1455 482.965 47.7694 486.35 47.3932C487.478 47.3932 488.23 46.2648 487.854 45.5125C487.854 44.3841 486.726 43.6319 485.974 44.008C482.212 44.3841 478.451 44.7603 475.066 45.5125C473.937 45.8887 473.561 46.641 473.561 47.7694C473.937 48.1456 474.689 48.8978 475.442 48.8978Z" fill="#DEBB35"/>
<path d="M433.314 250.511C433.69 250.887 434.066 250.887 434.442 250.887C435.195 250.887 435.571 250.511 435.947 250.135C436.323 249.382 436.323 248.254 435.571 247.502C432.562 245.621 429.552 243.364 426.919 241.107C426.167 240.355 425.039 240.731 424.287 241.483C423.534 242.236 423.91 243.364 424.663 244.116C427.296 245.997 430.305 248.254 433.314 250.511Z" fill="#DEBB35"/>
<path d="M399.462 101.933C398.71 101.557 397.581 101.933 396.829 102.686C394.948 106.071 393.444 109.456 391.939 112.842C391.563 113.594 391.939 114.722 393.068 115.098C393.444 115.098 393.444 115.098 393.82 115.098C394.572 115.098 395.325 114.722 395.325 113.97C396.829 110.585 398.334 107.576 399.838 104.19C400.591 103.438 400.214 102.31 399.462 101.933Z" fill="#DEBB35"/>
<path d="M442.717 256.152C446.103 258.032 449.488 259.537 452.873 261.042C453.249 261.042 453.249 261.042 453.625 261.042C454.378 261.042 455.13 260.665 455.13 259.913C455.506 259.161 455.13 258.032 454.001 257.656C450.616 256.152 447.607 254.647 444.222 253.143C443.47 252.767 442.341 253.143 441.589 253.895C441.589 254.647 441.965 255.776 442.717 256.152Z" fill="#DEBB35"/>
<path d="M390.435 121.87C389.307 121.494 388.554 122.246 388.178 122.999C387.05 126.384 386.297 130.145 385.545 133.907C385.169 135.035 385.921 135.787 387.05 136.163H387.426C388.178 136.163 388.93 135.411 389.307 134.659C390.059 131.274 390.811 127.512 391.94 124.127C391.94 122.999 391.563 122.246 390.435 121.87Z" fill="#DEBB35"/>
<path d="M463.405 264.804C466.79 265.932 470.551 266.685 474.313 267.437H474.689C475.441 267.437 476.193 266.685 476.57 265.932C476.946 264.804 476.194 264.052 475.065 263.675C471.68 262.923 467.918 262.171 464.533 261.042C463.405 260.666 462.652 261.419 462.276 262.171C461.9 263.299 462.276 264.428 463.405 264.804Z" fill="#DEBB35"/>
<path d="M404.35 95.9158C405.103 95.9158 405.479 95.5397 405.855 95.1635C407.736 92.1544 409.993 89.1452 412.249 86.5123C413.002 85.76 412.626 84.6316 411.873 83.8793C411.121 83.127 409.993 83.5032 409.24 84.2555C406.983 87.2646 404.727 90.2737 402.47 93.2828C402.094 94.0351 402.094 95.1635 402.846 95.9158C403.598 95.9158 403.974 95.9158 404.35 95.9158Z" fill="#DEBB35"/>
<path d="M388.931 177.539C388.178 174.154 387.802 170.392 387.426 167.007C387.426 165.879 386.298 165.126 385.545 165.503C384.417 165.503 383.665 166.631 384.041 167.383C384.417 171.145 384.793 174.906 385.545 178.291C385.545 179.044 386.298 179.796 387.426 179.796H387.802C388.554 179.42 389.307 178.291 388.931 177.539Z" fill="#DEBB35"/>
<path d="M391.563 187.694C391.187 186.566 390.434 186.19 389.306 186.566C388.178 186.942 387.802 187.694 388.178 188.823C389.306 192.208 390.435 195.969 391.939 199.355C392.315 200.107 393.067 200.483 393.444 200.483C393.82 200.483 393.82 200.483 394.196 200.483C394.948 200.107 395.7 198.979 395.324 198.226C393.82 194.841 392.691 191.08 391.563 187.694Z" fill="#DEBB35"/>
<path d="M518.699 49.2739C522.084 50.0261 525.845 50.7784 529.23 51.9068H529.607C530.359 51.9068 531.111 51.5307 531.487 50.7784C531.863 49.65 531.111 48.8977 530.359 48.5216C526.974 47.3932 523.212 46.6409 519.451 45.8886C518.322 45.5125 517.57 46.2647 517.194 47.3932C517.194 47.7693 517.57 48.8977 518.699 49.2739Z" fill="#DEBB35"/>
<path d="M497.258 47.0181C501.02 47.0181 504.405 47.3942 508.166 47.7704C508.166 47.7704 508.166 47.7704 508.542 47.7704C509.295 47.7704 510.423 47.0181 510.423 46.2658C510.423 45.1374 509.671 44.3851 508.919 44.3851C505.157 44.0089 501.396 43.6328 497.634 43.6328C496.506 43.6328 495.754 44.3851 495.754 45.5135C495.377 45.8897 496.13 47.0181 497.258 47.0181Z" fill="#DEBB35"/>
<path d="M418.268 78.9894C418.645 78.9894 419.021 78.9895 419.397 78.6133C422.03 75.9803 424.663 73.7235 427.296 71.4666C428.048 70.7143 428.048 69.5859 427.672 68.8336C426.92 68.0814 425.791 68.0814 425.039 68.4575C422.03 70.7144 419.397 73.3474 416.764 75.9804C416.012 76.7326 416.012 77.861 416.764 78.6133C417.14 78.9895 417.892 78.9894 418.268 78.9894Z" fill="#DEBB35"/>
<path d="M539.386 55.6696C542.772 57.1741 545.781 58.6787 549.166 60.1832C549.542 60.1832 549.918 60.5594 549.918 60.5594C550.67 60.5594 551.047 60.1832 551.423 59.431C551.799 58.6787 551.423 57.5503 550.67 56.798C547.285 54.9173 543.9 53.4127 540.515 51.9081C539.762 51.532 538.634 51.9082 538.258 53.0366C537.882 54.165 538.258 54.9173 539.386 55.6696Z" fill="#DEBB35"/>
<path d="M566.844 72.2186C567.22 72.5948 567.596 72.5947 567.972 72.5947C568.348 72.5947 569.101 72.2186 569.477 71.8425C570.229 71.0902 569.853 69.9618 569.101 69.2095C566.092 66.9527 563.459 64.6958 560.073 62.439C559.321 62.0628 558.193 62.0628 557.44 62.8151C556.688 63.5674 557.064 64.6958 557.816 65.4481C561.202 67.7049 563.835 69.9618 566.844 72.2186Z" fill="#DEBB35"/>
<path d="M435.195 65.0723C435.571 65.0723 435.947 65.0724 436.324 64.6962C439.333 62.8155 442.342 60.9348 445.727 59.0541C446.479 58.678 446.856 57.5495 446.479 56.4211C446.103 55.6688 444.975 55.2927 443.846 55.6688C440.461 57.5495 437.452 59.4302 434.443 61.3109C433.691 61.6871 433.315 62.8155 434.067 63.9439C434.067 65.0723 434.443 65.0723 435.195 65.0723Z" fill="#DEBB35"/>
<path d="M454.378 54.9172C454.754 54.9172 454.754 54.9172 455.13 54.9172C458.516 53.4127 461.901 52.2843 465.286 51.532C466.415 51.1558 466.791 50.4035 466.415 49.2751C466.039 48.1467 465.286 47.7705 464.158 48.1467C460.773 49.2751 457.011 50.4035 453.626 51.9081C452.874 52.2842 452.121 53.4127 452.498 54.1649C453.25 54.5411 453.626 54.9172 454.378 54.9172Z" fill="#DEBB35"/>
<path d="M399.838 207.63C399.462 206.878 398.333 206.502 397.205 206.878C396.453 207.254 396.077 208.383 396.453 209.511C398.333 212.896 400.214 215.905 402.095 218.915C402.471 219.291 402.847 219.667 403.599 219.667C403.976 219.667 404.352 219.667 404.728 219.291C405.48 218.915 405.856 217.41 405.104 216.658C403.223 214.025 401.343 211.016 399.838 207.63Z" fill="#DEBB35"/>
<path d="M223.428 72.2186C223.804 72.5948 224.18 72.5947 224.556 72.5947C224.932 72.5947 225.685 72.2186 226.061 71.8425C226.813 71.0902 226.437 69.9618 225.685 69.2095C222.675 66.9527 220.043 64.6958 216.657 62.439C215.905 62.0628 214.777 62.0628 214.024 62.8151C213.272 63.5674 213.648 64.6958 214.4 65.4481C217.786 67.7049 220.795 69.9618 223.428 72.2186Z" fill="#DEBB35"/>
<path d="M256.905 197.474C256.153 197.097 255.024 197.474 254.648 198.602C253.144 201.987 251.639 204.996 250.134 208.382C249.758 209.134 250.134 210.262 250.887 211.015C251.263 211.015 251.639 211.391 251.639 211.391C252.391 211.391 252.767 211.015 253.144 210.262C255.024 206.877 256.529 203.492 258.033 200.107C258.409 198.978 257.657 197.85 256.905 197.474Z" fill="#DEBB35"/>
<path d="M194.842 257.658C191.457 259.162 188.071 260.291 184.686 261.419C183.558 261.795 183.181 262.548 183.558 263.676C183.934 264.428 184.686 264.804 185.438 264.804H185.814C189.2 263.676 192.961 262.547 196.346 261.043C197.099 260.667 197.851 259.538 197.475 258.786C197.099 258.034 195.97 257.282 194.842 257.658Z" fill="#DEBB35"/>
<path d="M260.665 177.915C259.913 181.3 259.161 185.062 258.032 188.447C257.656 189.575 258.408 190.328 259.161 190.704H259.537C260.289 190.704 261.041 190.328 261.417 189.575C262.546 186.19 263.298 182.429 264.05 178.667C264.427 177.539 263.674 176.786 262.546 176.41C261.794 176.034 261.041 176.787 260.665 177.915Z" fill="#DEBB35"/>
<path d="M132.026 48.8978C132.402 48.8978 132.402 48.8978 132.026 48.8978C135.787 48.1455 139.549 47.7694 142.934 47.3932C144.062 47.3932 144.815 46.2648 144.438 45.5125C144.438 44.3841 143.31 43.6319 142.558 44.008C138.796 44.3841 135.035 44.7603 131.65 45.5125C130.521 45.8887 130.145 46.641 130.145 47.7694C130.521 48.1456 131.273 48.8978 132.026 48.8978Z" fill="#DEBB35"/>
<path d="M250.134 105.696C250.51 106.448 251.263 106.825 251.639 106.825C252.015 106.825 252.391 106.825 252.391 106.449C253.143 106.072 253.52 104.944 253.143 103.815C251.263 100.43 249.382 97.4211 247.501 94.4119C247.125 93.6597 245.621 93.2835 244.868 94.0358C244.116 94.4119 243.74 95.5404 244.492 96.6688C246.749 99.3018 248.63 102.311 250.134 105.696Z" fill="#DEBB35"/>
<path d="M238.474 87.6413C238.85 88.0175 239.226 88.3936 239.978 88.3936C240.354 88.3936 240.73 88.3936 241.107 88.0175C241.859 87.2652 241.859 86.1368 241.483 85.3845C239.226 82.3754 236.593 79.7424 233.96 77.1094C233.208 76.3571 232.079 76.3571 231.327 77.1094C230.575 77.8617 230.575 78.9901 231.327 79.7424C233.96 81.9993 236.217 84.6322 238.474 87.6413Z" fill="#DEBB35"/>
<path d="M43.6332 135.787C44.0093 136.163 43.6332 136.163 43.6332 135.787C44.7616 135.787 45.5139 135.035 45.8901 134.282C46.6424 130.897 47.3947 127.136 48.5231 123.75C48.8992 122.622 48.1469 121.87 47.3946 121.494C46.2662 121.117 45.5139 121.87 45.1377 122.622C44.0093 126.007 43.2571 129.769 42.5048 133.53C42.1287 134.658 42.5048 135.787 43.6332 135.787Z" fill="#DEBB35"/>
<path d="M230.574 233.959C227.941 236.592 225.308 238.849 222.675 241.105C221.923 241.858 221.923 242.986 222.299 243.738C222.675 244.115 223.051 244.491 223.803 244.491C224.18 244.491 224.556 244.491 224.932 244.114C227.941 241.858 230.574 239.225 233.207 236.592C233.959 235.839 233.959 234.711 233.207 233.959C232.455 233.206 231.326 233.206 230.574 233.959Z" fill="#DEBB35"/>
<path d="M214.024 247.501C211.014 249.381 208.005 251.262 204.62 253.143C203.868 253.519 203.492 254.647 203.868 255.776C204.244 256.528 204.996 256.904 205.372 256.904C205.748 256.904 206.125 256.904 206.125 256.528C209.51 254.647 212.519 252.767 215.528 250.886C216.28 250.134 216.657 249.005 215.904 248.253C215.904 247.501 214.776 247.124 214.024 247.501Z" fill="#DEBB35"/>
<path d="M195.97 55.6696C199.355 57.1741 202.365 58.6787 205.75 60.1832C206.126 60.1832 206.502 60.5594 206.502 60.5594C207.254 60.5594 207.631 60.1832 208.007 59.431C208.383 58.6787 208.007 57.5503 207.254 56.798C203.869 54.9173 200.484 53.4127 197.099 51.9081C196.346 51.532 195.218 51.9082 194.842 53.0366C194.466 54.165 194.842 54.9173 195.97 55.6696Z" fill="#DEBB35"/>
<path d="M174.529 264.051C171.144 264.803 167.382 265.179 163.997 265.555C162.868 265.555 162.116 266.684 162.492 267.436C162.492 268.564 163.245 268.941 164.373 268.941C168.134 268.564 171.896 268.188 175.281 267.436C176.41 267.06 176.786 266.308 176.786 265.179C176.41 264.427 175.281 263.675 174.529 264.051Z" fill="#DEBB35"/>
<path d="M175.282 49.2739C178.668 50.0261 182.429 50.7784 185.814 51.9068H186.19C186.943 51.9068 187.695 51.5307 188.071 50.7784C188.447 49.65 187.695 48.8977 186.943 48.5216C183.557 47.3932 179.796 46.6409 176.035 45.8886C174.906 45.5125 174.154 46.2647 173.778 47.3932C173.778 47.7693 174.53 48.8977 175.282 49.2739Z" fill="#DEBB35"/>
<path d="M153.841 47.0181C157.602 47.0181 160.988 47.3942 164.749 47.7704C164.749 47.7704 164.749 47.7704 165.125 47.7704C165.878 47.7704 167.006 47.0181 167.006 46.2658C167.006 45.1374 166.254 44.3851 165.501 44.3851C161.74 44.0089 157.979 43.6328 154.217 43.6328C153.089 43.6328 152.336 44.3851 152.336 45.5135C151.96 45.8897 153.089 47.0181 153.841 47.0181Z" fill="#DEBB35"/>
<path d="M244.115 217.409C242.234 220.418 239.977 223.427 237.721 226.06C236.968 226.812 237.344 227.941 238.097 228.693C238.473 229.069 238.849 229.069 239.225 229.069C239.601 229.069 240.354 228.693 240.73 228.317C242.987 225.308 245.243 222.299 247.5 219.289C247.876 218.537 247.876 217.409 247.124 216.656C245.996 216.28 244.867 216.656 244.115 217.409Z" fill="#DEBB35"/>
<path d="M56.0442 101.933C55.292 101.557 54.1635 101.933 53.4112 102.686C51.5305 106.071 50.026 109.456 48.5214 112.842C48.1453 113.594 48.5214 114.722 49.6498 115.098C50.0259 115.098 50.026 115.098 50.4021 115.098C51.1544 115.098 51.9067 114.722 51.9067 113.97C53.4112 110.585 54.9157 107.576 56.4203 104.19C57.1726 103.438 56.7965 102.31 56.0442 101.933Z" fill="#DEBB35"/>
<path d="M48.1454 187.694C47.7693 186.566 47.017 186.19 45.8886 186.566C44.7602 186.942 44.3841 187.694 44.7602 188.823C45.8886 192.208 47.017 195.969 48.5216 199.355C48.8978 200.107 49.65 200.483 50.0262 200.483C50.4023 200.483 50.4022 200.483 50.7784 200.483C51.5306 200.107 52.283 198.979 51.9069 198.226C50.4023 194.841 49.2739 191.08 48.1454 187.694Z" fill="#DEBB35"/>
<path d="M56.4205 207.63C56.0444 206.878 54.916 206.502 53.7876 206.878C53.0353 207.254 52.6591 208.383 53.0352 209.511C54.916 212.896 56.7967 215.905 58.6774 218.915C59.0535 219.291 59.4296 219.667 60.1819 219.667C60.558 219.667 60.9343 219.667 61.3104 219.291C62.0627 218.915 62.4388 217.41 61.6866 216.658C59.8059 214.025 57.9251 211.016 56.4205 207.63Z" fill="#DEBB35"/>
<path d="M68.0818 225.685C67.3295 224.933 66.2012 224.933 65.4489 225.309C64.6966 226.061 64.6966 227.19 65.0727 227.942C67.3296 230.951 69.9626 233.584 72.5956 236.217C72.9717 236.593 73.3478 236.593 73.7239 236.593C74.1001 236.593 74.4763 236.593 74.8524 236.217C75.6047 235.465 75.6047 234.337 74.8524 233.584C72.9717 230.951 70.3387 228.318 68.0818 225.685Z" fill="#DEBB35"/>
<path d="M258.409 125.632C258.785 126.384 259.537 126.76 260.29 126.76H260.666C261.794 126.384 262.17 125.632 261.794 124.504C260.666 121.118 259.537 117.357 258.033 113.972C257.657 113.219 256.528 112.467 255.776 112.843C255.024 113.219 254.271 114.348 254.647 115.1C256.152 118.861 257.28 122.247 258.409 125.632Z" fill="#DEBB35"/>
<path d="M45.513 177.539C44.7607 174.154 44.3846 170.392 44.0085 167.007C44.0085 165.879 42.8801 165.126 42.1278 165.503C40.9994 165.503 40.2471 166.631 40.6232 167.383C40.9994 171.145 41.3755 174.906 42.1278 178.291C42.1278 179.044 42.8801 179.796 44.0085 179.796H44.3846C45.1369 179.42 45.8892 178.291 45.513 177.539Z" fill="#DEBB35"/>
<path d="M41.7508 157.603C42.8792 157.603 43.6315 156.851 43.6315 155.722C43.6315 151.961 44.0077 148.576 44.3839 144.814C44.3839 143.686 43.6316 142.934 42.8793 142.934C41.7509 142.934 40.9986 143.686 40.9986 144.438C40.6225 148.2 40.2463 151.961 40.2463 155.722C39.8701 156.851 40.6224 157.603 41.7508 157.603Z" fill="#DEBB35"/>
<path d="M91.7793 65.0723C92.1554 65.0723 92.5315 65.0724 92.9076 64.6962C95.9168 62.8155 98.9259 60.9348 102.311 59.0541C103.063 58.678 103.44 57.5495 103.063 56.4211C102.687 55.6688 101.559 55.2927 100.43 55.6688C97.0452 57.5495 94.0361 59.4302 91.0269 61.3109C90.2747 61.6871 89.8985 62.8155 90.6508 63.9439C90.6508 65.0723 91.4031 65.0723 91.7793 65.0723Z" fill="#DEBB35"/>
<path d="M111.337 54.9172C111.713 54.9172 111.713 54.9172 112.09 54.9172C115.475 53.4127 118.86 52.2843 122.245 51.532C123.374 51.1558 123.75 50.4035 123.374 49.2751C122.998 48.1467 122.245 47.7705 121.117 48.1467C117.732 49.2751 113.97 50.4035 110.585 51.9081C109.833 52.2842 109.08 53.4127 109.456 54.1649C109.833 54.5411 110.585 54.9172 111.337 54.9172Z" fill="#DEBB35"/>
<path d="M74.8526 78.9894C75.2287 78.9894 75.6048 78.9895 75.9809 78.6133C78.6139 75.9803 81.2469 73.7235 83.8799 71.4666C84.6322 70.7143 84.6322 69.5859 84.2561 68.8336C83.5038 68.0814 82.3753 68.0814 81.623 68.4575C78.6139 70.7144 75.9809 73.3474 73.3479 75.9804C72.5956 76.7326 72.5956 77.861 73.3479 78.6133C74.1002 78.9895 74.4764 78.9894 74.8526 78.9894Z" fill="#DEBB35"/>
<path d="M83.504 241.107C82.7517 240.355 81.6233 240.731 80.871 241.483C80.1187 242.236 80.4949 243.364 81.2472 244.116C84.2563 246.373 87.2654 248.63 90.2745 250.887C90.6507 251.263 91.0269 251.263 91.403 251.263C92.1553 251.263 92.5314 250.887 92.9075 250.511C93.2837 249.759 93.2837 248.63 92.5314 247.878C89.1461 245.245 86.137 243.364 83.504 241.107Z" fill="#DEBB35"/>
<path d="M131.273 267.437C132.025 267.437 132.777 266.685 133.153 265.932C133.529 264.804 132.777 264.052 131.649 263.675C128.263 262.923 124.502 262.171 121.117 261.042C119.988 260.666 119.236 261.419 118.86 262.171C118.484 263.299 119.236 264.052 119.988 264.428C123.75 265.932 127.135 266.685 131.273 267.437Z" fill="#DEBB35"/>
<path d="M60.9343 95.9158C61.6866 95.9158 62.0627 95.5397 62.4389 95.1635C64.3196 92.1544 66.5764 89.1452 68.8333 86.5123C69.5856 85.76 69.2094 84.6316 68.4571 83.8793C67.7048 83.127 66.5764 83.5032 65.8241 84.2555C63.5673 87.2646 61.3105 90.2737 59.0536 93.2828C58.3013 94.0351 58.6775 95.1635 59.4298 95.9158C60.1821 95.9158 60.5582 95.9158 60.9343 95.9158Z" fill="#DEBB35"/>
<path d="M110.961 257.656C107.576 256.152 104.567 254.647 101.181 253.143C100.429 252.767 99.3007 253.143 98.5484 253.895C98.1723 254.647 98.5485 255.776 99.3008 256.528C102.686 258.409 106.071 259.913 109.456 261.418C109.833 261.418 109.833 261.418 110.209 261.418C110.961 261.418 111.713 261.042 111.713 260.289C112.466 259.161 112.089 258.032 110.961 257.656Z" fill="#DEBB35"/>
<path d="M435.195 404.352C435.571 404.352 435.947 404.352 436.324 403.976C439.333 402.095 442.342 400.215 445.727 398.334C446.479 397.958 446.856 396.83 446.479 395.701C446.103 394.949 444.975 394.573 443.846 394.949C440.461 396.83 437.452 398.71 434.443 400.591C433.691 400.967 433.315 402.472 434.067 403.224C434.067 404.352 434.443 404.352 435.195 404.352Z" fill="#DEBB35"/>
<path d="M475.442 388.178C479.203 387.425 482.965 387.049 486.35 386.673C487.478 386.673 488.23 385.545 487.854 384.792C487.854 383.664 486.726 382.912 485.974 383.288C482.212 383.664 478.451 384.04 475.066 384.792C473.937 384.792 473.561 385.921 473.561 387.049C473.937 387.425 474.689 388.178 475.442 388.178Z" fill="#DEBB35"/>
<path d="M454.378 394.195C454.754 394.195 454.754 394.195 455.13 394.195C458.516 392.691 461.901 391.562 465.286 390.81C466.415 390.434 466.791 389.682 466.415 388.553C466.039 387.425 465.286 387.049 464.158 387.425C460.773 388.553 457.011 389.682 453.626 391.186C452.874 391.562 452.121 392.691 452.498 393.443C453.25 393.819 453.626 394.195 454.378 394.195Z" fill="#DEBB35"/>
<path d="M391.563 526.974C391.187 525.846 390.434 525.47 389.306 525.846C388.178 526.222 387.802 526.974 388.178 528.102C389.306 531.488 390.435 535.249 391.939 538.634C392.315 539.387 393.067 539.763 393.444 539.763C393.82 539.763 393.82 539.763 394.196 539.763C394.948 539.387 395.7 538.258 395.324 537.506C393.82 533.745 392.691 530.359 391.563 526.974Z" fill="#DEBB35"/>
<path d="M393.068 454.001C393.444 454.001 393.444 454.001 393.82 454.001C394.572 454.001 395.324 453.625 395.324 452.873C396.829 449.487 398.334 446.478 399.838 443.093C400.214 442.341 399.838 441.212 399.086 440.46C398.334 440.084 397.205 440.46 396.453 441.212C394.572 444.598 393.068 447.983 391.563 451.368C391.563 452.873 392.315 453.625 393.068 454.001Z" fill="#DEBB35"/>
<path d="M387.049 475.067C388.178 475.067 388.93 474.691 389.306 473.562C390.058 470.177 390.811 466.416 391.939 463.03C392.315 461.902 391.563 461.15 390.811 460.773C389.682 460.397 388.93 461.15 388.554 461.902C387.425 465.287 386.673 469.049 385.921 472.81C385.545 473.938 385.921 475.067 387.049 475.067Z" fill="#DEBB35"/>
<path d="M404.35 435.196C405.103 435.196 405.479 434.819 405.855 434.443C407.736 431.434 409.993 428.425 412.249 425.792C413.002 425.04 412.626 423.911 411.873 423.159C411.121 422.407 409.993 422.783 409.24 423.535C406.983 426.544 404.727 429.553 402.47 432.563C402.094 433.315 402.094 434.443 402.846 435.196C403.598 434.819 403.974 435.196 404.35 435.196Z" fill="#DEBB35"/>
<path d="M418.268 418.269C418.645 418.269 419.021 418.269 419.397 417.893C422.03 415.26 424.663 413.003 427.296 410.746C428.048 409.994 428.048 408.866 427.672 408.113C426.92 407.361 425.791 407.361 425.039 407.737C422.03 409.994 419.397 412.627 416.764 415.26C416.012 416.012 416.012 417.141 416.764 417.893C417.14 417.893 417.892 418.269 418.268 418.269Z" fill="#DEBB35"/>
<path d="M474.69 602.953C471.305 602.201 467.543 601.449 464.158 600.32C463.03 599.944 462.277 600.696 461.901 601.449C461.525 602.577 462.277 603.329 463.03 603.706C466.415 604.834 470.176 605.586 473.938 606.339H474.314C475.066 606.339 475.818 605.586 476.195 604.834C476.571 604.082 475.819 603.329 474.69 602.953Z" fill="#DEBB35"/>
<path d="M587.533 556.688C585.652 559.697 583.395 562.707 581.138 565.34C580.386 566.092 580.762 567.22 581.514 567.973C581.89 568.349 582.267 568.349 582.643 568.349C583.019 568.349 583.771 567.973 584.147 567.596C586.404 564.587 588.661 561.578 590.918 558.569C591.294 557.817 591.294 556.688 590.542 555.936C589.413 555.56 588.285 555.936 587.533 556.688Z" fill="#DEBB35"/>
<path d="M530.359 387.425C526.974 386.297 523.213 385.544 519.451 384.792C518.323 384.416 517.571 385.168 517.195 386.297C516.818 387.425 517.571 388.177 518.699 388.554C522.084 389.306 525.846 390.058 529.231 391.187H529.607C530.36 391.187 531.112 390.81 531.488 390.058C531.864 388.93 531.112 387.801 530.359 387.425Z" fill="#DEBB35"/>
<path d="M550.67 396.076C547.285 394.195 543.9 392.691 540.515 391.186C539.762 390.81 538.634 391.186 538.258 392.314C537.882 393.067 538.258 394.195 539.386 394.571C542.772 396.076 545.781 397.58 549.166 399.085C549.542 399.085 549.918 399.461 549.918 399.461C550.67 399.461 551.047 399.085 551.423 398.333C551.799 397.58 551.423 396.828 550.67 396.076Z" fill="#DEBB35"/>
<path d="M573.992 573.239C571.359 575.872 568.726 578.129 566.093 580.386C565.341 581.138 565.341 582.266 565.717 583.019C566.093 583.395 566.469 583.771 567.221 583.771C567.598 583.771 567.974 583.771 568.35 583.395C571.359 581.138 573.992 578.505 576.625 575.872C577.377 575.12 577.377 573.991 576.625 573.239C575.873 572.487 574.744 572.487 573.992 573.239Z" fill="#DEBB35"/>
<path d="M538.258 596.936C534.873 598.441 531.487 599.569 528.102 600.697C526.974 601.074 526.597 601.826 526.974 602.954C527.35 603.707 528.102 604.083 528.854 604.083H529.23C532.616 602.954 536.377 601.826 539.762 600.321C540.515 599.945 541.267 598.817 540.891 598.064C540.139 596.936 539.386 596.56 538.258 596.936Z" fill="#DEBB35"/>
<path d="M557.442 586.781C554.432 588.661 551.423 590.542 548.038 592.423C547.286 592.799 546.91 593.927 547.286 595.056C547.662 595.808 548.414 596.184 548.79 596.184C549.167 596.184 549.543 596.184 549.543 595.808C552.928 593.927 555.937 592.047 558.946 590.166C559.698 589.79 560.075 588.661 559.322 587.533C559.322 586.405 558.194 586.404 557.442 586.781Z" fill="#DEBB35"/>
<path d="M606.339 515.69C605.211 515.314 604.459 516.066 604.083 517.195C603.33 520.58 602.578 524.341 601.45 527.727C601.074 528.855 601.826 529.607 602.578 529.983H602.954C603.706 529.983 604.459 529.607 604.835 528.855C605.963 525.47 606.716 521.708 607.468 517.947C607.844 516.819 607.092 515.69 606.339 515.69Z" fill="#DEBB35"/>
<path d="M607.844 493.873C606.715 493.873 605.963 494.625 605.963 495.753C605.963 499.515 605.963 502.9 605.587 506.661C605.587 507.79 606.339 508.542 607.092 508.542C607.844 508.542 608.972 507.79 608.972 507.037C609.348 503.276 609.348 499.515 609.348 495.753C609.724 494.625 608.972 493.873 607.844 493.873Z" fill="#DEBB35"/>
<path d="M560.073 402.095C559.321 401.719 558.193 401.719 557.44 402.471C556.688 403.224 557.064 404.352 557.816 405.104C560.826 406.985 563.835 409.242 566.468 411.499C566.844 411.875 567.22 411.875 567.596 411.875C567.972 411.875 568.725 411.499 569.101 411.123C569.853 410.37 569.477 409.242 568.725 408.49C566.092 406.233 563.082 403.976 560.073 402.095Z" fill="#DEBB35"/>
<path d="M604.083 475.067C604.835 478.452 605.211 482.214 605.587 485.599C605.587 486.727 606.339 487.103 607.468 487.103C608.596 487.103 609.349 485.975 608.972 485.223C608.596 481.461 608.22 477.7 607.468 474.315C607.468 473.186 606.339 472.81 605.211 472.81C604.835 473.186 604.083 474.315 604.083 475.067Z" fill="#DEBB35"/>
<path d="M601.824 464.91C602.2 465.662 602.953 466.038 603.705 466.038H604.081C605.21 465.662 605.586 464.91 605.21 463.781C604.081 460.396 602.953 456.635 601.448 453.249C601.072 452.497 599.944 451.745 599.191 452.121C598.439 452.497 597.687 453.626 598.063 454.378C599.567 457.763 600.696 461.148 601.824 464.91Z" fill="#DEBB35"/>
<path d="M593.55 444.974C593.926 445.727 594.679 446.103 595.055 446.103C595.431 446.103 595.807 446.103 595.807 445.726C596.559 445.35 596.935 444.222 596.559 443.094C594.679 439.708 592.798 436.699 590.917 433.69C590.541 432.938 589.037 432.562 588.284 433.314C587.532 433.69 587.156 434.818 587.908 435.947C590.165 438.58 592.046 441.589 593.55 444.974Z" fill="#DEBB35"/>
<path d="M426.919 580.009C426.167 579.256 425.039 579.633 424.287 580.385C423.534 581.137 423.91 582.265 424.663 583.018C427.672 585.275 430.681 587.532 433.69 589.788C434.066 590.165 434.442 590.164 434.818 590.164C435.571 590.164 435.947 589.788 436.323 589.412C436.699 588.66 436.699 587.531 435.947 586.779C432.562 584.522 429.552 582.266 426.919 580.009Z" fill="#DEBB35"/>
<path d="M411.498 564.963C410.746 564.211 409.617 564.211 408.865 564.587C408.113 565.339 408.113 566.468 408.489 567.22C410.746 570.229 413.379 572.862 416.012 575.495C416.388 575.871 416.764 575.871 417.14 575.871C417.516 575.871 417.892 575.871 418.268 575.495C419.021 574.743 419.021 573.614 418.268 572.862C416.388 570.229 413.755 567.596 411.498 564.963Z" fill="#DEBB35"/>
<path d="M593.926 549.918C594.302 549.918 594.678 550.294 594.678 550.294C595.431 550.294 595.807 549.918 596.183 549.166C598.064 545.781 599.568 542.396 601.073 539.01C601.449 538.258 601.073 537.13 599.944 536.753C599.192 536.377 598.064 536.753 597.688 537.882C596.183 541.267 594.678 544.276 593.174 547.661C592.798 548.414 593.174 549.542 593.926 549.918Z" fill="#DEBB35"/>
<path d="M574.743 416.012C573.991 416.764 573.991 417.892 574.743 418.645C577.376 421.278 579.633 423.911 581.89 426.543C582.266 426.92 582.642 427.296 583.394 427.296C583.77 427.296 584.146 427.296 584.523 426.92C585.275 426.167 585.275 425.039 584.899 424.287C582.642 421.278 580.009 418.645 577.376 416.012C576.624 415.635 575.495 415.635 574.743 416.012Z" fill="#DEBB35"/>
<path d="M399.838 546.909C399.462 546.156 398.333 545.78 397.205 546.156C396.453 546.533 396.077 547.661 396.453 548.789C398.333 552.175 400.214 555.184 402.095 558.193C402.471 558.569 402.847 558.945 403.599 558.945C403.976 558.945 404.352 558.945 404.728 558.569C405.48 558.193 405.856 556.688 405.104 555.936C403.223 553.303 401.343 549.918 399.838 546.909Z" fill="#DEBB35"/>
<path d="M517.57 603.331C514.185 604.083 510.423 604.459 507.038 604.835C505.91 604.835 505.157 605.964 505.533 606.716C505.533 607.844 506.286 608.22 507.414 608.22C511.176 607.844 514.937 607.468 518.322 606.716C519.451 606.34 519.827 605.587 519.827 604.459C519.827 603.707 518.698 602.954 517.57 603.331Z" fill="#DEBB35"/>
<path d="M454.379 596.936C450.994 595.432 447.985 593.927 444.599 592.422C443.847 592.046 442.719 592.423 441.966 593.175C441.59 593.927 441.966 595.055 442.719 595.808C446.104 597.688 449.489 599.193 452.875 600.698C453.251 600.698 453.251 600.698 453.627 600.698C454.379 600.698 455.131 600.321 455.131 599.569C455.507 598.441 455.131 597.312 454.379 596.936Z" fill="#DEBB35"/>
<path d="M496.13 605.21C492.369 605.21 488.983 604.834 485.222 604.834C484.094 604.834 483.341 605.586 483.341 606.339C483.341 607.467 484.094 608.219 484.846 608.219C488.607 608.595 492.369 608.595 496.13 608.595C497.259 608.595 498.011 607.843 498.011 606.715C498.011 605.962 497.259 605.21 496.13 605.21Z" fill="#DEBB35"/>
<path d="M529.607 368.995L572.863 325.739L526.222 278.721C583.019 265.18 625.147 214.401 625.147 153.842C625.147 83.1278 567.597 25.2021 496.506 25.2021C435.948 25.2021 384.793 67.3299 371.628 124.127L324.986 77.4857L278.345 124.127C264.804 67.706 214.025 25.2021 153.466 25.2021C82.7514 25.2021 24.8257 82.7516 24.8257 153.842C24.8257 214.401 66.9535 265.556 123.751 278.721L77.1093 325.363L120.365 368.619C65.4489 383.288 24.8257 433.315 24.8257 492.745C24.8257 563.46 82.3753 621.386 153.466 621.386C212.896 621.386 262.923 580.762 277.592 525.846L324.986 573.239L372.38 525.846C387.049 580.762 437.076 621.386 496.506 621.386C567.221 621.386 625.147 563.836 625.147 492.745C625.147 433.691 584.523 383.288 529.607 368.995ZM562.331 325.363L520.956 366.738C514.937 365.61 508.543 364.857 501.772 364.481V282.106C507.038 281.73 512.304 281.354 517.194 280.602L562.331 325.363ZM449.113 159.484C451.746 181.677 469.048 198.979 491.24 201.612V242.235C446.856 239.602 411.122 203.869 408.489 159.484H449.113ZM408.113 148.2C411.122 101.935 449.489 65.0731 496.506 65.0731C545.405 65.0731 584.9 104.944 584.9 153.466C584.9 200.484 548.038 238.85 501.772 241.859V201.236C525.469 198.603 544.276 178.291 544.276 153.842C544.276 127.512 522.836 106.072 496.506 106.072C472.057 106.072 451.746 124.503 449.113 148.576H408.113V148.2ZM452.498 159.484H478.076C479.956 165.503 484.846 170.393 490.864 172.273V197.851C470.929 195.218 455.131 179.42 452.498 159.484ZM496.506 512.305C507.038 512.305 515.69 503.653 515.69 493.121C515.69 484.47 510.047 477.324 502.149 474.691V449.113C523.965 451.746 540.891 470.553 540.891 493.121C540.891 517.571 520.956 537.506 496.506 537.506C475.443 537.506 457.764 522.837 453.25 502.901H479.956C483.342 508.167 489.36 512.305 496.506 512.305ZM452.498 491.617C453.25 469.801 469.8 451.746 491.24 449.113V474.691C483.718 476.947 478.076 483.718 477.699 491.617H452.498ZM491.24 445.352C467.92 447.985 449.489 467.544 448.737 491.617H408.113C408.866 445.352 445.351 407.361 491.24 404.728V445.352ZM449.489 502.525C454.002 524.341 473.186 540.891 496.506 540.891C522.836 540.891 544.276 519.451 544.276 493.121C544.276 468.672 525.846 448.361 501.772 445.728V405.105C548.038 408.114 584.9 446.48 584.9 493.498C584.9 542.396 545.405 581.891 496.506 581.891C450.993 581.891 413.379 547.286 408.489 502.901H449.489V502.525ZM496.506 134.659C487.855 134.659 480.709 140.301 478.076 148.2H452.498C455.131 126.384 473.938 109.458 496.506 109.458C520.956 109.458 540.891 129.393 540.891 153.842C540.891 176.411 523.965 194.842 502.149 197.851V172.273C510.047 170.016 515.69 162.494 515.69 153.842C515.69 143.31 507.038 134.659 496.506 134.659ZM502.149 265.18L514.561 277.593C510.424 278.345 506.286 278.721 502.149 278.721V265.18ZM502.149 368.243C507.415 368.619 512.681 368.995 517.947 370.123L505.158 382.912C504.029 382.912 502.901 382.912 502.149 382.536V368.243ZM496.506 28.9636C565.34 28.9636 621.385 85.0085 621.385 153.842C621.385 213.649 579.257 263.676 523.212 275.712L515.313 267.813C516.442 267.813 517.194 267.437 518.323 267.437C519.451 267.061 519.827 266.308 519.827 265.18C519.451 264.052 518.699 263.675 517.57 263.675C515.69 264.052 513.809 264.428 511.928 264.428L501.772 254.272V249.006C552.175 245.997 592.046 204.245 592.046 153.466C592.046 100.806 549.166 57.5502 496.13 57.5502C444.975 57.5502 403.223 97.4212 400.59 147.824H395.701L374.637 126.76C386.673 71.0913 436.7 28.9636 496.506 28.9636ZM373.132 136.164L384.04 147.072C384.04 147.448 384.04 148.2 384.04 148.576H372.38C372.004 144.063 372.38 139.925 373.132 136.164ZM400.967 159.484C403.6 208.007 442.718 246.749 491.24 249.758V266.309C489.36 266.309 487.479 265.932 485.598 265.932C484.47 265.932 483.718 266.685 483.718 267.437C483.718 268.565 484.47 269.318 485.222 269.318C487.103 269.694 488.984 269.694 491.24 269.694V278.721C426.92 276.088 375.013 223.805 372.004 159.484H400.967ZM324.986 88.0177L369.747 132.778C368.995 138.044 368.242 142.934 368.242 148.2H281.73C281.354 142.934 280.978 137.668 280.225 132.778L324.986 88.0177ZM281.73 159.484H368.242C370.875 226.061 424.664 279.473 491.24 282.483V364.857C423.535 367.867 368.995 423.535 368.242 491.993H281.73C280.978 423.535 226.437 367.867 158.732 364.857V282.483C225.309 279.473 278.721 225.685 281.73 159.484ZM153.09 512.305C160.236 512.305 166.255 508.543 169.64 502.901H196.346C191.832 522.837 174.154 537.506 153.09 537.506C128.641 537.506 108.705 517.571 108.705 493.121C108.705 470.553 125.631 452.122 147.448 449.113V474.691C139.549 476.947 133.907 484.47 133.907 493.121C133.907 503.653 142.558 512.305 153.09 512.305ZM147.824 385.921L132.026 370.123C137.292 369.371 142.558 368.619 147.824 368.243V385.921ZM147.824 269.694V278.721C143.686 278.721 139.549 277.969 135.411 277.593L143.686 269.318C144.815 269.318 146.319 269.318 147.824 269.694ZM147.071 265.932L147.824 265.18V265.932C147.448 265.932 147.071 265.932 147.071 265.932ZM264.051 169.264C265.18 169.264 265.932 168.512 265.932 167.76C266.308 165.127 266.308 162.117 266.308 159.484H277.969C275.336 223.805 223.052 275.712 158.732 278.721V249.758C207.254 247.125 245.997 208.007 249.006 159.484H262.923C262.923 162.117 262.547 164.75 262.547 167.383C262.171 168.136 262.923 169.264 264.051 169.264ZM200.86 159.484H241.483C238.85 203.869 203.117 239.602 158.732 242.235V201.612C180.548 198.979 198.227 181.301 200.86 159.484ZM158.732 197.851V172.273C164.75 170.393 169.64 165.503 171.521 159.484H197.098C194.465 179.42 178.667 195.218 158.732 197.851ZM200.86 148.2C198.227 124.503 177.915 105.696 153.466 105.696C127.136 105.696 105.696 127.136 105.696 153.466C105.696 177.915 124.127 198.227 148.2 200.86V241.483C101.935 238.474 65.0728 200.108 65.0728 153.09C65.0728 104.192 104.944 64.6969 153.466 64.6969C200.484 64.6969 238.85 101.559 241.859 147.824H200.86V148.2ZM158.732 474.691V449.113C180.172 451.746 196.722 469.801 197.474 491.617H172.273C171.521 483.718 166.255 476.947 158.732 474.691ZM147.824 445.352C124.127 447.985 105.32 468.296 105.32 492.745C105.32 519.075 126.76 540.515 153.09 540.515C176.034 540.515 195.594 523.965 200.107 502.149H241.107C236.217 546.533 198.603 581.138 153.09 581.138C104.191 581.138 64.6966 541.267 64.6966 492.745C64.6966 445.728 101.558 407.361 147.824 404.352V445.352ZM200.86 491.617C200.107 467.544 182.053 447.985 158.356 445.352V404.728C204.245 407.361 240.731 445.352 241.483 491.617H200.86ZM153.09 134.659C142.558 134.659 133.907 143.31 133.907 153.842C133.907 162.494 139.549 169.64 147.448 172.273V197.851C125.631 195.218 108.705 176.411 108.705 153.842C108.705 129.393 128.641 109.458 153.09 109.458C175.658 109.458 194.089 126.384 197.098 148.2H171.521C169.264 140.301 161.741 134.659 153.09 134.659ZM277.969 148.2H264.428C265.18 148.2 265.932 147.448 265.932 146.696L276.84 135.788C277.216 139.925 277.592 144.063 277.969 148.2ZM28.2109 153.842C28.2109 85.0085 84.256 28.9636 153.09 28.9636C212.896 28.9636 262.923 71.0914 274.959 127.136L264.804 137.292C264.804 136.54 264.428 135.788 264.428 135.035C264.428 133.907 263.299 133.531 262.171 133.531C261.042 133.531 260.666 134.659 260.666 135.788C261.042 137.292 261.042 138.797 261.418 140.677L253.896 148.2H249.006C245.997 97.7973 204.245 57.9264 153.466 57.9264C100.806 57.9264 57.55 100.806 57.55 153.842C57.55 204.621 97.4209 246.749 147.824 249.382V254.648L126.76 275.712C70.7149 263.676 28.2109 213.649 28.2109 153.842ZM87.2651 325.363L132.026 280.602C137.292 281.354 142.182 282.106 147.448 282.106V364.481C141.053 364.857 134.659 365.61 128.264 366.738L87.2651 325.363ZM153.09 618C84.256 618 28.2109 561.955 28.2109 493.121C28.2109 434.443 68.8342 385.545 122.998 372.004L135.035 384.041C133.907 384.041 132.778 384.417 131.65 384.793C130.521 384.793 130.145 385.921 130.145 387.05C130.145 387.802 130.897 388.554 132.026 388.554H132.402C134.283 388.178 136.54 387.802 138.42 387.426L147.824 396.829V397.958C97.4209 400.967 57.55 442.719 57.55 493.498C57.55 546.157 100.43 589.414 153.466 589.414C203.117 589.414 243.74 551.423 248.63 503.277H254.272L274.583 523.589C261.042 577.377 211.768 618 153.09 618ZM276.088 514.562L265.932 504.406C265.932 503.653 265.932 503.277 265.932 502.901H277.216C277.216 506.663 276.84 510.424 276.088 514.562ZM249.006 491.617C248.253 441.214 208.382 400.215 158.732 397.206V385.921C160.613 385.921 162.869 386.297 164.75 386.297C164.75 386.297 164.75 386.297 165.126 386.297C165.879 386.297 167.007 385.545 167.007 384.793C167.007 383.664 166.255 382.912 165.502 382.912C163.246 382.536 161.365 382.536 159.108 382.536V368.243C224.933 371.252 277.592 425.04 278.345 491.617H249.006ZM324.986 563.084L279.473 517.571C280.602 512.681 280.978 507.791 281.354 502.525H368.618C368.995 507.415 369.747 512.681 370.499 517.571L324.986 563.084ZM491.24 368.243V397.206C441.59 400.215 401.719 441.214 400.967 491.617H387.049C387.049 488.984 387.426 486.727 387.426 484.47C387.426 483.342 386.673 482.59 385.921 482.59C384.793 482.59 384.04 483.342 384.04 484.094C383.664 486.727 383.664 489.36 383.664 491.617H372.004C372.38 425.416 425.04 371.252 491.24 368.243ZM372.004 502.525H385.169L373.508 514.185C372.756 510.424 372.38 506.663 372.004 502.525ZM496.506 618C437.828 618 388.93 577.377 375.389 523.213L384.793 513.809C385.169 514.938 385.169 516.442 385.545 517.571C385.545 518.323 386.297 519.075 387.426 519.075H387.802C388.93 518.699 389.306 517.947 389.306 516.818C388.93 514.938 388.554 512.681 388.178 510.8L396.077 502.901H401.719C406.609 551.047 447.608 589.037 496.883 589.037C549.542 589.037 592.799 546.157 592.799 493.121C592.799 442.342 552.928 400.215 502.525 397.582V396.453L526.974 372.004C581.514 385.545 621.761 434.82 621.761 493.121C621.385 561.955 565.34 618 496.506 618Z" fill="#DEBB35"/>
<path d="M259.161 529.607H259.537C260.29 529.607 261.042 529.231 261.418 528.479C262.547 525.093 263.299 521.332 264.051 517.571C264.427 516.442 263.675 515.69 262.547 515.314C261.418 514.938 260.666 515.69 260.29 516.818C259.537 520.203 258.785 523.965 257.657 527.35C257.657 528.479 258.409 529.607 259.161 529.607Z" fill="#DEBB35"/>
<path d="M250.51 549.918C250.886 549.918 251.262 550.294 251.262 550.294C252.015 550.294 252.391 549.918 252.767 549.166C254.648 545.781 256.152 542.396 257.657 539.01C258.033 538.258 257.657 537.13 256.528 536.753C255.776 536.377 254.648 536.753 254.272 537.882C252.767 541.267 251.262 544.276 249.758 547.661C249.382 548.414 249.758 549.542 250.51 549.918Z" fill="#DEBB35"/>
<path d="M48.1454 526.974C47.7693 525.846 47.017 525.47 45.8886 525.846C44.7602 526.222 44.3841 526.974 44.7602 528.102C45.8886 531.488 47.017 535.249 48.5216 538.634C48.8978 539.387 49.65 539.763 50.0262 539.763C50.4023 539.763 50.4022 539.763 50.7784 539.763C51.5306 539.387 52.283 538.258 51.9069 537.506C50.4023 533.745 49.2739 530.359 48.1454 526.974Z" fill="#DEBB35"/>
<path d="M244.115 556.688C242.234 559.697 239.977 562.707 237.721 565.34C236.968 566.092 237.344 567.22 238.097 567.973C238.473 568.349 238.849 568.349 239.225 568.349C239.601 568.349 240.354 567.973 240.73 567.596C242.987 564.587 245.243 561.578 247.5 558.569C247.876 557.817 247.876 556.688 247.124 555.936C245.996 555.56 244.867 555.936 244.115 556.688Z" fill="#DEBB35"/>
<path d="M56.0442 440.837C55.292 440.46 54.1635 440.836 53.4112 441.589C51.5305 444.974 50.026 448.359 48.5214 451.745C48.1453 452.497 48.5214 453.625 49.6498 454.001C50.0259 454.001 50.026 454.001 50.4021 454.001C51.1544 454.001 51.9067 453.625 51.9067 452.873C53.4112 449.488 54.9157 446.479 56.4203 443.093C57.1726 442.717 56.7965 441.589 56.0442 440.837Z" fill="#DEBB35"/>
<path d="M153.089 605.21C149.327 605.21 145.942 604.834 142.181 604.834C141.052 604.834 140.3 605.586 140.3 606.339C140.3 607.467 141.052 608.219 141.804 608.219C145.566 608.595 149.327 608.595 153.089 608.595C154.217 608.595 154.969 607.843 154.969 606.715C154.969 605.962 153.841 605.21 153.089 605.21Z" fill="#DEBB35"/>
<path d="M131.649 602.953C128.263 602.201 124.502 601.449 121.117 600.32C119.988 599.944 119.236 600.696 118.86 601.449C118.484 602.577 119.236 603.329 119.988 603.706C123.374 604.834 127.135 605.586 130.896 606.339H131.273C132.025 606.339 132.777 605.586 133.153 604.834C133.153 604.082 132.401 603.329 131.649 602.953Z" fill="#DEBB35"/>
<path d="M110.961 596.936C107.576 595.432 104.567 593.927 101.181 592.422C100.429 592.046 99.3007 592.423 98.5484 593.175C98.1723 593.927 98.5485 595.055 99.3008 595.808C102.686 597.688 106.071 599.193 109.456 600.698C109.833 600.698 109.833 600.698 110.209 600.698C110.961 600.698 111.713 600.321 111.713 599.569C112.466 598.441 112.089 597.312 110.961 596.936Z" fill="#DEBB35"/>
<path d="M230.574 573.239C227.941 575.872 225.308 578.129 222.675 580.386C221.923 581.138 221.923 582.266 222.299 583.019C222.675 583.395 223.051 583.771 223.803 583.771C224.18 583.771 224.556 583.771 224.932 583.395C227.941 581.138 230.574 578.505 233.207 575.872C233.959 575.12 233.959 573.991 233.207 573.239C232.455 572.487 231.326 572.487 230.574 573.239Z" fill="#DEBB35"/>
<path d="M45.513 516.443C44.7607 513.057 44.3846 509.296 44.0085 505.91C44.0085 504.782 42.8801 504.03 42.1278 504.406C40.9994 504.406 40.2471 505.534 40.6232 506.287C40.9994 510.048 41.3755 513.809 42.1278 517.195C42.1278 517.947 42.8801 518.699 44.0085 518.699H44.3846C45.1369 518.699 45.8892 517.571 45.513 516.443Z" fill="#DEBB35"/>
<path d="M194.842 596.936C191.457 598.441 188.071 599.569 184.686 600.697C183.558 601.074 183.181 601.826 183.558 602.954C183.934 603.707 184.686 604.083 185.438 604.083H185.814C189.2 602.954 192.961 601.826 196.346 600.321C197.099 599.945 197.851 598.817 197.475 598.064C197.099 596.936 195.97 596.56 194.842 596.936Z" fill="#DEBB35"/>
<path d="M174.529 603.331C171.144 604.083 167.382 604.459 163.997 604.835C162.868 604.835 162.116 605.964 162.492 606.716C162.492 607.844 163.245 608.22 164.373 608.22C168.134 607.844 171.896 607.468 175.281 606.716C176.41 606.34 176.786 605.587 176.786 604.459C176.41 603.707 175.281 602.954 174.529 603.331Z" fill="#DEBB35"/>
<path d="M233.96 416.387C233.208 415.635 232.079 415.635 231.327 416.387C230.575 417.14 230.575 418.268 231.327 419.02C233.96 421.653 236.217 424.286 238.474 426.919C238.85 427.295 239.226 427.672 239.978 427.672C240.354 427.672 240.73 427.672 241.107 427.296C241.859 426.543 241.859 425.415 241.483 424.662C238.85 421.653 236.593 418.644 233.96 416.387Z" fill="#DEBB35"/>
<path d="M83.504 580.009C82.7517 579.256 81.6233 579.633 80.871 580.385C80.1187 581.137 80.4949 582.265 81.2472 583.018C84.2563 585.275 87.2654 587.532 90.2745 589.788C90.6507 590.165 91.0269 590.164 91.403 590.164C92.1553 590.164 92.5314 589.788 92.9075 589.412C93.2837 588.66 93.2837 587.531 92.5314 586.779C89.1461 584.522 86.137 582.266 83.504 580.009Z" fill="#DEBB35"/>
<path d="M217.034 402.095C216.282 401.719 215.153 401.719 214.401 402.471C213.648 403.224 214.025 404.352 214.777 405.104C217.786 406.985 220.795 409.242 223.428 411.499C223.804 411.875 224.18 411.875 224.557 411.875C224.933 411.875 225.685 411.499 226.061 411.123C226.813 410.37 226.437 409.242 225.685 408.49C223.052 406.233 220.043 403.976 217.034 402.095Z" fill="#DEBB35"/>
<path d="M207.254 396.076C203.869 394.195 200.484 392.691 197.099 391.186C196.346 390.81 195.218 391.186 194.842 392.314C194.466 393.067 194.842 394.195 195.97 394.571C199.355 396.076 202.365 397.58 205.75 399.085C206.126 399.085 206.502 399.461 206.502 399.461C207.254 399.461 207.631 399.085 208.007 398.333C208.383 397.58 208.383 396.828 207.254 396.076Z" fill="#DEBB35"/>
<path d="M250.134 444.974C250.51 445.727 251.263 446.103 251.639 446.103C252.015 446.103 252.391 446.103 252.391 445.726C253.143 445.35 253.52 444.222 253.143 443.094C251.263 439.708 249.382 436.699 247.501 433.69C247.125 432.938 245.621 432.562 244.868 433.314C244.116 433.69 243.74 434.818 244.492 435.947C246.749 438.58 248.63 441.589 250.134 444.974Z" fill="#DEBB35"/>
<path d="M258.409 464.91C258.785 465.662 259.537 466.038 260.29 466.038H260.666C261.794 465.662 262.17 464.91 261.794 463.781C260.666 460.396 259.537 456.635 258.033 453.249C257.657 452.497 256.528 451.745 255.776 452.121C255.024 452.497 254.271 453.626 254.647 454.378C256.152 457.763 257.28 461.148 258.409 464.91Z" fill="#DEBB35"/>
<path d="M261.042 475.067C261.795 478.452 262.171 482.214 262.547 485.599C262.547 486.727 263.299 487.103 264.428 487.103C265.556 487.103 266.308 485.975 265.932 485.223C265.556 481.461 265.18 477.7 264.428 474.315C264.428 473.186 263.299 472.81 262.171 472.81C261.419 473.186 260.666 474.315 261.042 475.067Z" fill="#DEBB35"/>
<path d="M186.941 387.425C183.556 386.297 179.795 385.544 176.033 384.792C174.905 384.416 174.153 385.168 173.777 386.297C173.4 387.425 174.153 388.177 175.281 388.554C178.666 389.306 182.428 390.058 185.813 391.187H186.189C186.941 391.187 187.694 390.81 188.07 390.058C188.446 388.93 187.694 387.801 186.941 387.425Z" fill="#DEBB35"/>
<path d="M60.9343 435.196C61.6866 435.196 62.0627 434.819 62.4389 434.443C64.3196 431.434 66.5764 428.425 68.8333 425.792C69.5856 425.04 69.2094 423.911 68.4571 423.159C67.7048 422.407 66.5764 422.783 65.8241 423.535C63.5673 426.544 61.3105 429.553 59.0536 432.563C58.3013 433.315 58.6775 434.443 59.4298 435.196C60.1821 434.819 60.5582 435.196 60.9343 435.196Z" fill="#DEBB35"/>
<path d="M43.6332 475.067C44.7616 475.067 45.5139 474.691 45.8901 473.562C46.6424 470.177 47.3947 466.416 48.5231 463.03C48.8992 461.902 48.1469 461.15 47.3946 460.773C46.2662 460.397 45.5139 461.15 45.1377 461.902C44.0093 465.287 43.2571 469.049 42.5048 472.81C42.1287 473.938 42.5048 475.067 43.6332 475.067Z" fill="#DEBB35"/>
<path d="M74.8526 418.269C75.2287 418.269 75.6048 418.269 75.9809 417.893C78.6139 415.26 81.2469 413.003 83.8799 410.746C84.6322 409.994 84.6322 408.866 84.2561 408.113C83.5038 407.361 82.3753 407.361 81.623 407.737C78.6139 409.994 75.9809 412.627 73.3479 415.26C72.5956 416.012 72.5956 417.141 73.3479 417.893C74.1002 417.893 74.4764 418.269 74.8526 418.269Z" fill="#DEBB35"/>
<path d="M91.7793 404.352C92.1554 404.352 92.5315 404.352 92.9076 403.976C95.9168 402.095 98.9259 400.215 102.311 398.334C103.063 397.958 103.44 396.83 103.063 395.701C102.687 394.949 101.559 394.573 100.43 394.949C97.0452 396.83 94.0361 398.71 91.0269 400.591C90.2747 400.967 89.8985 402.472 90.6508 403.224C90.6508 404.352 91.4031 404.352 91.7793 404.352Z" fill="#DEBB35"/>
<path d="M111.337 394.195C111.713 394.195 111.713 394.195 112.09 394.195C115.475 392.691 118.86 391.562 122.245 390.81C123.374 390.434 123.75 389.682 123.374 388.553C122.998 387.425 122.245 387.049 121.117 387.425C117.732 388.553 113.97 389.682 110.585 391.186C109.833 391.562 109.08 392.691 109.456 393.443C109.833 393.819 110.585 394.195 111.337 394.195Z" fill="#DEBB35"/>
<path d="M41.7508 496.883C42.8792 496.883 43.6315 496.131 43.6315 495.002C43.6315 491.241 44.0077 487.855 44.3839 484.094C44.3839 482.966 43.6316 482.213 42.8793 482.213C41.7509 482.213 40.9986 482.966 40.9986 483.718C40.6225 487.479 40.2463 491.241 40.2463 495.002C39.8701 496.131 40.6224 496.883 41.7508 496.883Z" fill="#DEBB35"/>
<path d="M214.024 586.781C211.014 588.661 208.005 590.542 204.62 592.423C203.868 592.799 203.492 593.927 203.868 595.056C204.244 595.808 204.996 596.184 205.372 596.184C205.748 596.184 206.125 596.184 206.125 595.808C209.51 593.927 212.519 592.047 215.528 590.166C216.28 589.79 216.657 588.661 215.904 587.533C215.904 586.405 214.776 586.404 214.024 586.781Z" fill="#DEBB35"/>
<path d="M68.0818 564.963C67.3295 564.211 66.2012 564.211 65.4489 564.587C64.6966 565.339 64.6966 566.468 65.0727 567.22C67.3296 570.229 69.9626 572.862 72.5956 575.495C72.9717 575.871 73.3478 575.871 73.7239 575.871C74.1001 575.871 74.4763 575.871 74.8524 575.495C75.6047 574.743 75.6047 573.614 74.8524 572.862C72.9717 570.229 70.3387 567.596 68.0818 564.963Z" fill="#DEBB35"/>
<path d="M56.4205 546.909C56.0444 546.156 54.916 545.78 53.7876 546.156C53.0353 546.533 52.6591 547.661 53.0352 548.789C54.916 552.175 56.7967 555.184 58.6774 558.193C59.0535 558.569 59.4296 558.945 60.1819 558.945C60.558 558.945 60.9343 558.945 61.3104 558.569C62.0627 558.193 62.4388 556.688 61.6866 555.936C59.8059 553.303 57.9251 549.918 56.4205 546.909Z" fill="#DEBB35"/>
<path d="M420.525 34.2292H426.167C427.295 34.2292 428.048 33.4769 428.048 32.3485C428.048 31.2201 427.295 30.4678 426.167 30.4678H420.525C419.396 30.4678 418.644 31.2201 418.644 32.3485C418.644 33.4769 419.396 34.2292 420.525 34.2292Z" fill="#DEBB35"/>
<path d="M375.388 34.2292H386.672C387.801 34.2292 388.553 33.4769 388.553 32.3485C388.553 31.2201 387.801 30.4678 386.672 30.4678H375.388C374.26 30.4678 373.507 31.2201 373.507 32.3485C373.507 33.4769 374.26 34.2292 375.388 34.2292Z" fill="#DEBB35"/>
<path d="M285.49 33.4766H293.389C294.141 50.0268 308.059 63.1917 324.609 63.1917C341.159 63.1917 355.076 50.0268 356.205 33.4766H364.104C365.232 33.4766 365.984 32.7243 365.984 31.5959C365.984 30.4675 365.232 29.7152 364.104 29.7152H356.205C355.452 13.165 341.535 0 324.609 0C308.059 0 294.142 13.165 293.013 29.7152H285.114C283.986 29.7152 283.233 30.4675 283.233 31.5959C283.61 32.7243 284.362 33.4766 285.49 33.4766ZM297.151 30.0913C298.279 15.7979 310.316 4.13757 324.985 4.13757C339.655 4.13757 351.691 15.7979 352.819 30.4674C351.691 30.4674 351.315 31.2197 351.315 32.3481C351.315 33.1004 352.067 33.8527 352.819 34.2288C351.691 48.5222 339.655 60.1826 324.985 60.1826C310.316 60.1826 298.279 48.5222 297.151 33.8527C297.903 33.8527 298.655 33.1004 298.655 31.972C298.655 30.8436 297.903 30.0913 297.151 30.0913Z" fill="#DEBB35"/>
<path d="M308.059 33.8534H312.573C313.325 39.8716 318.591 44.3853 324.609 44.3853C331.004 44.3853 335.893 39.8716 337.022 33.8534H341.535C342.664 33.8534 343.416 33.1011 343.416 31.9727C343.416 30.8442 342.664 30.092 341.535 30.092H337.022C336.269 24.0737 331.004 19.5601 324.985 19.5601C318.591 19.5601 313.701 24.0737 312.573 30.092H308.059C306.931 30.092 306.178 30.8442 306.178 31.9727C306.178 33.1011 306.931 33.8534 308.059 33.8534Z" fill="#DEBB35"/>
<path d="M240.73 33.4763H252.015C253.143 33.4763 253.895 32.724 253.895 31.5955C253.895 30.4671 253.143 29.7148 252.015 29.7148H240.73C239.602 29.7148 238.85 30.4671 238.85 31.5955C238.85 32.724 239.602 33.4763 240.73 33.4763Z" fill="#DEBB35"/>
<path d="M262.922 33.4763H274.206C275.335 33.4763 276.087 32.724 276.087 31.5955C276.087 30.4671 275.335 29.7148 274.206 29.7148H262.922C261.794 29.7148 261.042 30.4671 261.042 31.5955C261.042 32.724 262.17 33.4763 262.922 33.4763Z" fill="#DEBB35"/>
<path d="M397.956 34.2292H409.241C410.369 34.2292 411.121 33.4769 411.121 32.3485C411.121 31.2201 410.369 30.4678 409.241 30.4678H397.956C396.828 30.4678 396.076 31.2201 396.076 32.3485C396.076 33.4769 396.828 34.2292 397.956 34.2292Z" fill="#DEBB35"/>
<path d="M223.804 33.4763H229.446C230.575 33.4763 231.327 32.724 231.327 31.5955C231.327 30.4671 230.575 29.7148 229.446 29.7148H223.804C222.676 29.7148 221.923 30.4671 221.923 31.5955C221.923 32.3478 222.676 33.4763 223.804 33.4763Z" fill="#DEBB35"/>
<path d="M425.792 617.999H420.15C419.022 617.999 418.27 618.751 418.27 619.88C418.27 621.008 419.022 621.76 420.15 621.76H425.792C426.921 621.76 427.673 621.008 427.673 619.88C427.673 618.751 426.921 617.999 425.792 617.999Z" fill="#DEBB35"/>
<path d="M341.912 617.247H337.398C336.646 611.228 331.38 606.715 325.362 606.715C318.967 606.715 314.078 611.228 312.949 617.247H308.435C307.307 617.247 306.555 617.999 306.555 619.127C306.555 620.256 307.307 621.008 308.435 621.008H312.949C313.701 627.026 318.967 631.54 324.986 631.54C331.38 631.54 336.27 627.026 337.398 621.008H341.912C343.04 621.008 343.793 620.256 343.793 619.127C343.417 618.375 342.664 617.247 341.912 617.247Z" fill="#DEBB35"/>
<path d="M251.638 616.871H240.354C239.225 616.871 238.473 617.623 238.473 618.752C238.473 619.88 239.225 620.633 240.354 620.633H251.638C252.767 620.633 253.519 619.88 253.519 618.752C253.519 617.623 252.767 616.871 251.638 616.871Z" fill="#DEBB35"/>
<path d="M364.104 617.623H356.205C355.452 601.073 341.535 587.908 324.609 587.908C308.059 587.908 294.142 601.073 293.013 617.623H285.114C283.986 617.623 283.233 618.375 283.233 619.504C283.233 620.632 283.986 621.384 285.114 621.384H293.013C293.765 637.934 307.683 651.099 324.233 651.099C340.783 651.099 354.7 637.934 355.829 621.384H363.728C364.856 621.384 365.608 620.632 365.608 619.504C365.984 618.375 365.232 617.623 364.104 617.623ZM352.819 621.008C351.691 635.301 339.655 646.962 324.985 646.962C310.316 646.962 298.279 635.301 297.151 620.632C297.903 620.632 298.655 619.88 298.655 618.751C298.655 617.999 297.903 617.247 297.151 616.87C298.279 602.577 310.316 590.917 324.985 590.917C339.655 590.917 351.691 602.577 352.819 617.247C351.691 617.247 351.315 617.999 351.315 619.127C351.315 620.256 351.691 621.008 352.819 621.008Z" fill="#DEBB35"/>
<path d="M274.206 616.871H262.922C261.794 616.871 261.042 617.623 261.042 618.752C261.042 619.88 261.794 620.633 262.922 620.633H274.206C275.335 620.633 276.087 619.88 276.087 618.752C276.087 618 275.335 616.871 274.206 616.871Z" fill="#DEBB35"/>
<path d="M386.672 617.624H375.388C374.26 617.624 373.507 618.376 373.507 619.505C373.507 620.633 374.26 621.385 375.388 621.385H386.672C387.801 621.385 388.553 620.633 388.553 619.505C388.553 618.376 387.801 617.624 386.672 617.624Z" fill="#DEBB35"/>
<path d="M409.241 617.624H397.956C396.828 617.624 396.076 618.376 396.076 619.505C396.076 620.633 396.828 621.385 397.956 621.385H409.241C410.369 621.385 411.121 620.633 411.121 619.505C411.121 618.752 410.369 617.624 409.241 617.624Z" fill="#DEBB35"/>
<path d="M229.446 616.871H223.804C222.676 616.871 221.923 617.623 221.923 618.752C221.923 619.88 222.676 620.633 223.804 620.633H229.446C230.575 620.633 231.327 619.88 231.327 618.752C231.327 617.623 230.198 616.871 229.446 616.871Z" fill="#DEBB35"/>
<path d="M29.7156 342.289C29.7156 343.417 30.4679 344.17 31.5963 344.17C32.7247 344.17 33.477 343.417 33.477 342.289V337.775C39.4953 337.023 44.0089 331.757 44.0089 325.739C44.0089 319.344 39.4953 314.455 33.477 313.326V308.812C33.477 307.684 32.7247 306.932 31.5963 306.932C30.4679 306.932 29.7156 307.684 29.7156 308.812V313.326C23.6974 314.078 19.1836 319.344 19.1836 325.363C19.1836 331.757 23.6974 336.647 29.7156 337.775V342.289Z" fill="#DEBB35"/>
<path d="M31.2191 419.397C30.0907 419.397 29.3384 420.149 29.3384 421.278V426.92C29.3384 428.048 30.0907 428.8 31.2191 428.8C32.3475 428.8 33.0998 428.048 33.0998 426.92V421.278C33.0998 420.149 32.3475 419.397 31.2191 419.397Z" fill="#DEBB35"/>
<path d="M30.4678 252.391C30.4678 253.519 31.2201 254.272 32.3485 254.272C33.4769 254.272 34.2292 253.519 34.2292 252.391V241.107C34.2292 239.978 33.4769 239.226 32.3485 239.226C31.2201 239.226 30.4678 239.978 30.4678 241.107V252.391Z" fill="#DEBB35"/>
<path d="M33.0998 398.709C33.0998 397.581 32.3475 396.829 31.2191 396.829C30.0907 396.829 29.3384 397.581 29.3384 398.709V409.994C29.3384 411.122 30.0907 411.874 31.2191 411.874C32.3475 411.874 33.0998 411.122 33.0998 409.994V398.709Z" fill="#DEBB35"/>
<path d="M29.7152 364.857C29.7152 365.985 30.4675 366.738 31.5959 366.738C32.7243 366.738 33.4766 365.985 33.4766 364.857V356.958C50.0268 356.206 63.1917 342.288 63.1917 325.738C63.1917 309.188 50.4029 295.271 33.4766 294.142V286.243C33.4766 285.115 32.7243 284.363 31.5959 284.363C30.4675 284.363 29.7152 285.115 29.7152 286.243V294.142C13.165 294.895 0 308.812 0 325.362C0 342.288 13.165 355.83 29.7152 356.958V364.857ZM3.76141 325.362C3.76141 310.693 15.4217 298.656 30.0912 297.528C30.0912 298.28 30.8435 299.032 31.9719 299.032C32.7242 299.032 33.4765 298.28 33.8526 297.528C48.5221 298.656 59.8064 310.693 59.8064 325.362C59.8064 340.032 48.1461 352.068 33.4766 353.197C33.4766 352.444 32.7243 351.692 31.5959 351.692C30.8436 351.692 30.0913 352.444 29.7152 353.197C15.4218 352.444 3.76141 340.032 3.76141 325.362Z" fill="#DEBB35"/>
<path d="M30.0913 274.959C30.0913 276.088 30.8436 276.84 31.972 276.84C33.1004 276.84 33.8527 276.088 33.8527 274.959V263.675C33.8527 262.547 33.1004 261.794 31.972 261.794C30.8436 261.794 30.0913 262.547 30.0913 263.675V274.959Z" fill="#DEBB35"/>
<path d="M33.0998 376.141C33.0998 375.013 32.3475 374.26 31.2191 374.26C30.0907 374.26 29.3384 375.013 29.3384 376.141V387.425C29.3384 388.554 30.0907 389.306 31.2191 389.306C32.3475 389.306 33.0998 388.554 33.0998 387.425V376.141Z" fill="#DEBB35"/>
<path d="M32.3485 231.703C33.4769 231.703 34.2292 230.951 34.2292 229.823V224.181C34.2292 223.052 33.4769 222.3 32.3485 222.3C31.2201 222.3 30.4678 223.052 30.4678 224.181V229.823C30.4678 230.951 31.2201 231.703 32.3485 231.703Z" fill="#DEBB35"/>
<path d="M620.633 313.326V308.812C620.633 307.684 619.881 306.932 618.752 306.932C617.624 306.932 616.872 307.684 616.872 308.812V313.326C610.853 314.078 606.34 319.344 606.34 325.363C606.34 331.757 610.853 336.647 616.872 337.775V342.289C616.872 343.417 617.624 344.17 618.752 344.17C619.881 344.17 620.633 343.417 620.633 342.289V337.775C626.651 337.023 631.165 331.757 631.165 325.739C631.541 319.344 626.651 314.078 620.633 313.326Z" fill="#DEBB35"/>
<path d="M621.009 294.142V286.243C621.009 285.115 620.257 284.363 619.129 284.363C618 284.363 617.248 285.115 617.248 286.243V294.142C600.698 294.895 587.533 308.812 587.533 325.362C587.533 342.288 600.698 355.83 617.248 356.958V364.857C617.248 365.985 618 366.738 619.129 366.738C620.257 366.738 621.009 365.985 621.009 364.857V356.958C637.559 356.206 650.724 342.288 650.724 325.738C650.348 308.812 637.559 295.271 621.009 294.142ZM620.633 353.197C620.633 352.444 619.881 351.692 618.752 351.692C618 351.692 617.248 352.444 616.872 353.197C602.202 352.068 590.918 340.032 590.918 325.362C590.918 310.693 602.578 298.656 617.248 297.528C617.248 298.28 618 299.032 619.129 299.032C619.881 299.032 620.633 298.28 621.009 297.528C635.679 298.656 646.963 310.693 646.963 325.362C646.587 340.408 634.926 352.444 620.633 353.197Z" fill="#DEBB35"/>
<path d="M616.495 426.543C616.495 427.672 617.247 428.424 618.375 428.424C619.504 428.424 620.256 427.672 620.256 426.543V420.901C620.256 419.773 619.504 419.021 618.375 419.021C617.247 419.021 616.495 419.773 616.495 420.901V426.543Z" fill="#DEBB35"/>
<path d="M621.009 241.107C621.009 239.978 620.257 239.226 619.128 239.226C618 239.226 617.248 239.978 617.248 241.107V252.391C617.248 253.519 618 254.272 619.128 254.272C620.257 254.272 621.009 253.519 621.009 252.391V241.107Z" fill="#DEBB35"/>
<path d="M619.128 261.794C618 261.794 617.248 262.547 617.248 263.675V274.959C617.248 276.088 618 276.84 619.128 276.84C620.257 276.84 621.009 276.088 621.009 274.959V263.675C621.009 262.547 620.257 261.794 619.128 261.794Z" fill="#DEBB35"/>
<path d="M618.375 389.306C619.504 389.306 620.256 388.554 620.256 387.425V376.141C620.256 375.013 619.504 374.26 618.375 374.26C617.247 374.26 616.495 375.013 616.495 376.141V387.425C616.871 388.177 617.623 389.306 618.375 389.306Z" fill="#DEBB35"/>
<path d="M616.495 409.994C616.495 411.122 617.247 411.874 618.375 411.874C619.504 411.874 620.256 411.122 620.256 409.994V398.709C620.256 397.581 619.504 396.829 618.375 396.829C617.247 396.829 616.495 397.581 616.495 398.709V409.994Z" fill="#DEBB35"/>
<path d="M621.385 224.557C621.385 223.429 620.633 222.676 619.505 222.676C618.376 222.676 617.624 223.429 617.624 224.557V230.199C617.624 231.328 618.376 232.08 619.505 232.08C620.633 232.08 621.385 231.328 621.385 230.199V224.557Z" fill="#DEBB35"/>
<path d="M312.197 311.069C309.188 313.702 307.308 317.087 306.179 320.849L227.942 276.088L228.318 374.637L305.803 329.5C306.555 333.261 308.436 336.647 311.445 339.28L234.336 384.417L319.344 433.315V343.793C321.225 344.169 323.106 344.922 324.986 344.922C326.867 344.922 328.748 344.546 330.628 343.793V433.315L416.012 383.664L338.151 339.28C340.784 336.647 342.665 333.261 343.417 329.5L421.278 374.261L420.902 275.712L343.041 321.225C341.913 317.463 340.032 314.078 337.023 311.445L414.884 265.932L329.876 217.034V307.308C327.995 306.555 326.115 306.179 324.234 306.179C322.353 306.179 320.473 306.555 318.592 307.308V216.658L233.96 266.308L312.197 311.069ZM305.803 325.362L232.079 368.242V282.482L305.803 324.986V325.362ZM417.517 281.73V367.49L343.793 324.986C343.793 324.61 343.793 324.61 343.793 324.234L417.517 281.73ZM334.014 223.428L408.113 265.932L334.014 308.812V223.428ZM334.014 342.289C334.39 342.289 334.766 341.913 335.142 341.913L408.49 384.04L334.014 427.297V342.289ZM315.583 426.92L241.483 384.417L314.454 341.913C314.83 341.913 314.831 342.289 315.207 342.289V426.92H315.583ZM315.583 308.812L241.107 266.308L315.583 223.052V308.812Z" fill="#DEBB35"/>
</svg>
