<svg width="171" height="156" viewBox="0 0 171 156" fill="none" xmlns="http://www.w3.org/2000/svg">
<path d="M88.5996 103.2H98.7996L93.6996 94.3999L88.5996 103.2Z" fill="#DEBB35"/>
<path d="M88.5996 71.6999H98.7996L93.6996 62.8999L88.5996 71.6999Z" fill="#DEBB35"/>
<path d="M93.7 54.8L91 59.5001H96.5L93.7 54.8Z" fill="#DEBB35"/>
<path d="M112.1 6.80005H99.2002L105.7 18.0001L112.1 6.80005Z" fill="#DEBB35"/>
<path d="M81.2002 18.0001L87.6002 6.80005H74.7002L81.2002 18.0001Z" fill="#DEBB35"/>
<path d="M118 90.4999C117.9 90.2999 117.7 90.2999 117.5 90.3999C117.3 90.4999 117.3 90.6999 117.4 90.8999C117.6 91.1999 117.7 91.4999 117.9 91.7999C118 91.8999 118.1 91.9999 118.2 91.9999C118.3 91.9999 118.3 91.9999 118.4 91.9999C118.6 91.8999 118.6 91.6999 118.5 91.4999C118.3 91.0999 118.1 90.7999 118 90.4999Z" fill="#DEBB35"/>
<path d="M121.7 104.9C121.5 104.9 121.3 105.1 121.3 105.3C121.3 105.6 121.3 106 121.3 106.3C121.3 106.5 121.5 106.7 121.7 106.7C121.9 106.7 122.1 106.5 122.1 106.3C122.1 106 122.1 105.6 122.1 105.3C122.1 105.1 121.9 104.9 121.7 104.9Z" fill="#DEBB35"/>
<path d="M66.9 97.2001C67 97.0001 66.8 96.8001 66.6 96.7001C66.4 96.6001 66.2 96.8001 66.1 96.9001C66 97.2001 65.9 97.5001 65.8 97.9001C65.7 98.1001 65.9 98.3001 66.1 98.4001H66.2C66.4 98.4001 66.5 98.3001 66.6 98.1001C66.7 97.8001 66.8 97.5001 66.9 97.2001Z" fill="#DEBB35"/>
<path d="M81.6998 79.1999C81.3998 79.2999 81.0998 79.4999 80.7998 79.5999C80.5998 79.6999 80.4998 79.8999 80.5998 80.0999C80.6998 80.1999 80.7998 80.2999 80.8998 80.2999C80.9998 80.2999 80.9998 80.2999 81.0998 80.2999C81.3998 80.1999 81.6998 79.9999 81.9998 79.8999C82.1998 79.7999 82.2998 79.5999 82.1998 79.3999C82.0998 79.1999 81.8998 79.0999 81.6998 79.1999Z" fill="#DEBB35"/>
<path d="M101.6 131.9C101.3 132 101 132.1 100.7 132.2C100.5 132.3 100.4 132.5 100.4 132.7C100.4 132.9 100.6 133 100.8 133H100.9C101.2 132.9 101.6 132.8 101.9 132.7C102.1 132.6 102.2 132.4 102.2 132.2C102 132 101.8 131.9 101.6 131.9Z" fill="#DEBB35"/>
<path d="M87.5002 77.3C87.2002 77.4 86.8002 77.4001 86.5002 77.5001C86.3002 77.6001 86.2002 77.8001 86.2002 78.0001C86.2002 78.2001 86.4002 78.3 86.6002 78.3H86.7002C87.0002 78.2 87.3002 78.1001 87.7002 78.1001C87.9002 78.1001 88.0002 77.9 88.0002 77.7C87.9002 77.4 87.7002 77.3 87.5002 77.3Z" fill="#DEBB35"/>
<path d="M114.3 85.6C114.2 85.4 113.9 85.4 113.8 85.6C113.6 85.7 113.6 86 113.8 86.1C114 86.3 114.2 86.5999 114.5 86.7999C114.6 86.8999 114.7 86.8999 114.8 86.8999C114.9 86.8999 115 86.8999 115 86.7999C115.2 86.6999 115.2 86.3999 115 86.2999C114.8 86.0999 114.5 85.9 114.3 85.6Z" fill="#DEBB35"/>
<path d="M72.0001 86.4C71.8001 86.7 71.6001 86.8999 71.3001 87.1999C71.2001 87.3999 71.2001 87.5999 71.4001 87.6999C71.5001 87.7999 71.6001 87.7999 71.6001 87.7999C71.7001 87.7999 71.8001 87.7999 71.9001 87.6999C72.1001 87.3999 72.3001 87.2 72.5001 86.9C72.6001 86.7 72.6001 86.5 72.5001 86.4C72.4001 86.3 72.1001 86.3 72.0001 86.4Z" fill="#DEBB35"/>
<path d="M93.4996 76.7C93.1996 76.7 92.7996 76.7 92.4996 76.7C92.2996 76.7 92.0996 76.9 92.0996 77.1C92.0996 77.3 92.2996 77.5 92.4996 77.5C92.7996 77.5 93.1996 77.5 93.4996 77.5C93.6996 77.5 93.8996 77.3 93.8996 77.1C93.8996 76.9 93.6996 76.7 93.4996 76.7Z" fill="#DEBB35"/>
<path d="M84.2 131.5C83.9 131.4 83.6 131.3 83.3 131.2C83.1 131.1 82.9 131.2 82.8 131.4C82.7 131.6 82.8 131.8 83 131.9C83.3 132 83.6 132.1 84 132.3H84.1C84.3 132.3 84.4 132.2 84.5 132.1C84.5 131.8 84.4 131.6 84.2 131.5Z" fill="#DEBB35"/>
<path d="M89.9 132.9C89.6 132.9 89.2 132.8 88.9 132.8C88.7 132.8 88.5 132.9 88.5 133.1C88.5 133.3 88.6 133.5 88.8 133.5C89.1 133.6 89.5 133.6 89.8 133.6C90 133.6 90.1 133.5 90.2 133.3C90.3 133.1 90.1 132.9 89.9 132.9Z" fill="#DEBB35"/>
<path d="M105.3 79.2C105 79.1 104.7 78.9 104.4 78.8C104.2 78.7 104 78.8 103.9 79C103.8 79.2 103.9 79.4 104.1 79.5C104.4 79.6 104.7 79.8 105 79.9C105.1 79.9 105.1 79.9 105.2 79.9C105.3 79.9 105.5 79.8 105.5 79.7C105.6 79.5 105.5 79.3 105.3 79.2Z" fill="#DEBB35"/>
<path d="M109.7 81.7C109.5 81.6 109.3 81.6 109.2 81.8C109.1 82 109.1 82.2 109.3 82.3C109.6 82.5 109.8 82.7 110.1 82.9C110.2 82.9 110.2 83 110.3 83C110.4 83 110.5 82.9 110.6 82.8C110.7 82.6 110.7 82.4 110.5 82.3C110.2 82.1 110 81.9 109.7 81.7Z" fill="#DEBB35"/>
<path d="M99.4996 77.3001C99.1996 77.2001 98.7996 77.2001 98.4996 77.1001C98.2996 77.1001 98.0996 77.2001 98.0996 77.4001C98.0996 77.6001 98.1996 77.8001 98.3996 77.8001C98.6996 77.9001 98.9996 77.9001 99.3996 78.0001H99.4996C99.6996 78.0001 99.7996 77.9001 99.8996 77.7001C99.7996 77.6001 99.6996 77.4001 99.4996 77.3001Z" fill="#DEBB35"/>
<path d="M76.4999 82.3001C76.1999 82.5001 75.9999 82.7001 75.6999 82.9001C75.4999 83.0001 75.4999 83.3001 75.5999 83.4001C75.6999 83.5001 75.7999 83.5001 75.8999 83.5001C75.9999 83.5001 76.0999 83.5001 76.0999 83.4001C76.3999 83.2001 76.5999 83.0001 76.8999 82.8001C77.0999 82.7001 77.0999 82.4001 76.9999 82.3001C76.8999 82.2001 76.5999 82.2001 76.4999 82.3001Z" fill="#DEBB35"/>
<path d="M120.7 111.2C120.6 111.5 120.6 111.8 120.5 112.2C120.4 112.4 120.6 112.6 120.8 112.7H120.9C121.1 112.7 121.2 112.6 121.3 112.4C121.4 112.1 121.5 111.7 121.5 111.4C121.5 111.2 121.4 111 121.2 111C121 110.8 120.8 111 120.7 111.2Z" fill="#DEBB35"/>
<path d="M120.1 97.0999C120.1 97.2999 120.3 97.3999 120.5 97.3999H120.6C120.8 97.2999 120.9 97.0999 120.8 96.8999C120.7 96.5999 120.6 96.2999 120.5 95.8999C120.4 95.6999 120.2 95.5999 120 95.6999C119.8 95.7999 119.7 95.9999 119.8 96.1999C119.9 96.4999 120 96.7999 120.1 97.0999Z" fill="#DEBB35"/>
<path d="M65.3002 104.3C65.5002 104.3 65.7002 104.1 65.7002 103.9C65.7002 103.6 65.7002 103.2 65.8002 102.9C65.8002 102.7 65.7002 102.5 65.5002 102.5C65.3002 102.5 65.1002 102.6 65.1002 102.8C65.1002 103.1 65.1002 103.5 65.0002 103.8C64.9002 104.1 65.1002 104.3 65.3002 104.3Z" fill="#DEBB35"/>
<path d="M118.6 118.2C118.7 118.2 118.7 118.2 118.8 118.2C118.9 118.2 119.1 118.1 119.1 118C119.2 117.7 119.4 117.4 119.5 117.1C119.6 116.9 119.5 116.7 119.3 116.6C119.1 116.5 118.9 116.6 118.8 116.8C118.7 117.1 118.5 117.4 118.4 117.7C118.4 117.8 118.4 118.1 118.6 118.2Z" fill="#DEBB35"/>
<path d="M115.6 123.2C115.7 123.2 115.8 123.2 115.9 123.1C116.1 122.8 116.3 122.6 116.5 122.3C116.6 122.1 116.6 121.9 116.4 121.8C116.2 121.7 116 121.7 115.9 121.9C115.7 122.2 115.5 122.4 115.3 122.7C115.2 122.9 115.2 123.1 115.4 123.2C115.4 123.2 115.5 123.2 115.6 123.2Z" fill="#DEBB35"/>
<path d="M111.9 126.2C111.7 126.4 111.4 126.6 111.1 126.8C110.9 126.9 110.9 127.2 111 127.3C111.1 127.4 111.2 127.4 111.3 127.4C111.4 127.4 111.5 127.4 111.5 127.3C111.8 127.1 112 126.9 112.3 126.6C112.5 126.5 112.5 126.2 112.3 126.1C112.3 126.1 112 126.1 111.9 126.2Z" fill="#DEBB35"/>
<path d="M69.0002 91.2001C68.8002 91.1001 68.6002 91.2001 68.5002 91.3001C68.3002 91.6001 68.2002 91.9001 68.0002 92.2001C67.9002 92.4001 68.0002 92.6001 68.2002 92.7001C68.3002 92.7001 68.3002 92.7001 68.4002 92.7001C68.5002 92.7001 68.7002 92.6001 68.7002 92.5001C68.8002 92.2001 69.0002 91.9001 69.2002 91.6001C69.3002 91.6001 69.2002 91.3001 69.0002 91.2001Z" fill="#DEBB35"/>
<path d="M65.5004 108.6C65.3004 108.6 65.1004 108.8 65.2004 109C65.2004 109.3 65.3004 109.7 65.3004 110C65.3004 110.2 65.5004 110.3 65.7004 110.3C65.7004 110.3 65.7004 110.3 65.8004 110.3C66.0004 110.3 66.1004 110.1 66.1004 109.9C66.0004 109.6 66.0004 109.3 66.0004 108.9C65.9004 108.7 65.7004 108.5 65.5004 108.6Z" fill="#DEBB35"/>
<path d="M69.8001 121.2C69.9001 121.3 70.0001 121.4 70.1001 121.4C70.2001 121.4 70.2001 121.4 70.3001 121.3C70.5001 121.2 70.5001 121 70.4001 120.8C70.2001 120.5 70.0001 120.3 69.9001 120C69.8001 119.8 69.6001 119.8 69.4001 119.9C69.2001 120 69.2001 120.2 69.3001 120.4C69.4001 120.6 69.6001 120.9 69.8001 121.2Z" fill="#DEBB35"/>
<path d="M67.2998 114.6C67.1998 114.4 66.9998 114.3 66.7998 114.4C66.5998 114.5 66.4998 114.7 66.5998 114.9C66.6998 115.2 66.7998 115.5 66.9998 115.8C67.0998 115.9 67.1998 116 67.2998 116H67.3998C67.5998 115.9 67.6998 115.7 67.5998 115.5C67.4998 115.3 67.3998 115 67.2998 114.6Z" fill="#DEBB35"/>
<path d="M73.6998 125.9C73.7998 126 73.8998 126 73.9998 126C74.0998 126 74.1998 126 74.2998 125.9C74.3998 125.8 74.3998 125.5 74.2998 125.4C74.0998 125.2 73.7998 124.9 73.5998 124.7C73.4998 124.5 73.1998 124.5 73.0998 124.7C72.9998 124.8 72.8998 125.1 73.0998 125.2C73.1998 125.4 73.3998 125.6 73.6998 125.9Z" fill="#DEBB35"/>
<path d="M121.6 103.3C121.8 103.3 122 103.1 122 102.9C122 102.6 121.9 102.2 121.9 101.9C121.9 101.7 121.7 101.5 121.5 101.6C121.3 101.6 121.1 101.8 121.2 102C121.2 102.3 121.3 102.7 121.3 103C121.3 103.1 121.4 103.3 121.6 103.3Z" fill="#DEBB35"/>
<path d="M147.6 26.2V26.4L141 14.9L134.4 26.4V26.2H112.1L124.3 47.3C122.7 48.3 121.1 49.5 119.7 50.8L107 28.7L123.6 0H63.9L80.5 28.7L51.7 78.5C50.4 77.3 49 76.2 47.5 75.2L62.8 48.7H40.6V48.9L34 37.5L27.4 49V48.8H5.1L17.3 69.9C14.3 71.8 11.6 74.1 9.4 76.9C9.3 76.8 9.1 76.8 9 76.8C8.4 76.8 8 77.2 8 77.8C8 78.1 8.1 78.3 8.3 78.5C6.9 80.4 5.8 82.5 4.9 84.6C4.6 84.4 4.4 84.4 4.2 84.4C3.3 84.4 2.6 85.1 2.6 86C2.6 86.7 3 87.3 3.6 87.5C3 89.4 2.6 91.4 2.4 93.5C1 93.7 0 94.8 0 96.2C0 97.7 1.2 99 2.8 99C4.3 99 5.6 97.8 5.6 96.2C5.6 94.8 4.6 93.7 3.2 93.5C3.4 91.5 3.8 89.5 4.4 87.6C5.2 87.5 5.8 86.8 5.8 86C5.8 85.6 5.6 85.2 5.3 84.9C6.2 82.7 7.4 80.6 8.8 78.7C9.4 78.7 9.8 78.3 9.8 77.7C9.8 77.6 9.8 77.5 9.7 77.4C11.9 74.7 14.5 72.4 17.5 70.5L20.2 75.2C13.1 79.7 8.3 87.7 8.3 96.7C8.3 108.4 16.2 118.2 26.9 121.2L21.8 130.1H31.4L22.7 145.2H69.7L67.5 149H39.8L40.6 146.9L34.6 149.6L40.6 152.3L39.8 150.1H67L64 155.4H123.5L120.5 150.1H149.2L148.4 152.3L154.4 149.6L148.4 146.9L149.2 149H120V149.1L117.8 145.3H164.8L156.1 130.2H165.7L147.6 98.9C158.6 96 166.7 86.1 166.7 74.2C166.7 65.2 162 57.2 154.8 52.7L170.1 26.2H147.6ZM153.2 38H128.9L141.1 16.9L153.2 38ZM113.8 27.2H133.9L127.1 39H154.9L148.1 27.2H168.2L156.9 46.7C152.1 43.9 146.6 42.4 141 42.4C135.2 42.4 129.8 44 125.1 46.7L113.8 27.2ZM124.6 47.9L127.3 52.6C125.7 53.6 124.1 54.9 122.8 56.2L120 51.4C121.5 50.1 123 48.9 124.6 47.9ZM78.4 130.1L77.8 131.2C77.2 130.9 76.7 130.5 76.2 130.1H78.4ZM81.8 128.3C85.2 130.1 89.1 131.1 93.2 131.1V132.2L91.3 135.5C87.1 135.2 83.1 134 79.5 132.2L81.8 128.3ZM94.2 108.6L103.5 124.7C100.7 126.2 97.5 127 94.2 127.1V108.6ZM93.7 103.7L82 123.9C75.8 120 71.6 113.1 71.6 105.3C71.6 93.2 81.4 83.4 93.5 83.4C105.6 83.4 115.4 93.2 115.4 105.3C115.4 113 111.4 119.8 105.3 123.7L93.7 103.7ZM93.2 108.5V127.1C89.8 127.1 86.6 126.2 83.8 124.8L93.2 108.5ZM94.2 128.1C97.7 128 101.1 127.1 104 125.5L105.2 127.6C101.9 129.3 98.1 130.4 94.2 130.5V128.1ZM105.8 124.6C112.2 120.5 116.4 113.4 116.4 105.3C116.4 92.7 106.1 82.4 93.5 82.4C80.9 82.4 70.6 92.7 70.6 105.3C70.6 113.5 75 120.8 81.5 124.8L80.3 126.9C73 122.4 68.2 114.4 68.2 105.3C68.2 91.3 79.6 80 93.5 80C107.5 80 118.8 91.4 118.8 105.3C118.8 114.3 114.1 122.2 107 126.7L105.8 124.6ZM83.3 125.7C86.3 127.2 89.7 128.1 93.2 128.1V130.6C89.2 130.6 85.4 129.6 82 127.9L83.3 125.7ZM95.1 133.8C95.4 133.8 95.6 133.8 95.9 133.8C96.1 133.8 96.3 133.6 96.2 133.4C96.2 133.2 96 133 95.8 133.1C95.5 133.1 95.1 133.1 94.8 133.2H94.7L94.2 132.4V131.2C98.3 131.1 102.1 130 105.5 128.2L106.5 129.9C106.4 130 106.3 130 106.2 130.1C106 130.2 105.9 130.4 106 130.6C106.1 130.7 106.2 130.8 106.3 130.8C106.4 130.8 106.4 130.8 106.5 130.8C106.6 130.7 106.8 130.7 106.9 130.6L107.8 132.1C104.3 134 100.3 135.2 96.1 135.6L95.1 133.8ZM109 130.1H110.9C110.5 130.4 110 130.7 109.6 131L109 130.1ZM107.8 128.1L107.2 127.1C114.5 122.5 119.3 114.4 119.3 105.2C119.3 91 107.7 79.4 93.5 79.4C79.3 79.4 67.7 91 67.7 105.2C67.7 114.5 72.7 122.7 80.1 127.2L79.6 128H73.6C67.2 122.4 63.2 114.3 63.2 105.2C63.2 88.5 76.8 74.9 93.5 74.9C110.2 74.9 123.8 88.5 123.8 105.2C123.8 114.3 119.8 122.5 113.4 128H107.8V128.1ZM124.3 105.3C124.3 88.3 110.5 74.5 93.5 74.5C76.5 74.5 62.7 88.3 62.7 105.3C62.7 114.4 66.6 122.5 72.9 128.1H33.8L37.4 121.9C49.9 120.2 59.5 109.6 59.5 96.7C59.5 93.3 58.8 90 57.6 87L85.9 37.9L93.7 51.5L101.5 37.9L113.4 58.5C110.8 63.1 109.3 68.5 109.3 74.1H110.1C110.1 68.7 111.5 63.6 113.9 59.2L117.2 65C116.1 67.8 115.5 70.9 115.5 74.1C115.5 86.8 124.8 97.3 137 99.3L153.6 128.1H114.1C120.4 122.5 124.3 114.3 124.3 105.3ZM49.6 86.1L49.7 86.2C49.8 86.3 49.9 86.4 50 86.4C50.1 86.4 50.1 86.4 50.2 86.3C50.4 86.2 50.4 86 50.3 85.8C50.2 85.6 50.1 85.5 50 85.4L52.7 80.7C54.2 82.5 55.5 84.5 56.5 86.7L40.4 114.5C40.3 114.5 40.3 114.5 40.2 114.5C39.9 114.6 39.6 114.7 39.3 114.8C39.1 114.9 39 115.1 39 115.3C39 115.5 39.2 115.6 39.4 115.6H39.5C39.6 115.6 39.8 115.5 39.9 115.5L36.5 121.4C35.6 121.5 34.8 121.5 33.9 121.5C32.4 121.5 30.9 121.4 29.4 121.1L49.6 86.1ZM57 87.9C58.1 90.7 58.6 93.6 58.6 96.8C58.6 109.1 49.5 119.4 37.7 121.2L57 87.9ZM93.7 22.3L91.5 26L88.1 20.1H99.3L95.9 26L93.7 22.3ZM95.3 27.1L93.7 29.8L92.1 27.1L93.7 24.4L95.3 27.1ZM100.1 20.8L104.6 28.6L101 34.9L96.5 27.1L100.1 20.8ZM88.3 19.2L93.7 9.79999L99.1 19.2H88.3ZM87.3 20.8L90.9 27.1L86.4 34.9L82.8 28.6L87.3 20.8ZM91.5 28.1L93.7 31.8L95.9 28.1L100.4 35.9L93.7 47.5L87 35.9L91.5 28.1ZM116.3 74.1C116.3 71.2 116.8 68.4 117.7 65.8L136.5 98.4C125 96.3 116.3 86.2 116.3 74.1ZM118.1 64.7C119 62.5 120.3 60.4 121.8 58.5L144.9 98.5C143.6 98.7 142.3 98.8 140.9 98.8C139.8 98.8 138.7 98.7 137.7 98.6L118.1 64.7ZM117.7 63.9L114.5 58.3C115.7 56.3 117.1 54.5 118.6 52.9L121.5 57.9C119.9 59.6 118.7 61.7 117.7 63.9ZM118.2 52.2C116.6 53.8 115.2 55.6 114 57.6L102.1 37L105.7 30.7L118.2 52.2ZM67.4 2H120L105.8 26.7L93.8 5.79999L81.8 26.7L67.4 2ZM85.3 36.9L57 85.9C56 83.8 54.7 81.8 53.1 80L81.6 30.7L85.3 36.9ZM46.1 60.6H21.8L34 39.5L46.1 60.6ZM6.8 49.7H26.9L20.1 61.5H47.9L41 49.7H61.1L49.8 69.2C45 66.4 39.5 64.9 33.9 64.9C28.1 64.9 22.7 66.5 18 69.2L6.8 49.7ZM18.5 69.9C23.1 67.2 28.4 65.7 34 65.7C39.5 65.7 44.8 67.2 49.5 69.9L46.8 74.6C43 72.4 38.7 71.2 34 71.2C29.3 71.2 25 72.5 21.2 74.6L18.5 69.9ZM46.3 75.3L34 96.8L21.6 75.3C25.2 73.2 29.5 72 34 72C38.5 72 42.7 73.2 46.3 75.3ZM9.2 96.7C9.2 87.9 13.8 80.2 20.7 75.8L34 98.8L47.2 75.9C48.7 76.9 50.1 78 51.3 79.2L27.4 120.6C17 117.7 9.2 108.1 9.2 96.7ZM25.4 128.1L29.1 121.7C30.7 122 32.3 122.2 34 122.2C34.7 122.2 35.4 122.2 36.2 122.1L32.7 128.1H25.4ZM24.5 144.2L32.6 130.1H75.3C76 130.6 76.8 131.1 77.5 131.6L74.2 137.3H46.9L48 134.2L39.9 137.8L48 141.4L46.9 138.2H73.8L70.4 144.1H24.5V144.2ZM45.6 137.8L46.2 139.6L42.3 137.8L46.2 136L45.6 137.8ZM79.3 132.6C82.9 134.5 86.8 135.6 91.1 136L88.7 140.2H93.3V153.2H67.4L79.3 132.6ZM94.2 153.2V140.2H98.7L96.3 136C100.5 135.6 104.4 134.4 108 132.5L120 153.3H94.2V153.2ZM162.9 144.2H117.1L113.7 138.3H140.6L139.5 141.5L147.6 137.9L139.5 134.3L140.6 137.4H113.2L109.8 131.6C110.5 131.2 111.1 130.7 111.8 130.3H154.9L162.9 144.2ZM141.8 137.8L141.2 136L145.1 137.8L141.2 139.6L141.8 137.8ZM162 128.1H154.7L138.2 99.4C139.1 99.5 140 99.6 141 99.6C142.5 99.6 143.9 99.5 145.4 99.2L162 128.1ZM165.7 74.1C165.7 85.7 157.7 95.4 147 98.1L123.2 56.9C124.6 55.5 126.1 54.3 127.7 53.2L140.9 76.1L154.1 53.2C161.1 57.7 165.7 65.4 165.7 74.1ZM128.6 52.8C132.2 50.7 136.5 49.5 141 49.5C145.5 49.5 149.7 50.7 153.4 52.8L141 74.2L128.6 52.8ZM141 48.7C136.4 48.7 132 50 128.2 52.1L125.5 47.4C130.1 44.7 135.4 43.2 141 43.2C146.5 43.2 151.8 44.7 156.5 47.4L153.8 52.1C150 49.9 145.6 48.7 141 48.7Z" fill="#DEBB35"/>
<path d="M146.2 34.1L141 25L135.7 34.1H146.2Z" fill="#DEBB35"/>
<path d="M141.3 55.3C141.5 55.3 141.8 55.3 142 55.3C142.2 55.3 142.4 55.1 142.4 54.9C142.4 54.7 142.3 54.5 142 54.5C141.7 54.5 141.4 54.5 141.1 54.5L140.8 53L137.8 55.5L141.5 56.8L141.3 55.3Z" fill="#DEBB35"/>
<path d="M146.8 56.1999C147.1 56.2999 147.4 56.3999 147.7 56.4999H147.8C148 56.4999 148.1 56.3999 148.2 56.2999C148.3 56.0999 148.2 55.8999 148 55.7999C147.7 55.6999 147.4 55.5999 147 55.4999C146.8 55.3999 146.6 55.4999 146.5 55.6999C146.5 55.8999 146.6 56.0999 146.8 56.1999Z" fill="#DEBB35"/>
<path d="M159.2 69C159.2 69.2 159.4 69.3 159.6 69.3H159.7C159.9 69.2 160 69 160 68.8C159.9 68.5 159.8 68.1 159.7 67.8C159.6 67.6 159.4 67.5 159.2 67.6C159 67.7 158.9 67.9 159 68.1C159 68.4 159.1 68.7 159.2 69Z" fill="#DEBB35"/>
<path d="M141.5 93.8C141.7 93.8 141.9 93.6 141.9 93.4C141.9 93.2 141.7 93 141.5 93C141.3 93 141.2 93 141 93H140.9C140.7 93 140.5 93.2 140.5 93.4C140.5 93.6 140.7 93.8 140.9 93.8C141.2 93.8 141.4 93.8 141.5 93.8Z" fill="#DEBB35"/>
<path d="M159 81.1001H159.1C159.3 81.1001 159.4 81.0001 159.5 80.9001C159.6 80.6001 159.7 80.3001 159.8 79.9001C159.9 79.7001 159.7 79.5001 159.6 79.4001C159.4 79.3001 159.2 79.5001 159.1 79.6001C159 79.9001 158.9 80.2001 158.8 80.5001C158.7 80.8001 158.8 81.0001 159 81.1001Z" fill="#DEBB35"/>
<path d="M159.9 74.0999C159.9 74.2999 159.9 74.5999 159.9 74.7999C159.9 74.9999 160.1 75.1999 160.3 75.1999C160.5 75.1999 160.7 74.9999 160.7 74.7999C160.7 74.5999 160.7 74.2999 160.7 74.0999V73.7999C160.7 73.5999 160.6 73.4999 160.3 73.3999C160.1 73.3999 159.9 73.5999 159.9 73.7999V74.0999Z" fill="#DEBB35"/>
<path d="M156.7 63.6999C156.8 63.7999 156.9 63.8999 157 63.8999C157.1 63.8999 157.1 63.8999 157.2 63.7999C157.4 63.6999 157.4 63.4999 157.3 63.2999C157.1 62.9999 156.9 62.6999 156.7 62.4999C156.6 62.2999 156.3 62.2999 156.2 62.3999C156 62.4999 156 62.7999 156.1 62.8999C156.4 63.1999 156.6 63.3999 156.7 63.6999Z" fill="#DEBB35"/>
<path d="M146.5 92.9999H146.6C146.9 92.8999 147.2 92.7999 147.6 92.6999C147.8 92.5999 147.9 92.3999 147.8 92.1999C147.7 91.9999 147.5 91.8999 147.3 91.9999C147 92.0999 146.7 92.1999 146.4 92.2999C146.2 92.3999 146.1 92.5999 146.1 92.7999C146.2 92.8999 146.3 92.9999 146.5 92.9999Z" fill="#DEBB35"/>
<path d="M151.9 90.3999C152 90.3999 152 90.3999 152.1 90.2999C152.4 90.0999 152.7 89.8998 152.9 89.6998C153.1 89.5998 153.1 89.2998 153 89.1998C152.9 88.9998 152.6 88.9999 152.5 89.0999C152.2 89.2999 152 89.4998 151.7 89.6998C151.5 89.7998 151.5 89.9998 151.6 90.1998C151.6 90.3998 151.7 90.3999 151.9 90.3999Z" fill="#DEBB35"/>
<path d="M156.2 86.2999C156.3 86.2999 156.4 86.2999 156.5 86.1999C156.7 85.8999 156.9 85.6999 157.1 85.3999C157.2 85.1999 157.2 84.9999 157 84.8999C156.8 84.7999 156.6 84.7999 156.5 84.9999C156.3 85.2999 156.1 85.4999 155.9 85.7999C155.8 85.9999 155.8 86.1999 156 86.2999C156 86.2999 156.1 86.2999 156.2 86.2999Z" fill="#DEBB35"/>
<path d="M152.8 59.4001C152.9 59.5001 153 59.5001 153 59.5001C153.1 59.5001 153.2 59.5001 153.3 59.4001C153.4 59.2001 153.4 59.0001 153.2 58.9001C152.9 58.7001 152.7 58.5001 152.4 58.3001C152.2 58.2001 152 58.2001 151.9 58.4001C151.8 58.6001 151.8 58.8001 152 58.9001C152.3 59.0001 152.5 59.2001 152.8 59.4001Z" fill="#DEBB35"/>
<path d="M39.2002 56.7001L34.0002 47.6001L28.7002 56.7001H39.2002Z" fill="#DEBB35"/>
<path d="M33.9004 75.6001L30.9004 78.1001L34.6004 79.4001L34.3004 77.8001C34.5004 77.8001 34.8004 77.8001 35.0004 77.8001C35.2004 77.8001 35.4004 77.6001 35.4004 77.4001C35.4004 77.2001 35.3004 77.0001 35.0004 77.0001C34.7004 77.0001 34.4004 77.0001 34.1004 77.0001L33.9004 75.6001Z" fill="#DEBB35"/>
<path d="M39.7004 78.6999C40.0004 78.7999 40.3004 78.8999 40.6004 78.9999H40.7004C40.9004 78.9999 41.0004 78.8999 41.1004 78.7999C41.2004 78.5999 41.1004 78.3999 40.9004 78.2999C40.6004 78.1999 40.3004 78.0999 39.9004 77.9999C39.7004 77.8999 39.5004 77.9999 39.4004 78.1999C39.4004 78.4999 39.6004 78.6999 39.7004 78.6999Z" fill="#DEBB35"/>
<path d="M51.9004 103.7H52.0004C52.2004 103.7 52.3004 103.6 52.4004 103.5C52.5004 103.2 52.6004 102.9 52.7004 102.5C52.8004 102.3 52.6004 102.1 52.5004 102C52.3004 101.9 52.1004 102.1 52.0004 102.2C51.9004 102.5 51.8004 102.8 51.7004 103.1C51.6004 103.4 51.7004 103.6 51.9004 103.7Z" fill="#DEBB35"/>
<path d="M53.1998 97.8C53.3998 97.8 53.5998 97.6 53.5998 97.4C53.5998 97.2 53.5998 96.9 53.5998 96.7V96.4C53.5998 96.2 53.3998 96 53.1998 96C52.9998 96 52.7998 96.2 52.7998 96.4V96.7C52.7998 96.9 52.7998 97.2 52.7998 97.4C52.7998 97.6 52.9998 97.8 53.1998 97.8Z" fill="#DEBB35"/>
<path d="M45.4003 111.7C45.1003 111.9 44.9003 112.1 44.6003 112.3C44.4003 112.4 44.4003 112.6 44.5003 112.8C44.6003 112.9 44.7003 113 44.8003 113C44.9003 113 44.9003 113 45.0003 112.9C45.3003 112.7 45.6003 112.5 45.8003 112.3C46.0003 112.2 46.0003 111.9 45.9003 111.8C45.8003 111.7 45.6003 111.6 45.4003 111.7Z" fill="#DEBB35"/>
<path d="M49.4997 107.5C49.2997 107.8 49.0997 108 48.8997 108.3C48.7997 108.5 48.7997 108.7 48.9997 108.8C49.0997 108.9 49.0997 108.9 49.1997 108.9C49.2997 108.9 49.3997 108.9 49.4997 108.8C49.6997 108.5 49.8997 108.3 50.0997 108C50.1997 107.8 50.1997 107.6 49.9997 107.5C49.7997 107.3 49.5997 107.3 49.4997 107.5Z" fill="#DEBB35"/>
<path d="M46.1997 81.4001C45.8997 81.2001 45.6997 81.0001 45.3997 80.8001C45.1997 80.7001 44.9997 80.7001 44.8997 80.9001C44.7997 81.1001 44.7997 81.3001 44.9997 81.4001C45.2997 81.6001 45.4997 81.8001 45.7997 82.0001C45.8997 82.1001 45.9997 82.1001 45.9997 82.1001C46.0997 82.1001 46.1997 82.1001 46.2997 82.0001C46.3997 81.7001 46.3997 81.5001 46.1997 81.4001Z" fill="#DEBB35"/>
<path d="M34.0004 116.4C34.2004 116.4 34.4004 116.4 34.6004 116.4C34.8004 116.4 35.0004 116.2 35.0004 116C35.0004 115.8 34.8004 115.6 34.6004 115.6C34.4004 115.6 34.2004 115.6 34.1004 115.6C33.9004 115.6 33.7004 115.8 33.7004 116C33.6004 116.2 33.8004 116.4 34.0004 116.4Z" fill="#DEBB35"/>
<path d="M52.2002 91.5999C52.2002 91.7999 52.4002 91.8999 52.6002 91.8999H52.7002C52.9002 91.7999 53.0002 91.5999 53.0002 91.3999C52.9002 91.0999 52.8002 90.6999 52.7002 90.3999C52.6002 90.1999 52.4002 90.0999 52.2002 90.1999C52.0002 90.2999 51.9002 90.4999 52.0002 90.6999C52.0002 90.9999 52.1002 91.2999 52.2002 91.5999Z" fill="#DEBB35"/>
</svg>
