<svg width="173" height="174" viewBox="0 0 173 174" fill="none" xmlns="http://www.w3.org/2000/svg">
<path d="M161.2 46.9C160.9 46.8 160.7 47.0001 160.6 47.3001C160.4 48.2001 160.2 49.2 159.9 50.1C159.8 50.4 160 50.6001 160.2 50.7001H160.3C160.5 50.7001 160.7 50.6 160.8 50.4C161.1 49.5 161.3 48.5 161.5 47.5C161.6 47.2 161.4 47 161.2 46.9Z" fill="#DEBB35"/>
<path d="M160 33.4002C160.1 33.6002 160.3 33.7002 160.5 33.7002H160.6C160.9 33.6002 161 33.4002 160.9 33.1002C160.6 32.2002 160.3 31.2002 159.9 30.3002C159.8 30.1002 159.5 29.9002 159.3 30.0002C159.1 30.1002 158.9 30.4002 159 30.6002C159.4 31.6002 159.7 32.5002 160 33.4002Z" fill="#DEBB35"/>
<path d="M161.6 41.0996C161.3 41.0996 161.1 41.2996 161.1 41.5996C161.1 42.5996 161.1 43.4996 161 44.4996C161 44.7996 161.2 44.9996 161.4 44.9996C161.6 44.9996 161.9 44.7996 161.9 44.5996C162 43.5996 162 42.5996 162 41.5996C162.1 41.2996 161.9 41.0996 161.6 41.0996Z" fill="#DEBB35"/>
<path d="M157.9 56.0004C158 56.0004 158.1 56.1004 158.1 56.1004C158.3 56.1004 158.4 56.0004 158.5 55.8004C159 54.9004 159.4 54.0004 159.8 53.1004C159.9 52.9004 159.8 52.6004 159.5 52.5004C159.3 52.4004 159 52.5004 158.9 52.8004C158.5 53.7004 158.1 54.5004 157.7 55.4004C157.6 55.6004 157.7 55.9004 157.9 56.0004Z" fill="#DEBB35"/>
<path d="M157.8 28.0996C157.9 28.2996 158.1 28.3996 158.2 28.3996C158.3 28.3996 158.4 28.3997 158.4 28.2997C158.6 28.1997 158.7 27.8996 158.6 27.5996C158.1 26.6996 157.6 25.8996 157.1 25.0996C157 24.8996 156.6 24.7996 156.4 24.9996C156.2 25.0996 156.1 25.3997 156.3 25.6997C156.9 26.3997 157.4 27.1996 157.8 28.0996Z" fill="#DEBB35"/>
<path d="M160.6 36.1996C160.8 37.0996 160.9 38.0996 161 38.9996C161 39.2996 161.2 39.3996 161.5 39.3996C161.8 39.3996 162 39.0996 161.9 38.8996C161.8 37.8996 161.7 36.8996 161.5 35.9996C161.5 35.6996 161.2 35.5996 160.9 35.5996C160.8 35.5996 160.6 35.8996 160.6 36.1996Z" fill="#DEBB35"/>
<path d="M156.2 57.7998C155.7 58.5998 155.1 59.3998 154.5 60.0998C154.3 60.2998 154.4 60.5998 154.6 60.7998C154.7 60.8998 154.8 60.8998 154.9 60.8998C155 60.8998 155.2 60.7998 155.3 60.6998C155.9 59.8998 156.5 59.0998 157.1 58.2998C157.2 58.0998 157.2 57.7998 157 57.5998C156.7 57.4998 156.4 57.5998 156.2 57.7998Z" fill="#DEBB35"/>
<path d="M110.6 62.7997C110.7 62.8997 110.8 62.8997 110.9 62.8997C111 62.8997 111.1 62.8997 111.2 62.7997C111.4 62.5997 111.4 62.2997 111.2 62.0997C110.5 61.3997 109.9 60.6997 109.3 59.9997C109.1 59.7997 108.8 59.7997 108.6 59.8997C108.4 60.0997 108.4 60.3997 108.5 60.5997C109.3 61.3997 110 62.0997 110.6 62.7997Z" fill="#DEBB35"/>
<path d="M143.1 68.5002C142.2 68.9002 141.3 69.2002 140.4 69.5002C140.1 69.6002 140 69.8002 140.1 70.1002C140.2 70.3002 140.4 70.4002 140.6 70.4002H140.7C141.6 70.1002 142.6 69.8002 143.5 69.4002C143.7 69.3002 143.9 69.0002 143.8 68.8002C143.6 68.6002 143.4 68.4002 143.1 68.5002Z" fill="#DEBB35"/>
<path d="M154.7 23.2996C154.8 23.3996 154.9 23.4996 155.1 23.4996C155.2 23.4996 155.3 23.4996 155.4 23.3996C155.6 23.1996 155.6 22.8996 155.5 22.6996C154.9 21.8996 154.2 21.1996 153.5 20.4996C153.3 20.2996 153 20.2996 152.8 20.4996C152.6 20.6996 152.6 20.9996 152.8 21.1996C153.4 21.7996 154.1 22.4996 154.7 23.2996Z" fill="#DEBB35"/>
<path d="M148.2 65.8C147.4 66.3 146.6 66.8 145.7 67.3C145.5 67.4 145.4 67.7 145.5 68C145.6 68.2 145.8 68.3 145.9 68.3C146 68.3 146.1 68.3 146.1 68.2C147 67.7 147.8 67.2 148.6 66.7C148.8 66.5 148.9 66.2 148.7 66C148.7 65.8 148.4 65.7 148.2 65.8Z" fill="#DEBB35"/>
<path d="M152.6 62.1998C151.9 62.8998 151.2 63.4998 150.5 64.0998C150.3 64.2998 150.3 64.5998 150.4 64.7998C150.5 64.8998 150.6 64.9998 150.8 64.9998C150.9 64.9998 151 64.9998 151.1 64.8998C151.9 64.2998 152.6 63.5998 153.3 62.8998C153.5 62.6998 153.5 62.3998 153.3 62.1998C153.1 61.9998 152.8 61.9998 152.6 62.1998Z" fill="#DEBB35"/>
<path d="M126.4 12.9998C127.4 12.7998 128.4 12.6998 129.3 12.5998C129.6 12.5998 129.8 12.2998 129.7 12.0998C129.7 11.7998 129.4 11.5998 129.2 11.6998C128.2 11.7998 127.2 11.8998 126.3 12.0998C126 12.1998 125.9 12.3998 125.9 12.6998C126 12.7998 126.2 12.9998 126.4 12.9998Z" fill="#DEBB35"/>
<path d="M115.2 66.6002C115.3 66.7002 115.4 66.7002 115.5 66.7002C115.7 66.7002 115.8 66.6002 115.9 66.5002C116 66.3002 116 66.0002 115.8 65.8002C115 65.3002 114.2 64.7002 113.5 64.1002C113.3 63.9002 113 64.0002 112.8 64.2002C112.6 64.4002 112.7 64.7002 112.9 64.9002C113.6 65.4002 114.4 66.0002 115.2 66.6002Z" fill="#DEBB35"/>
<path d="M106.2 27.0998C106 26.9998 105.7 27.0998 105.5 27.2998C105 28.1998 104.6 29.0998 104.2 29.9998C104.1 30.1998 104.2 30.4998 104.5 30.5998C104.6 30.5998 104.6 30.5998 104.7 30.5998C104.9 30.5998 105.1 30.4998 105.1 30.2998C105.5 29.3998 105.9 28.5998 106.3 27.6998C106.5 27.4998 106.4 27.1998 106.2 27.0998Z" fill="#DEBB35"/>
<path d="M117.7 68.1C118.6 68.6 119.5 69 120.4 69.4C120.5 69.4 120.5 69.4 120.6 69.4C120.8 69.4 121 69.3 121 69.1C121.1 68.9 121 68.6 120.7 68.5C119.8 68.1 119 67.7 118.1 67.3C117.9 67.2 117.6 67.3 117.4 67.5C117.4 67.7 117.5 68 117.7 68.1Z" fill="#DEBB35"/>
<path d="M103.8 32.3996C103.5 32.2996 103.3 32.4997 103.2 32.6997C102.9 33.5997 102.7 34.5997 102.5 35.5997C102.4 35.8997 102.6 36.0997 102.9 36.1997H103C103.2 36.1997 103.4 35.9997 103.5 35.7997C103.7 34.8997 103.9 33.8996 104.2 32.9997C104.2 32.6996 104.1 32.4996 103.8 32.3996Z" fill="#DEBB35"/>
<path d="M123.2 70.3996C124.1 70.6996 125.1 70.8997 126.1 71.0997H126.2C126.4 71.0997 126.6 70.8997 126.7 70.6997C126.8 70.3997 126.6 70.1997 126.3 70.0997C125.4 69.8997 124.4 69.6996 123.5 69.3996C123.2 69.2996 123 69.4997 122.9 69.6997C122.8 69.9997 122.9 70.2996 123.2 70.3996Z" fill="#DEBB35"/>
<path d="M107.5 25.5004C107.7 25.5004 107.8 25.4004 107.9 25.3004C108.4 24.5004 109 23.7004 109.6 23.0004C109.8 22.8004 109.7 22.5004 109.5 22.3004C109.3 22.1004 109 22.2004 108.8 22.4004C108.2 23.2004 107.6 24.0004 107 24.8004C106.9 25.0004 106.9 25.3004 107.1 25.5004C107.3 25.5004 107.4 25.5004 107.5 25.5004Z" fill="#DEBB35"/>
<path d="M103.4 47.1997C103.2 46.2997 103.1 45.2996 103 44.3996C103 44.0996 102.7 43.8996 102.5 43.9996C102.2 43.9996 102 44.2996 102.1 44.4996C102.2 45.4996 102.3 46.4996 102.5 47.3996C102.5 47.5996 102.7 47.7997 103 47.7997H103.1C103.3 47.6997 103.5 47.3997 103.4 47.1997Z" fill="#DEBB35"/>
<path d="M104.1 49.9C104 49.6 103.8 49.5 103.5 49.6C103.2 49.7 103.1 49.9 103.2 50.2C103.5 51.1 103.8 52.1 104.2 53C104.3 53.2 104.5 53.3 104.6 53.3C104.7 53.3 104.7 53.3 104.8 53.3C105 53.2 105.2 52.9 105.1 52.7C104.7 51.8 104.4 50.8 104.1 49.9Z" fill="#DEBB35"/>
<path d="M137.9 13.0998C138.8 13.2998 139.8 13.4998 140.7 13.7998H140.8C141 13.7998 141.2 13.6998 141.3 13.4998C141.4 13.1998 141.2 12.9998 141 12.8998C140.1 12.5998 139.1 12.3998 138.1 12.1998C137.8 12.0998 137.6 12.2998 137.5 12.5998C137.5 12.6998 137.6 12.9998 137.9 13.0998Z" fill="#DEBB35"/>
<path d="M132.2 12.4996C133.2 12.4996 134.1 12.5996 135.1 12.6996C135.1 12.6996 135.1 12.6996 135.2 12.6996C135.4 12.6996 135.7 12.4996 135.7 12.2996C135.7 11.9996 135.5 11.7996 135.3 11.7996C134.3 11.6996 133.3 11.5996 132.3 11.5996C132 11.5996 131.8 11.7996 131.8 12.0996C131.7 12.1996 131.9 12.4996 132.2 12.4996Z" fill="#DEBB35"/>
<path d="M111.2 21.0004C111.3 21.0004 111.4 21.0005 111.5 20.9005C112.2 20.2005 112.9 19.6004 113.6 19.0004C113.8 18.8004 113.8 18.5004 113.7 18.3004C113.5 18.1004 113.2 18.1005 113 18.2005C112.2 18.8005 111.5 19.5005 110.8 20.2005C110.6 20.4005 110.6 20.7005 110.8 20.9005C110.9 21.0005 111.1 21.0004 111.2 21.0004Z" fill="#DEBB35"/>
<path d="M143.4 14.8002C144.3 15.2002 145.1 15.6002 146 16.0002C146.1 16.0002 146.2 16.1002 146.2 16.1002C146.4 16.1002 146.5 16.0002 146.6 15.8002C146.7 15.6002 146.6 15.3002 146.4 15.1002C145.5 14.6002 144.6 14.2002 143.7 13.8002C143.5 13.7002 143.2 13.8002 143.1 14.1002C143 14.4002 143.1 14.6002 143.4 14.8002Z" fill="#DEBB35"/>
<path d="M150.7 19.1999C150.8 19.2999 150.9 19.2999 151 19.2999C151.1 19.2999 151.3 19.1999 151.4 19.0999C151.6 18.8999 151.5 18.5999 151.3 18.3999C150.5 17.7999 149.8 17.1999 148.9 16.5999C148.7 16.4999 148.4 16.4999 148.2 16.6999C148 16.8999 148.1 17.1999 148.3 17.3999C149.2 17.9999 149.9 18.5999 150.7 19.1999Z" fill="#DEBB35"/>
<path d="M115.7 17.3C115.8 17.3 115.9 17.3 116 17.2C116.8 16.7 117.6 16.2 118.5 15.7C118.7 15.6 118.8 15.3 118.7 15C118.6 14.8 118.3 14.7 118 14.8C117.1 15.3 116.3 15.8 115.5 16.3C115.3 16.4 115.2 16.7 115.4 17C115.4 17.3 115.5 17.3 115.7 17.3Z" fill="#DEBB35"/>
<path d="M120.8 14.6002C120.9 14.6002 120.9 14.6002 121 14.6002C121.9 14.2002 122.8 13.9002 123.7 13.7002C124 13.6002 124.1 13.4002 124 13.1002C123.9 12.8002 123.7 12.7002 123.4 12.8002C122.5 13.1002 121.5 13.4002 120.6 13.8002C120.4 13.9002 120.2 14.2002 120.3 14.4002C120.5 14.5002 120.6 14.6002 120.8 14.6002Z" fill="#DEBB35"/>
<path d="M106.3 55.2002C106.2 55.0002 105.9 54.9002 105.6 55.0002C105.4 55.1002 105.3 55.4002 105.4 55.7002C105.9 56.6002 106.4 57.4002 106.9 58.2002C107 58.3002 107.1 58.4002 107.3 58.4002C107.4 58.4002 107.5 58.4002 107.6 58.3002C107.8 58.2002 107.9 57.8002 107.7 57.6002C107.2 56.9002 106.7 56.1002 106.3 55.2002Z" fill="#DEBB35"/>
<path d="M59.4 19.1999C59.5 19.2999 59.6 19.2999 59.7 19.2999C59.8 19.2999 60 19.1999 60.1 19.0999C60.3 18.8999 60.2 18.5999 60 18.3999C59.2 17.7999 58.5 17.1999 57.6 16.5999C57.4 16.4999 57.1 16.4999 56.9 16.6999C56.7 16.8999 56.8 17.1999 57 17.3999C57.9 17.9999 58.7 18.5999 59.4 19.1999Z" fill="#DEBB35"/>
<path d="M68.2999 52.5004C68.0999 52.4004 67.7999 52.5004 67.6999 52.8004C67.2999 53.7004 66.8999 54.5004 66.4999 55.4004C66.3999 55.6004 66.4999 55.9004 66.6999 56.1004C66.7999 56.1004 66.8999 56.2004 66.8999 56.2004C67.0999 56.2004 67.1999 56.1004 67.2999 55.9004C67.7999 55.0004 68.1999 54.1004 68.5999 53.2004C68.6999 52.9004 68.4999 52.6004 68.2999 52.5004Z" fill="#DEBB35"/>
<path d="M51.8 68.5002C50.9 68.9002 49.9999 69.2002 49.0999 69.5002C48.7999 69.6002 48.7 69.8002 48.8 70.1002C48.9 70.3002 49.1 70.4002 49.3 70.4002H49.4C50.3 70.1002 51.2999 69.8002 52.1999 69.4002C52.3999 69.3002 52.5999 69.0002 52.4999 68.8002C52.3999 68.6002 52.1 68.4002 51.8 68.5002Z" fill="#DEBB35"/>
<path d="M69.3001 47.3001C69.1001 48.2001 68.9001 49.2 68.6001 50.1C68.5001 50.4 68.7001 50.6001 68.9001 50.7001H69.0001C69.2001 50.7001 69.4001 50.6 69.5001 50.4C69.8001 49.5 70.0001 48.5 70.2001 47.5C70.3001 47.2 70.1001 47 69.8001 46.9C69.6001 46.8 69.4001 47.0001 69.3001 47.3001Z" fill="#DEBB35"/>
<path d="M35.1001 12.9998C35.2001 12.9998 35.2001 12.9998 35.1001 12.9998C36.1001 12.7998 37.1001 12.6998 38.0001 12.5998C38.3001 12.5998 38.5001 12.2998 38.4001 12.0998C38.4001 11.7998 38.1001 11.5998 37.9001 11.6998C36.9001 11.7998 35.9001 11.8998 35.0001 12.0998C34.7001 12.1998 34.6001 12.3998 34.6001 12.6998C34.7001 12.7998 34.9001 12.9998 35.1001 12.9998Z" fill="#DEBB35"/>
<path d="M66.4999 28.0996C66.5999 28.2996 66.7999 28.3996 66.8999 28.3996C66.9999 28.3996 67.0999 28.3997 67.0999 28.2997C67.2999 28.1997 67.3999 27.8996 67.2999 27.5996C66.7999 26.6996 66.2999 25.8996 65.7999 25.0996C65.6999 24.8996 65.2999 24.7996 65.0999 24.9996C64.8999 25.0996 64.7999 25.3997 64.9999 25.6997C65.5999 26.3997 66.0999 27.1996 66.4999 28.0996Z" fill="#DEBB35"/>
<path d="M63.4001 23.2996C63.5001 23.3996 63.6001 23.4996 63.8001 23.4996C63.9001 23.4996 64.0001 23.4996 64.1001 23.3996C64.3001 23.1996 64.3001 22.8996 64.2001 22.6996C63.6001 21.8996 62.9001 21.1996 62.2001 20.4996C62.0001 20.2996 61.7001 20.2996 61.5001 20.4996C61.3001 20.6996 61.3001 20.9996 61.5001 21.1996C62.2001 21.7996 62.8001 22.4996 63.4001 23.2996Z" fill="#DEBB35"/>
<path d="M11.5999 36.1C11.6999 36.2 11.5999 36.2 11.5999 36.1C11.8999 36.1 12.0999 35.9 12.1999 35.7C12.3999 34.8 12.6 33.8 12.9 32.9C13 32.6 12.7999 32.4 12.5999 32.3C12.2999 32.2 12.0999 32.4 11.9999 32.6C11.6999 33.5 11.5 34.5 11.3 35.5C11.2 35.8 11.2999 36.1 11.5999 36.1Z" fill="#DEBB35"/>
<path d="M61.3001 62.1998C60.6001 62.8998 59.9001 63.4998 59.2001 64.0998C59.0001 64.2998 59.0001 64.5998 59.1001 64.7998C59.2001 64.8998 59.3001 64.9998 59.5001 64.9998C59.6001 64.9998 59.7001 64.9998 59.8001 64.8998C60.6001 64.2998 61.3001 63.5998 62.0001 62.8998C62.2001 62.6998 62.2001 62.3998 62.0001 62.1998C61.8001 61.9998 61.5001 61.9998 61.3001 62.1998Z" fill="#DEBB35"/>
<path d="M56.9001 65.8C56.1001 66.3 55.3001 66.8 54.4001 67.3C54.2001 67.4 54.1001 67.7 54.2001 68C54.3001 68.2 54.5001 68.3 54.6001 68.3C54.7001 68.3 54.8001 68.3 54.8001 68.2C55.7001 67.7 56.5001 67.2 57.3001 66.7C57.5001 66.5 57.6001 66.2 57.4001 66C57.4001 65.8 57.1001 65.7 56.9001 65.8Z" fill="#DEBB35"/>
<path d="M52.0999 14.8002C52.9999 15.2002 53.7999 15.6002 54.6999 16.0002C54.7999 16.0002 54.9 16.1002 54.9 16.1002C55.1 16.1002 55.2 16.0002 55.3 15.8002C55.4 15.6002 55.2999 15.3002 55.0999 15.1002C54.1999 14.6002 53.3 14.2002 52.4 13.8002C52.2 13.7002 51.9 13.8002 51.8 14.1002C51.7 14.4002 51.7999 14.6002 52.0999 14.8002Z" fill="#DEBB35"/>
<path d="M46.4001 70.2004C45.5001 70.4004 44.5001 70.5004 43.6001 70.6004C43.3001 70.6004 43.1001 70.9004 43.2001 71.1004C43.2001 71.4004 43.4001 71.5004 43.7001 71.5004C44.7001 71.4004 45.7001 71.3004 46.6001 71.1004C46.9001 71.0004 47.0001 70.8004 47.0001 70.5004C46.9001 70.3004 46.6001 70.1004 46.4001 70.2004Z" fill="#DEBB35"/>
<path d="M46.5999 13.0998C47.4999 13.2998 48.5 13.4998 49.4 13.7998H49.4999C49.6999 13.7998 49.8999 13.6998 49.9999 13.4998C50.0999 13.1998 49.9 12.9998 49.7 12.8998C48.8 12.5998 47.8 12.3998 46.8 12.1998C46.5 12.0998 46.3 12.2998 46.2 12.5998C46.2 12.6998 46.3999 12.9998 46.5999 13.0998Z" fill="#DEBB35"/>
<path d="M40.9001 12.4996C41.9001 12.4996 42.8001 12.5996 43.8001 12.6996C43.8001 12.6996 43.8001 12.6996 43.9001 12.6996C44.1001 12.6996 44.4001 12.4996 44.4001 12.2996C44.4001 11.9996 44.2001 11.7996 44.0001 11.7996C43.0001 11.6996 42.0001 11.5996 41.0001 11.5996C40.7001 11.5996 40.5001 11.7996 40.5001 12.0996C40.4001 12.1996 40.7001 12.4996 40.9001 12.4996Z" fill="#DEBB35"/>
<path d="M64.9001 57.7998C64.4001 58.5998 63.8001 59.3998 63.2001 60.0998C63.0001 60.2998 63.1001 60.5998 63.3001 60.7998C63.4001 60.8998 63.5001 60.8998 63.6001 60.8998C63.7001 60.8998 63.9001 60.7998 64.0001 60.6998C64.6001 59.8998 65.2001 59.0998 65.8001 58.2998C65.9001 58.0998 65.9001 57.7998 65.7001 57.5998C65.4001 57.4998 65.1001 57.5998 64.9001 57.7998Z" fill="#DEBB35"/>
<path d="M14.9001 27.0998C14.7001 26.9998 14.4 27.0998 14.2 27.2998C13.7 28.1998 13.3001 29.0998 12.9001 29.9998C12.8001 30.1998 12.9 30.4998 13.2 30.5998C13.3 30.5998 13.3001 30.5998 13.4001 30.5998C13.6001 30.5998 13.8 30.4998 13.8 30.2998C14.2 29.3998 14.6 28.5998 15 27.6998C15.2 27.4998 15.1001 27.1998 14.9001 27.0998Z" fill="#DEBB35"/>
<path d="M12.8 49.9C12.7 49.6 12.5 49.5 12.2 49.6C11.9 49.7 11.8001 49.9 11.9001 50.2C12.2001 51.1 12.5001 52.1 12.9001 53C13.0001 53.2 13.2 53.3 13.3 53.3C13.4 53.3 13.4 53.3 13.5 53.3C13.7 53.2 13.9 52.9 13.8 52.7C13.4 51.8 13.1 50.8 12.8 49.9Z" fill="#DEBB35"/>
<path d="M15 55.2002C14.9 55.0002 14.6 54.9002 14.3 55.0002C14.1 55.1002 14 55.4002 14.1 55.7002C14.6 56.6002 15.1 57.4002 15.6 58.2002C15.7 58.3002 15.8 58.4002 16 58.4002C16.1 58.4002 16.2 58.4002 16.3 58.3002C16.5 58.2002 16.6 57.8002 16.4 57.6002C15.9 56.9002 15.4 56.1002 15 55.2002Z" fill="#DEBB35"/>
<path d="M18.1 59.9997C17.9 59.7997 17.6001 59.7997 17.4001 59.8997C17.2001 60.0997 17.2001 60.3997 17.3001 60.5997C17.9001 61.3997 18.6001 62.0997 19.3001 62.7997C19.4001 62.8997 19.5 62.8997 19.6 62.8997C19.7 62.8997 19.8001 62.8997 19.9001 62.7997C20.1001 62.5997 20.1001 62.2997 19.9001 62.0997C19.4001 61.3997 18.7 60.6997 18.1 59.9997Z" fill="#DEBB35"/>
<path d="M68.6999 33.4002C68.7999 33.6002 68.9999 33.7002 69.1999 33.7002H69.2999C69.5999 33.6002 69.6999 33.4002 69.5999 33.1002C69.2999 32.2002 68.9999 31.2002 68.5999 30.3002C68.4999 30.1002 68.1999 29.9002 67.9999 30.0002C67.7999 30.1002 67.5999 30.4002 67.6999 30.6002C68.0999 31.6002 68.3999 32.5002 68.6999 33.4002Z" fill="#DEBB35"/>
<path d="M12.0999 47.1997C11.8999 46.2997 11.7999 45.2996 11.6999 44.3996C11.6999 44.0996 11.3999 43.8996 11.1999 43.9996C10.8999 43.9996 10.6999 44.2996 10.7999 44.4996C10.8999 45.4996 10.9999 46.4996 11.1999 47.3996C11.1999 47.5996 11.3999 47.7997 11.6999 47.7997H11.7999C11.9999 47.6997 12.1999 47.3997 12.0999 47.1997Z" fill="#DEBB35"/>
<path d="M11.1001 41.9C11.4001 41.9 11.6001 41.7 11.6001 41.4C11.6001 40.4 11.7001 39.5 11.8001 38.5C11.8001 38.2 11.6001 38 11.4001 38C11.1001 38 10.9001 38.2 10.9001 38.4C10.8001 39.4 10.7001 40.4 10.7001 41.4C10.6001 41.7 10.8001 41.9 11.1001 41.9Z" fill="#DEBB35"/>
<path d="M24.4 17.3C24.5 17.3 24.6 17.3 24.7 17.2C25.5 16.7 26.3 16.2 27.2 15.7C27.4 15.6 27.5 15.3 27.4 15C27.3 14.8 27 14.7 26.7 14.8C25.8 15.3 25 15.8 24.2 16.3C24 16.4 23.9 16.7 24.1 17C24.1 17.3 24.3 17.3 24.4 17.3Z" fill="#DEBB35"/>
<path d="M29.6001 14.6002C29.7001 14.6002 29.7001 14.6002 29.8001 14.6002C30.7001 14.2002 31.6001 13.9002 32.5001 13.7002C32.8001 13.6002 32.9001 13.4002 32.8001 13.1002C32.7001 12.8002 32.5001 12.7002 32.2001 12.8002C31.3001 13.1002 30.3001 13.4002 29.4001 13.8002C29.2001 13.9002 29.0001 14.2002 29.1001 14.4002C29.2001 14.5002 29.4001 14.6002 29.6001 14.6002Z" fill="#DEBB35"/>
<path d="M19.9001 21.0004C20.0001 21.0004 20.1001 21.0005 20.2001 20.9005C20.9001 20.2005 21.6001 19.6004 22.3001 19.0004C22.5001 18.8004 22.5001 18.5004 22.4001 18.3004C22.2001 18.1004 21.9001 18.1005 21.7001 18.2005C20.9001 18.8005 20.2001 19.5005 19.5001 20.2005C19.3001 20.4005 19.3001 20.7005 19.5001 20.9005C19.7001 21.0005 19.8001 21.0004 19.9001 21.0004Z" fill="#DEBB35"/>
<path d="M22.1999 64.1002C21.9999 63.9002 21.6999 64.0002 21.4999 64.2002C21.2999 64.4002 21.3999 64.7002 21.5999 64.9002C22.3999 65.5002 23.1999 66.1002 23.9999 66.7002C24.0999 66.8002 24.1999 66.8002 24.2999 66.8002C24.4999 66.8002 24.5999 66.7002 24.6999 66.6002C24.7999 66.4002 24.7999 66.1002 24.5999 65.9002C23.6999 65.2002 22.8999 64.7002 22.1999 64.1002Z" fill="#DEBB35"/>
<path d="M34.9001 71.0997C35.1001 71.0997 35.3001 70.8997 35.4001 70.6997C35.5001 70.3997 35.3001 70.1997 35.0001 70.0997C34.1001 69.8997 33.1001 69.6996 32.2001 69.3996C31.9001 69.2996 31.7001 69.4997 31.6001 69.6997C31.5001 69.9997 31.7001 70.1997 31.9001 70.2997C32.9001 70.6997 33.8001 70.8997 34.9001 71.0997Z" fill="#DEBB35"/>
<path d="M16.2001 25.5004C16.4001 25.5004 16.5001 25.4004 16.6001 25.3004C17.1001 24.5004 17.7001 23.7004 18.3001 23.0004C18.5001 22.8004 18.4001 22.5004 18.2001 22.3004C18.0001 22.1004 17.7001 22.2004 17.5001 22.4004C16.9001 23.2004 16.3001 24.0004 15.7001 24.8004C15.5001 25.0004 15.6001 25.3004 15.8001 25.5004C16.0001 25.5004 16.1001 25.5004 16.2001 25.5004Z" fill="#DEBB35"/>
<path d="M29.5001 68.5C28.6001 68.1 27.8001 67.7 26.9001 67.3C26.7001 67.2 26.4001 67.3 26.2001 67.5C26.1001 67.7 26.2001 68 26.4001 68.2C27.3001 68.7 28.2001 69.1 29.1001 69.5C29.2001 69.5 29.2001 69.5 29.3001 69.5C29.5001 69.5 29.7001 69.4 29.7001 69.2C29.9001 68.9 29.8001 68.6 29.5001 68.5Z" fill="#DEBB35"/>
<path d="M115.7 107.5C115.8 107.5 115.9 107.5 116 107.4C116.8 106.9 117.6 106.4 118.5 105.9C118.7 105.8 118.8 105.5 118.7 105.2C118.6 105 118.3 104.9 118 105C117.1 105.5 116.3 106 115.5 106.5C115.3 106.6 115.2 107 115.4 107.2C115.4 107.5 115.5 107.5 115.7 107.5Z" fill="#DEBB35"/>
<path d="M126.4 103.2C127.4 103 128.4 102.9 129.3 102.8C129.6 102.8 129.8 102.5 129.7 102.3C129.7 102 129.4 101.8 129.2 101.9C128.2 102 127.2 102.1 126.3 102.3C126 102.3 125.9 102.6 125.9 102.9C126 103 126.2 103.2 126.4 103.2Z" fill="#DEBB35"/>
<path d="M120.8 104.8C120.9 104.8 120.9 104.8 121 104.8C121.9 104.4 122.8 104.1 123.7 103.9C124 103.8 124.1 103.6 124 103.3C123.9 103 123.7 102.9 123.4 103C122.5 103.3 121.5 103.6 120.6 104C120.4 104.1 120.2 104.4 120.3 104.6C120.5 104.7 120.6 104.8 120.8 104.8Z" fill="#DEBB35"/>
<path d="M104.1 140.1C104 139.8 103.8 139.7 103.5 139.8C103.2 139.9 103.1 140.1 103.2 140.4C103.5 141.3 103.8 142.3 104.2 143.2C104.3 143.4 104.5 143.5 104.6 143.5C104.7 143.5 104.7 143.5 104.8 143.5C105 143.4 105.2 143.1 105.1 142.9C104.7 141.9 104.4 141 104.1 140.1Z" fill="#DEBB35"/>
<path d="M104.5 120.7C104.6 120.7 104.6 120.7 104.7 120.7C104.9 120.7 105.1 120.6 105.1 120.4C105.5 119.5 105.9 118.7 106.3 117.8C106.4 117.6 106.3 117.3 106.1 117.1C105.9 117 105.6 117.1 105.4 117.3C104.9 118.2 104.5 119.1 104.1 120C104.1 120.4 104.3 120.6 104.5 120.7Z" fill="#DEBB35"/>
<path d="M102.9 126.3C103.2 126.3 103.4 126.2 103.5 125.9C103.7 125 103.9 124 104.2 123.1C104.3 122.8 104.1 122.6 103.9 122.5C103.6 122.4 103.4 122.6 103.3 122.8C103 123.7 102.8 124.7 102.6 125.7C102.5 126 102.6 126.3 102.9 126.3Z" fill="#DEBB35"/>
<path d="M107.5 115.7C107.7 115.7 107.8 115.6 107.9 115.5C108.4 114.7 109 113.9 109.6 113.2C109.8 113 109.7 112.7 109.5 112.5C109.3 112.3 109 112.4 108.8 112.6C108.2 113.4 107.6 114.2 107 115C106.9 115.2 106.9 115.5 107.1 115.7C107.3 115.6 107.4 115.7 107.5 115.7Z" fill="#DEBB35"/>
<path d="M111.2 111.2C111.3 111.2 111.4 111.2 111.5 111.1C112.2 110.4 112.9 109.8 113.6 109.2C113.8 109 113.8 108.7 113.7 108.5C113.5 108.3 113.2 108.3 113 108.4C112.2 109 111.5 109.7 110.8 110.4C110.6 110.6 110.6 110.9 110.8 111.1C110.9 111.1 111.1 111.2 111.2 111.2Z" fill="#DEBB35"/>
<path d="M126.2 160.3C125.3 160.1 124.3 159.9 123.4 159.6C123.1 159.5 122.9 159.7 122.8 159.9C122.7 160.2 122.9 160.4 123.1 160.5C124 160.8 125 161 126 161.2H126.1C126.3 161.2 126.5 161 126.6 160.8C126.7 160.6 126.5 160.4 126.2 160.3Z" fill="#DEBB35"/>
<path d="M156.2 148C155.7 148.8 155.1 149.6 154.5 150.3C154.3 150.5 154.4 150.8 154.6 151C154.7 151.1 154.8 151.1 154.9 151.1C155 151.1 155.2 151 155.3 150.9C155.9 150.1 156.5 149.3 157.1 148.5C157.2 148.3 157.2 148 157 147.8C156.7 147.7 156.4 147.8 156.2 148Z" fill="#DEBB35"/>
<path d="M141 103C140.1 102.7 139.1 102.5 138.1 102.3C137.8 102.2 137.6 102.4 137.5 102.7C137.4 103 137.6 103.2 137.9 103.3C138.8 103.5 139.8 103.7 140.7 104H140.8C141 104 141.2 103.9 141.3 103.7C141.4 103.4 141.2 103.1 141 103Z" fill="#DEBB35"/>
<path d="M146.4 105.3C145.5 104.8 144.6 104.4 143.7 104C143.5 103.9 143.2 104 143.1 104.3C143 104.5 143.1 104.8 143.4 104.9C144.3 105.3 145.1 105.7 146 106.1C146.1 106.1 146.2 106.2 146.2 106.2C146.4 106.2 146.5 106.1 146.6 105.9C146.7 105.7 146.6 105.5 146.4 105.3Z" fill="#DEBB35"/>
<path d="M152.6 152.4C151.9 153.1 151.2 153.7 150.5 154.3C150.3 154.5 150.3 154.8 150.4 155C150.5 155.1 150.6 155.2 150.8 155.2C150.9 155.2 151 155.2 151.1 155.1C151.9 154.5 152.6 153.8 153.3 153.1C153.5 152.9 153.5 152.6 153.3 152.4C153.1 152.2 152.8 152.2 152.6 152.4Z" fill="#DEBB35"/>
<path d="M143.1 158.7C142.2 159.1 141.3 159.4 140.4 159.7C140.1 159.8 140 160 140.1 160.3C140.2 160.5 140.4 160.6 140.6 160.6H140.7C141.6 160.3 142.6 160 143.5 159.6C143.7 159.5 143.9 159.2 143.8 159C143.6 158.7 143.4 158.6 143.1 158.7Z" fill="#DEBB35"/>
<path d="M148.2 156C147.4 156.5 146.6 157 145.7 157.5C145.5 157.6 145.4 157.9 145.5 158.2C145.6 158.4 145.8 158.5 145.9 158.5C146 158.5 146.1 158.5 146.1 158.4C147 157.9 147.8 157.4 148.6 156.9C148.8 156.8 148.9 156.5 148.7 156.2C148.7 155.9 148.4 155.9 148.2 156Z" fill="#DEBB35"/>
<path d="M161.2 137.1C160.9 137 160.7 137.2 160.6 137.5C160.4 138.4 160.2 139.4 159.9 140.3C159.8 140.6 160 140.8 160.2 140.9H160.3C160.5 140.9 160.7 140.8 160.8 140.6C161.1 139.7 161.3 138.7 161.5 137.7C161.6 137.4 161.4 137.1 161.2 137.1Z" fill="#DEBB35"/>
<path d="M161.6 131.3C161.3 131.3 161.1 131.5 161.1 131.8C161.1 132.8 161.1 133.7 161 134.7C161 135 161.2 135.2 161.4 135.2C161.6 135.2 161.9 135 161.9 134.8C162 133.8 162 132.8 162 131.8C162.1 131.5 161.9 131.3 161.6 131.3Z" fill="#DEBB35"/>
<path d="M148.9 106.9C148.7 106.8 148.4 106.8 148.2 107C148 107.2 148.1 107.5 148.3 107.7C149.1 108.2 149.9 108.8 150.6 109.4C150.7 109.5 150.8 109.5 150.9 109.5C151 109.5 151.2 109.4 151.3 109.3C151.5 109.1 151.4 108.8 151.2 108.6C150.5 108 149.7 107.4 148.9 106.9Z" fill="#DEBB35"/>
<path d="M160.6 126.3C160.8 127.2 160.9 128.2 161 129.1C161 129.4 161.2 129.5 161.5 129.5C161.8 129.5 162 129.2 161.9 129C161.8 128 161.7 127 161.5 126.1C161.5 125.8 161.2 125.7 160.9 125.7C160.8 125.8 160.6 126.1 160.6 126.3Z" fill="#DEBB35"/>
<path d="M160 123.6C160.1 123.8 160.3 123.9 160.5 123.9H160.6C160.9 123.8 161 123.6 160.9 123.3C160.6 122.4 160.3 121.4 159.9 120.5C159.8 120.3 159.5 120.1 159.3 120.2C159.1 120.3 158.9 120.6 159 120.8C159.4 121.7 159.7 122.6 160 123.6Z" fill="#DEBB35"/>
<path d="M157.8 118.3C157.9 118.5 158.1 118.6 158.2 118.6C158.3 118.6 158.4 118.6 158.4 118.5C158.6 118.4 158.7 118.1 158.6 117.8C158.1 116.9 157.6 116.1 157.1 115.3C157 115.1 156.6 115 156.4 115.2C156.2 115.3 156.1 115.6 156.3 115.9C156.9 116.6 157.4 117.4 157.8 118.3Z" fill="#DEBB35"/>
<path d="M113.5 154.2C113.3 154 113 154.1 112.8 154.3C112.6 154.5 112.7 154.8 112.9 155C113.7 155.6 114.5 156.2 115.3 156.8C115.4 156.9 115.5 156.9 115.6 156.9C115.8 156.9 115.9 156.8 116 156.7C116.1 156.5 116.1 156.2 115.9 156C115 155.4 114.2 154.8 113.5 154.2Z" fill="#DEBB35"/>
<path d="M109.4 150.2C109.2 150 108.9 150 108.7 150.1C108.5 150.3 108.5 150.6 108.6 150.8C109.2 151.6 109.9 152.3 110.6 153C110.7 153.1 110.8 153.1 110.9 153.1C111 153.1 111.1 153.1 111.2 153C111.4 152.8 111.4 152.5 111.2 152.3C110.7 151.6 110 150.9 109.4 150.2Z" fill="#DEBB35"/>
<path d="M157.9 146.2C158 146.2 158.1 146.3 158.1 146.3C158.3 146.3 158.4 146.2 158.5 146C159 145.1 159.4 144.2 159.8 143.3C159.9 143.1 159.8 142.8 159.5 142.7C159.3 142.6 159 142.7 158.9 143C158.5 143.9 158.1 144.7 157.7 145.6C157.6 145.8 157.7 146.1 157.9 146.2Z" fill="#DEBB35"/>
<path d="M152.8 110.6C152.6 110.8 152.6 111.1 152.8 111.3C153.5 112 154.1 112.7 154.7 113.4C154.8 113.5 154.9 113.6 155.1 113.6C155.2 113.6 155.3 113.6 155.4 113.5C155.6 113.3 155.6 113 155.5 112.8C154.9 112 154.2 111.3 153.5 110.6C153.3 110.5 153 110.5 152.8 110.6Z" fill="#DEBB35"/>
<path d="M106.3 145.4C106.2 145.2 105.9 145.1 105.6 145.2C105.4 145.3 105.3 145.6 105.4 145.9C105.9 146.8 106.4 147.6 106.9 148.4C107 148.5 107.1 148.6 107.3 148.6C107.4 148.6 107.5 148.6 107.6 148.5C107.8 148.4 107.9 148 107.7 147.8C107.2 147.1 106.7 146.2 106.3 145.4Z" fill="#DEBB35"/>
<path d="M137.6 160.4C136.7 160.6 135.7 160.7 134.8 160.8C134.5 160.8 134.3 161.1 134.4 161.3C134.4 161.6 134.6 161.7 134.9 161.7C135.9 161.6 136.9 161.5 137.8 161.3C138.1 161.2 138.2 161 138.2 160.7C138.2 160.5 137.9 160.3 137.6 160.4Z" fill="#DEBB35"/>
<path d="M120.8 158.7C119.9 158.3 119.1 157.9 118.2 157.5C118 157.4 117.7 157.5 117.5 157.7C117.4 157.9 117.5 158.2 117.7 158.4C118.6 158.9 119.5 159.3 120.4 159.7C120.5 159.7 120.5 159.7 120.6 159.7C120.8 159.7 121 159.6 121 159.4C121.1 159.1 121 158.8 120.8 158.7Z" fill="#DEBB35"/>
<path d="M131.9 160.9C130.9 160.9 130 160.8 129 160.8C128.7 160.8 128.5 161 128.5 161.2C128.5 161.5 128.7 161.7 128.9 161.7C129.9 161.8 130.9 161.8 131.9 161.8C132.2 161.8 132.4 161.6 132.4 161.3C132.4 161.1 132.2 160.9 131.9 160.9Z" fill="#DEBB35"/>
<path d="M140.8 98.1002L152.3 86.6002L139.9 74.1002C155 70.5002 166.2 57.0002 166.2 40.9002C166.2 22.1002 150.9 6.7002 132 6.7002C115.9 6.7002 102.3 17.9002 98.8001 33.0002L86.4001 20.6002L74.0001 33.0002C70.4001 18.0002 56.9001 6.7002 40.8001 6.7002C22.0001 6.7002 6.6001 22.0002 6.6001 40.9002C6.6001 57.0002 17.8001 70.6002 32.9001 74.1002L20.5001 86.5002L32.0001 98.0002C17.4001 101.9 6.6001 115.2 6.6001 131C6.6001 149.8 21.9001 165.2 40.8001 165.2C56.6001 165.2 69.9001 154.4 73.8001 139.8L86.4001 152.4L99.0001 139.8C102.9 154.4 116.2 165.2 132 165.2C150.8 165.2 166.2 149.9 166.2 131C166.2 115.3 155.4 101.9 140.8 98.1002ZM149.5 86.5002L138.5 97.5002C136.9 97.2002 135.2 97.0002 133.4 96.9002V75.0002C134.8 74.9002 136.2 74.8002 137.5 74.6002L149.5 86.5002ZM119.4 42.4002C120.1 48.3002 124.7 52.9002 130.6 53.6002V64.4002C118.8 63.7002 109.3 54.2002 108.6 42.4002H119.4ZM108.5 39.4002C109.3 27.1002 119.5 17.3002 132 17.3002C145 17.3002 155.5 27.9002 155.5 40.8002C155.5 53.3002 145.7 63.5002 133.4 64.3002V53.5002C139.7 52.8002 144.7 47.4002 144.7 40.9002C144.7 33.9002 139 28.2002 132 28.2002C125.5 28.2002 120.1 33.1002 119.4 39.5002H108.5V39.4002ZM120.3 42.4002H127.1C127.6 44.0002 128.9 45.3002 130.5 45.8002V52.6002C125.2 51.9002 121 47.7002 120.3 42.4002ZM132 136.2C134.8 136.2 137.1 133.9 137.1 131.1C137.1 128.8 135.6 126.9 133.5 126.2V119.4C139.3 120.1 143.8 125.1 143.8 131.1C143.8 137.6 138.5 142.9 132 142.9C126.4 142.9 121.7 139 120.5 133.7H127.6C128.5 135.1 130.1 136.2 132 136.2ZM120.3 130.7C120.5 124.9 124.9 120.1 130.6 119.4V126.2C128.6 126.8 127.1 128.6 127 130.7H120.3ZM130.6 118.4C124.4 119.1 119.5 124.3 119.3 130.7H108.5C108.7 118.4 118.4 108.3 130.6 107.6V118.4ZM119.5 133.6C120.7 139.4 125.8 143.8 132 143.8C139 143.8 144.7 138.1 144.7 131.1C144.7 124.6 139.8 119.2 133.4 118.5V107.7C145.7 108.5 155.5 118.7 155.5 131.2C155.5 144.2 145 154.7 132 154.7C119.9 154.7 109.9 145.5 108.6 133.7H119.5V133.6ZM132 35.8002C129.7 35.8002 127.8 37.3002 127.1 39.4002H120.3C121 33.6002 126 29.1002 132 29.1002C138.5 29.1002 143.8 34.4002 143.8 40.9002C143.8 46.9002 139.3 51.8002 133.5 52.6002V45.8002C135.6 45.2002 137.1 43.2002 137.1 40.9002C137.1 38.1002 134.8 35.8002 132 35.8002ZM133.5 70.5002L136.8 73.8002C135.7 74.0002 134.6 74.1002 133.5 74.1002V70.5002ZM133.5 97.9002C134.9 98.0002 136.3 98.1002 137.7 98.4002L134.3 101.8C134 101.8 133.7 101.8 133.5 101.7V97.9002ZM132 7.7002C150.3 7.7002 165.2 22.6002 165.2 40.9002C165.2 56.8002 154 70.1002 139.1 73.3002L137 71.2002C137.3 71.2002 137.5 71.1002 137.8 71.1002C138.1 71.0002 138.2 70.8002 138.2 70.5002C138.1 70.2002 137.9 70.1002 137.6 70.1002C137.1 70.2002 136.6 70.3002 136.1 70.3002L133.4 67.6002V66.2002C146.8 65.4002 157.4 54.3002 157.4 40.8002C157.4 26.8002 146 15.3002 131.9 15.3002C118.3 15.3002 107.2 25.9002 106.5 39.3002H105.2L99.6001 33.7002C102.8 18.9002 116.1 7.7002 132 7.7002ZM99.2001 36.2002L102.1 39.1002C102.1 39.2002 102.1 39.4002 102.1 39.5002H99.0001C98.9001 38.3002 99.0001 37.2002 99.2001 36.2002ZM106.6 42.4002C107.3 55.3002 117.7 65.6002 130.6 66.4002V70.8002C130.1 70.8002 129.6 70.7002 129.1 70.7002C128.8 70.7002 128.6 70.9002 128.6 71.1002C128.6 71.4002 128.8 71.6002 129 71.6002C129.5 71.7002 130 71.7002 130.6 71.7002V74.1002C113.5 73.4002 99.7001 59.5002 98.9001 42.4002H106.6ZM86.4001 23.4002L98.3001 35.3002C98.1001 36.7002 97.9001 38.0002 97.9001 39.4002H74.9001C74.8001 38.0002 74.7001 36.6002 74.5001 35.3002L86.4001 23.4002ZM74.9001 42.4002H97.9001C98.6001 60.1002 112.9 74.3002 130.6 75.1002V97.0002C112.6 97.8002 98.1001 112.6 97.9001 130.8H74.9001C74.7001 112.6 60.2001 97.8002 42.2001 97.0002V75.1002C59.9001 74.3002 74.1001 60.0002 74.9001 42.4002ZM40.7001 136.2C42.6001 136.2 44.2001 135.2 45.1001 133.7H52.2001C51.0001 139 46.3001 142.9 40.7001 142.9C34.2001 142.9 28.9001 137.6 28.9001 131.1C28.9001 125.1 33.4001 120.2 39.2001 119.4V126.2C37.1001 126.8 35.6001 128.8 35.6001 131.1C35.6001 133.9 37.9001 136.2 40.7001 136.2ZM39.3001 102.6L35.1001 98.4002C36.5001 98.2002 37.9001 98.0002 39.3001 97.9002V102.6ZM39.3001 71.7002V74.1002C38.2001 74.1002 37.1001 73.9002 36.0001 73.8002L38.2001 71.6002C38.5001 71.6002 38.9001 71.6002 39.3001 71.7002ZM39.1001 70.7002L39.3001 70.5002V70.7002C39.2001 70.7002 39.1001 70.7002 39.1001 70.7002ZM70.2001 45.0002C70.5001 45.0002 70.7001 44.8002 70.7001 44.6002C70.8001 43.9002 70.8001 43.1002 70.8001 42.4002H73.9001C73.2001 59.5002 59.3001 73.3002 42.2001 74.1002V66.4002C55.1001 65.7002 65.4001 55.3002 66.2001 42.4002H69.9001C69.9001 43.1002 69.8001 43.8002 69.8001 44.5002C69.7001 44.7002 69.9001 45.0002 70.2001 45.0002ZM53.4001 42.4002H64.2001C63.5001 54.2002 54.0001 63.7002 42.2001 64.4002V53.6002C48.0001 52.9002 52.7001 48.2002 53.4001 42.4002ZM42.2001 52.6002V45.8002C43.8001 45.3002 45.1001 44.0002 45.6001 42.4002H52.4001C51.7001 47.7002 47.5001 51.9002 42.2001 52.6002ZM53.4001 39.4002C52.7001 33.1002 47.3001 28.1002 40.8001 28.1002C33.8001 28.1002 28.1001 33.8002 28.1001 40.8002C28.1001 47.3002 33.0001 52.7002 39.4001 53.4002V64.2002C27.1001 63.4002 17.3001 53.2002 17.3001 40.7002C17.3001 27.7002 27.9001 17.2002 40.8001 17.2002C53.3001 17.2002 63.5001 27.0002 64.3001 39.3002H53.4001V39.4002ZM42.2001 126.2V119.4C47.9001 120.1 52.3001 124.9 52.5001 130.7H45.8001C45.6001 128.6 44.2001 126.8 42.2001 126.2ZM39.3001 118.4C33.0001 119.1 28.0001 124.5 28.0001 131C28.0001 138 33.7001 143.7 40.7001 143.7C46.8001 143.7 52.0001 139.3 53.2001 133.5H64.1001C62.8001 145.3 52.8001 154.5 40.7001 154.5C27.7001 154.5 17.2001 143.9 17.2001 131C17.2001 118.5 27.0001 108.3 39.3001 107.5V118.4ZM53.4001 130.7C53.2001 124.3 48.4001 119.1 42.1001 118.4V107.6C54.3001 108.3 64.0001 118.4 64.2001 130.7H53.4001ZM40.7001 35.8002C37.9001 35.8002 35.6001 38.1002 35.6001 40.9002C35.6001 43.2002 37.1001 45.1002 39.2001 45.8002V52.6002C33.4001 51.9002 28.9001 46.9002 28.9001 40.9002C28.9001 34.4002 34.2001 29.1002 40.7001 29.1002C46.7001 29.1002 51.6001 33.6002 52.4001 39.4002H45.6001C45.0001 37.3002 43.0001 35.8002 40.7001 35.8002ZM73.9001 39.4002H70.3001C70.5001 39.4002 70.7001 39.2002 70.7001 39.0002L73.6001 36.1002C73.7001 37.2002 73.8001 38.3002 73.9001 39.4002ZM7.50009 40.9002C7.50009 22.6002 22.4001 7.7002 40.7001 7.7002C56.6001 7.7002 69.9001 18.9002 73.1001 33.8002L70.4001 36.5002C70.4001 36.3002 70.3001 36.1002 70.3001 35.9002C70.3001 35.6002 70.0001 35.5002 69.7001 35.5002C69.4001 35.5002 69.3001 35.8002 69.3001 36.1002C69.4001 36.5002 69.4001 36.9002 69.5001 37.4002L67.5001 39.4002H66.2001C65.4001 26.0002 54.3001 15.4002 40.8001 15.4002C26.8001 15.4002 15.3001 26.8002 15.3001 40.9002C15.3001 54.4002 25.9001 65.6002 39.3001 66.3002V67.7002L33.7001 73.3002C18.8001 70.1002 7.50009 56.8002 7.50009 40.9002ZM23.2001 86.5002L35.1001 74.6002C36.5001 74.8002 37.8001 75.0002 39.2001 75.0002V96.9002C37.5001 97.0002 35.8001 97.2002 34.1001 97.5002L23.2001 86.5002ZM40.7001 164.3C22.4001 164.3 7.50009 149.4 7.50009 131.1C7.50009 115.5 18.3001 102.5 32.7001 98.9002L35.9001 102.1C35.6001 102.1 35.3001 102.2 35.0001 102.3C34.7001 102.3 34.6001 102.6 34.6001 102.9C34.6001 103.1 34.8001 103.3 35.1001 103.3H35.2001C35.7001 103.2 36.3001 103.1 36.8001 103L39.3001 105.5V105.8C25.9001 106.6 15.3001 117.7 15.3001 131.2C15.3001 145.2 26.7001 156.7 40.8001 156.7C54.0001 156.7 64.8001 146.6 66.1001 133.8H67.6001L73.0001 139.2C69.4001 153.5 56.3001 164.3 40.7001 164.3ZM73.4001 136.8L70.7001 134.1C70.7001 133.9 70.7001 133.8 70.7001 133.7H73.7001C73.7001 134.7 73.6001 135.7 73.4001 136.8ZM66.2001 130.7C66.0001 117.3 55.4001 106.4 42.2001 105.6V102.6C42.7001 102.6 43.3001 102.7 43.8001 102.7C43.8001 102.7 43.8001 102.7 43.9001 102.7C44.1001 102.7 44.4001 102.5 44.4001 102.3C44.4001 102 44.2001 101.8 44.0001 101.8C43.4001 101.7 42.9001 101.7 42.3001 101.7V97.9002C59.8001 98.7002 73.8001 113 74.0001 130.7H66.2001ZM86.4001 149.7L74.3001 137.6C74.6001 136.3 74.7001 135 74.8001 133.6H98.0001C98.1001 134.9 98.3001 136.3 98.5001 137.6L86.4001 149.7ZM130.6 97.9002V105.6C117.4 106.4 106.8 117.3 106.6 130.7H102.9C102.9 130 103 129.4 103 128.8C103 128.5 102.8 128.3 102.6 128.3C102.3 128.3 102.1 128.5 102.1 128.7C102 129.4 102 130.1 102 130.7H98.9001C99.0001 113.1 113 98.7002 130.6 97.9002ZM98.9001 133.6H102.4L99.3001 136.7C99.1001 135.7 99.0001 134.7 98.9001 133.6ZM132 164.3C116.4 164.3 103.4 153.5 99.8001 139.1L102.3 136.6C102.4 136.9 102.4 137.3 102.5 137.6C102.5 137.8 102.7 138 103 138H103.1C103.4 137.9 103.5 137.7 103.5 137.4C103.4 136.9 103.3 136.3 103.2 135.8L105.3 133.7H106.8C108.1 146.5 119 156.6 132.1 156.6C146.1 156.6 157.6 145.2 157.6 131.1C157.6 117.6 147 106.4 133.6 105.7V105.4L140.1 98.9002C154.6 102.5 165.3 115.6 165.3 131.1C165.2 149.4 150.3 164.3 132 164.3Z" fill="#DEBB35"/>
<path d="M68.9 140.8H69C69.2 140.8 69.4 140.7 69.5 140.5C69.8 139.6 70 138.6 70.2 137.6C70.3 137.3 70.1 137.1 69.8 137C69.5 136.9 69.3 137.1 69.2 137.4C69 138.3 68.8 139.3 68.5 140.2C68.5 140.5 68.7 140.8 68.9 140.8Z" fill="#DEBB35"/>
<path d="M66.6001 146.2C66.7001 146.2 66.8001 146.3 66.8001 146.3C67.0001 146.3 67.1001 146.2 67.2001 146C67.7001 145.1 68.1 144.2 68.5 143.3C68.6 143.1 68.5001 142.8 68.2001 142.7C68.0001 142.6 67.7001 142.7 67.6001 143C67.2001 143.9 66.8001 144.7 66.4001 145.6C66.3001 145.8 66.4001 146.1 66.6001 146.2Z" fill="#DEBB35"/>
<path d="M12.8 140.1C12.7 139.8 12.5 139.7 12.2 139.8C11.9 139.9 11.8001 140.1 11.9001 140.4C12.2001 141.3 12.5001 142.3 12.9001 143.2C13.0001 143.4 13.2 143.5 13.3 143.5C13.4 143.5 13.4 143.5 13.5 143.5C13.7 143.4 13.9 143.1 13.8 142.9C13.4 141.9 13.1 141 12.8 140.1Z" fill="#DEBB35"/>
<path d="M64.9001 148C64.4001 148.8 63.8001 149.6 63.2001 150.3C63.0001 150.5 63.1001 150.8 63.3001 151C63.4001 151.1 63.5001 151.1 63.6001 151.1C63.7001 151.1 63.9001 151 64.0001 150.9C64.6001 150.1 65.2001 149.3 65.8001 148.5C65.9001 148.3 65.9001 148 65.7001 147.8C65.4001 147.7 65.1001 147.8 64.9001 148Z" fill="#DEBB35"/>
<path d="M14.9001 117.2C14.7001 117.1 14.4 117.2 14.2 117.4C13.7 118.3 13.3001 119.2 12.9001 120.1C12.8001 120.3 12.9 120.6 13.2 120.7C13.3 120.7 13.3001 120.7 13.4001 120.7C13.6001 120.7 13.8 120.6 13.8 120.4C14.2 119.5 14.6 118.7 15 117.8C15.2 117.7 15.1001 117.4 14.9001 117.2Z" fill="#DEBB35"/>
<path d="M40.7 160.9C39.7 160.9 38.8 160.8 37.8 160.8C37.5 160.8 37.3 161 37.3 161.2C37.3 161.5 37.5 161.7 37.7 161.7C38.7 161.8 39.7 161.8 40.7 161.8C41 161.8 41.2 161.6 41.2 161.3C41.2 161.1 40.9 160.9 40.7 160.9Z" fill="#DEBB35"/>
<path d="M35.0001 160.3C34.1001 160.1 33.1001 159.9 32.2001 159.6C31.9001 159.5 31.7001 159.7 31.6001 159.9C31.5001 160.2 31.7001 160.4 31.9001 160.5C32.8001 160.8 33.8001 161 34.8001 161.2H34.9001C35.1001 161.2 35.3001 161 35.4001 160.8C35.4001 160.6 35.2001 160.4 35.0001 160.3Z" fill="#DEBB35"/>
<path d="M29.5001 158.7C28.6001 158.3 27.8001 157.9 26.9001 157.5C26.7001 157.4 26.4001 157.5 26.2001 157.7C26.1001 157.9 26.2001 158.2 26.4001 158.4C27.3001 158.9 28.2001 159.3 29.1001 159.7C29.2001 159.7 29.2001 159.7 29.3001 159.7C29.5001 159.7 29.7001 159.6 29.7001 159.4C29.9001 159.1 29.8001 158.8 29.5001 158.7Z" fill="#DEBB35"/>
<path d="M61.3001 152.4C60.6001 153.1 59.9001 153.7 59.2001 154.3C59.0001 154.5 59.0001 154.8 59.1001 155C59.2001 155.1 59.3001 155.2 59.5001 155.2C59.6001 155.2 59.7001 155.2 59.8001 155.1C60.6001 154.5 61.3001 153.8 62.0001 153.1C62.2001 152.9 62.2001 152.6 62.0001 152.4C61.8001 152.2 61.5001 152.2 61.3001 152.4Z" fill="#DEBB35"/>
<path d="M12.0999 137.3C11.8999 136.4 11.7999 135.4 11.6999 134.5C11.6999 134.2 11.3999 134 11.1999 134.1C10.8999 134.1 10.6999 134.4 10.7999 134.6C10.8999 135.6 10.9999 136.6 11.1999 137.5C11.1999 137.7 11.3999 137.9 11.6999 137.9H11.7999C11.9999 137.9 12.1999 137.6 12.0999 137.3Z" fill="#DEBB35"/>
<path d="M51.8 158.7C50.9 159.1 49.9999 159.4 49.0999 159.7C48.7999 159.8 48.7 160 48.8 160.3C48.9 160.5 49.1 160.6 49.3 160.6H49.4C50.3 160.3 51.2999 160 52.1999 159.6C52.3999 159.5 52.5999 159.2 52.4999 159C52.3999 158.7 52.1 158.6 51.8 158.7Z" fill="#DEBB35"/>
<path d="M46.4001 160.4C45.5001 160.6 44.5001 160.7 43.6001 160.8C43.3001 160.8 43.1001 161.1 43.2001 161.3C43.2001 161.6 43.4001 161.7 43.7001 161.7C44.7001 161.6 45.7001 161.5 46.6001 161.3C46.9001 161.2 47.0001 161 47.0001 160.7C46.9001 160.5 46.6001 160.3 46.4001 160.4Z" fill="#DEBB35"/>
<path d="M62.2001 110.7C62.0001 110.5 61.7001 110.5 61.5001 110.7C61.3001 110.9 61.3001 111.2 61.5001 111.4C62.2001 112.1 62.8001 112.8 63.4001 113.5C63.5001 113.6 63.6001 113.7 63.8001 113.7C63.9001 113.7 64.0001 113.7 64.1001 113.6C64.3001 113.4 64.3001 113.1 64.2001 112.9C63.5001 112.1 62.9001 111.3 62.2001 110.7Z" fill="#DEBB35"/>
<path d="M22.1999 154.2C21.9999 154 21.6999 154.1 21.4999 154.3C21.2999 154.5 21.3999 154.8 21.5999 155C22.3999 155.6 23.1999 156.2 23.9999 156.8C24.0999 156.9 24.1999 156.9 24.2999 156.9C24.4999 156.9 24.5999 156.8 24.6999 156.7C24.7999 156.5 24.7999 156.2 24.5999 156C23.6999 155.4 22.8999 154.8 22.1999 154.2Z" fill="#DEBB35"/>
<path d="M57.6999 106.9C57.4999 106.8 57.1999 106.8 56.9999 107C56.7999 107.2 56.8999 107.5 57.0999 107.7C57.8999 108.2 58.6999 108.8 59.3999 109.4C59.4999 109.5 59.5999 109.5 59.6999 109.5C59.7999 109.5 59.9999 109.4 60.0999 109.3C60.2999 109.1 60.1999 108.8 59.9999 108.6C59.2999 108 58.4999 107.4 57.6999 106.9Z" fill="#DEBB35"/>
<path d="M55.0999 105.3C54.1999 104.8 53.3 104.4 52.4 104C52.2 103.9 51.9 104 51.8 104.3C51.7 104.5 51.7999 104.8 52.0999 104.9C52.9999 105.3 53.7999 105.7 54.6999 106.1C54.7999 106.1 54.9 106.2 54.9 106.2C55.1 106.2 55.2 106.1 55.3 105.9C55.4 105.7 55.3999 105.5 55.0999 105.3Z" fill="#DEBB35"/>
<path d="M66.4999 118.3C66.5999 118.5 66.7999 118.6 66.8999 118.6C66.9999 118.6 67.0999 118.6 67.0999 118.5C67.2999 118.4 67.3999 118.1 67.2999 117.8C66.7999 116.9 66.2999 116.1 65.7999 115.3C65.6999 115.1 65.2999 115 65.0999 115.2C64.8999 115.3 64.7999 115.6 64.9999 115.9C65.5999 116.6 66.0999 117.4 66.4999 118.3Z" fill="#DEBB35"/>
<path d="M68.6999 123.6C68.7999 123.8 68.9999 123.9 69.1999 123.9H69.2999C69.5999 123.8 69.6999 123.6 69.5999 123.3C69.2999 122.4 68.9999 121.4 68.5999 120.5C68.4999 120.3 68.1999 120.1 67.9999 120.2C67.7999 120.3 67.5999 120.6 67.6999 120.8C68.0999 121.7 68.3999 122.6 68.6999 123.6Z" fill="#DEBB35"/>
<path d="M69.3999 126.3C69.5999 127.2 69.6999 128.2 69.7999 129.1C69.7999 129.4 69.9999 129.5 70.2999 129.5C70.5999 129.5 70.7999 129.2 70.6999 129C70.5999 128 70.4999 127 70.2999 126.1C70.2999 125.8 69.9999 125.7 69.6999 125.7C69.4999 125.8 69.2999 126.1 69.3999 126.3Z" fill="#DEBB35"/>
<path d="M49.7001 103C48.8001 102.7 47.8001 102.5 46.8001 102.3C46.5001 102.2 46.3001 102.4 46.2001 102.7C46.1001 103 46.3001 103.2 46.6001 103.3C47.5001 103.5 48.5001 103.7 49.4001 104H49.5001C49.7001 104 49.9001 103.9 50.0001 103.7C50.1001 103.4 49.9001 103.1 49.7001 103Z" fill="#DEBB35"/>
<path d="M16.2001 115.7C16.4001 115.7 16.5001 115.6 16.6001 115.5C17.1001 114.7 17.7001 113.9 18.3001 113.2C18.5001 113 18.4001 112.7 18.2001 112.5C18.0001 112.3 17.7001 112.4 17.5001 112.6C16.9001 113.4 16.3001 114.2 15.7001 115C15.5001 115.2 15.6001 115.5 15.8001 115.7C16.0001 115.6 16.1001 115.7 16.2001 115.7Z" fill="#DEBB35"/>
<path d="M11.5999 126.3C11.8999 126.3 12.0999 126.2 12.1999 125.9C12.3999 125 12.6 124 12.9 123.1C13 122.8 12.7999 122.6 12.5999 122.5C12.2999 122.4 12.0999 122.6 11.9999 122.8C11.6999 123.7 11.5 124.7 11.3 125.7C11.2 126 11.2999 126.3 11.5999 126.3Z" fill="#DEBB35"/>
<path d="M19.9001 111.2C20.0001 111.2 20.1001 111.2 20.2001 111.1C20.9001 110.4 21.6001 109.8 22.3001 109.2C22.5001 109 22.5001 108.7 22.4001 108.5C22.2001 108.3 21.9001 108.3 21.7001 108.4C20.9001 109 20.2001 109.7 19.5001 110.4C19.3001 110.6 19.3001 110.9 19.5001 111.1C19.7001 111.1 19.8001 111.2 19.9001 111.2Z" fill="#DEBB35"/>
<path d="M24.4 107.5C24.5 107.5 24.6 107.5 24.7 107.4C25.5 106.9 26.3 106.4 27.2 105.9C27.4 105.8 27.5 105.5 27.4 105.2C27.3 105 27 104.9 26.7 105C25.8 105.5 25 106 24.2 106.5C24 106.6 23.9 107 24.1 107.2C24.1 107.5 24.3 107.5 24.4 107.5Z" fill="#DEBB35"/>
<path d="M29.6001 104.8C29.7001 104.8 29.7001 104.8 29.8001 104.8C30.7001 104.4 31.6001 104.1 32.5001 103.9C32.8001 103.8 32.9001 103.6 32.8001 103.3C32.7001 103 32.5001 102.9 32.2001 103C31.3001 103.3 30.3001 103.6 29.4001 104C29.2001 104.1 29.0001 104.4 29.1001 104.6C29.2001 104.7 29.4001 104.8 29.6001 104.8Z" fill="#DEBB35"/>
<path d="M11.1001 132.1C11.4001 132.1 11.6001 131.9 11.6001 131.6C11.6001 130.6 11.7001 129.7 11.8001 128.7C11.8001 128.4 11.6001 128.2 11.4001 128.2C11.1001 128.2 10.9001 128.4 10.9001 128.6C10.8001 129.6 10.7001 130.6 10.7001 131.6C10.6001 131.9 10.8001 132.1 11.1001 132.1Z" fill="#DEBB35"/>
<path d="M56.9001 156C56.1001 156.5 55.3001 157 54.4001 157.5C54.2001 157.6 54.1001 157.9 54.2001 158.2C54.3001 158.4 54.5001 158.5 54.6001 158.5C54.7001 158.5 54.8001 158.5 54.8001 158.4C55.7001 157.9 56.5001 157.4 57.3001 156.9C57.5001 156.8 57.6001 156.5 57.4001 156.2C57.4001 155.9 57.1001 155.9 56.9001 156Z" fill="#DEBB35"/>
<path d="M18.1 150.2C17.9 150 17.6001 150 17.4001 150.1C17.2001 150.3 17.2001 150.6 17.3001 150.8C17.9001 151.6 18.6001 152.3 19.3001 153C19.4001 153.1 19.5 153.1 19.6 153.1C19.7 153.1 19.8001 153.1 19.9001 153C20.1001 152.8 20.1001 152.5 19.9001 152.3C19.4001 151.6 18.7 150.9 18.1 150.2Z" fill="#DEBB35"/>
<path d="M15 145.4C14.9 145.2 14.6 145.1 14.3 145.2C14.1 145.3 14 145.6 14.1 145.9C14.6 146.8 15.1 147.6 15.6 148.4C15.7 148.5 15.8 148.6 16 148.6C16.1 148.6 16.2 148.6 16.3 148.5C16.5 148.4 16.6 148 16.4 147.8C15.9 147.1 15.4 146.2 15 145.4Z" fill="#DEBB35"/>
<path d="M111.8 9.09961H113.3C113.6 9.09961 113.8 8.89961 113.8 8.59961C113.8 8.29961 113.6 8.09961 113.3 8.09961H111.8C111.5 8.09961 111.3 8.29961 111.3 8.59961C111.3 8.89961 111.5 9.09961 111.8 9.09961Z" fill="#DEBB35"/>
<path d="M99.8 9.09961H102.8C103.1 9.09961 103.3 8.89961 103.3 8.59961C103.3 8.29961 103.1 8.09961 102.8 8.09961H99.8C99.5 8.09961 99.3 8.29961 99.3 8.59961C99.3 8.89961 99.5 9.09961 99.8 9.09961Z" fill="#DEBB35"/>
<path d="M75.9001 8.90001H78C78.2 13.3 81.9 16.8 86.3 16.8C90.7 16.8 94.4 13.3 94.7 8.90001H96.8C97.1 8.90001 97.3 8.70001 97.3 8.40001C97.3 8.10001 97.1 7.90001 96.8 7.90001H94.7C94.5 3.50001 90.8 0 86.3 0C81.9 0 78.2001 3.50001 77.9001 7.90001H75.8C75.5 7.90001 75.3 8.10001 75.3 8.40001C75.4 8.70001 75.6001 8.90001 75.9001 8.90001ZM79 8C79.3 4.2 82.5001 1.10001 86.4001 1.10001C90.3001 1.10001 93.5 4.20001 93.8 8.10001C93.5 8.10001 93.4001 8.30001 93.4001 8.60001C93.4001 8.80001 93.6 9.00001 93.8 9.10001C93.5 12.9 90.3001 16 86.4001 16C82.5001 16 79.3 12.9 79 9C79.2 9 79.4001 8.8 79.4001 8.5C79.4001 8.2 79.2 8 79 8Z" fill="#DEBB35"/>
<path d="M81.8999 9.00018H83.0999C83.2999 10.6002 84.6999 11.8002 86.2999 11.8002C87.9999 11.8002 89.2999 10.6002 89.5999 9.00018H90.7999C91.0999 9.00018 91.2999 8.80018 91.2999 8.50018C91.2999 8.20018 91.0999 8.00018 90.7999 8.00018H89.5999C89.3999 6.40018 87.9999 5.2002 86.3999 5.2002C84.6999 5.2002 83.3999 6.40018 83.0999 8.00018H81.8999C81.5999 8.00018 81.3999 8.20018 81.3999 8.50018C81.3999 8.80018 81.5999 9.00018 81.8999 9.00018Z" fill="#DEBB35"/>
<path d="M64 8.90039H67C67.3 8.90039 67.5 8.70039 67.5 8.40039C67.5 8.10039 67.3 7.90039 67 7.90039H64C63.7 7.90039 63.5 8.10039 63.5 8.40039C63.5 8.70039 63.7 8.90039 64 8.90039Z" fill="#DEBB35"/>
<path d="M69.8999 8.90039H72.8999C73.1999 8.90039 73.3999 8.70039 73.3999 8.40039C73.3999 8.10039 73.1999 7.90039 72.8999 7.90039H69.8999C69.5999 7.90039 69.3999 8.10039 69.3999 8.40039C69.3999 8.70039 69.6999 8.90039 69.8999 8.90039Z" fill="#DEBB35"/>
<path d="M105.8 9.09961H108.8C109.1 9.09961 109.3 8.89961 109.3 8.59961C109.3 8.29961 109.1 8.09961 108.8 8.09961H105.8C105.5 8.09961 105.3 8.29961 105.3 8.59961C105.3 8.89961 105.5 9.09961 105.8 9.09961Z" fill="#DEBB35"/>
<path d="M59.5 8.90039H61C61.3 8.90039 61.5 8.70039 61.5 8.40039C61.5 8.10039 61.3 7.90039 61 7.90039H59.5C59.2 7.90039 59 8.10039 59 8.40039C59 8.60039 59.2 8.90039 59.5 8.90039Z" fill="#DEBB35"/>
<path d="M113.2 164.3H111.7C111.4 164.3 111.2 164.5 111.2 164.8C111.2 165.1 111.4 165.3 111.7 165.3H113.2C113.5 165.3 113.7 165.1 113.7 164.8C113.7 164.5 113.5 164.3 113.2 164.3Z" fill="#DEBB35"/>
<path d="M90.9 164.1H89.7C89.5 162.5 88.1 161.3 86.5 161.3C84.8 161.3 83.5 162.5 83.2 164.1H82C81.7 164.1 81.5 164.3 81.5 164.6C81.5 164.9 81.7 165.1 82 165.1H83.2C83.4 166.7 84.8 167.9 86.4 167.9C88.1 167.9 89.4 166.7 89.7 165.1H90.9C91.2 165.1 91.4 164.9 91.4 164.6C91.3 164.4 91.1 164.1 90.9 164.1Z" fill="#DEBB35"/>
<path d="M66.8999 164H63.8999C63.5999 164 63.3999 164.2 63.3999 164.5C63.3999 164.8 63.5999 165 63.8999 165H66.8999C67.1999 165 67.3999 164.8 67.3999 164.5C67.3999 164.2 67.1999 164 66.8999 164Z" fill="#DEBB35"/>
<path d="M96.8 164.2H94.7C94.5 159.8 90.8 156.3 86.3 156.3C81.9 156.3 78.2001 159.8 77.9001 164.2H75.8C75.5 164.2 75.3 164.4 75.3 164.7C75.3 165 75.5 165.2 75.8 165.2H77.9001C78.1001 169.6 81.8 173.1 86.2 173.1C90.6 173.1 94.3 169.6 94.6 165.2H96.7C97 165.2 97.2 165 97.2 164.7C97.3 164.4 97.1 164.2 96.8 164.2ZM93.8 165.1C93.5 168.9 90.3001 172 86.4001 172C82.5001 172 79.3 168.9 79 165C79.2 165 79.4001 164.8 79.4001 164.5C79.4001 164.3 79.2 164.1 79 164C79.3 160.2 82.5001 157.1 86.4001 157.1C90.3001 157.1 93.5 160.2 93.8 164.1C93.5 164.1 93.4001 164.3 93.4001 164.6C93.4001 164.9 93.5 165.1 93.8 165.1Z" fill="#DEBB35"/>
<path d="M72.8999 164H69.8999C69.5999 164 69.3999 164.2 69.3999 164.5C69.3999 164.8 69.5999 165 69.8999 165H72.8999C73.1999 165 73.3999 164.8 73.3999 164.5C73.3999 164.3 73.1999 164 72.8999 164Z" fill="#DEBB35"/>
<path d="M102.8 164.2H99.8C99.5 164.2 99.3 164.4 99.3 164.7C99.3 165 99.5 165.2 99.8 165.2H102.8C103.1 165.2 103.3 165 103.3 164.7C103.3 164.4 103.1 164.2 102.8 164.2Z" fill="#DEBB35"/>
<path d="M108.8 164.2H105.8C105.5 164.2 105.3 164.4 105.3 164.7C105.3 165 105.5 165.2 105.8 165.2H108.8C109.1 165.2 109.3 165 109.3 164.7C109.3 164.5 109.1 164.2 108.8 164.2Z" fill="#DEBB35"/>
<path d="M61 164H59.5C59.2 164 59 164.2 59 164.5C59 164.8 59.2 165 59.5 165H61C61.3 165 61.5 164.8 61.5 164.5C61.5 164.2 61.2 164 61 164Z" fill="#DEBB35"/>
<path d="M7.90012 90.9996C7.90012 91.2996 8.10012 91.4996 8.40012 91.4996C8.70012 91.4996 8.90012 91.2996 8.90012 90.9996V89.7996C10.5001 89.5996 11.7001 88.1996 11.7001 86.5996C11.7001 84.8996 10.5001 83.5996 8.90012 83.2996V82.0996C8.90012 81.7996 8.70012 81.5996 8.40012 81.5996C8.10012 81.5996 7.90012 81.7996 7.90012 82.0996V83.2996C6.30012 83.4996 5.1001 84.8996 5.1001 86.4996C5.1001 88.1996 6.30012 89.4996 7.90012 89.7996V90.9996Z" fill="#DEBB35"/>
<path d="M8.30005 111.5C8.00005 111.5 7.80005 111.7 7.80005 112V113.5C7.80005 113.8 8.00005 114 8.30005 114C8.60005 114 8.80005 113.8 8.80005 113.5V112C8.80005 111.7 8.60005 111.5 8.30005 111.5Z" fill="#DEBB35"/>
<path d="M8.1001 67.0996C8.1001 67.3996 8.3001 67.5996 8.6001 67.5996C8.9001 67.5996 9.1001 67.3996 9.1001 67.0996V64.0996C9.1001 63.7996 8.9001 63.5996 8.6001 63.5996C8.3001 63.5996 8.1001 63.7996 8.1001 64.0996V67.0996Z" fill="#DEBB35"/>
<path d="M8.80005 106C8.80005 105.7 8.60005 105.5 8.30005 105.5C8.00005 105.5 7.80005 105.7 7.80005 106V109C7.80005 109.3 8.00005 109.5 8.30005 109.5C8.60005 109.5 8.80005 109.3 8.80005 109V106Z" fill="#DEBB35"/>
<path d="M7.90001 96.9996C7.90001 97.2996 8.10001 97.4996 8.40001 97.4996C8.70001 97.4996 8.90001 97.2996 8.90001 96.9996V94.8996C13.3 94.6996 16.8 90.9996 16.8 86.5996C16.8 82.1996 13.4 78.4996 8.90001 78.1996V76.0996C8.90001 75.7996 8.70001 75.5996 8.40001 75.5996C8.10001 75.5996 7.90001 75.7996 7.90001 76.0996V78.1996C3.50001 78.3996 0 82.0996 0 86.4996C0 90.9996 3.50001 94.5996 7.90001 94.8996V96.9996ZM1 86.4996C1 82.5996 4.09998 79.3996 7.99998 79.0996C7.99998 79.2996 8.19998 79.4996 8.49998 79.4996C8.69998 79.4996 8.89998 79.2996 8.99998 79.0996C12.9 79.3996 15.9 82.5996 15.9 86.4996C15.9 90.3996 12.8 93.5996 8.90001 93.8996C8.90001 93.6996 8.70001 93.4996 8.40001 93.4996C8.20001 93.4996 8.00001 93.6996 7.90001 93.8996C4.10001 93.6996 1 90.3996 1 86.4996Z" fill="#DEBB35"/>
<path d="M8 73.0996C8 73.3996 8.2 73.5996 8.5 73.5996C8.8 73.5996 9 73.3996 9 73.0996V70.0996C9 69.7996 8.8 69.5996 8.5 69.5996C8.2 69.5996 8 69.7996 8 70.0996V73.0996Z" fill="#DEBB35"/>
<path d="M8.80005 100C8.80005 99.7 8.60005 99.5 8.30005 99.5C8.00005 99.5 7.80005 99.7 7.80005 100V103C7.80005 103.3 8.00005 103.5 8.30005 103.5C8.60005 103.5 8.80005 103.3 8.80005 103V100Z" fill="#DEBB35"/>
<path d="M8.6001 61.5996C8.9001 61.5996 9.1001 61.3996 9.1001 61.0996V59.5996C9.1001 59.2996 8.9001 59.0996 8.6001 59.0996C8.3001 59.0996 8.1001 59.2996 8.1001 59.5996V61.0996C8.1001 61.3996 8.3001 61.5996 8.6001 61.5996Z" fill="#DEBB35"/>
<path d="M165 83.2996V82.0996C165 81.7996 164.8 81.5996 164.5 81.5996C164.2 81.5996 164 81.7996 164 82.0996V83.2996C162.4 83.4996 161.2 84.8996 161.2 86.4996C161.2 88.1996 162.4 89.4996 164 89.7996V90.9996C164 91.2996 164.2 91.4996 164.5 91.4996C164.8 91.4996 165 91.2996 165 90.9996V89.7996C166.6 89.5996 167.8 88.1996 167.8 86.5996C167.9 84.8996 166.6 83.4996 165 83.2996Z" fill="#DEBB35"/>
<path d="M165.1 78.1996V76.0996C165.1 75.7996 164.9 75.5996 164.6 75.5996C164.3 75.5996 164.1 75.7996 164.1 76.0996V78.1996C159.7 78.3996 156.2 82.0996 156.2 86.4996C156.2 90.9996 159.7 94.5996 164.1 94.8996V96.9996C164.1 97.2996 164.3 97.4996 164.6 97.4996C164.9 97.4996 165.1 97.2996 165.1 96.9996V94.8996C169.5 94.6996 173 90.9996 173 86.5996C172.9 82.0996 169.5 78.4996 165.1 78.1996ZM165 93.8996C165 93.6996 164.8 93.4996 164.5 93.4996C164.3 93.4996 164.1 93.6996 164 93.8996C160.1 93.5996 157.1 90.3996 157.1 86.4996C157.1 82.5996 160.2 79.3996 164.1 79.0996C164.1 79.2996 164.3 79.4996 164.6 79.4996C164.8 79.4996 165 79.2996 165.1 79.0996C169 79.3996 172 82.5996 172 86.4996C171.9 90.4996 168.8 93.6996 165 93.8996Z" fill="#DEBB35"/>
<path d="M163.9 113.4C163.9 113.7 164.1 113.9 164.4 113.9C164.7 113.9 164.9 113.7 164.9 113.4V111.9C164.9 111.6 164.7 111.4 164.4 111.4C164.1 111.4 163.9 111.6 163.9 111.9V113.4Z" fill="#DEBB35"/>
<path d="M165.1 64.0996C165.1 63.7996 164.9 63.5996 164.6 63.5996C164.3 63.5996 164.1 63.7996 164.1 64.0996V67.0996C164.1 67.3996 164.3 67.5996 164.6 67.5996C164.9 67.5996 165.1 67.3996 165.1 67.0996V64.0996Z" fill="#DEBB35"/>
<path d="M164.6 69.5996C164.3 69.5996 164.1 69.7996 164.1 70.0996V73.0996C164.1 73.3996 164.3 73.5996 164.6 73.5996C164.9 73.5996 165.1 73.3996 165.1 73.0996V70.0996C165.1 69.7996 164.9 69.5996 164.6 69.5996Z" fill="#DEBB35"/>
<path d="M164.4 103.5C164.7 103.5 164.9 103.3 164.9 103V100C164.9 99.7 164.7 99.5 164.4 99.5C164.1 99.5 163.9 99.7 163.9 100V103C164 103.2 164.2 103.5 164.4 103.5Z" fill="#DEBB35"/>
<path d="M163.9 109C163.9 109.3 164.1 109.5 164.4 109.5C164.7 109.5 164.9 109.3 164.9 109V106C164.9 105.7 164.7 105.5 164.4 105.5C164.1 105.5 163.9 105.7 163.9 106V109Z" fill="#DEBB35"/>
<path d="M165.2 59.7002C165.2 59.4002 165 59.2002 164.7 59.2002C164.4 59.2002 164.2 59.4002 164.2 59.7002V61.2002C164.2 61.5002 164.4 61.7002 164.7 61.7002C165 61.7002 165.2 61.5002 165.2 61.2002V59.7002Z" fill="#DEBB35"/>
<path d="M83.0001 82.6996C82.2001 83.3996 81.7001 84.2996 81.4001 85.2996L60.6001 73.3996L60.7001 99.5996L81.3001 87.5996C81.5001 88.5996 82.0001 89.4996 82.8001 90.1996L62.3001 102.2L84.9001 115.2V91.3996C85.4001 91.4996 85.9001 91.6996 86.4001 91.6996C86.9001 91.6996 87.4001 91.5996 87.9001 91.3996V115.2L110.6 102L89.9001 90.1996C90.6001 89.4996 91.1001 88.5996 91.3001 87.5996L112 99.4996L111.9 73.2996L91.2001 85.3996C90.9001 84.3996 90.4001 83.4996 89.6001 82.7996L110.3 70.6996L87.7001 57.6996V81.6996C87.2001 81.4996 86.7001 81.3996 86.2001 81.3996C85.7001 81.3996 85.2001 81.4996 84.7001 81.6996V57.5996L62.2001 70.7996L83.0001 82.6996ZM81.3001 86.4996L61.7001 97.8996V75.0996L81.3001 86.3996V86.4996ZM111 74.8996V97.6996L91.4001 86.3996C91.4001 86.2996 91.4001 86.2996 91.4001 86.1996L111 74.8996ZM88.8001 59.3996L108.5 70.6996L88.8001 82.0996V59.3996ZM88.8001 90.9996C88.9001 90.9996 89.0001 90.8996 89.1001 90.8996L108.6 102.1L88.8001 113.6V90.9996ZM83.9001 113.5L64.2001 102.2L83.6001 90.8996C83.7001 90.8996 83.7001 90.9996 83.8001 90.9996V113.5H83.9001ZM83.9001 82.0996L64.1001 70.7996L83.9001 59.2996V82.0996Z" fill="#DEBB35"/>
</svg>
