<svg width="1108" height="976" viewBox="0 0 1108 976" fill="none" xmlns="http://www.w3.org/2000/svg">
<path d="M609.498 74.0775C611.258 36.6854 582.372 4.94635 544.98 3.18642C507.588 1.42649 475.849 30.3121 474.089 67.7042C472.329 105.096 501.215 136.835 538.607 138.595C575.999 140.355 607.738 111.47 609.498 74.0775Z" stroke="#DEBB35" stroke-linecap="round" stroke-linejoin="round" stroke-dasharray="2.21 2.21"/>
<path d="M68.779 612.322C106.212 612.322 136.558 581.976 136.558 544.543C136.558 507.11 106.212 476.764 68.779 476.764C31.3457 476.764 1 507.11 1 544.543C1 581.976 31.3457 612.322 68.779 612.322Z" stroke="#DEBB35" stroke-width="2" stroke-linecap="round" stroke-linejoin="round" stroke-dasharray="2.21 2.21"/>
<path d="M1015.22 612.322C1052.65 612.322 1083 581.976 1083 544.543C1083 507.11 1052.65 476.764 1015.22 476.764C977.788 476.764 947.442 507.11 947.442 544.543C947.442 581.976 977.788 612.322 1015.22 612.322Z" stroke="#DEBB35" stroke-linecap="round" stroke-linejoin="round" stroke-dasharray="2.21 2.21"/>
<path d="M542.153 154.096L152.205 544.044L542.153 933.992L932.101 544.044L542.153 154.096Z" stroke="white" stroke-opacity="0.2" stroke-width="4" stroke-miterlimit="10" stroke-linecap="round" stroke-linejoin="round"/>
<path d="M542.151 350.154L348.267 544.039L542.151 737.923L736.036 544.039L542.151 350.154Z" stroke="white" stroke-opacity="0.2" stroke-miterlimit="10" stroke-linecap="round" stroke-linejoin="round"/>
<path d="M348.522 544.543H106.366" stroke="white" stroke-opacity="0.2" stroke-miterlimit="10" stroke-linecap="round" stroke-linejoin="round"/>
<path d="M542.153 245.592L243.701 544.044L542.153 842.496L840.604 544.044L542.153 245.592Z" stroke="white" stroke-opacity="0.2" stroke-width="2" stroke-miterlimit="10" stroke-linecap="round" stroke-linejoin="round" stroke-dasharray="2.5 2.5"/>
<path d="M68.7793 582.129C89.7292 582.129 106.366 565.492 106.366 544.542C106.366 523.592 89.7292 506.956 68.7793 506.956" stroke="white" stroke-opacity="0.2" stroke-miterlimit="10" stroke-linecap="round" stroke-linejoin="round"/>
<path d="M68.7791 565.493C80.3494 565.493 89.729 556.113 89.729 544.543C89.729 532.973 80.3494 523.593 68.7791 523.593C57.2088 523.593 47.8291 532.973 47.8291 544.543C47.8291 556.113 57.2088 565.493 68.7791 565.493Z" fill="white" fill-opacity="0.2" stroke="white" stroke-opacity="0.2" stroke-miterlimit="10" stroke-linecap="round" stroke-linejoin="round"/>
<path d="M735.478 544.543H977.634" stroke="white" stroke-opacity="0.2" stroke-miterlimit="10" stroke-linecap="round" stroke-linejoin="round"/>
<path d="M747.134 736.129C799.393 810.863 899.963 828.905 974.348 776.89C1048.73 724.876 1066.3 624.222 1014.04 549.488" stroke="#DEBB35" stroke-width="10" stroke-miterlimit="10" stroke-linecap="round" stroke-linejoin="round"/>
<path d="M747.134 736.129C799.393 810.863 899.963 828.905 974.348 776.89C1048.73 724.876 1066.3 624.222 1014.04 549.488" stroke="white" stroke-miterlimit="10" stroke-linecap="round" stroke-linejoin="round"/>
<path d="M1015.22 565.493C1026.79 565.493 1036.17 556.113 1036.17 544.543C1036.17 532.973 1026.79 523.593 1015.22 523.593C1003.65 523.593 994.271 532.973 994.271 544.543C994.271 556.113 1003.65 565.493 1015.22 565.493Z" fill="white" fill-opacity="0.2" stroke="white" stroke-opacity="0.2" stroke-miterlimit="10" stroke-linecap="round" stroke-linejoin="round"/>
<path d="M542 350.448V108.292" stroke="white" stroke-opacity="0.2" stroke-miterlimit="10" stroke-linecap="round" stroke-linejoin="round"/>
<path d="M568.667 69.9237C568.667 55.1961 556.728 43.2568 542.001 43.2564C527.273 43.256 515.334 55.1947 515.333 69.9223C515.333 84.6499 527.272 96.5893 541.999 96.5897C556.727 96.5901 568.666 84.6513 568.667 69.9237ZM542 450.423L537 450.423L537 455.423L542 455.423L542 450.423ZM735.5 545.423L731.983 548.977L733.444 550.423L735.5 550.423L735.5 545.423ZM1039.67 545.424C1039.67 530.696 1027.73 518.757 1013 518.756C998.273 518.756 986.334 530.695 986.333 545.422C986.333 560.15 998.272 572.089 1013 572.09C1027.73 572.09 1039.67 560.151 1039.67 545.424ZM639.5 450.423L643.017 446.869L641.556 445.423L639.5 445.423L639.5 450.423ZM542 69.923L537 69.923L537 450.423L542 450.423L547 450.423L547 69.923L542 69.923ZM735.5 545.423L735.5 550.423L1013 550.423L1013 545.423L1013 540.423L735.5 540.423L735.5 545.423ZM542 450.423L542 455.423L639.5 455.423L639.5 450.423L639.5 445.423L542 445.423L542 450.423ZM639.5 450.423L635.983 453.977L731.983 548.977L735.5 545.423L739.017 541.869L643.017 446.869L639.5 450.423Z" fill="#DEBB35"/>
<path d="M544.667 69.9231C544.667 68.4503 543.473 67.2564 542 67.2564C540.527 67.2563 539.333 68.4502 539.333 69.923C539.333 71.3957 540.527 72.5896 542 72.5897C543.473 72.5897 544.667 71.3958 544.667 69.9231ZM542 449.423L541.5 449.423L541.5 449.923L542 449.923L542 449.423ZM735.5 545.423L735.148 545.778L735.294 545.923L735.5 545.923L735.5 545.423ZM1015.67 545.423C1015.67 543.95 1014.47 542.756 1013 542.756C1011.53 542.756 1010.33 543.95 1010.33 545.423C1010.33 546.896 1011.53 548.09 1013 548.09C1014.47 548.09 1015.67 546.896 1015.67 545.423ZM638.75 449.423L639.102 449.068L638.956 448.923L638.75 448.923L638.75 449.423ZM542 69.923L541.5 69.923L541.5 449.423L542 449.423L542.5 449.423L542.5 69.923L542 69.923ZM735.5 545.423L735.5 545.923L1013 545.923L1013 545.423L1013 544.923L735.5 544.923L735.5 545.423ZM542 449.423L542 449.923L638.75 449.923L638.75 449.423L638.75 448.923L542 448.923L542 449.423ZM638.75 449.423L638.398 449.778L735.148 545.778L735.5 545.423L735.852 545.068L639.102 449.068L638.75 449.423Z" fill="white"/>
<path d="M504.412 70.7065C504.412 91.6564 521.049 108.293 541.999 108.293C562.949 108.293 579.585 91.6564 579.585 70.7065" stroke="#DEBB35" stroke-miterlimit="10" stroke-linecap="round" stroke-linejoin="round"/>
<path d="M542 91.6556C553.707 91.6556 562.949 82.413 562.949 70.7057C562.949 58.9985 553.707 49.7559 542 49.7559C530.292 49.7559 521.05 58.9985 521.05 70.7057C521.05 82.413 530.292 91.6556 542 91.6556Z" fill="white" stroke="white" stroke-opacity="0.2" stroke-miterlimit="10" stroke-linecap="round" stroke-linejoin="round"/>
<path d="M431.703 382.489L474.219 339.973L416.299 324.569L431.703 382.489Z" fill="white"/>
<mask id="mask0_1_7" style="mask-type:luminance" maskUnits="userSpaceOnUse" x="416" y="324" width="59" height="59">
<path d="M431.703 382.489L474.219 339.973L416.299 324.569L431.703 382.489Z" fill="white"/>
</mask>
<g mask="url(#mask0_1_7)">
<path d="M486.542 266.648L378.096 375.095" stroke="white" stroke-opacity="0.2" stroke-width="0.5" stroke-miterlimit="10" stroke-linecap="round" stroke-linejoin="round"/>
<path d="M494.552 274.042L385.489 382.488" stroke="white" stroke-opacity="0.2" stroke-width="0.5" stroke-miterlimit="10" stroke-linecap="round" stroke-linejoin="round"/>
<path d="M479.148 259.253L370.702 367.699" stroke="white" stroke-opacity="0.2" stroke-width="0.5" stroke-miterlimit="10" stroke-linecap="round" stroke-linejoin="round"/>
<path d="M471.753 251.859L363.307 360.306" stroke="white" stroke-opacity="0.2" stroke-width="0.5" stroke-miterlimit="10" stroke-linecap="round" stroke-linejoin="round"/>
<path d="M464.36 244.466L355.913 352.912" stroke="white" stroke-opacity="0.2" stroke-width="0.5" stroke-miterlimit="10" stroke-linecap="round" stroke-linejoin="round"/>
<path d="M501.946 281.436L393.5 390.498" stroke="white" stroke-opacity="0.2" stroke-width="0.5" stroke-miterlimit="10" stroke-linecap="round" stroke-linejoin="round"/>
<path d="M509.34 289.446L400.894 397.892" stroke="white" stroke-opacity="0.2" stroke-width="0.5" stroke-miterlimit="10" stroke-linecap="round" stroke-linejoin="round"/>
<path d="M516.734 296.839L408.287 405.286" stroke="white" stroke-opacity="0.2" stroke-width="0.5" stroke-miterlimit="10" stroke-linecap="round" stroke-linejoin="round"/>
<path d="M524.129 304.233L415.683 412.679" stroke="white" stroke-opacity="0.2" stroke-width="0.5" stroke-miterlimit="10" stroke-linecap="round" stroke-linejoin="round"/>
<path d="M532.14 311.628L423.077 420.075" stroke="white" stroke-opacity="0.2" stroke-width="0.5" stroke-miterlimit="10" stroke-linecap="round" stroke-linejoin="round"/>
<path d="M539.533 319.024L430.471 428.087" stroke="white" stroke-opacity="0.2" stroke-width="0.5" stroke-miterlimit="10" stroke-linecap="round" stroke-linejoin="round"/>
<path d="M546.928 326.417L438.481 435.48" stroke="white" stroke-opacity="0.2" stroke-width="0.5" stroke-miterlimit="10" stroke-linecap="round" stroke-linejoin="round"/>
</g>
<path d="M431.703 382.489L474.219 339.973L416.299 324.569L431.703 382.489Z" stroke="white" stroke-opacity="0.2" stroke-miterlimit="10" stroke-linecap="round" stroke-linejoin="round"/>
<path d="M652.294 382.489L609.778 339.973L667.699 324.569L652.294 382.489Z" fill="white"/>
<mask id="mask1_1_7" style="mask-type:luminance" maskUnits="userSpaceOnUse" x="609" y="324" width="59" height="59">
<path d="M652.294 382.489L609.778 339.973L667.699 324.569L652.294 382.489Z" fill="white"/>
</mask>
<g mask="url(#mask1_1_7)">
<path d="M597.455 266.649L705.902 375.095" stroke="white" stroke-opacity="0.2" stroke-width="0.5" stroke-miterlimit="10" stroke-linecap="round" stroke-linejoin="round"/>
<path d="M589.445 274.042L698.508 382.489" stroke="white" stroke-opacity="0.2" stroke-width="0.5" stroke-miterlimit="10" stroke-linecap="round" stroke-linejoin="round"/>
<path d="M604.849 259.253L713.295 367.7" stroke="white" stroke-opacity="0.2" stroke-width="0.5" stroke-miterlimit="10" stroke-linecap="round" stroke-linejoin="round"/>
<path d="M612.242 251.86L720.689 360.306" stroke="white" stroke-opacity="0.2" stroke-width="0.5" stroke-miterlimit="10" stroke-linecap="round" stroke-linejoin="round"/>
<path d="M619.636 244.466L728.082 352.913" stroke="white" stroke-opacity="0.2" stroke-width="0.5" stroke-miterlimit="10" stroke-linecap="round" stroke-linejoin="round"/>
<path d="M582.052 281.436L690.498 390.499" stroke="white" stroke-opacity="0.2" stroke-width="0.5" stroke-miterlimit="10" stroke-linecap="round" stroke-linejoin="round"/>
<path d="M574.658 289.446L683.105 397.893" stroke="white" stroke-opacity="0.2" stroke-width="0.5" stroke-miterlimit="10" stroke-linecap="round" stroke-linejoin="round"/>
<path d="M567.263 296.84L675.709 405.286" stroke="white" stroke-opacity="0.2" stroke-width="0.5" stroke-miterlimit="10" stroke-linecap="round" stroke-linejoin="round"/>
<path d="M559.869 304.233L668.316 412.68" stroke="white" stroke-opacity="0.2" stroke-width="0.5" stroke-miterlimit="10" stroke-linecap="round" stroke-linejoin="round"/>
<path d="M551.856 311.629L660.919 420.075" stroke="white" stroke-opacity="0.2" stroke-width="0.5" stroke-miterlimit="10" stroke-linecap="round" stroke-linejoin="round"/>
<path d="M544.463 319.024L653.526 428.087" stroke="white" stroke-opacity="0.2" stroke-width="0.5" stroke-miterlimit="10" stroke-linecap="round" stroke-linejoin="round"/>
<path d="M537.069 326.417L645.516 435.48" stroke="white" stroke-opacity="0.2" stroke-width="0.5" stroke-miterlimit="10" stroke-linecap="round" stroke-linejoin="round"/>
</g>
<path d="M652.294 382.489L609.778 339.973L667.699 324.569L652.294 382.489Z" stroke="white" stroke-opacity="0.2" stroke-miterlimit="10" stroke-linecap="round" stroke-linejoin="round"/>
<path d="M542 450.269L442.796 638.202H641.204L542 450.269Z" stroke="white" stroke-opacity="0.2" stroke-miterlimit="10" stroke-linecap="round" stroke-linejoin="round"/>
<path d="M542 638.202L641.204 450.269H442.796L542 638.202Z" stroke="white" stroke-opacity="0.2" stroke-miterlimit="10" stroke-linecap="round" stroke-linejoin="round"/>
<path d="M541.999 450.269L442.795 638.202L641.203 638.202L541.999 450.269Z" fill="white" stroke="white" stroke-opacity="0.2" stroke-miterlimit="10" stroke-linecap="round" stroke-linejoin="round"/>
<path d="M542 506.423L481 622.423L603 622.423L542 506.423Z" fill="#DEBB35" stroke="white" stroke-opacity="0.2" stroke-miterlimit="10" stroke-linecap="round" stroke-linejoin="round"/>
<path d="M326.956 669.627L411.372 754.042L442.796 638.202L326.956 669.627Z" fill="white" stroke="white" stroke-opacity="0.2" stroke-miterlimit="10" stroke-linecap="round" stroke-linejoin="round"/>
<path d="M384.259 696.122L442.795 638.202" stroke="white" stroke-opacity="0.2" stroke-miterlimit="10" stroke-linecap="round" stroke-linejoin="round"/>
<path d="M699.74 696.122L641.203 638.202" stroke="white" stroke-opacity="0.2" stroke-miterlimit="10" stroke-linecap="round" stroke-linejoin="round"/>
<path d="M541.999 975.249C564.8 975.249 583.283 956.765 583.283 933.965C583.283 911.165 564.8 892.682 541.999 892.682C519.199 892.682 500.716 911.165 500.716 933.965C500.716 956.765 519.199 975.249 541.999 975.249Z" fill="#DEBB35"/>
<path d="M541.999 975.249C564.8 975.249 583.283 956.765 583.283 933.965C583.283 911.165 564.8 892.682 541.999 892.682C519.199 892.682 500.716 911.165 500.716 933.965C500.716 956.765 519.199 975.249 541.999 975.249Z" fill="white" stroke="white" stroke-opacity="0.2" stroke-miterlimit="10" stroke-linecap="round" stroke-linejoin="round"/>
<path d="M541.999 962.925C557.993 962.925 570.959 949.959 570.959 933.965C570.959 917.971 557.993 905.005 541.999 905.005C526.005 905.005 513.039 917.971 513.039 933.965C513.039 949.959 526.005 962.925 541.999 962.925Z" fill="white" fill-opacity="0.2" stroke="white" stroke-opacity="0.2" stroke-miterlimit="10" stroke-linecap="round" stroke-linejoin="round"/>
<path d="M542 738.021V892.68" stroke="white" stroke-opacity="0.2" stroke-miterlimit="10" stroke-linecap="round" stroke-linejoin="round"/>
<path d="M378.439 857.184L464.303 773.615L348.998 741.437L378.439 857.184Z" fill="white"/>
<path d="M378.439 857.184L464.303 773.615L348.998 741.437L378.439 857.184Z" stroke="white" stroke-opacity="0.2" stroke-miterlimit="10" stroke-linecap="round" stroke-linejoin="round"/>
<path d="M387.667 822.217L429.027 782.254L373.217 766.505L387.667 822.217Z" stroke="white" stroke-opacity="0.2" stroke-miterlimit="10" stroke-linecap="round" stroke-linejoin="round"/>
<path d="M709.425 794.648L793.224 709.616L678 679.423L709.425 794.648Z" fill="white"/>
<path d="M709.425 794.648L793.224 709.616L678 679.423L709.425 794.648Z" stroke="black" stroke-opacity="0.2" stroke-miterlimit="10" stroke-linecap="round" stroke-linejoin="round"/>
<path d="M757.044 669.627L672.628 754.042L641.203 638.202L757.044 669.627Z" fill="white"/>
<path d="M343 738.423L339.464 734.888L335.929 738.423L339.464 741.959L343 738.423ZM643 642.423V647.423H651.564L647.354 639.965L643 642.423ZM590.5 549.423L586.074 551.749L586.109 551.816L586.146 551.881L590.5 549.423ZM539 451.423L543.426 449.097L538.992 440.659L534.57 449.104L539 451.423ZM42.3333 545.923C42.3333 560.651 54.2724 572.59 69 572.59C83.7276 572.59 95.6667 560.651 95.6667 545.923C95.6667 531.196 83.7276 519.257 69 519.257C54.2724 519.257 42.3333 531.196 42.3333 545.923ZM350 545.923L353.675 542.534L352.19 540.923H350V545.923ZM511 906.423L514.536 902.888L346.536 734.888L343 738.423L339.464 741.959L507.464 909.959L511 906.423ZM343 738.423L346.536 741.959L442.536 645.959L439 642.423L435.464 638.888L339.464 734.888L343 738.423ZM439 642.423V647.423H643V642.423V637.423H439V642.423ZM643 642.423L647.354 639.965L594.854 546.965L590.5 549.423L586.146 551.881L638.646 644.881L643 642.423ZM590.5 549.423L594.926 547.097L543.426 449.097L539 451.423L534.574 453.749L586.074 551.749L590.5 549.423ZM539 451.423L534.57 449.104L434.57 640.104L439 642.423L443.43 644.743L543.43 453.743L539 451.423ZM439 642.423L442.675 639.034L353.675 542.534L350 545.923L346.325 549.313L435.325 645.813L439 642.423ZM350 545.923V540.923H69V545.923V550.923H350V545.923Z" fill="#DEBB35"/>
<path d="M643.5 640.423L647.036 636.888L643.535 633.387L640 636.853L643.5 640.423ZM542 739.923L538.5 736.353L537 737.823V739.923H542ZM515.333 933.923C515.333 948.651 527.272 960.59 542 960.59C556.728 960.59 568.667 948.651 568.667 933.923C568.667 919.196 556.728 907.257 542 907.257C527.272 907.257 515.333 919.196 515.333 933.923ZM708.5 705.423L712.036 701.888L647.036 636.888L643.5 640.423L639.965 643.959L704.965 708.959L708.5 705.423ZM643.5 640.423L640 636.853L538.5 736.353L542 739.923L545.5 743.494L647 643.994L643.5 640.423ZM542 739.923C537 739.923 537 739.924 537 739.925C537 739.926 537 739.927 537 739.929C537 739.931 537 739.933 537 739.935C537 739.938 537 739.941 537 739.945C537 739.949 537 739.953 537 739.957C537 739.962 537 739.966 537 739.972C537 739.977 537 739.983 537 739.989C537 739.995 537 740.002 537 740.009C537 740.016 537 740.024 537 740.032C537 740.04 537 740.049 537 740.057C537 740.066 537 740.076 537 740.085C537 740.095 537 740.105 537 740.116C537 740.127 537 740.138 537 740.149C537 740.161 537 740.173 537 740.185C537 740.198 537 740.21 537 740.224C537 740.237 537 740.251 537 740.265C537 740.279 537 740.294 537 740.309C537 740.324 537 740.339 537 740.355C537 740.371 537 740.387 537 740.404C537 740.42 537 740.437 537 740.455C537 740.473 537 740.491 537 740.509C537 740.527 537 740.546 537 740.566C537 740.585 537 740.604 537 740.625C537 740.645 537 740.665 537 740.686C537 740.707 537 740.729 537 740.75C537 740.772 537 740.794 537 740.817C537 740.84 537 740.863 537 740.886C537 740.91 537 740.934 537 740.958C537 740.982 537 741.007 537 741.032C537 741.057 537 741.083 537 741.109C537 741.135 537 741.161 537 741.188C537 741.215 537 741.242 537 741.27C537 741.297 537 741.325 537 741.354C537 741.382 537 741.411 537 741.44C537 741.47 537 741.499 537 741.53C537 741.56 537 741.59 537 741.621C537 741.652 537 741.683 537 741.715C537 741.747 537 741.779 537 741.812C537 741.844 537 741.877 537 741.91C537 741.944 537 741.978 537 742.012C537 742.046 537 742.08 537 742.115C537 742.15 537 742.186 537 742.222C537 742.257 537 742.293 537 742.33C537 742.367 537 742.404 537 742.441C537 742.478 537 742.516 537 742.554C537 742.592 537 742.631 537 742.67C537 742.709 537 742.748 537 742.788C537 742.828 537 742.868 537 742.909C537 742.949 537 742.99 537 743.031C537 743.073 537 743.114 537 743.156C537 743.199 537 743.241 537 743.284C537 743.327 537 743.37 537 743.414C537 743.458 537 743.502 537 743.546C537 743.59 537 743.635 537 743.681C537 743.726 537 743.771 537 743.817C537 743.863 537 743.91 537 743.956C537 744.003 537 744.05 537 744.098C537 744.145 537 744.193 537 744.242C537 744.29 537 744.339 537 744.388C537 744.437 537 744.486 537 744.536C537 744.586 537 744.636 537 744.687C537 744.737 537 744.788 537 744.839C537 744.891 537 744.942 537 744.994C537 745.047 537 745.099 537 745.152C537 745.205 537 745.258 537 745.311C537 745.365 537 745.419 537 745.473C537 745.528 537 745.582 537 745.637C537 745.692 537 745.748 537 745.804C537 745.86 537 745.916 537 745.972C537 746.029 537 746.086 537 746.143C537 746.2 537 746.258 537 746.316C537 746.374 537 746.432 537 746.491C537 746.55 537 746.609 537 746.668C537 746.728 537 746.788 537 746.848C537 746.908 537 746.969 537 747.03C537 747.09 537 747.152 537 747.213C537 747.275 537 747.337 537 747.399C537 747.462 537 747.524 537 747.588C537 747.651 537 747.714 537 747.778C537 747.842 537 747.906 537 747.97C537 748.035 537 748.1 537 748.165C537 748.23 537 748.296 537 748.362C537 748.427 537 748.494 537 748.56C537 748.627 537 748.694 537 748.761C537 748.829 537 748.896 537 748.964C537 749.032 537 749.101 537 749.169C537 749.238 537 749.307 537 749.377C537 749.446 537 749.516 537 749.586C537 749.656 537 749.727 537 749.797C537 749.868 537 749.939 537 750.011C537 750.082 537 750.154 537 750.226C537 750.298 537 750.371 537 750.444C537 750.517 537 750.59 537 750.663C537 750.737 537 750.811 537 750.885C537 750.959 537 751.034 537 751.109C537 751.184 537 751.259 537 751.334C537 751.41 537 751.486 537 751.562C537 751.638 537 751.715 537 751.792C537 751.869 537 751.946 537 752.024C537 752.101 537 752.179 537 752.257C537 752.335 537 752.414 537 752.493C537 752.572 537 752.651 537 752.731C537 752.81 537 752.89 537 752.97C537 753.05 537 753.131 537 753.212C537 753.293 537 753.374 537 753.455C537 753.537 537 753.619 537 753.701C537 753.783 537 753.866 537 753.948C537 754.031 537 754.114 537 754.198C537 754.281 537 754.365 537 754.449C537 754.533 537 754.618 537 754.702C537 754.787 537 754.872 537 754.958C537 755.043 537 755.129 537 755.215C537 755.301 537 755.387 537 755.474C537 755.56 537 755.647 537 755.735C537 755.822 537 755.909 537 755.997C537 756.085 537 756.173 537 756.262C537 756.351 537 756.439 537 756.529C537 756.618 537 756.707 537 756.797C537 756.887 537 756.977 537 757.067C537 757.158 537 757.248 537 757.339C537 757.43 537 757.522 537 757.613C537 757.705 537 757.797 537 757.889C537 757.981 537 758.074 537 758.167C537 758.259 537 758.353 537 758.446C537 758.539 537 758.633 537 758.727C537 758.821 537 758.916 537 759.01C537 759.105 537 759.2 537 759.295C537 759.39 537 759.486 537 759.582C537 759.678 537 759.774 537 759.87C537 759.967 537 760.063 537 760.161C537 760.258 537 760.355 537 760.452C537 760.55 537 760.648 537 760.746C537 760.844 537 760.943 537 761.042C537 761.141 537 761.24 537 761.339C537 761.438 537 761.538 537 761.638C537 761.738 537 761.838 537 761.939C537 762.039 537 762.14 537 762.241C537 762.342 537 762.444 537 762.545C537 762.647 537 762.749 537 762.851C537 762.954 537 763.056 537 763.159C537 763.262 537 763.365 537 763.468C537 763.572 537 763.675 537 763.779C537 763.883 537 763.987 537 764.092C537 764.197 537 764.301 537 764.406C537 764.511 537 764.617 537 764.722C537 764.828 537 764.934 537 765.04C537 765.146 537 765.253 537 765.359C537 765.466 537 765.573 537 765.681C537 765.788 537 765.895 537 766.003C537 766.111 537 766.219 537 766.327C537 766.436 537 766.544 537 766.653C537 766.762 537 766.871 537 766.981C537 767.09 537 767.2 537 767.31C537 767.42 537 767.53 537 767.641C537 767.751 537 767.862 537 767.973C537 768.084 537 768.196 537 768.307C537 768.419 537 768.531 537 768.643C537 768.755 537 768.867 537 768.98C537 769.093 537 769.205 537 769.319C537 769.432 537 769.545 537 769.659C537 769.773 537 769.886 537 770.001C537 770.115 537 770.229 537 770.344C537 770.459 537 770.574 537 770.689C537 770.804 537 770.92 537 771.035C537 771.151 537 771.267 537 771.383C537 771.5 537 771.616 537 771.733C537 771.85 537 771.967 537 772.084C537 772.201 537 772.319 537 772.436C537 772.554 537 772.672 537 772.79C537 772.909 537 773.027 537 773.146C537 773.265 537 773.384 537 773.503C537 773.622 537 773.742 537 773.861C537 773.981 537 774.101 537 774.221C537 774.341 537 774.462 537 774.583C537 774.703 537 774.824 537 774.946C537 775.067 537 775.188 537 775.31C537 775.432 537 775.553 537 775.676C537 775.798 537 775.92 537 776.043C537 776.165 537 776.288 537 776.411C537 776.534 537 776.658 537 776.781C537 776.905 537 777.029 537 777.153C537 777.277 537 777.401 537 777.526C537 777.65 537 777.775 537 777.9C537 778.025 537 778.15 537 778.276C537 778.401 537 778.527 537 778.653C537 778.779 537 778.905 537 779.031C537 779.157 537 779.284 537 779.411C537 779.538 537 779.665 537 779.792C537 779.919 537 780.047 537 780.174C537 780.302 537 780.43 537 780.558C537 780.686 537 780.815 537 780.943C537 781.072 537 781.201 537 781.33C537 781.459 537 781.588 537 781.718C537 781.847 537 781.977 537 782.107C537 782.237 537 782.367 537 782.497C537 782.628 537 782.758 537 782.889C537 783.02 537 783.151 537 783.282C537 783.413 537 783.545 537 783.677C537 783.808 537 783.94 537 784.072C537 784.204 537 784.337 537 784.469C537 784.602 537 784.734 537 784.867C537 785 537 785.133 537 785.267C537 785.4 537 785.534 537 785.668C537 785.801 537 785.935 537 786.07C537 786.204 537 786.338 537 786.473C537 786.607 537 786.742 537 786.877C537 787.012 537 787.147 537 787.283C537 787.418 537 787.554 537 787.69C537 787.826 537 787.962 537 788.098C537 788.234 537 788.37 537 788.507C537 788.644 537 788.781 537 788.918C537 789.055 537 789.192 537 789.329C537 789.467 537 789.604 537 789.742C537 789.88 537 790.018 537 790.156C537 790.294 537 790.433 537 790.571C537 790.71 537 790.849 537 790.988C537 791.127 537 791.266 537 791.405C537 791.545 537 791.684 537 791.824C537 791.964 537 792.104 537 792.244C537 792.384 537 792.524 537 792.665C537 792.805 537 792.946 537 793.087C537 793.228 537 793.369 537 793.51C537 793.651 537 793.793 537 793.934C537 794.076 537 794.218 537 794.36C537 794.502 537 794.644 537 794.786C537 794.929 537 795.071 537 795.214C537 795.356 537 795.499 537 795.642C537 795.786 537 795.929 537 796.072C537 796.216 537 796.359 537 796.503C537 796.647 537 796.791 537 796.935C537 797.079 537 797.223 537 797.368C537 797.512 537 797.657 537 797.802C537 797.947 537 798.092 537 798.237C537 798.382 537 798.527 537 798.673C537 798.818 537 798.964 537 799.11C537 799.256 537 799.402 537 799.548C537 799.694 537 799.841 537 799.987C537 800.134 537 800.28 537 800.427C537 800.574 537 800.721 537 800.868C537 801.016 537 801.163 537 801.311C537 801.458 537 801.606 537 801.754C537 801.901 537 802.049 537 802.198C537 802.346 537 802.494 537 802.643C537 802.791 537 802.94 537 803.089C537 803.237 537 803.386 537 803.536C537 803.685 537 803.834 537 803.983C537 804.133 537 804.283 537 804.432C537 804.582 537 804.732 537 804.882C537 805.032 537 805.182 537 805.333C537 805.483 537 805.634 537 805.784C537 805.935 537 806.086 537 806.237C537 806.388 537 806.539 537 806.69C537 806.841 537 806.993 537 807.144C537 807.296 537 807.448 537 807.6C537 807.752 537 807.904 537 808.056C537 808.208 537 808.36 537 808.513C537 808.665 537 808.818 537 808.971C537 809.123 537 809.276 537 809.429C537 809.582 537 809.735 537 809.889C537 810.042 537 810.195 537 810.349C537 810.503 537 810.656 537 810.81C537 810.964 537 811.118 537 811.272C537 811.426 537 811.581 537 811.735C537 811.89 537 812.044 537 812.199C537 812.354 537 812.508 537 812.663C537 812.818 537 812.973 537 813.129C537 813.284 537 813.439 537 813.595C537 813.75 537 813.906 537 814.062C537 814.217 537 814.373 537 814.529C537 814.685 537 814.841 537 814.998C537 815.154 537 815.31 537 815.467C537 815.623 537 815.78 537 815.937C537 816.094 537 816.251 537 816.408C537 816.565 537 816.722 537 816.879C537 817.036 537 817.194 537 817.351C537 817.509 537 817.666 537 817.824C537 817.982 537 818.14 537 818.298C537 818.456 537 818.614 537 818.772C537 818.93 537 819.089 537 819.247C537 819.406 537 819.564 537 819.723C537 819.882 537 820.04 537 820.199C537 820.358 537 820.517 537 820.677C537 820.836 537 820.995 537 821.154C537 821.314 537 821.473 537 821.633C537 821.793 537 821.952 537 822.112C537 822.272 537 822.432 537 822.592C537 822.752 537 822.912 537 823.072C537 823.233 537 823.393 537 823.554C537 823.714 537 823.875 537 824.035C537 824.196 537 824.357 537 824.518C537 824.679 537 824.84 537 825.001C537 825.162 537 825.323 537 825.484C537 825.646 537 825.807 537 825.969C537 826.13 537 826.292 537 826.453C537 826.615 537 826.777 537 826.939C537 827.101 537 827.263 537 827.425C537 827.587 537 827.749 537 827.911C537 828.074 537 828.236 537 828.399C537 828.561 537 828.724 537 828.886C537 829.049 537 829.212 537 829.375C537 829.538 537 829.701 537 829.864C537 830.027 537 830.19 537 830.353C537 830.516 537 830.679 537 830.843C537 831.006 537 831.17 537 831.333C537 831.497 537 831.661 537 831.824C537 831.988 537 832.152 537 832.316C537 832.48 537 832.644 537 832.808C537 832.972 537 833.136 537 833.3C537 833.465 537 833.629 537 833.793C537 833.958 537 834.122 537 834.287C537 834.451 537 834.616 537 834.781C537 834.945 537 835.11 537 835.275C537 835.44 537 835.605 537 835.77C537 835.935 537 836.1 537 836.265C537 836.431 537 836.596 537 836.761C537 836.927 537 837.092 537 837.258C537 837.423 537 837.589 537 837.754C537 837.92 537 838.086 537 838.251C537 838.417 537 838.583 537 838.749C537 838.915 537 839.081 537 839.247C537 839.413 537 839.579 537 839.745C537 839.911 537 840.078 537 840.244C537 840.41 537 840.577 537 840.743C537 840.91 537 841.076 537 841.243C537 841.409 537 841.576 537 841.743C537 841.909 537 842.076 537 842.243C537 842.41 537 842.577 537 842.743C537 842.91 537 843.077 537 843.244C537 843.412 537 843.579 537 843.746C537 843.913 537 844.08 537 844.248C537 844.415 537 844.582 537 844.75C537 844.917 537 845.084 537 845.252C537 845.419 537 845.587 537 845.755C537 845.922 537 846.09 537 846.258C537 846.425 537 846.593 537 846.761C537 846.929 537 847.097 537 847.265C537 847.432 537 847.6 537 847.768C537 847.936 537 848.104 537 848.273C537 848.441 537 848.609 537 848.777C537 848.945 537 849.113 537 849.282C537 849.45 537 849.618 537 849.787C537 849.955 537 850.124 537 850.292C537 850.46 537 850.629 537 850.798C537 850.966 537 851.135 537 851.303C537 851.472 537 851.641 537 851.809C537 851.978 537 852.147 537 852.315C537 852.484 537 852.653 537 852.822C537 852.991 537 853.16 537 853.329C537 853.497 537 853.666 537 853.835C537 854.004 537 854.173 537 854.342C537 854.511 537 854.681 537 854.85C537 855.019 537 855.188 537 855.357C537 855.526 537 855.695 537 855.865C537 856.034 537 856.203 537 856.372C537 856.542 537 856.711 537 856.88C537 857.05 537 857.219 537 857.388C537 857.558 537 857.727 537 857.897C537 858.066 537 858.236 537 858.405C537 858.575 537 858.744 537 858.914C537 859.083 537 859.253 537 859.422C537 859.592 537 859.761 537 859.931C537 860.101 537 860.27 537 860.44C537 860.609 537 860.779 537 860.949C537 861.118 537 861.288 537 861.458C537 861.628 537 861.797 537 861.967C537 862.137 537 862.307 537 862.476C537 862.646 537 862.816 537 862.986C537 863.155 537 863.325 537 863.495C537 863.665 537 863.835 537 864.004C537 864.174 537 864.344 537 864.514C537 864.684 537 864.854 537 865.023C537 865.193 537 865.363 537 865.533C537 865.703 537 865.873 537 866.043C537 866.213 537 866.383 537 866.552C537 866.722 537 866.892 537 867.062C537 867.232 537 867.402 537 867.572C537 867.742 537 867.912 537 868.081C537 868.251 537 868.421 537 868.591C537 868.761 537 868.931 537 869.101C537 869.271 537 869.441 537 869.611C537 869.78 537 869.95 537 870.12C537 870.29 537 870.46 537 870.63C537 870.8 537 870.969 537 871.139C537 871.309 537 871.479 537 871.649C537 871.819 537 871.989 537 872.158C537 872.328 537 872.498 537 872.668C537 872.838 537 873.007 537 873.177C537 873.347 537 873.517 537 873.686C537 873.856 537 874.026 537 874.196C537 874.365 537 874.535 537 874.705C537 874.874 537 875.044 537 875.214C537 875.383 537 875.553 537 875.723C537 875.892 537 876.062 537 876.231C537 876.401 537 876.571 537 876.74C537 876.91 537 877.079 537 877.249C537 877.418 537 877.588 537 877.757C537 877.927 537 878.096 537 878.265C537 878.435 537 878.604 537 878.773C537 878.943 537 879.112 537 879.281C537 879.451 537 879.62 537 879.789C537 879.959 537 880.128 537 880.297C537 880.466 537 880.635 537 880.804C537 880.974 537 881.143 537 881.312C537 881.481 537 881.65 537 881.819C537 881.988 537 882.157 537 882.326C537 882.495 537 882.664 537 882.832C537 883.001 537 883.17 537 883.339C537 883.508 537 883.677 537 883.845C537 884.014 537 884.183 537 884.351C537 884.52 537 884.689 537 884.857C537 885.026 537 885.194 537 885.363C537 885.531 537 885.7 537 885.868C537 886.036 537 886.205 537 886.373C537 886.541 537 886.71 537 886.878C537 887.046 537 887.214 537 887.383C537 887.551 537 887.719 537 887.887C537 888.055 537 888.223 537 888.391C537 888.559 537 888.727 537 888.895C537 889.062 537 889.23 537 889.398C537 889.566 537 889.733 537 889.901C537 890.069 537 890.236 537 890.404C537 890.571 537 890.739 537 890.906C537 891.074 537 891.241 537 891.408C537 891.576 537 891.743 537 891.91C537 892.078 537 892.245 537 892.412C537 892.579 537 892.746 537 892.913C537 893.08 537 893.247 537 893.414C537 893.581 537 893.747 537 893.914C537 894.081 537 894.248 537 894.414C537 894.581 537 894.747 537 894.914C537 895.08 537 895.247 537 895.413C537 895.579 537 895.746 537 895.912C537 896.078 537 896.244 537 896.411C537 896.577 537 896.743 537 896.909C537 897.075 537 897.241 537 897.406C537 897.572 537 897.738 537 897.904C537 898.069 537 898.235 537 898.4C537 898.566 537 898.731 537 898.897C537 899.062 537 899.228 537 899.393C537 899.558 537 899.723 537 899.888C537 900.053 537 900.218 537 900.383C537 900.548 537 900.713 537 900.878C537 901.043 537 901.207 537 901.372C537 901.537 537 901.701 537 901.866C537 902.03 537 902.195 537 902.359C537 902.523 537 902.688 537 902.852C537 903.016 537 903.18 537 903.344C537 903.508 537 903.672 537 903.836C537 903.999 537 904.163 537 904.327C537 904.49 537 904.654 537 904.817C537 904.981 537 905.144 537 905.307C537 905.471 537 905.634 537 905.797C537 905.96 537 906.123 537 906.286C537 906.449 537 906.612 537 906.775C537 906.937 537 907.1 537 907.263C537 907.425 537 907.588 537 907.75C537 907.912 537 908.075 537 908.237C537 908.399 537 908.561 537 908.723C537 908.885 537 909.047 537 909.209C537 909.37 537 909.532 537 909.694C537 909.855 537 910.017 537 910.178C537 910.339 537 910.501 537 910.662C537 910.823 537 910.984 537 911.145C537 911.306 537 911.467 537 911.628C537 911.789 537 911.949 537 912.11C537 912.27 537 912.431 537 912.591C537 912.751 537 912.912 537 913.072C537 913.232 537 913.392 537 913.552C537 913.712 537 913.872 537 914.031C537 914.191 537 914.351 537 914.51C537 914.67 537 914.829 537 914.988C537 915.147 537 915.307 537 915.466C537 915.625 537 915.783 537 915.942C537 916.101 537 916.26 537 916.418C537 916.577 537 916.735 537 916.894C537 917.052 537 917.21 537 917.368C537 917.526 537 917.684 537 917.842C537 918 537 918.158 537 918.315C537 918.473 537 918.63 537 918.788C537 918.945 537 919.102 537 919.259C537 919.417 537 919.574 537 919.73C537 919.887 537 920.044 537 920.201C537 920.357 537 920.514 537 920.67C537 920.827 537 920.983 537 921.139C537 921.295 537 921.451 537 921.607C537 921.763 537 921.918 537 922.074C537 922.23 537 922.385 537 922.54C537 922.696 537 922.851 537 923.006C537 923.161 537 923.316 537 923.471C537 923.625 537 923.78 537 923.935C537 924.089 537 924.244 537 924.398C537 924.552 537 924.706 537 924.86C537 925.014 537 925.168 537 925.322C537 925.475 537 925.629 537 925.782C537 925.936 537 926.089 537 926.242C537 926.395 537 926.548 537 926.701C537 926.854 537 927.007 537 927.159C537 927.312 537 927.464 537 927.617C537 927.769 537 927.921 537 928.073C537 928.225 537 928.377 537 928.528C537 928.68 537 928.832 537 928.983C537 929.134 537 929.286 537 929.437C537 929.588 537 929.739 537 929.89C537 930.04 537 930.191 537 930.342C537 930.492 537 930.642 537 930.793C537 930.943 537 931.093 537 931.243C537 931.392 537 931.542 537 931.692C537 931.841 537 931.991 537 932.14C537 932.289 537 932.438 537 932.587C537 932.736 537 932.885 537 933.034C537 933.182 537 933.331 537 933.479C537 933.627 537 933.775 537 933.923H542H547C547 933.775 547 933.627 547 933.479C547 933.331 547 933.182 547 933.034C547 932.885 547 932.736 547 932.587C547 932.438 547 932.289 547 932.14C547 931.991 547 931.841 547 931.692C547 931.542 547 931.392 547 931.243C547 931.093 547 930.943 547 930.793C547 930.642 547 930.492 547 930.342C547 930.191 547 930.04 547 929.89C547 929.739 547 929.588 547 929.437C547 929.286 547 929.134 547 928.983C547 928.832 547 928.68 547 928.528C547 928.377 547 928.225 547 928.073C547 927.921 547 927.769 547 927.617C547 927.464 547 927.312 547 927.159C547 927.007 547 926.854 547 926.701C547 926.548 547 926.395 547 926.242C547 926.089 547 925.936 547 925.782C547 925.629 547 925.475 547 925.322C547 925.168 547 925.014 547 924.86C547 924.706 547 924.552 547 924.398C547 924.244 547 924.089 547 923.935C547 923.78 547 923.625 547 923.471C547 923.316 547 923.161 547 923.006C547 922.851 547 922.696 547 922.54C547 922.385 547 922.23 547 922.074C547 921.918 547 921.763 547 921.607C547 921.451 547 921.295 547 921.139C547 920.983 547 920.827 547 920.67C547 920.514 547 920.357 547 920.201C547 920.044 547 919.887 547 919.73C547 919.574 547 919.417 547 919.259C547 919.102 547 918.945 547 918.788C547 918.63 547 918.473 547 918.315C547 918.158 547 918 547 917.842C547 917.684 547 917.526 547 917.368C547 917.21 547 917.052 547 916.894C547 916.735 547 916.577 547 916.418C547 916.26 547 916.101 547 915.942C547 915.783 547 915.625 547 915.466C547 915.307 547 915.147 547 914.988C547 914.829 547 914.67 547 914.51C547 914.351 547 914.191 547 914.031C547 913.872 547 913.712 547 913.552C547 913.392 547 913.232 547 913.072C547 912.912 547 912.751 547 912.591C547 912.431 547 912.27 547 912.11C547 911.949 547 911.789 547 911.628C547 911.467 547 911.306 547 911.145C547 910.984 547 910.823 547 910.662C547 910.501 547 910.339 547 910.178C547 910.017 547 909.855 547 909.694C547 909.532 547 909.37 547 909.209C547 909.047 547 908.885 547 908.723C547 908.561 547 908.399 547 908.237C547 908.075 547 907.912 547 907.75C547 907.588 547 907.425 547 907.263C547 907.1 547 906.937 547 906.775C547 906.612 547 906.449 547 906.286C547 906.123 547 905.96 547 905.797C547 905.634 547 905.471 547 905.307C547 905.144 547 904.981 547 904.817C547 904.654 547 904.49 547 904.327C547 904.163 547 903.999 547 903.836C547 903.672 547 903.508 547 903.344C547 903.18 547 903.016 547 902.852C547 902.688 547 902.523 547 902.359C547 902.195 547 902.03 547 901.866C547 901.701 547 901.537 547 901.372C547 901.207 547 901.043 547 900.878C547 900.713 547 900.548 547 900.383C547 900.218 547 900.053 547 899.888C547 899.723 547 899.558 547 899.393C547 899.228 547 899.062 547 898.897C547 898.731 547 898.566 547 898.4C547 898.235 547 898.069 547 897.904C547 897.738 547 897.572 547 897.406C547 897.241 547 897.075 547 896.909C547 896.743 547 896.577 547 896.411C547 896.244 547 896.078 547 895.912C547 895.746 547 895.579 547 895.413C547 895.247 547 895.08 547 894.914C547 894.747 547 894.581 547 894.414C547 894.248 547 894.081 547 893.914C547 893.747 547 893.581 547 893.414C547 893.247 547 893.08 547 892.913C547 892.746 547 892.579 547 892.412C547 892.245 547 892.078 547 891.91C547 891.743 547 891.576 547 891.408C547 891.241 547 891.074 547 890.906C547 890.739 547 890.571 547 890.404C547 890.236 547 890.069 547 889.901C547 889.733 547 889.566 547 889.398C547 889.23 547 889.062 547 888.895C547 888.727 547 888.559 547 888.391C547 888.223 547 888.055 547 887.887C547 887.719 547 887.551 547 887.383C547 887.214 547 887.046 547 886.878C547 886.71 547 886.541 547 886.373C547 886.205 547 886.036 547 885.868C547 885.7 547 885.531 547 885.363C547 885.194 547 885.026 547 884.857C547 884.689 547 884.52 547 884.351C547 884.183 547 884.014 547 883.845C547 883.677 547 883.508 547 883.339C547 883.17 547 883.001 547 882.832C547 882.664 547 882.495 547 882.326C547 882.157 547 881.988 547 881.819C547 881.65 547 881.481 547 881.312C547 881.143 547 880.974 547 880.804C547 880.635 547 880.466 547 880.297C547 880.128 547 879.959 547 879.789C547 879.62 547 879.451 547 879.281C547 879.112 547 878.943 547 878.773C547 878.604 547 878.435 547 878.265C547 878.096 547 877.927 547 877.757C547 877.588 547 877.418 547 877.249C547 877.079 547 876.91 547 876.74C547 876.571 547 876.401 547 876.231C547 876.062 547 875.892 547 875.723C547 875.553 547 875.383 547 875.214C547 875.044 547 874.874 547 874.705C547 874.535 547 874.365 547 874.196C547 874.026 547 873.856 547 873.686C547 873.517 547 873.347 547 873.177C547 873.007 547 872.838 547 872.668C547 872.498 547 872.328 547 872.158C547 871.989 547 871.819 547 871.649C547 871.479 547 871.309 547 871.139C547 870.969 547 870.8 547 870.63C547 870.46 547 870.29 547 870.12C547 869.95 547 869.78 547 869.611C547 869.441 547 869.271 547 869.101C547 868.931 547 868.761 547 868.591C547 868.421 547 868.251 547 868.081C547 867.912 547 867.742 547 867.572C547 867.402 547 867.232 547 867.062C547 866.892 547 866.722 547 866.552C547 866.383 547 866.213 547 866.043C547 865.873 547 865.703 547 865.533C547 865.363 547 865.193 547 865.023C547 864.854 547 864.684 547 864.514C547 864.344 547 864.174 547 864.004C547 863.835 547 863.665 547 863.495C547 863.325 547 863.155 547 862.986C547 862.816 547 862.646 547 862.476C547 862.307 547 862.137 547 861.967C547 861.797 547 861.628 547 861.458C547 861.288 547 861.118 547 860.949C547 860.779 547 860.609 547 860.44C547 860.27 547 860.101 547 859.931C547 859.761 547 859.592 547 859.422C547 859.253 547 859.083 547 858.914C547 858.744 547 858.575 547 858.405C547 858.236 547 858.066 547 857.897C547 857.727 547 857.558 547 857.388C547 857.219 547 857.05 547 856.88C547 856.711 547 856.542 547 856.372C547 856.203 547 856.034 547 855.865C547 855.695 547 855.526 547 855.357C547 855.188 547 855.019 547 854.85C547 854.681 547 854.511 547 854.342C547 854.173 547 854.004 547 853.835C547 853.666 547 853.497 547 853.329C547 853.16 547 852.991 547 852.822C547 852.653 547 852.484 547 852.315C547 852.147 547 851.978 547 851.809C547 851.641 547 851.472 547 851.303C547 851.135 547 850.966 547 850.798C547 850.629 547 850.46 547 850.292C547 850.124 547 849.955 547 849.787C547 849.618 547 849.45 547 849.282C547 849.113 547 848.945 547 848.777C547 848.609 547 848.441 547 848.273C547 848.104 547 847.936 547 847.768C547 847.6 547 847.432 547 847.265C547 847.097 547 846.929 547 846.761C547 846.593 547 846.425 547 846.258C547 846.09 547 845.922 547 845.755C547 845.587 547 845.419 547 845.252C547 845.084 547 844.917 547 844.75C547 844.582 547 844.415 547 844.248C547 844.08 547 843.913 547 843.746C547 843.579 547 843.412 547 843.244C547 843.077 547 842.91 547 842.743C547 842.577 547 842.41 547 842.243C547 842.076 547 841.909 547 841.743C547 841.576 547 841.409 547 841.243C547 841.076 547 840.91 547 840.743C547 840.577 547 840.41 547 840.244C547 840.078 547 839.911 547 839.745C547 839.579 547 839.413 547 839.247C547 839.081 547 838.915 547 838.749C547 838.583 547 838.417 547 838.251C547 838.086 547 837.92 547 837.754C547 837.589 547 837.423 547 837.258C547 837.092 547 836.927 547 836.761C547 836.596 547 836.431 547 836.265C547 836.1 547 835.935 547 835.77C547 835.605 547 835.44 547 835.275C547 835.11 547 834.945 547 834.781C547 834.616 547 834.451 547 834.287C547 834.122 547 833.958 547 833.793C547 833.629 547 833.465 547 833.3C547 833.136 547 832.972 547 832.808C547 832.644 547 832.48 547 832.316C547 832.152 547 831.988 547 831.824C547 831.661 547 831.497 547 831.333C547 831.17 547 831.006 547 830.843C547 830.679 547 830.516 547 830.353C547 830.19 547 830.027 547 829.864C547 829.701 547 829.538 547 829.375C547 829.212 547 829.049 547 828.886C547 828.724 547 828.561 547 828.399C547 828.236 547 828.074 547 827.911C547 827.749 547 827.587 547 827.425C547 827.263 547 827.101 547 826.939C547 826.777 547 826.615 547 826.453C547 826.292 547 826.13 547 825.969C547 825.807 547 825.646 547 825.484C547 825.323 547 825.162 547 825.001C547 824.84 547 824.679 547 824.518C547 824.357 547 824.196 547 824.035C547 823.875 547 823.714 547 823.554C547 823.393 547 823.233 547 823.072C547 822.912 547 822.752 547 822.592C547 822.432 547 822.272 547 822.112C547 821.952 547 821.793 547 821.633C547 821.473 547 821.314 547 821.154C547 820.995 547 820.836 547 820.677C547 820.517 547 820.358 547 820.199C547 820.04 547 819.882 547 819.723C547 819.564 547 819.406 547 819.247C547 819.089 547 818.93 547 818.772C547 818.614 547 818.456 547 818.298C547 818.14 547 817.982 547 817.824C547 817.666 547 817.509 547 817.351C547 817.194 547 817.036 547 816.879C547 816.722 547 816.565 547 816.408C547 816.251 547 816.094 547 815.937C547 815.78 547 815.623 547 815.467C547 815.31 547 815.154 547 814.998C547 814.841 547 814.685 547 814.529C547 814.373 547 814.217 547 814.062C547 813.906 547 813.75 547 813.595C547 813.439 547 813.284 547 813.129C547 812.973 547 812.818 547 812.663C547 812.508 547 812.354 547 812.199C547 812.044 547 811.89 547 811.735C547 811.581 547 811.426 547 811.272C547 811.118 547 810.964 547 810.81C547 810.656 547 810.503 547 810.349C547 810.195 547 810.042 547 809.889C547 809.735 547 809.582 547 809.429C547 809.276 547 809.123 547 808.971C547 808.818 547 808.665 547 808.513C547 808.36 547 808.208 547 808.056C547 807.904 547 807.752 547 807.6C547 807.448 547 807.296 547 807.144C547 806.993 547 806.841 547 806.69C547 806.539 547 806.388 547 806.237C547 806.086 547 805.935 547 805.784C547 805.634 547 805.483 547 805.333C547 805.182 547 805.032 547 804.882C547 804.732 547 804.582 547 804.432C547 804.283 547 804.133 547 803.983C547 803.834 547 803.685 547 803.536C547 803.386 547 803.237 547 803.089C547 802.94 547 802.791 547 802.643C547 802.494 547 802.346 547 802.198C547 802.049 547 801.901 547 801.754C547 801.606 547 801.458 547 801.311C547 801.163 547 801.016 547 800.868C547 800.721 547 800.574 547 800.427C547 800.28 547 800.134 547 799.987C547 799.841 547 799.694 547 799.548C547 799.402 547 799.256 547 799.11C547 798.964 547 798.818 547 798.673C547 798.527 547 798.382 547 798.237C547 798.092 547 797.947 547 797.802C547 797.657 547 797.512 547 797.368C547 797.223 547 797.079 547 796.935C547 796.791 547 796.647 547 796.503C547 796.359 547 796.216 547 796.072C547 795.929 547 795.786 547 795.642C547 795.499 547 795.356 547 795.214C547 795.071 547 794.929 547 794.786C547 794.644 547 794.502 547 794.36C547 794.218 547 794.076 547 793.934C547 793.793 547 793.651 547 793.51C547 793.369 547 793.228 547 793.087C547 792.946 547 792.805 547 792.665C547 792.524 547 792.384 547 792.244C547 792.104 547 791.964 547 791.824C547 791.684 547 791.545 547 791.405C547 791.266 547 791.127 547 790.988C547 790.849 547 790.71 547 790.571C547 790.433 547 790.294 547 790.156C547 790.018 547 789.88 547 789.742C547 789.604 547 789.467 547 789.329C547 789.192 547 789.055 547 788.918C547 788.781 547 788.644 547 788.507C547 788.37 547 788.234 547 788.098C547 787.962 547 787.826 547 787.69C547 787.554 547 787.418 547 787.283C547 787.147 547 787.012 547 786.877C547 786.742 547 786.607 547 786.473C547 786.338 547 786.204 547 786.07C547 785.935 547 785.801 547 785.668C547 785.534 547 785.4 547 785.267C547 785.133 547 785 547 784.867C547 784.734 547 784.602 547 784.469C547 784.337 547 784.204 547 784.072C547 783.94 547 783.808 547 783.677C547 783.545 547 783.413 547 783.282C547 783.151 547 783.02 547 782.889C547 782.758 547 782.628 547 782.497C547 782.367 547 782.237 547 782.107C547 781.977 547 781.847 547 781.718C547 781.588 547 781.459 547 781.33C547 781.201 547 781.072 547 780.943C547 780.815 547 780.686 547 780.558C547 780.43 547 780.302 547 780.174C547 780.047 547 779.919 547 779.792C547 779.665 547 779.538 547 779.411C547 779.284 547 779.157 547 779.031C547 778.905 547 778.779 547 778.653C547 778.527 547 778.401 547 778.276C547 778.15 547 778.025 547 777.9C547 777.775 547 777.65 547 777.526C547 777.401 547 777.277 547 777.153C547 777.029 547 776.905 547 776.781C547 776.658 547 776.534 547 776.411C547 776.288 547 776.165 547 776.043C547 775.92 547 775.798 547 775.676C547 775.553 547 775.432 547 775.31C547 775.188 547 775.067 547 774.946C547 774.824 547 774.703 547 774.583C547 774.462 547 774.341 547 774.221C547 774.101 547 773.981 547 773.861C547 773.742 547 773.622 547 773.503C547 773.384 547 773.265 547 773.146C547 773.027 547 772.909 547 772.79C547 772.672 547 772.554 547 772.436C547 772.319 547 772.201 547 772.084C547 771.967 547 771.85 547 771.733C547 771.616 547 771.5 547 771.383C547 771.267 547 771.151 547 771.035C547 770.92 547 770.804 547 770.689C547 770.574 547 770.459 547 770.344C547 770.229 547 770.115 547 770.001C547 769.886 547 769.773 547 769.659C547 769.545 547 769.432 547 769.319C547 769.205 547 769.093 547 768.98C547 768.867 547 768.755 547 768.643C547 768.531 547 768.419 547 768.307C547 768.196 547 768.084 547 767.973C547 767.862 547 767.751 547 767.641C547 767.53 547 767.42 547 767.31C547 767.2 547 767.09 547 766.981C547 766.871 547 766.762 547 766.653C547 766.544 547 766.436 547 766.327C547 766.219 547 766.111 547 766.003C547 765.895 547 765.788 547 765.681C547 765.573 547 765.466 547 765.359C547 765.253 547 765.146 547 765.04C547 764.934 547 764.828 547 764.722C547 764.617 547 764.511 547 764.406C547 764.301 547 764.197 547 764.092C547 763.987 547 763.883 547 763.779C547 763.675 547 763.572 547 763.468C547 763.365 547 763.262 547 763.159C547 763.056 547 762.954 547 762.851C547 762.749 547 762.647 547 762.545C547 762.444 547 762.342 547 762.241C547 762.14 547 762.039 547 761.939C547 761.838 547 761.738 547 761.638C547 761.538 547 761.438 547 761.339C547 761.24 547 761.141 547 761.042C547 760.943 547 760.844 547 760.746C547 760.648 547 760.55 547 760.452C547 760.355 547 760.258 547 760.161C547 760.063 547 759.967 547 759.87C547 759.774 547 759.678 547 759.582C547 759.486 547 759.39 547 759.295C547 759.2 547 759.105 547 759.01C547 758.916 547 758.821 547 758.727C547 758.633 547 758.539 547 758.446C547 758.353 547 758.259 547 758.167C547 758.074 547 757.981 547 757.889C547 757.797 547 757.705 547 757.613C547 757.522 547 757.43 547 757.339C547 757.248 547 757.158 547 757.067C547 756.977 547 756.887 547 756.797C547 756.707 547 756.618 547 756.529C547 756.439 547 756.351 547 756.262C547 756.173 547 756.085 547 755.997C547 755.909 547 755.822 547 755.735C547 755.647 547 755.56 547 755.474C547 755.387 547 755.301 547 755.215C547 755.129 547 755.043 547 754.958C547 754.872 547 754.787 547 754.702C547 754.618 547 754.533 547 754.449C547 754.365 547 754.281 547 754.198C547 754.114 547 754.031 547 753.948C547 753.866 547 753.783 547 753.701C547 753.619 547 753.537 547 753.455C547 753.374 547 753.293 547 753.212C547 753.131 547 753.05 547 752.97C547 752.89 547 752.81 547 752.731C547 752.651 547 752.572 547 752.493C547 752.414 547 752.335 547 752.257C547 752.179 547 752.101 547 752.024C547 751.946 547 751.869 547 751.792C547 751.715 547 751.638 547 751.562C547 751.486 547 751.41 547 751.334C547 751.259 547 751.184 547 751.109C547 751.034 547 750.959 547 750.885C547 750.811 547 750.737 547 750.663C547 750.59 547 750.517 547 750.444C547 750.371 547 750.298 547 750.226C547 750.154 547 750.082 547 750.011C547 749.939 547 749.868 547 749.797C547 749.727 547 749.656 547 749.586C547 749.516 547 749.446 547 749.377C547 749.307 547 749.238 547 749.169C547 749.101 547 749.032 547 748.964C547 748.896 547 748.829 547 748.761C547 748.694 547 748.627 547 748.56C547 748.494 547 748.427 547 748.362C547 748.296 547 748.23 547 748.165C547 748.1 547 748.035 547 747.97C547 747.906 547 747.842 547 747.778C547 747.714 547 747.651 547 747.588C547 747.524 547 747.462 547 747.399C547 747.337 547 747.275 547 747.213C547 747.152 547 747.09 547 747.03C547 746.969 547 746.908 547 746.848C547 746.788 547 746.728 547 746.668C547 746.609 547 746.55 547 746.491C547 746.432 547 746.374 547 746.316C547 746.258 547 746.2 547 746.143C547 746.086 547 746.029 547 745.972C547 745.916 547 745.86 547 745.804C547 745.748 547 745.692 547 745.637C547 745.582 547 745.528 547 745.473C547 745.419 547 745.365 547 745.311C547 745.258 547 745.205 547 745.152C547 745.099 547 745.047 547 744.994C547 744.942 547 744.891 547 744.839C547 744.788 547 744.737 547 744.687C547 744.636 547 744.586 547 744.536C547 744.486 547 744.437 547 744.388C547 744.339 547 744.29 547 744.242C547 744.193 547 744.145 547 744.098C547 744.05 547 744.003 547 743.956C547 743.91 547 743.863 547 743.817C547 743.771 547 743.726 547 743.681C547 743.635 547 743.59 547 743.546C547 743.502 547 743.458 547 743.414C547 743.37 547 743.327 547 743.284C547 743.241 547 743.199 547 743.156C547 743.114 547 743.073 547 743.031C547 742.99 547 742.949 547 742.909C547 742.868 547 742.828 547 742.788C547 742.748 547 742.709 547 742.67C547 742.631 547 742.592 547 742.554C547 742.516 547 742.478 547 742.441C547 742.404 547 742.367 547 742.33C547 742.293 547 742.257 547 742.222C547 742.186 547 742.15 547 742.115C547 742.08 547 742.046 547 742.012C547 741.978 547 741.944 547 741.91C547 741.877 547 741.844 547 741.812C547 741.779 547 741.747 547 741.715C547 741.683 547 741.652 547 741.621C547 741.59 547 741.56 547 741.53C547 741.499 547 741.47 547 741.44C547 741.411 547 741.382 547 741.354C547 741.325 547 741.297 547 741.27C547 741.242 547 741.215 547 741.188C547 741.161 547 741.135 547 741.109C547 741.083 547 741.057 547 741.032C547 741.007 547 740.982 547 740.958C547 740.934 547 740.91 547 740.886C547 740.863 547 740.84 547 740.817C547 740.794 547 740.772 547 740.75C547 740.729 547 740.707 547 740.686C547 740.665 547 740.645 547 740.625C547 740.604 547 740.585 547 740.566C547 740.546 547 740.527 547 740.509C547 740.491 547 740.473 547 740.455C547 740.437 547 740.42 547 740.404C547 740.387 547 740.371 547 740.355C547 740.339 547 740.324 547 740.309C547 740.294 547 740.279 547 740.265C547 740.251 547 740.237 547 740.224C547 740.21 547 740.198 547 740.185C547 740.173 547 740.161 547 740.149C547 740.138 547 740.127 547 740.116C547 740.105 547 740.095 547 740.085C547 740.076 547 740.066 547 740.057C547 740.049 547 740.04 547 740.032C547 740.024 547 740.016 547 740.009C547 740.002 547 739.995 547 739.989C547 739.983 547 739.977 547 739.972C547 739.966 547 739.962 547 739.957C547 739.953 547 739.949 547 739.945C547 739.941 547 739.938 547 739.935C547 739.933 547 739.931 547 739.929C547 739.927 547 739.926 547 739.925C547 739.924 547 739.923 542 739.923Z" fill="#DEBB35"/>
<path d="M716.404 754.495L757.072 713.211L701 698.423L716.404 754.495Z" fill="#DEBB35"/>
</svg>
