<svg width="181" height="173" viewBox="0 0 181 173" fill="none" xmlns="http://www.w3.org/2000/svg">
<g id="Group" filter="url(#filter0_d_3516_1857)">
<path id="Vector" d="M123.671 110.35C142.172 110.35 157.171 95.3516 157.171 76.8501C157.171 58.3486 142.172 43.3501 123.671 43.3501C105.169 43.3501 90.1709 58.3486 90.1709 76.8501C90.1709 95.3516 105.169 110.35 123.671 110.35Z" stroke="#DEBB35" stroke-width="0.5" stroke-miterlimit="10" stroke-linecap="round" stroke-linejoin="round"/>
<path id="Vector_2" d="M56.6709 110.35C75.1724 110.35 90.1709 95.3516 90.1709 76.8501C90.1709 58.3486 75.1724 43.3501 56.6709 43.3501C38.1694 43.3501 23.1709 58.3486 23.1709 76.8501C23.1709 95.3516 38.1694 110.35 56.6709 110.35Z" stroke="#DEBB35" stroke-width="0.5" stroke-miterlimit="10" stroke-linecap="round" stroke-linejoin="round"/>
<g id="Group_2">
<path id="Vector_3" d="M90.1709 132.85C118.172 132.85 140.871 110.151 140.871 82.1502C140.871 54.1494 118.172 31.4502 90.1709 31.4502C62.1701 31.4502 39.4709 54.1494 39.4709 82.1502C39.4709 110.151 62.1701 132.85 90.1709 132.85Z" stroke="#DEBB35" stroke-width="0.5" stroke-linecap="round" stroke-linejoin="round" stroke-dasharray="2.55 2.55"/>
</g>
<g id="Group_3">
<path id="Vector_4" d="M90.171 164.05C135.403 164.05 172.071 127.382 172.071 82.15C172.071 36.9179 135.403 0.25 90.171 0.25C44.9389 0.25 8.271 36.9179 8.271 82.15C8.271 127.382 44.9389 164.05 90.171 164.05Z" stroke="#DEBB35" stroke-width="0.5" stroke-linecap="round" stroke-linejoin="round" stroke-dasharray="2.54 2.54"/>
</g>
<path id="Vector_5" d="M59.0711 87.15C62.7714 87.15 65.7711 84.1503 65.7711 80.45C65.7711 76.7497 62.7714 73.75 59.0711 73.75C55.3708 73.75 52.3711 76.7497 52.3711 80.45C52.3711 84.1503 55.3708 87.15 59.0711 87.15Z" stroke="#DEBB35" stroke-width="0.5" stroke-miterlimit="10" stroke-linecap="round" stroke-linejoin="round"/>
<path id="Vector_6" d="M121.271 87.15C124.971 87.15 127.971 84.1503 127.971 80.45C127.971 76.7497 124.971 73.75 121.271 73.75C117.571 73.75 114.571 76.7497 114.571 80.45C114.571 84.1503 117.571 87.15 121.271 87.15Z" stroke="#DEBB35" stroke-width="0.5" stroke-miterlimit="10" stroke-linecap="round" stroke-linejoin="round"/>
<path id="Vector_7" d="M90.171 159.05C132.642 159.05 167.071 124.621 167.071 82.15C167.071 39.6793 132.642 5.25 90.171 5.25C47.7003 5.25 13.271 39.6793 13.271 82.15C13.271 124.621 47.7003 159.05 90.171 159.05Z" stroke="#DEBB35" stroke-miterlimit="10" stroke-linecap="round" stroke-linejoin="round"/>
<g id="Group_4">
<path id="Vector_8" d="M90.171 154.05C129.88 154.05 162.071 121.859 162.071 82.15C162.071 42.4407 129.88 10.25 90.171 10.25C50.4617 10.25 18.271 42.4407 18.271 82.15C18.271 121.859 50.4617 154.05 90.171 154.05Z" stroke="#DEBB35" stroke-width="0.5" stroke-linecap="round" stroke-linejoin="round" stroke-dasharray="2.52 2.52"/>
</g>
<path id="Vector_9" d="M90.171 113.25C107.347 113.25 121.271 99.3259 121.271 82.1498C121.271 64.9737 107.347 51.0498 90.171 51.0498C72.995 51.0498 59.071 64.9737 59.071 82.1498C59.071 99.3259 72.995 113.25 90.171 113.25Z" stroke="#DEBB35" stroke-miterlimit="10" stroke-linecap="round" stroke-linejoin="round"/>
<path id="Vector_10" d="M13.9709 71.5498C38.1709 78.5498 63.7709 82.2498 90.1709 82.2498C116.571 82.2498 142.171 78.5498 166.371 71.5498" stroke="#DEBB35" stroke-miterlimit="10" stroke-linecap="round" stroke-linejoin="round"/>
<g id="Group_5">
<path id="Vector_11" d="M20.7173 78.2707C24.4272 74.5607 24.4272 68.5457 20.7173 64.8358C17.0073 61.1258 10.9923 61.1258 7.28239 64.8358C3.57245 68.5457 3.57244 74.5607 7.28239 78.2707C10.9923 81.9806 17.0073 81.9806 20.7173 78.2707Z" fill="#DEBB35"/>
<path id="Vector_12" d="M20.7173 78.2707C24.4272 74.5607 24.4272 68.5457 20.7173 64.8358C17.0073 61.1258 10.9923 61.1258 7.28239 64.8358C3.57245 68.5457 3.57244 74.5607 7.28239 78.2707C10.9923 81.9806 17.0073 81.9806 20.7173 78.2707Z" stroke="#DEBB35" stroke-miterlimit="10" stroke-linecap="round" stroke-linejoin="round"/>
<path id="Vector_13" d="M13.971 78.2501C17.6713 78.2501 20.671 75.2504 20.671 71.5501C20.671 67.8498 17.6713 64.8501 13.971 64.8501C10.2707 64.8501 7.271 67.8498 7.271 71.5501C7.271 75.2504 10.2707 78.2501 13.971 78.2501Z" fill="#DEBB35" stroke="#DEBB35" stroke-miterlimit="10" stroke-linecap="round" stroke-linejoin="round"/>
</g>
<g id="Group_6">
<path id="Vector_14" d="M168.416 80.823C173.541 79.7012 176.787 74.6368 175.665 69.5113C174.544 64.3858 169.479 61.1401 164.354 62.2619C159.228 63.3836 155.983 68.448 157.104 73.5735C158.226 78.699 163.29 81.9447 168.416 80.823Z" fill="#DEBB35"/>
<path id="Vector_15" d="M168.416 80.823C173.541 79.7012 176.787 74.6368 175.665 69.5113C174.544 64.3858 169.479 61.1401 164.354 62.2619C159.228 63.3836 155.983 68.448 157.104 73.5735C158.226 78.699 163.29 81.9447 168.416 80.823Z" stroke="#DEBB35" stroke-miterlimit="10" stroke-linecap="round" stroke-linejoin="round"/>
<path id="Vector_16" d="M166.371 78.2501C170.071 78.2501 173.071 75.2504 173.071 71.5501C173.071 67.8498 170.071 64.8501 166.371 64.8501C162.671 64.8501 159.671 67.8498 159.671 71.5501C159.671 75.2504 162.671 78.2501 166.371 78.2501Z" fill="#DEBB35" stroke="#DEBB35" stroke-miterlimit="10" stroke-linecap="round" stroke-linejoin="round"/>
</g>
<g id="Group_7">
<path id="Vector_17" d="M99.0874 85.5772C100.939 80.6683 98.4606 75.188 93.5518 73.3364C88.643 71.4848 83.1626 73.9632 81.311 78.8721C79.4595 83.7809 81.9379 89.2612 86.8467 91.1128C91.7555 92.9644 97.2359 90.486 99.0874 85.5772Z" fill="#DEBB35"/>
<path id="Vector_18" d="M99.0874 85.5772C100.939 80.6683 98.4606 75.188 93.5518 73.3364C88.643 71.4848 83.1626 73.9632 81.311 78.8721C79.4595 83.7809 81.9379 89.2612 86.8467 91.1128C91.7555 92.9644 97.2359 90.486 99.0874 85.5772Z" stroke="#DEBB35" stroke-miterlimit="10" stroke-linecap="round" stroke-linejoin="round"/>
<path id="Vector_19" d="M90.1709 88.9503C93.8713 88.9503 96.8709 85.9506 96.8709 82.2503C96.8709 78.55 93.8713 75.5503 90.1709 75.5503C86.4706 75.5503 83.4709 78.55 83.4709 82.2503C83.4709 85.9506 86.4706 88.9503 90.1709 88.9503Z" fill="#DEBB35" stroke="#DEBB35" stroke-miterlimit="10" stroke-linecap="round" stroke-linejoin="round"/>
</g>
<path id="Vector_20" d="M93.2711 159.05C93.2711 157.35 91.8711 155.95 90.1711 155.95C88.4711 155.95 87.071 157.35 87.071 159.05C87.071 160.75 88.4711 162.15 90.1711 162.15C91.8711 162.25 93.2711 160.75 93.2711 159.05Z" fill="#DEBB35" stroke="#DEBB35" stroke-miterlimit="10" stroke-linecap="round" stroke-linejoin="round"/>
<path id="Vector_21" d="M93.2711 5.2499C93.2711 3.5499 91.8711 2.1499 90.1711 2.1499C88.4711 2.1499 87.071 3.5499 87.071 5.2499C87.071 6.9499 88.4711 8.3499 90.1711 8.3499C91.8711 8.3499 93.2711 6.9499 93.2711 5.2499Z" fill="#DEBB35" stroke="#DEBB35" stroke-miterlimit="10" stroke-linecap="round" stroke-linejoin="round"/>
<path id="Vector_22" d="M62.271 80.4501C62.271 78.7501 60.871 77.3501 59.171 77.3501C57.471 77.3501 56.071 78.7501 56.071 80.4501C56.071 82.1501 57.471 83.5501 59.171 83.5501C60.871 83.6501 62.271 82.2501 62.271 80.4501Z" fill="#DEBB35" stroke="#DEBB35" stroke-miterlimit="10" stroke-linecap="round" stroke-linejoin="round"/>
<path id="Vector_23" d="M124.471 80.4501C124.471 78.7501 123.071 77.3501 121.371 77.3501C119.671 77.3501 118.271 78.7501 118.271 80.4501C118.271 82.1501 119.671 83.5501 121.371 83.5501C123.071 83.6501 124.471 82.2501 124.471 80.4501Z" fill="#DEBB35" stroke="#DEBB35" stroke-miterlimit="10" stroke-linecap="round" stroke-linejoin="round"/>
<path id="Vector_24" d="M90.1709 31.5498L69.9709 72.7498H110.371L90.1709 31.5498Z" stroke="#DEBB35" stroke-miterlimit="10" stroke-linecap="round" stroke-linejoin="round"/>
<path id="Vector_25" d="M90.1709 5.25L69.9709 46.35H110.371L90.1709 5.25Z" stroke="#DEBB35" stroke-miterlimit="10" stroke-linecap="round" stroke-linejoin="round"/>
<path id="Vector_26" d="M90.1709 132.85L110.371 91.75H69.9709L90.1709 132.85Z" stroke="#DEBB35" stroke-miterlimit="10" stroke-linecap="round" stroke-linejoin="round"/>
<path id="Vector_27" d="M90.1709 159.15L110.371 118.05H69.9709L90.1709 159.15Z" stroke="#DEBB35" stroke-miterlimit="10" stroke-linecap="round" stroke-linejoin="round"/>
<g id="Group_8">
<path id="Vector_28" d="M82.8711 118.05H97.4711L90.1711 132.85L82.8711 118.05Z" fill="#DEBB35"/>
<g id="Group_9">
<g id="Clip path group">
<mask id="mask0_3516_1857" style="mask-type:luminance" maskUnits="userSpaceOnUse" x="82" y="118" width="16" height="15">
<g id="SVGID_2_">
<path id="Vector_29" d="M82.8711 118.05H97.4711L90.1711 132.85L82.8711 118.05Z" fill="white"/>
</g>
</mask>
<g mask="url(#mask0_3516_1857)">
<g id="Group_10">
<path id="Vector_30" d="M95.9712 111.95L78.2712 129.55" stroke="#DEBB35" stroke-width="0.5" stroke-miterlimit="10" stroke-linecap="round" stroke-linejoin="round"/>
<path id="Vector_31" d="M97.1711 113.149L79.571 130.749" stroke="#DEBB35" stroke-width="0.5" stroke-miterlimit="10" stroke-linecap="round" stroke-linejoin="round"/>
<path id="Vector_32" d="M94.671 110.75L77.071 128.35" stroke="#DEBB35" stroke-width="0.5" stroke-miterlimit="10" stroke-linecap="round" stroke-linejoin="round"/>
<path id="Vector_33" d="M93.4711 109.55L75.8711 127.15" stroke="#DEBB35" stroke-width="0.5" stroke-miterlimit="10" stroke-linecap="round" stroke-linejoin="round"/>
<path id="Vector_34" d="M92.2711 108.35L74.6711 125.95" stroke="#DEBB35" stroke-width="0.5" stroke-miterlimit="10" stroke-linecap="round" stroke-linejoin="round"/>
<path id="Vector_35" d="M98.3712 114.35L80.7712 132.05" stroke="#DEBB35" stroke-width="0.5" stroke-miterlimit="10" stroke-linecap="round" stroke-linejoin="round"/>
<path id="Vector_36" d="M99.5712 115.649L81.9712 133.249" stroke="#DEBB35" stroke-width="0.5" stroke-miterlimit="10" stroke-linecap="round" stroke-linejoin="round"/>
<path id="Vector_37" d="M100.771 116.85L83.1711 134.45" stroke="#DEBB35" stroke-width="0.5" stroke-miterlimit="10" stroke-linecap="round" stroke-linejoin="round"/>
<path id="Vector_38" d="M102.071 118.05L84.3711 135.65" stroke="#DEBB35" stroke-width="0.5" stroke-miterlimit="10" stroke-linecap="round" stroke-linejoin="round"/>
<path id="Vector_39" d="M103.271 119.25L85.6711 136.85" stroke="#DEBB35" stroke-width="0.5" stroke-miterlimit="10" stroke-linecap="round" stroke-linejoin="round"/>
<path id="Vector_40" d="M104.471 120.45L86.8711 138.15" stroke="#DEBB35" stroke-width="0.5" stroke-miterlimit="10" stroke-linecap="round" stroke-linejoin="round"/>
<path id="Vector_41" d="M105.671 121.649L88.071 139.349" stroke="#DEBB35" stroke-width="0.5" stroke-miterlimit="10" stroke-linecap="round" stroke-linejoin="round"/>
</g>
</g>
</g>
</g>
<path id="Vector_42" d="M82.8711 118.05H97.4711L90.1711 132.85L82.8711 118.05Z" stroke="#DEBB35" stroke-miterlimit="10" stroke-linecap="round" stroke-linejoin="round"/>
</g>
<g id="Group_11">
<path id="Vector_43" d="M90.1711 31.5498L82.8711 46.3498H97.4711L90.1711 31.5498Z" fill="#DEBB35"/>
<g id="Group_12">
<g id="Clip path group_2">
<mask id="mask1_3516_1857" style="mask-type:luminance" maskUnits="userSpaceOnUse" x="82" y="31" width="16" height="16">
<g id="SVGID_4_">
<path id="Vector_44" d="M90.1711 31.5498L82.8711 46.3498H97.4711L90.1711 31.5498Z" fill="white"/>
</g>
</mask>
<g mask="url(#mask1_3516_1857)">
<g id="Group_13">
<path id="Vector_45" d="M95.9712 31.4497L78.2712 49.1497" stroke="#DEBB35" stroke-width="0.5" stroke-miterlimit="10" stroke-linecap="round" stroke-linejoin="round"/>
<path id="Vector_46" d="M97.1711 32.7495L79.571 50.3495" stroke="#DEBB35" stroke-width="0.5" stroke-miterlimit="10" stroke-linecap="round" stroke-linejoin="round"/>
<path id="Vector_47" d="M94.671 30.2495L77.071 47.9495" stroke="#DEBB35" stroke-width="0.5" stroke-miterlimit="10" stroke-linecap="round" stroke-linejoin="round"/>
<path id="Vector_48" d="M93.4711 29.0498L75.8711 46.6498" stroke="#DEBB35" stroke-width="0.5" stroke-miterlimit="10" stroke-linecap="round" stroke-linejoin="round"/>
<path id="Vector_49" d="M92.2711 27.8496L74.6711 45.4496" stroke="#DEBB35" stroke-width="0.5" stroke-miterlimit="10" stroke-linecap="round" stroke-linejoin="round"/>
<path id="Vector_50" d="M98.3712 33.9497L80.7712 51.5497" stroke="#DEBB35" stroke-width="0.5" stroke-miterlimit="10" stroke-linecap="round" stroke-linejoin="round"/>
<path id="Vector_51" d="M99.5712 35.1494L81.9712 52.7494" stroke="#DEBB35" stroke-width="0.5" stroke-miterlimit="10" stroke-linecap="round" stroke-linejoin="round"/>
<path id="Vector_52" d="M100.771 36.3496L83.1711 53.9496" stroke="#DEBB35" stroke-width="0.5" stroke-miterlimit="10" stroke-linecap="round" stroke-linejoin="round"/>
<path id="Vector_53" d="M102.071 37.5498L84.3711 55.2498" stroke="#DEBB35" stroke-width="0.5" stroke-miterlimit="10" stroke-linecap="round" stroke-linejoin="round"/>
<path id="Vector_54" d="M103.271 38.8496L85.6711 56.4496" stroke="#DEBB35" stroke-width="0.5" stroke-miterlimit="10" stroke-linecap="round" stroke-linejoin="round"/>
<path id="Vector_55" d="M104.471 40.0498L86.8711 57.6498" stroke="#DEBB35" stroke-width="0.5" stroke-miterlimit="10" stroke-linecap="round" stroke-linejoin="round"/>
<path id="Vector_56" d="M105.671 41.2495L88.071 58.8495" stroke="#DEBB35" stroke-width="0.5" stroke-miterlimit="10" stroke-linecap="round" stroke-linejoin="round"/>
</g>
</g>
</g>
</g>
<path id="Vector_57" d="M90.1711 31.5498L82.8711 46.3498H97.4711L90.1711 31.5498Z" stroke="#DEBB35" stroke-miterlimit="10" stroke-linecap="round" stroke-linejoin="round"/>
</g>
<path id="Vector_58" d="M90.1709 5.25V31.55" stroke="#DEBB35" stroke-miterlimit="10" stroke-linecap="round" stroke-linejoin="round"/>
<path id="Vector_59" d="M90.1709 132.05V158.45" stroke="#DEBB35" stroke-miterlimit="10" stroke-linecap="round" stroke-linejoin="round"/>
</g>
<defs>
<filter id="filter0_d_3516_1857" x="0" y="0" width="180.387" height="172.3" filterUnits="userSpaceOnUse" color-interpolation-filters="sRGB">
<feFlood flood-opacity="0" result="BackgroundImageFix"/>
<feColorMatrix in="SourceAlpha" type="matrix" values="0 0 0 0 0 0 0 0 0 0 0 0 0 0 0 0 0 0 127 0" result="hardAlpha"/>
<feOffset dy="4"/>
<feGaussianBlur stdDeviation="2"/>
<feComposite in2="hardAlpha" operator="out"/>
<feColorMatrix type="matrix" values="0 0 0 0 0 0 0 0 0 0 0 0 0 0 0 0 0 0 0.25 0"/>
<feBlend mode="normal" in2="BackgroundImageFix" result="effect1_dropShadow_3516_1857"/>
<feBlend mode="normal" in="SourceGraphic" in2="effect1_dropShadow_3516_1857" result="shape"/>
</filter>
</defs>
</svg>
